<svg xmlns="http://www.w3.org/2000/svg" viewBox="0 0 616 370.05"><defs><style>.cls-1{fill:#4469b0;}.cls-2{fill:#fff;}.cls-3{fill:#e2e2e2;}.cls-4{fill:#598ad8;}.cls-5{fill:#424242;}</style></defs><title>banner-3</title><g id="Layer_2" data-name="Layer 2"><g id="banner"><rect class="cls-1" width="616" height="368"/><path class="cls-2" d="M209.8,50.56a8.91,8.91,0,0,1-3.46-3l2.31-2.7a6.87,6.87,0,0,0,5.81,3.3A4.43,4.43,0,0,0,218,46.76a6.38,6.38,0,0,0,1.21-4.22V26.91H209.17V23.45h14V42.34q0,4.62-2.21,6.94c-1.47,1.56-3.64,2.33-6.5,2.33A10.51,10.51,0,0,1,209.8,50.56Z"/><path class="cls-2" d="M236.26,49.76A13.6,13.6,0,0,1,231,44.65,14,14,0,0,1,229,37.37,14,14,0,0,1,231,30.09,13.6,13.6,0,0,1,236.26,25a16.43,16.43,0,0,1,15.15,0,13.5,13.5,0,0,1,5.29,5.09,14.06,14.06,0,0,1,1.91,7.3,14,14,0,0,1-1.91,7.3,13.5,13.5,0,0,1-5.29,5.09,16.43,16.43,0,0,1-15.15,0Zm13.1-3.08a10.24,10.24,0,0,0,3.86-3.84,11.32,11.32,0,0,0,0-10.94,10.24,10.24,0,0,0-3.86-3.84,10.9,10.9,0,0,0-5.51-1.39,11.16,11.16,0,0,0-5.55,1.39,10.18,10.18,0,0,0-3.89,3.84,11.25,11.25,0,0,0,0,10.94,10.18,10.18,0,0,0,3.89,3.84,11.16,11.16,0,0,0,5.55,1.39A10.9,10.9,0,0,0,249.36,46.68Z"/><rect class="cls-2" x="264.7" y="23.45" width="3.98" height="27.85"/><polygon class="cls-2" points="300.98 23.45 300.98 51.29 297.72 51.29 281.01 30.53 281.01 51.29 277.03 51.29 277.03 23.45 280.29 23.45 297 44.21 297 23.45 300.98 23.45"/><path class="cls-2" d="M325,49.76a13.6,13.6,0,0,1-5.31-5.11,14,14,0,0,1-1.93-7.28,14,14,0,0,1,1.93-7.28A13.6,13.6,0,0,1,325,25a16.43,16.43,0,0,1,15.15,0,13.5,13.5,0,0,1,5.29,5.09,14.06,14.06,0,0,1,1.91,7.3,14,14,0,0,1-1.91,7.3,13.5,13.5,0,0,1-5.29,5.09,16.43,16.43,0,0,1-15.15,0Zm13.1-3.08A10.24,10.24,0,0,0,342,42.84a11.32,11.32,0,0,0,0-10.94,10.24,10.24,0,0,0-3.86-3.84,10.9,10.9,0,0,0-5.51-1.39,11.16,11.16,0,0,0-5.55,1.39,10.18,10.18,0,0,0-3.89,3.84,11.25,11.25,0,0,0,0,10.94,10.18,10.18,0,0,0,3.89,3.84,11.16,11.16,0,0,0,5.55,1.39A10.9,10.9,0,0,0,338.11,46.68Z"/><path class="cls-2" d="M356.31,48.43q-3.1-3.18-3.1-9.15V23.45h4V39.12q0,9,7.83,9a7.55,7.55,0,0,0,5.85-2.21q2-2.2,2-6.74V23.45h3.86V39.28q0,6-3.1,9.17T365,51.61Q359.42,51.61,356.31,48.43Z"/><path class="cls-2" d="M403.53,51.29l-6-8.55c-.74,0-1.32.08-1.75.08h-6.88v8.47h-4V23.45h10.86q5.42,0,8.52,2.58a8.77,8.77,0,0,1,3.1,7.12,9.31,9.31,0,0,1-1.59,5.49,9,9,0,0,1-4.54,3.3l6.61,9.35Zm-2.11-13.48a5.67,5.67,0,0,0,2-4.66,5.6,5.6,0,0,0-2-4.63,8.92,8.92,0,0,0-5.76-1.61h-6.77V39.44h6.77A8.87,8.87,0,0,0,401.42,37.81Z"/><polygon class="cls-2" points="54.93 77.29 54.93 85.37 71.14 85.37 71.14 93.39 54.93 93.39 54.93 105.98 44.54 105.98 44.54 69.26 73.34 69.26 73.34 77.29 54.93 77.29"/><path class="cls-2" d="M101.41,98.85H85.88L83,106H72.4L88.61,69.26H98.84L115.1,106H104.29Zm-3-7.66L93.64,79.44,88.92,91.19Z"/><path class="cls-2" d="M125.46,104.28a18.23,18.23,0,0,1-7.21-6.8,19.86,19.86,0,0,1,0-19.72,18.3,18.3,0,0,1,7.21-6.8,21.79,21.79,0,0,1,10.36-2.43,22.23,22.23,0,0,1,9.08,1.78,17.43,17.43,0,0,1,6.71,5.14l-6.61,6a10.86,10.86,0,0,0-8.65-4.3A10.74,10.74,0,0,0,131,78.44a9.21,9.21,0,0,0-3.62,3.7,12.37,12.37,0,0,0,0,11A9.09,9.09,0,0,0,131,96.8a10.64,10.64,0,0,0,5.33,1.31,10.86,10.86,0,0,0,8.65-4.3l6.61,6a17.33,17.33,0,0,1-6.71,5.14,22.23,22.23,0,0,1-9.08,1.79A21.79,21.79,0,0,1,125.46,104.28Z"/><polygon class="cls-2" points="185.71 97.96 185.71 105.98 156.23 105.98 156.23 69.26 185.03 69.26 185.03 77.29 166.51 77.29 166.51 83.48 182.83 83.48 182.83 91.24 166.51 91.24 166.51 97.96 185.71 97.96"/><path class="cls-2" d="M224.64,90.27a9,9,0,0,1,1.78,5.64,8.46,8.46,0,0,1-3.88,7.45Q218.65,106,211.31,106H191.48V69.26h18.79q7,0,10.7,2.6a8.13,8.13,0,0,1,3.67,7,8.73,8.73,0,0,1-1.29,4.7,8.91,8.91,0,0,1-3.64,3.27A10.31,10.31,0,0,1,224.64,90.27ZM201.77,76.76v7.08h7.13c3.5,0,5.25-1.18,5.25-3.56s-1.75-3.52-5.25-3.52Zm14.16,18q0-3.74-5.46-3.73h-8.7v7.45h8.7Q215.93,98.48,215.93,94.76Z"/><path class="cls-2" d="M239.88,104.25a18.78,18.78,0,0,1,0-33.26,23.49,23.49,0,0,1,20.93,0,18.77,18.77,0,0,1,0,33.26,23.4,23.4,0,0,1-20.93,0Zm15.5-7.45A9.29,9.29,0,0,0,259,93.1a12.12,12.12,0,0,0,0-11,9.42,9.42,0,0,0-3.57-3.7,10.33,10.33,0,0,0-10.07,0,9.56,9.56,0,0,0-3.57,3.7,12.12,12.12,0,0,0,0,11,9.42,9.42,0,0,0,3.57,3.7,10.33,10.33,0,0,0,10.07,0Z"/><path class="cls-2" d="M284.26,104.25a18.78,18.78,0,0,1,0-33.26,23.49,23.49,0,0,1,20.93,0,18.77,18.77,0,0,1,0,33.26,23.4,23.4,0,0,1-20.93,0Zm15.5-7.45a9.29,9.29,0,0,0,3.57-3.7,12.12,12.12,0,0,0,0-11,9.42,9.42,0,0,0-3.57-3.7,10.33,10.33,0,0,0-10.07,0,9.46,9.46,0,0,0-3.56,3.7,12,12,0,0,0,0,11,9.33,9.33,0,0,0,3.56,3.7,10.33,10.33,0,0,0,10.07,0Z"/><polygon class="cls-2" points="334.76 92.66 330.88 96.8 330.88 105.98 320.59 105.98 320.59 69.26 330.88 69.26 330.88 84.53 345.09 69.26 356.53 69.26 341.52 85.52 357.31 105.98 345.25 105.98 334.76 92.66"/><path class="cls-2" d="M399.91,86.83h9.18v15.22a23.8,23.8,0,0,1-7.24,3.46,28.54,28.54,0,0,1-8.18,1.21,22,22,0,0,1-10.39-2.44,18.25,18.25,0,0,1-7.24-6.8,19.86,19.86,0,0,1,0-19.72,18.15,18.15,0,0,1,7.3-6.8,22.46,22.46,0,0,1,10.54-2.43,23.33,23.33,0,0,1,9.23,1.73,17.65,17.65,0,0,1,6.82,5l-6.61,6a11.62,11.62,0,0,0-8.91-4.09,9.88,9.88,0,0,0-10.5,10.49,11.13,11.13,0,0,0,1.31,5.43,9.5,9.5,0,0,0,3.68,3.73,10.76,10.76,0,0,0,5.4,1.33,13.33,13.33,0,0,0,5.61-1.2Z"/><path class="cls-2" d="M431.76,96.23h-5.67V106H415.7V69.26h16.79a21,21,0,0,1,8.66,1.65,12.79,12.79,0,0,1,5.66,4.72,13,13,0,0,1,2,7.22,12.8,12.8,0,0,1-1.86,7,12.62,12.62,0,0,1-5.33,4.64L449.54,106H438.42Zm4.93-17.37a7.2,7.2,0,0,0-4.83-1.42h-5.77V88.2h5.77a7.25,7.25,0,0,0,4.83-1.39,5,5,0,0,0,1.63-4A5,5,0,0,0,436.69,78.86Z"/><path class="cls-2" d="M462.58,104.25a18.78,18.78,0,0,1,0-33.26,23.49,23.49,0,0,1,20.93,0,18.78,18.78,0,0,1,0,33.26,23.4,23.4,0,0,1-20.93,0Zm15.5-7.45a9.42,9.42,0,0,0,3.57-3.7,12.12,12.12,0,0,0,0-11,9.56,9.56,0,0,0-3.57-3.7,10.33,10.33,0,0,0-10.07,0,9.49,9.49,0,0,0-3.57,3.7,12.12,12.12,0,0,0,0,11A9.36,9.36,0,0,0,468,96.8a10.33,10.33,0,0,0,10.07,0Z"/><path class="cls-2" d="M503.13,102.26q-4.53-4.45-4.54-12.64V69.26H509v20q0,8.82,7,8.81t6.92-8.81v-20h10.23V89.62q0,8.17-4.53,12.64t-12.73,4.46Q507.67,106.72,503.13,102.26Z"/><path class="cls-2" d="M565.59,70.91a13,13,0,0,1,0,23.82,21,21,0,0,1-8.66,1.65h-6.4V106H540.14V69.26h16.79A21,21,0,0,1,565.59,70.91Zm-4.46,15.9a4.94,4.94,0,0,0,1.62-4,5,5,0,0,0-1.62-4,7.21,7.21,0,0,0-4.83-1.42h-5.77V88.2h5.77A7.27,7.27,0,0,0,561.13,86.81Z"/><path class="cls-2" d="M327,368V256.18h37.53l5.62-43.58H327V184.78c0-12.61,3.5-21.21,21.6-21.21h23.07v-39A309.45,309.45,0,0,0,338,122.87c-33.27,0-56,20.3-56,57.6v32.14H244.35v43.57H282V368Z"/><rect class="cls-2" x="91.12" y="267.3" width="165.95" height="88.9"/><path class="cls-3" d="M61.49,356.2H286.71a11.85,11.85,0,0,1-11.86,11.85H73.34A11.84,11.84,0,0,1,61.49,356.2Z"/><rect class="cls-1" x="91.12" y="261.37" width="165.95" height="5.93"/><path class="cls-3" d="M91.12,356.2V261.37h166V356.2h11.86V261.37a11.85,11.85,0,0,0-11.86-11.85H91.12a11.84,11.84,0,0,0-11.85,11.85V356.2Z"/><rect class="cls-1" x="97.05" y="279.15" width="82.98" height="41.49"/><rect class="cls-2" x="185.95" y="279.15" width="29.63" height="17.78"/><rect class="cls-1" x="185.95" y="302.86" width="29.63" height="17.78"/><rect class="cls-4" x="185.95" y="326.56" width="29.63" height="17.78"/><path class="cls-5" d="M61.49,356.2v2H286.71v-2h-2a9.85,9.85,0,0,1-9.86,9.85H73.34a9.83,9.83,0,0,1-9.85-9.85h-2v0h-2a13.85,13.85,0,0,0,13.85,13.85H274.85a13.85,13.85,0,0,0,13.86-13.85,2,2,0,0,0-.59-1.42,2,2,0,0,0-1.41-.58H61.49a2,2,0,0,0-2,2Z"/><path class="cls-5" d="M91.12,269.3h166a2,2,0,0,0,0-4H91.12a2,2,0,0,0,0,4"/><path class="cls-5" d="M97.05,320.64v2h83a2,2,0,0,0,2-2V279.15a2,2,0,0,0-2-2h-83a2,2,0,0,0-2,2v41.49a2,2,0,0,0,.58,1.41,2,2,0,0,0,1.42.59v-2h2V281.15h79v37.49h-81v2h0Z"/><path class="cls-5" d="M91.12,356.2h2V263.37h162V356.2a2,2,0,0,0,2,2h11.86a2,2,0,0,0,2-2V261.37a13.84,13.84,0,0,0-13.86-13.85H91.12a13.84,13.84,0,0,0-13.85,13.85V356.2a2,2,0,0,0,.58,1.41,2,2,0,0,0,1.42.59H91.12a2,2,0,0,0,1.42-.59,2,2,0,0,0,.58-1.41h-2v-2H81.27V261.37a9.83,9.83,0,0,1,9.85-9.85h166a9.85,9.85,0,0,1,9.86,9.85V354.2h-7.86V261.37a2,2,0,0,0-2-2H91.12a2,2,0,0,0-2,2V356.2h2v0Z"/><path class="cls-5" d="M97.05,328.56h83a2,2,0,1,0,0-4h-83a2,2,0,0,0,0,4"/><path class="cls-5" d="M174.1,330.49H156.32a2,2,0,0,0,0,4H174.1a2,2,0,1,0,0-4"/><path class="cls-5" d="M150.39,330.49h-5.93a2,2,0,0,0,0,4h5.93a2,2,0,0,0,0-4"/><path class="cls-5" d="M138.54,330.49H120.76a2,2,0,1,0,0,4h17.78a2,2,0,0,0,0-4"/><path class="cls-5" d="M97.05,334.49h17.78a2,2,0,0,0,0-4H97.05a2,2,0,0,0,0,4"/><path class="cls-5" d="M97.05,340.42h65.19a2,2,0,0,0,0-4H97.05a2,2,0,0,0,0,4"/><path class="cls-5" d="M168.17,340.42h5.93a2,2,0,0,0,0-4h-5.93a2,2,0,0,0,0,4"/><path class="cls-5" d="M97.05,346.34h29.63a2,2,0,0,0,0-4H97.05a2,2,0,0,0,0,4"/><path class="cls-5" d="M132.61,346.34h17.78a2,2,0,0,0,0-4H132.61a2,2,0,0,0,0,4"/><path class="cls-5" d="M156.32,346.34H180a2,2,0,1,0,0-4h-23.7a2,2,0,0,0,0,4"/><path class="cls-5" d="M215.58,296.93v-2H188V281.15h25.63v15.78h2v0h2V279.15a2,2,0,0,0-2-2H186a2,2,0,0,0-2,2v17.78a2,2,0,0,0,2,2h29.63a2,2,0,0,0,2-2Z"/><path class="cls-5" d="M221.51,281.15h17.78a2,2,0,0,0,0-4H221.51a2,2,0,0,0,0,4"/><path class="cls-5" d="M245.22,281.15h5.93a2,2,0,0,0,0-4h-5.93a2,2,0,0,0,0,4"/><path class="cls-5" d="M221.51,287.08h11.86a2,2,0,1,0,0-4H221.51a2,2,0,0,0,0,4"/><path class="cls-5" d="M239.29,287.08h5.93a2,2,0,0,0,0-4h-5.93a2,2,0,0,0,0,4"/><path class="cls-5" d="M221.51,293h5.93a2,2,0,1,0,0-4h-5.93a2,2,0,0,0,0,4"/><path class="cls-5" d="M233.37,293h17.78a2,2,0,0,0,0-4H233.37a2,2,0,0,0,0,4"/><path class="cls-5" d="M221.51,298.93h23.71a2,2,0,0,0,0-4H221.51a2,2,0,0,0,0,4"/><path class="cls-5" d="M215.58,320.64v-2H188V304.86h25.63v15.78h2v0h2V302.86a2,2,0,0,0-2-2H186a2,2,0,0,0-2,2v17.78a2,2,0,0,0,.59,1.41,2,2,0,0,0,1.41.59h29.63a2,2,0,0,0,2-2Z"/><path class="cls-5" d="M221.51,304.86h17.78a2,2,0,0,0,0-4H221.51a2,2,0,0,0,0,4"/><path class="cls-5" d="M245.22,304.86h5.93a2,2,0,0,0,0-4h-5.93a2,2,0,0,0,0,4"/><path class="cls-5" d="M221.51,310.78h5.93a2,2,0,1,0,0-4h-5.93a2,2,0,0,0,0,4"/><path class="cls-5" d="M233.37,310.78h11.85a2,2,0,1,0,0-4H233.37a2,2,0,0,0,0,4"/><path class="cls-5" d="M221.51,316.71h11.86a2,2,0,0,0,0-4H221.51a2,2,0,0,0,0,4"/><path class="cls-5" d="M239.29,316.71h11.86a2,2,0,1,0,0-4H239.29a2,2,0,0,0,0,4"/><path class="cls-5" d="M221.51,322.64h23.71a2,2,0,1,0,0-4H221.51a2,2,0,0,0,0,4"/><path class="cls-5" d="M215.58,344.34v-2H188V328.56h25.63v15.78h2v0h2V326.56a2,2,0,0,0-2-2H186a2,2,0,0,0-1.41.59,2,2,0,0,0-.59,1.41v17.78a2,2,0,0,0,2,2h29.63a2,2,0,0,0,2-2Z"/><path class="cls-5" d="M221.51,328.56h11.86a2,2,0,1,0,0-4H221.51a2,2,0,1,0,0,4"/><path class="cls-5" d="M239.29,328.56h11.86a2,2,0,1,0,0-4H239.29a2,2,0,0,0,0,4"/><path class="cls-5" d="M221.51,334.49h11.86a2,2,0,0,0,0-4H221.51a2,2,0,0,0,0,4"/><path class="cls-5" d="M239.29,334.49h5.93a2,2,0,1,0,0-4h-5.93a2,2,0,1,0,0,4"/><path class="cls-5" d="M221.51,340.42h5.93a2,2,0,0,0,0-4h-5.93a2,2,0,0,0,0,4"/><path class="cls-5" d="M233.37,340.42h17.78a2,2,0,1,0,0-4H233.37a2,2,0,1,0,0,4"/><path class="cls-5" d="M221.51,346.34h11.86a2,2,0,1,0,0-4H221.51a2,2,0,1,0,0,4"/><path class="cls-5" d="M239.29,346.34h5.93a2,2,0,0,0,0-4h-5.93a2,2,0,0,0,0,4"/><path class="cls-5" d="M191.88,362.13v-2H158.32V358.2h31.56v3.93h2v0h2V356.2a2,2,0,0,0-.59-1.42,2,2,0,0,0-1.41-.58H156.32a2,2,0,0,0-2,2v5.93a2,2,0,0,0,2,2h35.56a2,2,0,0,0,2-2Z"/><polygon class="cls-2" points="132.61 293.97 132.61 305.82 144.46 299.89 132.61 293.97"/><path class="cls-5" d="M132.61,294h-2v11.85a2,2,0,0,0,2.89,1.79l11.86-5.93a2,2,0,0,0,0-3.58l-11.86-5.92a2,2,0,0,0-2.89,1.79h2l-.9,1.79,8.28,4.13-5.38,2.69V294h-2l-.9,1.79Z"/><path class="cls-5" d="M77.13,370.05h23.71a2,2,0,0,0,0-4H77.13a2,2,0,0,0,0,4"/><polygon class="cls-3" points="439.52 361.89 488.4 361.89 485.35 331.33 442.57 331.33 439.52 361.89"/><path class="cls-3" d="M354,306.89v18.33a6.11,6.11,0,0,0,6.12,6.11H567.84a6.1,6.1,0,0,0,6.11-6.11V306.89Zm110,15.28a3.06,3.06,0,1,1,3.05-3.06A3.06,3.06,0,0,1,464,322.17Z"/><polygon class="cls-3" points="421.18 361.89 421.18 368 506.73 368 506.73 361.89 488.4 361.89 439.52 361.89 421.18 361.89"/><path class="cls-3" d="M464,316.06a3.06,3.06,0,1,0,3.05,3.05A3.06,3.06,0,0,0,464,316.06Z"/><path class="cls-3" d="M567.84,178.57H360.08a6.11,6.11,0,0,0-6.12,6.11V306.89H574V184.68A6.1,6.1,0,0,0,567.84,178.57Z"/><rect class="cls-1" x="360.08" y="184.68" width="207.77" height="116.11"/><path class="cls-2" d="M457.85,172.45H372.3l-6.11,12.23v110H464V178.57A6.12,6.12,0,0,0,457.85,172.45Z"/><path class="cls-2" d="M470.07,172.45h85.55l6.11,12.23v110H464V178.57A6.11,6.11,0,0,1,470.07,172.45Z"/><rect class="cls-3" x="378.41" y="233.56" width="12.22" height="6.11"/><rect class="cls-4" x="408.96" y="233.56" width="6.11" height="6.11"/><rect class="cls-3" x="445.63" y="233.56" width="12.22" height="6.11"/><rect class="cls-4" x="378.41" y="178.57" width="79.44" height="6.11"/><rect class="cls-3" x="470.07" y="178.57" width="79.44" height="6.11"/><rect class="cls-1" x="378.41" y="190.79" width="79.44" height="36.67"/><rect class="cls-1" x="470.07" y="251.89" width="24.44" height="24.44"/><rect class="cls-4" x="470.07" y="221.34" width="24.44" height="24.44"/><rect class="cls-3" x="470.07" y="190.79" width="24.44" height="24.44"/><path class="cls-5" d="M506.73,361.89v-2H421.18a2,2,0,0,0-1.41.58,2,2,0,0,0-.59,1.42V368a2,2,0,0,0,.59,1.41,2,2,0,0,0,1.41.59h85.55a2,2,0,0,0,2-2v-6.11a2,2,0,0,0-2-2v2h-2V366H423.18v-2.11h83.55v-2h0Z"/><path class="cls-5" d="M441.51,362.09l3.05-30.56a2,2,0,1,0-4-.39l-3.05,30.55a2,2,0,0,0,4,.4"/><path class="cls-5" d="M490.39,361.69l-3.05-30.55a2,2,0,1,0-4,.39l3.05,30.56a2,2,0,1,0,4-.4"/><path class="cls-5" d="M360.08,333.33H567.84a2,2,0,0,0,0-4H360.08a2,2,0,0,0,0,4"/><path class="cls-5" d="M352,325.22a8.1,8.1,0,0,0,8.12,8.11,2,2,0,1,0,0-4,4.11,4.11,0,0,1-2.91-1.21,4.07,4.07,0,0,1-1.21-2.91,2,2,0,0,0-4,0Z"/><path class="cls-5" d="M572,325.22a4.1,4.1,0,0,1-4.11,4.11,2,2,0,0,0,0,4,8.1,8.1,0,0,0,8.11-8.11,2,2,0,0,0-4,0Z"/><path class="cls-5" d="M576,325.22V306.89a2,2,0,0,0-4,0v18.33a2,2,0,0,0,4,0"/><path class="cls-5" d="M574,304.89H354a2,2,0,1,0,0,4H574a2,2,0,0,0,0-4"/><path class="cls-5" d="M352,306.89v18.33a2,2,0,0,0,4,0V306.89a2,2,0,0,0-4,0"/><path class="cls-5" d="M467,319.11h-2a1.05,1.05,0,0,1-1.05,1.06,1.06,1.06,0,1,1,0-2.11,1,1,0,0,1,1.05,1.05h4a5.06,5.06,0,1,0-5.05,5.06,5,5,0,0,0,5.05-5.06Z"/><path class="cls-5" d="M368,295.56l6.12-12.22a2,2,0,0,0-3.58-1.79l-6.11,12.23a2,2,0,1,0,3.57,1.78"/><path class="cls-5" d="M374.3,282.45v-110a2,2,0,0,0-4,0v110a2,2,0,0,0,4,0"/><path class="cls-5" d="M370.51,171.56l-6.11,12.22a2,2,0,1,0,3.57,1.79l6.12-12.22a2,2,0,0,0-3.58-1.79"/><path class="cls-5" d="M364.19,184.68v110a2,2,0,0,0,4,0v-110a2,2,0,0,0-4,0"/><path class="cls-5" d="M372.3,174.45h85.55a2,2,0,0,0,0-4H372.3a2,2,0,0,0,0,4"/><path class="cls-5" d="M372.3,284.45h85.55a2,2,0,0,0,0-4H372.3a2,2,0,0,0,0,4"/><path class="cls-5" d="M366.19,296.67H464a2,2,0,0,0,0-4H366.19a2,2,0,0,0,0,4"/><path class="cls-5" d="M466,288.56a8.11,8.11,0,0,0-8.11-8.11,2,2,0,0,0,0,4,4.1,4.1,0,0,1,4.11,4.11,2,2,0,0,0,4,0Z"/><path class="cls-5" d="M466,178.57a8.11,8.11,0,0,0-8.11-8.12,2,2,0,0,0,0,4,4.11,4.11,0,0,1,4.11,4.12,2,2,0,0,0,4,0Z"/><path class="cls-5" d="M563.52,293.78l-6.11-12.23a2,2,0,0,0-3.58,1.79l6.11,12.22a2,2,0,1,0,3.58-1.78"/><path class="cls-5" d="M557.62,282.45v-110a2,2,0,1,0-4,0v110a2,2,0,0,0,4,0"/><path class="cls-5" d="M553.83,173.35l6.11,12.22a2,2,0,0,0,3.58-1.79l-6.11-12.22a2,2,0,0,0-3.58,1.79"/><path class="cls-5" d="M559.73,184.68v110a2,2,0,1,0,4,0v-110a2,2,0,0,0-4,0"/><path class="cls-5" d="M555.62,170.45H470.07a2,2,0,0,0,0,4h85.55a2,2,0,0,0,0-4"/><path class="cls-5" d="M555.62,280.45H470.07a2,2,0,0,0,0,4h85.55a2,2,0,0,0,0-4"/><path class="cls-5" d="M561.73,292.67H464a2,2,0,0,0,0,4h97.77a2,2,0,0,0,0-4"/><path class="cls-5" d="M466,288.56a4.1,4.1,0,0,1,4.11-4.11,2,2,0,0,0,0-4,8.09,8.09,0,0,0-8.11,8.11,2,2,0,0,0,4,0Z"/><path class="cls-5" d="M466,178.57a4.11,4.11,0,0,1,4.11-4.12,2,2,0,0,0,0-4,8.11,8.11,0,0,0-8.11,8.12,2,2,0,0,0,4,0Z"/><path class="cls-5" d="M462,178.57v116.1a2,2,0,0,0,4,0V178.57a2,2,0,0,0-4,0"/><path class="cls-5" d="M356,306.89V184.68a4.11,4.11,0,0,1,4.12-4.11h7.63a2,2,0,0,0,0-4h-7.63a8.11,8.11,0,0,0-8.12,8.11V306.89a2,2,0,0,0,4,0Z"/><path class="cls-5" d="M358.08,184.68v116.1a2,2,0,0,0,4,0V184.68a2,2,0,0,0-4,0"/><path class="cls-5" d="M360.08,186.68h6.11a2,2,0,0,0,0-4h-6.11a2,2,0,0,0,0,4"/><path class="cls-5" d="M360.08,302.78H464a2,2,0,1,0,0-4H360.08a2,2,0,1,0,0,4"/><path class="cls-5" d="M576,306.89V184.68a8.11,8.11,0,0,0-2.37-5.74,8,8,0,0,0-5.74-2.37H560.2a2,2,0,0,0,0,4h7.64a4.1,4.1,0,0,1,4.11,4.11V306.89a2,2,0,0,0,4,0Z"/><path class="cls-5" d="M565.84,184.68v116.1a2,2,0,0,0,4,0V184.68a2,2,0,1,0-4,0"/><path class="cls-5" d="M567.84,182.68h-6.11a2,2,0,0,0,0,4h6.11a2,2,0,0,0,0-4"/><path class="cls-5" d="M567.84,298.78H464a2,2,0,0,0,0,4H567.84a2,2,0,0,0,0-4"/><path class="cls-5" d="M457.85,184.68v-2H380.41v-2.11h75.44v4.11h2v0h2v-6.11a2,2,0,0,0-2-2H378.41a2,2,0,0,0-2,2v6.11a2,2,0,0,0,.58,1.41,2,2,0,0,0,1.42.59h79.44a2,2,0,0,0,2-2Z"/><path class="cls-5" d="M457.85,227.45v-2H380.41V192.79h75.44v34.66h2v0h2V190.79a2,2,0,0,0-2-2H378.41a2,2,0,0,0-2,2v36.66a2,2,0,0,0,2,2h79.44a2,2,0,0,0,1.41-.58,2,2,0,0,0,.59-1.42Z"/><polygon class="cls-2" points="412.78 203.01 412.78 215.23 425 209.12 412.78 203.01"/><path class="cls-5" d="M412.78,203h-2v12.22a2,2,0,0,0,1,1.7,2,2,0,0,0,1.94.09l12.23-6.11a2,2,0,0,0,0-3.58l-12.23-6.11a2,2,0,0,0-2.89,1.79h2l-.89,1.79,8.64,4.32L414.78,212v-9h-2l-.89,1.79Z"/><path class="cls-5" d="M390.63,239.67v-2H380.41v-2.11h8.22v4.11h2v0h2v-6.11a2,2,0,0,0-.59-1.41,2,2,0,0,0-1.41-.59H378.41a2,2,0,0,0-1.42.59,2,2,0,0,0-.58,1.41v6.11a2,2,0,0,0,2,2h12.22a2,2,0,0,0,2-2Z"/><path class="cls-5" d="M402.85,239.67v-2h-4.11v-2.11h2.11v4.11h2v0h2v-6.11a2,2,0,0,0-.59-1.41,2,2,0,0,0-1.41-.59h-6.11a2,2,0,0,0-1.41.59,2,2,0,0,0-.59,1.41v6.11a2,2,0,0,0,2,2h6.11a2,2,0,0,0,2-2Z"/><path class="cls-5" d="M415.07,239.67v-2H411v-2.11h2.11v4.11h2v0h2v-6.11a2,2,0,0,0-.58-1.41,2,2,0,0,0-1.42-.59H409a2,2,0,0,0-1.41.59,2,2,0,0,0-.59,1.41v6.11a2,2,0,0,0,2,2h6.11a2,2,0,0,0,2-2Z"/><path class="cls-5" d="M445.63,239.67v2h12.22a2,2,0,0,0,1.41-.58,2,2,0,0,0,.59-1.42v-6.11a2,2,0,0,0-2-2H445.63a2,2,0,0,0-2,2v6.11a2,2,0,0,0,2,2v-2h2v-4.11h8.22v2.11H445.63v2h0Z"/><path class="cls-5" d="M494.51,215.23v-2H472.07V192.79h20.44v22.44h2v0h2V190.79a2,2,0,0,0-2-2H470.07a2,2,0,0,0-2,2v24.44a2,2,0,0,0,2,2h24.44a2,2,0,0,0,2-2Z"/><path class="cls-5" d="M494.51,245.78v-2H472.07V223.34h20.44v22.44h2v0h2V221.34a2,2,0,0,0-2-2H470.07a2,2,0,0,0-2,2v24.44a2,2,0,0,0,2,2h24.44a2,2,0,0,0,2-2Z"/><path class="cls-5" d="M494.51,276.34v-2H472.07V253.89h20.44v22.45h2v0h2V251.89a2,2,0,0,0-.58-1.41,2,2,0,0,0-1.42-.59H470.07a2,2,0,0,0-1.41.59,2,2,0,0,0-.59,1.41v24.45a2,2,0,0,0,.59,1.41,2,2,0,0,0,1.41.59h24.44a2,2,0,0,0,1.42-.59,2,2,0,0,0,.58-1.41Z"/><path class="cls-5" d="M549.51,178.57v-2H470.07a2,2,0,0,0-2,2v6.11a2,2,0,0,0,.59,1.41,2,2,0,0,0,1.41.59h79.44a2,2,0,0,0,1.41-.59,2,2,0,0,0,.59-1.41v-6.11a2,2,0,0,0-2-2v2h-2v4.11H472.07v-2.11h77.44v-2h0Z"/><path class="cls-5" d="M500.62,192.79h48.89a2,2,0,0,0,0-4H500.62a2,2,0,0,0,0,4"/><path class="cls-5" d="M500.62,198.9h24.45a2,2,0,0,0,0-4H500.62a2,2,0,0,0,0,4"/><path class="cls-5" d="M531.18,198.9h6.11a2,2,0,0,0,0-4h-6.11a2,2,0,0,0,0,4"/><path class="cls-5" d="M500.62,205H543.4a2,2,0,0,0,0-4H500.62a2,2,0,0,0,0,4"/><path class="cls-5" d="M549.51,207.12H525.07a2,2,0,0,0,0,4h24.44a2,2,0,0,0,0-4"/><path class="cls-5" d="M519,207.12h-6.12a2,2,0,0,0,0,4H519a2,2,0,0,0,0-4"/><path class="cls-5" d="M506.73,207.12h-6.11a2,2,0,0,0,0,4h6.11a2,2,0,0,0,0-4"/><path class="cls-5" d="M500.62,223.34H543.4a2,2,0,0,0,0-4H500.62a2,2,0,0,0,0,4"/><path class="cls-5" d="M500.62,229.45h24.45a2,2,0,0,0,0-4H500.62a2,2,0,0,0,0,4"/><path class="cls-5" d="M531.18,229.45h18.33a2,2,0,0,0,0-4H531.18a2,2,0,0,0,0,4"/><path class="cls-5" d="M543.4,231.56H519a2,2,0,0,0,0,4H543.4a2,2,0,0,0,0-4"/><path class="cls-5" d="M512.84,231.56H500.62a2,2,0,0,0,0,4h12.22a2,2,0,0,0,0-4"/><path class="cls-5" d="M500.62,241.67h6.11a2,2,0,0,0,0-4h-6.11a2,2,0,0,0,0,4"/><path class="cls-5" d="M512.84,241.67h18.34a2,2,0,0,0,0-4H512.84a2,2,0,0,0,0,4"/><path class="cls-5" d="M500.62,253.89H519a2,2,0,0,0,0-4H500.62a2,2,0,0,0,0,4"/><path class="cls-5" d="M525.07,253.89h6.11a2,2,0,0,0,0-4h-6.11a2,2,0,0,0,0,4"/><path class="cls-5" d="M537.29,253.89h12.22a2,2,0,0,0,0-4H537.29a2,2,0,0,0,0,4"/><path class="cls-5" d="M543.4,256H500.62a2,2,0,0,0,0,4H543.4a2,2,0,0,0,0-4"/><path class="cls-5" d="M500.62,266.12h6.11a2,2,0,0,0,0-4h-6.11a2,2,0,0,0,0,4"/><path class="cls-5" d="M512.84,266.12h18.34a2,2,0,0,0,0-4H512.84a2,2,0,0,0,0,4"/><path class="cls-5" d="M500.62,272.23h36.67a2,2,0,0,0,0-4H500.62a2,2,0,0,0,0,4"/><path class="cls-5" d="M378.41,247.78H409a2,2,0,0,0,0-4H378.41a2,2,0,0,0,0,4"/><path class="cls-5" d="M415.07,247.78h12.22a2,2,0,0,0,0-4H415.07a2,2,0,0,0,0,4"/><path class="cls-5" d="M433.4,247.78h24.45a2,2,0,0,0,0-4H433.4a2,2,0,0,0,0,4"/><path class="cls-5" d="M451.74,249.89H402.85a2,2,0,0,0,0,4h48.89a2,2,0,0,0,0-4"/><path class="cls-5" d="M396.74,249.89h-6.11a2,2,0,0,0,0,4h6.11a2,2,0,0,0,0-4"/><path class="cls-5" d="M384.52,249.89h-6.11a2,2,0,1,0,0,4h6.11a2,2,0,0,0,0-4"/><path class="cls-5" d="M378.41,260h36.66a2,2,0,0,0,0-4H378.41a2,2,0,0,0,0,4"/><path class="cls-5" d="M421.18,260H433.4a2,2,0,0,0,0-4H421.18a2,2,0,0,0,0,4"/><path class="cls-5" d="M439.52,260h12.22a2,2,0,0,0,0-4H439.52a2,2,0,0,0,0,4"/><path class="cls-5" d="M456.32,262.12h-29a2,2,0,0,0,0,4h29a2,2,0,1,0,0-4"/><path class="cls-5" d="M421.18,262.12h-6.11a2,2,0,0,0,0,4h6.11a2,2,0,0,0,0-4"/><path class="cls-5" d="M409,262.12H396.74a2,2,0,0,0,0,4H409a2,2,0,0,0,0-4"/><path class="cls-5" d="M390.63,262.12H378.41a2,2,0,1,0,0,4h12.22a2,2,0,0,0,0-4"/><path class="cls-5" d="M378.41,272.23h6.11a2,2,0,0,0,0-4h-6.11a2,2,0,0,0,0,4"/><path class="cls-5" d="M390.63,272.23H433.4a2,2,0,0,0,0-4H390.63a2,2,0,0,0,0,4"/><path class="cls-5" d="M439.52,272.23h6.11a2,2,0,0,0,0-4h-6.11a2,2,0,0,0,0,4"/><path class="cls-5" d="M451.74,274.34H427.29a2,2,0,0,0,0,4h24.45a2,2,0,0,0,0-4"/><path class="cls-5" d="M421.18,274.34H409a2,2,0,0,0,0,4h12.22a2,2,0,0,0,0-4"/><path class="cls-5" d="M402.85,274.34h-6.11a2,2,0,0,0,0,4h6.11a2,2,0,0,0,0-4"/><path class="cls-5" d="M390.63,274.34H378.41a2,2,0,0,0,0,4h12.22a2,2,0,0,0,0-4"/><path class="cls-5" d="M500.62,278.34H519a2,2,0,0,0,0-4H500.62a2,2,0,0,0,0,4"/><path class="cls-5" d="M525.07,278.34h24.44a2,2,0,0,0,0-4H525.07a2,2,0,0,0,0,4"/><path class="cls-5" d="M500.62,247.78h12.22a2,2,0,0,0,0-4H500.62a2,2,0,0,0,0,4"/><path class="cls-5" d="M519,247.78H543.4a2,2,0,0,0,0-4H519a2,2,0,0,0,0,4"/><path class="cls-5" d="M500.62,217.23h30.56a2,2,0,0,0,0-4H500.62a2,2,0,0,0,0,4"/><path class="cls-5" d="M537.29,217.23h6.11a2,2,0,0,0,0-4h-6.11a2,2,0,0,0,0,4"/></g></g></svg>