<svg xmlns="http://www.w3.org/2000/svg" viewBox="0 0 616 369.28"><defs><style>.cls-1{fill:#424242;}.cls-2{fill:#fff;}.cls-3{fill:#e2e2e2;}.cls-4{fill:#0c77f8;}</style></defs><title>banner-2</title><g id="Layer_2" data-name="Layer 2"><g id="banner"><rect class="cls-1" width="616" height="368"/><path class="cls-2" d="M237.13,50.64a12.46,12.46,0,0,1-4.59-2.53L234,45a12.13,12.13,0,0,0,4.08,2.32,14.87,14.87,0,0,0,5.11.9,9.24,9.24,0,0,0,5.17-1.17,3.64,3.64,0,0,0,1.71-3.13,3,3,0,0,0-.94-2.32,6.23,6.23,0,0,0-2.3-1.38c-.92-.31-2.21-.67-3.88-1.07a39.4,39.4,0,0,1-5.07-1.51,8.47,8.47,0,0,1-3.31-2.33,6.25,6.25,0,0,1-1.37-4.24,7.09,7.09,0,0,1,1.18-4A8,8,0,0,1,238,24.2a14.51,14.51,0,0,1,5.92-1.07,19,19,0,0,1,4.86.63,13.13,13.13,0,0,1,4.09,1.83l-1.31,3.19a14.33,14.33,0,0,0-3.74-1.69,13.71,13.71,0,0,0-3.9-.58,8.62,8.62,0,0,0-5.07,1.23,3.79,3.79,0,0,0-1.69,3.19,3,3,0,0,0,1,2.32,6.48,6.48,0,0,0,2.36,1.39,34.28,34.28,0,0,0,3.84,1.06,38.49,38.49,0,0,1,5,1.51,8.42,8.42,0,0,1,3.29,2.31A6.08,6.08,0,0,1,254,43.7a7.06,7.06,0,0,1-1.2,4,8,8,0,0,1-3.62,2.87,15,15,0,0,1-6,1A19,19,0,0,1,237.13,50.64Z"/><polygon class="cls-2" points="279.99 47.83 279.99 51.29 259.79 51.29 259.79 23.45 279.44 23.45 279.44 26.91 263.76 26.91 263.76 35.46 277.73 35.46 277.73 38.84 263.76 38.84 263.76 47.83 279.99 47.83"/><polygon class="cls-2" points="286.44 23.45 290.42 23.45 290.42 47.83 305.49 47.83 305.49 51.29 286.44 51.29 286.44 23.45"/><polygon class="cls-2" points="310.07 23.45 314.05 23.45 314.05 47.83 329.12 47.83 329.12 51.29 310.07 51.29 310.07 23.45"/><polygon class="cls-2" points="353.9 47.83 353.9 51.29 333.7 51.29 333.7 23.45 353.35 23.45 353.35 26.91 337.68 26.91 337.68 35.46 351.64 35.46 351.64 38.84 337.68 38.84 337.68 47.83 353.9 47.83"/><path class="cls-2" d="M379,51.29l-6-8.55c-.74,0-1.33.08-1.75.08h-6.88v8.47h-4V23.45h10.86c3.61,0,6.44.86,8.51,2.58a8.78,8.78,0,0,1,3.11,7.12,9.32,9.32,0,0,1-1.6,5.49,9,9,0,0,1-4.53,3.3l6.6,9.35Zm-2.11-13.48a5.7,5.7,0,0,0,2-4.66,5.63,5.63,0,0,0-2-4.63,9,9,0,0,0-5.77-1.61h-6.76V39.44h6.76A8.9,8.9,0,0,0,376.86,37.81Z"/><path class="cls-2" d="M157.54,96.23h-5.67V106H141.49V69.26h16.78a21,21,0,0,1,8.66,1.65,13.37,13.37,0,0,1,5.8,18.89,12.57,12.57,0,0,1-5.33,4.64L175.33,106H164.2Zm4.93-17.37a7.17,7.17,0,0,0-4.82-1.42h-5.78V88.2h5.78a7.22,7.22,0,0,0,4.82-1.39,4.92,4.92,0,0,0,1.63-4A5,5,0,0,0,162.47,78.86Z"/><polygon class="cls-2" points="209.79 97.96 209.79 105.98 180.31 105.98 180.31 69.26 209.11 69.26 209.11 77.29 190.59 77.29 190.59 83.48 206.91 83.48 206.91 91.24 190.59 91.24 190.59 97.96 209.79 97.96"/><path class="cls-2" d="M219.81,105.62a21.5,21.5,0,0,1-6.82-2.94L216.4,95a22,22,0,0,0,5.72,2.62,21.59,21.59,0,0,0,6.4,1q6,0,6-3a2.49,2.49,0,0,0-1.7-2.34,32.22,32.22,0,0,0-5.49-1.6,51.88,51.88,0,0,1-6.92-1.91,11.66,11.66,0,0,1-4.78-3.28,8.9,8.9,0,0,1-2-6.09,10.48,10.48,0,0,1,1.84-6.05,12.21,12.21,0,0,1,5.48-4.28,22.54,22.54,0,0,1,8.94-1.57,31.65,31.65,0,0,1,7.14.81,21.76,21.76,0,0,1,6.19,2.39L240,79.44a21.39,21.39,0,0,0-10.18-2.84,8.54,8.54,0,0,0-4.51.92,2.77,2.77,0,0,0-1.42,2.39,2.36,2.36,0,0,0,1.68,2.2A29.91,29.91,0,0,0,231,83.63a52.11,52.11,0,0,1,6.95,1.92,12.1,12.1,0,0,1,4.77,3.25,8.68,8.68,0,0,1,2,6.06,10.29,10.29,0,0,1-1.84,6,12.5,12.5,0,0,1-5.5,4.28,22.44,22.44,0,0,1-8.92,1.6A34.15,34.15,0,0,1,219.81,105.62Z"/><path class="cls-2" d="M257.56,104.25a18.77,18.77,0,0,1,0-33.26,23.49,23.49,0,0,1,20.93,0,18.78,18.78,0,0,1,0,33.26,23.4,23.4,0,0,1-20.93,0Zm15.5-7.45a9.42,9.42,0,0,0,3.57-3.7,12.12,12.12,0,0,0,0-11,9.56,9.56,0,0,0-3.57-3.7,10.33,10.33,0,0,0-10.07,0,9.42,9.42,0,0,0-3.57,3.7,12.12,12.12,0,0,0,0,11A9.29,9.29,0,0,0,263,96.8a10.33,10.33,0,0,0,10.07,0Z"/><path class="cls-2" d="M298.11,102.26q-4.55-4.45-4.54-12.64V69.26H304v20q0,8.82,7,8.81t6.92-8.81v-20h10.23V89.62q0,8.17-4.54,12.64t-12.72,4.46C305.38,106.72,301.13,105.23,298.11,102.26Z"/><path class="cls-2" d="M351.17,96.23h-5.66V106H335.12V69.26h16.79a21,21,0,0,1,8.66,1.65,13.37,13.37,0,0,1,5.79,18.89A12.54,12.54,0,0,1,361,94.44L369,106H357.84Zm4.94-17.37a7.21,7.21,0,0,0-4.83-1.42h-5.77V88.2h5.77a7.27,7.27,0,0,0,4.83-1.39,4.94,4.94,0,0,0,1.62-4A5,5,0,0,0,356.11,78.86Z"/><path class="cls-2" d="M381.89,104.28a18.23,18.23,0,0,1-7.21-6.8,19.8,19.8,0,0,1,0-19.72,18.3,18.3,0,0,1,7.21-6.8,21.79,21.79,0,0,1,10.36-2.43,22.26,22.26,0,0,1,9.08,1.78A17.43,17.43,0,0,1,408,75.45l-6.61,6a10.86,10.86,0,0,0-8.65-4.3,10.74,10.74,0,0,0-5.33,1.31,9.21,9.21,0,0,0-3.62,3.7,12.37,12.37,0,0,0,0,11,9.09,9.09,0,0,0,3.62,3.7,10.64,10.64,0,0,0,5.33,1.31,10.86,10.86,0,0,0,8.65-4.3l6.61,6a17.33,17.33,0,0,1-6.71,5.14,22.26,22.26,0,0,1-9.08,1.79A21.79,21.79,0,0,1,381.89,104.28Z"/><polygon class="cls-2" points="442.14 97.96 442.14 105.98 412.66 105.98 412.66 69.26 441.46 69.26 441.46 77.29 422.94 77.29 422.94 83.48 439.26 83.48 439.26 91.24 422.94 91.24 422.94 97.96 442.14 97.96"/><path class="cls-2" d="M452.16,105.62a21.5,21.5,0,0,1-6.82-2.94L448.75,95a22.13,22.13,0,0,0,5.72,2.62,21.59,21.59,0,0,0,6.4,1q6,0,6-3a2.49,2.49,0,0,0-1.7-2.34,32.33,32.33,0,0,0-5.48-1.6,51.65,51.65,0,0,1-6.93-1.91A11.63,11.63,0,0,1,448,86.52a8.85,8.85,0,0,1-2-6.09,10.48,10.48,0,0,1,1.84-6.05,12.21,12.21,0,0,1,5.48-4.28,22.55,22.55,0,0,1,8.95-1.57,31.63,31.63,0,0,1,7.13.81,21.76,21.76,0,0,1,6.19,2.39l-3.2,7.71a21.39,21.39,0,0,0-10.18-2.84,8.57,8.57,0,0,0-4.51.92,2.77,2.77,0,0,0-1.42,2.39,2.36,2.36,0,0,0,1.68,2.2,29.91,29.91,0,0,0,5.41,1.52,52.11,52.11,0,0,1,7,1.92,12,12,0,0,1,4.77,3.25,8.68,8.68,0,0,1,2,6.06,10.35,10.35,0,0,1-1.83,6,12.53,12.53,0,0,1-5.51,4.28,22.4,22.4,0,0,1-8.92,1.6A34.21,34.21,0,0,1,452.16,105.62Z"/><path class="cls-3" d="M65.53,367.28H341.3V91.51Zm253.41-22.36H125.16L318.94,151.14Z"/><path class="cls-1" d="M65.53,367.28v2H341.3a2,2,0,0,0,2-2V91.51a2,2,0,0,0-3.41-1.41L64.12,365.87a2,2,0,0,0,1.41,3.41v-2L67,368.7,339.3,96.34V365.28H65.53v2L67,368.7Zm253.41-22.36v-2H130l187-187v189h2v0h2V151.14a2,2,0,0,0-3.41-1.42L123.74,343.51a2,2,0,0,0,1.42,3.41H318.94a2,2,0,0,0,2-2Z"/><path class="cls-1" d="M337.58,354.38h3.72a2,2,0,1,0,0-4h-3.72a2,2,0,0,0,0,4"/><path class="cls-1" d="M337.58,346.92h3.72a2,2,0,0,0,0-4h-3.72a2,2,0,0,0,0,4"/><path class="cls-1" d="M337.58,339.47h3.72a2,2,0,0,0,0-4h-3.72a2,2,0,1,0,0,4"/><path class="cls-1" d="M337.58,332h3.72a2,2,0,0,0,0-4h-3.72a2,2,0,1,0,0,4"/><path class="cls-1" d="M337.58,324.56h3.72a2,2,0,0,0,0-4h-3.72a2,2,0,0,0,0,4"/><path class="cls-1" d="M337.58,317.11h3.72a2,2,0,1,0,0-4h-3.72a2,2,0,0,0,0,4"/><path class="cls-1" d="M337.58,309.66h3.72a2,2,0,0,0,0-4h-3.72a2,2,0,0,0,0,4"/><path class="cls-1" d="M337.58,302.2h3.72a2,2,0,0,0,0-4h-3.72a2,2,0,0,0,0,4"/><path class="cls-1" d="M337.58,294.75h3.72a2,2,0,0,0,0-4h-3.72a2,2,0,1,0,0,4"/><path class="cls-1" d="M337.58,287.3h3.72a2,2,0,0,0,0-4h-3.72a2,2,0,0,0,0,4"/><path class="cls-1" d="M337.58,279.84h3.72a2,2,0,0,0,0-4h-3.72a2,2,0,0,0,0,4"/><path class="cls-1" d="M337.58,272.39h3.72a2,2,0,1,0,0-4h-3.72a2,2,0,0,0,0,4"/><path class="cls-1" d="M337.58,264.94h3.72a2,2,0,0,0,0-4h-3.72a2,2,0,0,0,0,4"/><path class="cls-1" d="M337.58,257.48h3.72a2,2,0,0,0,0-4h-3.72a2,2,0,1,0,0,4"/><path class="cls-1" d="M337.58,250h3.72a2,2,0,0,0,0-4h-3.72a2,2,0,0,0,0,4"/><path class="cls-1" d="M337.58,242.58h3.72a2,2,0,0,0,0-4h-3.72a2,2,0,0,0,0,4"/><path class="cls-1" d="M337.58,235.12h3.72a2,2,0,1,0,0-4h-3.72a2,2,0,0,0,0,4"/><path class="cls-1" d="M337.58,227.67h3.72a2,2,0,0,0,0-4h-3.72a2,2,0,0,0,0,4"/><path class="cls-1" d="M337.58,220.22h3.72a2,2,0,0,0,0-4h-3.72a2,2,0,0,0,0,4"/><path class="cls-1" d="M337.58,212.76h3.72a2,2,0,0,0,0-4h-3.72a2,2,0,1,0,0,4"/><path class="cls-1" d="M337.58,205.31h3.72a2,2,0,0,0,0-4h-3.72a2,2,0,0,0,0,4"/><path class="cls-1" d="M337.58,197.86h3.72a2,2,0,1,0,0-4h-3.72a2,2,0,0,0,0,4"/><path class="cls-1" d="M337.58,190.4h3.72a2,2,0,0,0,0-4h-3.72a2,2,0,0,0,0,4"/><path class="cls-1" d="M337.58,183h3.72a2,2,0,0,0,0-4h-3.72a2,2,0,0,0,0,4"/><path class="cls-1" d="M337.58,175.5h3.72a2,2,0,0,0,0-4h-3.72a2,2,0,0,0,0,4"/><path class="cls-1" d="M337.58,168h3.72a2,2,0,0,0,0-4h-3.72a2,2,0,0,0,0,4"/><path class="cls-1" d="M337.58,160.59h3.72a2,2,0,0,0,0-4h-3.72a2,2,0,0,0,0,4"/><path class="cls-1" d="M337.58,153.14h3.72a2,2,0,0,0,0-4h-3.72a2,2,0,0,0,0,4"/><path class="cls-1" d="M337.58,145.68h3.72a2,2,0,0,0,0-4h-3.72a2,2,0,0,0,0,4"/><path class="cls-1" d="M337.58,138.23h3.72a2,2,0,0,0,0-4h-3.72a2,2,0,0,0,0,4"/><path class="cls-1" d="M337.58,130.78h3.72a2,2,0,0,0,0-4h-3.72a2,2,0,0,0,0,4"/><path class="cls-1" d="M337.58,123.33h3.72a2,2,0,0,0,0-4h-3.72a2,2,0,0,0,0,4"/><path class="cls-1" d="M337.58,115.87h3.72a2,2,0,0,0,0-4h-3.72a2,2,0,0,0,0,4"/><path class="cls-1" d="M341.3,357.83H73a2,2,0,0,0,0,4H341.3a2,2,0,0,0,0-4"/><rect class="cls-3" x="288.69" y="359.28" width="64" height="8"/><path class="cls-1" d="M432.69,231.28h-64a32,32,0,0,1,64,0Z"/><path class="cls-3" d="M306.69,359.28v-8a2,2,0,0,0-4,0v8a2,2,0,0,0,4,0"/><path class="cls-3" d="M296.69,353.28h24a2,2,0,1,0,0-4h-24a2,2,0,0,0,0,4"/><path class="cls-3" d="M310.69,351.28v6a2,2,0,0,0,4,0v-6a2,2,0,0,0-4,0"/><path class="cls-3" d="M281,249.76,318.82,352a2,2,0,0,0,3.75-1.39L284.79,248.37a2,2,0,0,0-3.75,1.39"/><path class="cls-3" d="M275.84,235.68l5.2,14.08a2,2,0,1,0,3.75-1.39l-5.2-14.07a2,2,0,0,0-3.75,1.38"/><path class="cls-3" d="M267,255l35.86,97a2,2,0,1,0,3.75-1.39l-35.85-97A2,2,0,1,0,267,255"/><path class="cls-3" d="M261.76,240.89,267,255a2,2,0,1,0,3.76-1.38l-5.21-14.08a2,2,0,0,0-3.75,1.39"/><path class="cls-3" d="M352,205.41l-75,27.71a2,2,0,0,0,1.39,3.75l75-27.71a2,2,0,0,0,1.18-2.57,2,2,0,0,0-2.57-1.18"/><path class="cls-3" d="M264.33,242.07l14.08-5.2a2,2,0,1,0-1.39-3.75l-14.08,5.2a2,2,0,0,0,1.39,3.75"/><path class="cls-3" d="M282.23,247.19l-14.08,5.2a2,2,0,0,0,1.38,3.76l14.08-5.21a2,2,0,0,0-1.38-3.75"/><path class="cls-3" d="M283.61,250.94l69.78-25.78a2,2,0,1,0-1.39-3.75l-69.77,25.78a2,2,0,1,0,1.38,3.75"/><path class="cls-3" d="M354.69,223.28v-16a2,2,0,0,0-4,0v16a2,2,0,1,0,4,0"/><path class="cls-3" d="M351.28,208.7l8,8a2,2,0,1,0,2.83-2.83l-8-8a2,2,0,0,0-2.83,2.83"/><path class="cls-3" d="M359.28,213.87l-8,8a2,2,0,0,0,2.83,2.83l8-8a2,2,0,1,0-2.83-2.83"/><path class="cls-3" d="M360.69,217.28H373a2,2,0,0,0,0-4h-12.3a2,2,0,0,0,0,4"/><path class="cls-3" d="M432.69,231.28v-2h-64v2h2a30,30,0,1,1,60,0h2v0h2a34,34,0,0,0-68,0,2,2,0,0,0,.59,1.42,2,2,0,0,0,1.41.58h64a2,2,0,0,0,2-2Z"/><path class="cls-3" d="M370.69,225.28h60a2,2,0,0,0,0-4h-60a2,2,0,0,0,0,4"/><path class="cls-1" d="M352.69,367.28v-2h-62v-4h60v6h2v0h2v-8a2,2,0,0,0-.58-1.41,2,2,0,0,0-1.42-.59h-64a2,2,0,0,0-2,2v8a2,2,0,0,0,.59,1.42,2,2,0,0,0,1.41.58h64a2,2,0,0,0,2-2Z"/><rect class="cls-3" x="311.64" y="335.28" width="152" height="32"/><polygon class="cls-2" points="534.47 127.28 518.47 175.28 550.47 175.28 534.47 127.28"/><path class="cls-1" d="M534.47,127.28l-1.9-.63-16,48a2,2,0,0,0,1.9,2.63h32a2,2,0,0,0,1.9-2.63l-16-48a2,2,0,0,0-3.8,0l1.9.63-1.9.63,15.12,45.37H521.24l15.13-45.37-1.9-.63-1.9.63Z"/><polygon class="cls-4" points="534.47 127.28 529.13 143.28 539.8 143.28 534.47 127.28"/><rect class="cls-3" x="518.47" y="175.28" width="32" height="192"/><path class="cls-1" d="M550.47,367.28v-2h-30v-188h28v190h2v0h2v-192a2,2,0,0,0-2-2h-32a2,2,0,0,0-1.42.59,2,2,0,0,0-.58,1.41v192a2,2,0,0,0,2,2h32a2,2,0,0,0,1.41-.58,2,2,0,0,0,.59-1.42Z"/><path class="cls-1" d="M534.47,127.28l-1.9-.63-16,48a2,2,0,0,0,1.9,2.63h32a2,2,0,0,0,1.9-2.63l-16-48a2,2,0,0,0-3.8,0l1.9.63-1.9.63,15.12,45.37H521.24l15.13-45.37-1.9-.63-1.9.63Z"/><path class="cls-1" d="M529.13,145.28H539.8a2,2,0,0,0,0-4H529.13a2,2,0,0,0,0,4"/><path class="cls-1" d="M524.47,175.28v192a2,2,0,0,0,4,0v-192a2,2,0,1,0-4,0"/><path class="cls-1" d="M540.47,175.28v192a2,2,0,0,0,4,0v-192a2,2,0,1,0-4,0"/><polygon class="cls-4" points="185.3 367.28 193.3 367.28 197.3 239.28 181.3 239.28 185.3 367.28"/><polygon class="cls-3" points="183.3 191.28 181.3 239.28 197.3 239.28 195.3 191.28 183.3 191.28"/><path class="cls-4" d="M197.3,183.28a8,8,0,1,1-16,0c0-4.42,2.89-14.28,11.25-24.75C191.3,170,197.3,178.86,197.3,183.28Z"/><path class="cls-1" d="M195.3,229.28h-12a2,2,0,0,0,0,4h12a2,2,0,0,0,0-4"/><path class="cls-1" d="M181.3,241.28h16a2,2,0,0,0,0-4h-16a2,2,0,0,0,0,4"/><path class="cls-1" d="M197.3,183.28h-2a6,6,0,0,1-12,0,17.86,17.86,0,0,1,.53-3.8c1.12-4.8,4.19-12.08,10.28-19.7l-1.56-1.25-2-.21a33,33,0,0,0-.18,3.39A42.16,42.16,0,0,0,193,175.37c.62,1.86,1.24,3.5,1.68,4.87a11.29,11.29,0,0,1,.67,3h4a14.8,14.8,0,0,0-.86-4.27c-.73-2.25-1.75-4.81-2.58-7.71a34.61,34.61,0,0,1-1.48-9.59,27.35,27.35,0,0,1,.16-3,2,2,0,0,0-3.55-1.47,62.33,62.33,0,0,0-9.05,15.14,40.24,40.24,0,0,0-2,6.15,20.9,20.9,0,0,0-.64,4.71,10,10,0,1,0,20,0Z"/><path class="cls-1" d="M195.3,191.28l-2,.09,2,47.92-3.94,126h-4.12l-3.94-126,1.92-46H195.3v-2l-2,.09,2-.09v-2h-12a2,2,0,0,0-2,1.92l-2,48v.14l4,128a2,2,0,0,0,2,1.94h8a2,2,0,0,0,2-1.94l4-128v-.14l-2-48a2,2,0,0,0-2-1.92Z"/><polygon class="cls-2" points="229.3 103.28 213.3 151.28 245.3 151.28 229.3 103.28"/><path class="cls-1" d="M229.3,103.28l-1.9-.63-16,48a2,2,0,0,0,1.9,2.63h32a2,2,0,0,0,1.9-2.63l-16-48a2,2,0,0,0-3.8,0l1.9.63-1.9.63,15.13,45.37H216.08l15.12-45.37-1.9-.63-1.9.63Z"/><polygon class="cls-4" points="229.3 103.28 223.97 119.28 234.64 119.28 229.3 103.28"/><rect class="cls-4" x="213.3" y="151.28" width="32" height="216"/><path class="cls-1" d="M245.3,367.28v-2h-30v-212h28v214h2v0h2v-216a2,2,0,0,0-.58-1.41,2,2,0,0,0-1.42-.59h-32a2,2,0,0,0-2,2v216a2,2,0,0,0,.59,1.42,2,2,0,0,0,1.41.58h32a2,2,0,0,0,2-2Z"/><path class="cls-1" d="M229.3,103.28l-1.9-.63-16,48a2,2,0,0,0,1.9,2.63h32a2,2,0,0,0,1.9-2.63l-16-48a2,2,0,0,0-3.8,0l1.9.63-1.9.63,15.13,45.37H216.08l15.12-45.37-1.9-.63-1.9.63Z"/><path class="cls-1" d="M224,121.28h10.67a2,2,0,0,0,0-4H224a2,2,0,0,0,0,4"/><path class="cls-1" d="M219.3,151.28v216a2,2,0,0,0,4,0v-216a2,2,0,0,0-4,0"/><path class="cls-1" d="M235.3,151.28v216a2,2,0,0,0,4,0v-216a2,2,0,0,0-4,0"/><rect class="cls-3" x="485.47" y="239.28" width="40" height="120"/><rect class="cls-4" x="485.47" y="231.28" width="40" height="8"/><rect class="cls-4" x="485.47" y="359.28" width="40" height="8"/><polygon class="cls-4" points="509.47 207.28 501.47 207.28 489.47 223.28 489.47 231.28 521.47 231.28 521.47 223.28 509.47 207.28"/><polyline class="cls-4" points="501.47 207.28 501.47 199.28 509.47 195.28 509.47 207.28"/><path class="cls-1" d="M525.47,359.28v-2h-40a2,2,0,0,0-1.42.59,2,2,0,0,0-.58,1.41v8a2,2,0,0,0,2,2h40a2,2,0,0,0,1.41-.58,2,2,0,0,0,.59-1.42v-8a2,2,0,0,0-2-2v2h-2v6h-36v-4h38v-2h0Z"/><path class="cls-1" d="M525.47,239.28v-2h-40a2,2,0,0,0-1.42.59,2,2,0,0,0-.58,1.41v120a2,2,0,0,0,2,2h40a2,2,0,0,0,1.41-.58,2,2,0,0,0,.59-1.42v-120a2,2,0,0,0-2-2v2h-2v118h-36v-116h38v-2h0Z"/><path class="cls-1" d="M525.47,231.28v-2h-40a2,2,0,0,0-1.42.59,2,2,0,0,0-.58,1.41v8a2,2,0,0,0,2,2h40a2,2,0,0,0,1.41-.58,2,2,0,0,0,.59-1.42v-8a2,2,0,0,0-2-2v2h-2v6h-36v-4h38v-2h0Z"/><path class="cls-1" d="M503.47,207.28v-6.76l4-2v8.76a2,2,0,0,0,4,0v-12a2,2,0,0,0-2.9-1.79l-8,4a2,2,0,0,0-1.1,1.79v8a2,2,0,0,0,4,0Z"/><path class="cls-1" d="M501.47,209.28h8a2,2,0,0,0,0-4h-8a2,2,0,0,0,0,4"/><path class="cls-1" d="M491.47,231.28V224l11-14.67h6l11,14.67v7.33a2,2,0,0,0,4,0v-8a2,2,0,0,0-.4-1.2l-12-16a2,2,0,0,0-1.6-.8h-8a2,2,0,0,0-1.6.8l-12,16a2,2,0,0,0-.4,1.2v8a2,2,0,0,0,4,0Z"/><path class="cls-1" d="M489.47,225.28h20a2,2,0,0,0,0-4h-20a2,2,0,0,0,0,4"/><path class="cls-1" d="M521.47,221.28h-6a2,2,0,0,0,0,4h6a2,2,0,0,0,0-4"/><path class="cls-2" d="M495.47,351.28v-92a2,2,0,0,0-4,0v92a2,2,0,0,0,4,0"/><path class="cls-2" d="M491.47,247.28v4a2,2,0,0,0,4,0v-4a2,2,0,1,0-4,0"/><rect class="cls-3" x="311.64" y="287.28" width="144" height="16"/><rect class="cls-4" x="303.64" y="303.28" width="160" height="16"/><rect class="cls-3" x="319.64" y="319.28" width="152" height="16"/><rect class="cls-3" x="351.64" y="335.28" width="104" height="32"/><rect class="cls-2" x="319.64" y="335.28" width="32" height="32"/><circle class="cls-3" cx="335.64" cy="351.28" r="8"/><path class="cls-1" d="M463.64,335.28v-2h-152a2,2,0,0,0-1.42.59,2,2,0,0,0-.58,1.41v32a2,2,0,0,0,2,2h152a2,2,0,0,0,1.41-.58,2,2,0,0,0,.59-1.42v-32a2,2,0,0,0-2-2v2h-2v30h-148v-28h150v-2h0Z"/><path class="cls-1" d="M471.64,319.28v-2h-152a2,2,0,0,0-1.42.59,2,2,0,0,0-.58,1.41v16a2,2,0,0,0,2,2h152a2,2,0,0,0,1.41-.58,2,2,0,0,0,.59-1.42v-16a2,2,0,0,0-2-2v2h-2v14h-148v-12h150v-2h0Z"/><path class="cls-1" d="M303.64,303.28v2h158v12h-156v-14h-2v0h-2v16a2,2,0,0,0,2,2h160a2,2,0,0,0,1.41-.58,2,2,0,0,0,.59-1.42v-16a2,2,0,0,0-2-2h-160a2,2,0,0,0-1.42.59,2,2,0,0,0-.58,1.41Z"/><path class="cls-1" d="M455.64,287.28v-2h-144a2,2,0,0,0-1.42.59,2,2,0,0,0-.58,1.41v16a2,2,0,0,0,2,2h144a2,2,0,0,0,1.41-.58,2,2,0,0,0,.59-1.42v-16a2,2,0,0,0-2-2v2h-2v14h-140v-12h142v-2h0Z"/><path class="cls-1" d="M343.64,351.28h-2a6,6,0,1,1-1.76-4.24,5.94,5.94,0,0,1,1.76,4.24h4a10,10,0,1,0-10,10,10,10,0,0,0,10-10Z"/><path class="cls-1" d="M349.64,335.28v32a2,2,0,0,0,4,0v-32a2,2,0,0,0-4,0"/><path class="cls-1" d="M321.64,367.28v-32a2,2,0,0,0-4,0v32a2,2,0,0,0,4,0"/><path class="cls-1" d="M359.64,353.28h24a2,2,0,0,0,0-4h-24a2,2,0,0,0,0,4"/><path class="cls-1" d="M391.64,353.28h48a2,2,0,0,0,0-4h-48a2,2,0,0,0,0,4"/><path class="cls-1" d="M457.64,367.28v-32a2,2,0,0,0-4,0v32a2,2,0,0,0,4,0"/><path class="cls-1" d="M329.64,303.28v-16a2,2,0,0,0-4,0v16a2,2,0,0,0,4,0"/><path class="cls-1" d="M441.64,303.28v-16a2,2,0,0,0-4,0v16a2,2,0,0,0,4,0"/><path class="cls-1" d="M319.64,313.28h128a2,2,0,0,0,0-4h-128a2,2,0,0,0,0,4"/></g></g></svg>