<svg xmlns="http://www.w3.org/2000/svg" viewBox="0 0 616 370"><defs><style>.cls-1{fill:#0c77f8;}.cls-2{fill:#fff;}.cls-3{fill:#e2e2e2;}.cls-4{fill:#424242;}.cls-5{fill:#b5b5b5;}</style></defs><title>banner-1</title><g id="Layer_2" data-name="Layer 2"><g id="banner"><rect class="cls-1" width="616" height="368"/><polygon class="cls-2" points="102.66 26.91 102.66 36.61 116.62 36.61 116.62 40.03 102.66 40.03 102.66 51.29 98.68 51.29 98.68 23.45 118.33 23.45 118.33 26.91 102.66 26.91"/><path class="cls-2" d="M142.56,51.29l-6-8.55c-.74,0-1.33.08-1.75.08h-6.88v8.47h-4V23.45H134.8q5.4,0,8.51,2.58a8.77,8.77,0,0,1,3.1,7.12,9.31,9.31,0,0,1-1.59,5.49,9,9,0,0,1-4.53,3.3l6.6,9.35Zm-2.11-13.48a5.7,5.7,0,0,0,2-4.66,5.63,5.63,0,0,0-2-4.63,9,9,0,0,0-5.77-1.61h-6.76V39.44h6.76A8.9,8.9,0,0,0,140.45,37.81Z"/><polygon class="cls-2" points="173.07 47.83 173.07 51.29 152.86 51.29 152.86 23.45 172.51 23.45 172.51 26.91 156.84 26.91 156.84 35.46 170.8 35.46 170.8 38.84 156.84 38.84 156.84 47.83 173.07 47.83"/><path class="cls-2" d="M208.07,53.84a9.28,9.28,0,0,1-3.14,2.43,9.1,9.1,0,0,1-3.86.83,10.1,10.1,0,0,1-4.91-1.25,23.54,23.54,0,0,1-5.23-4.28,14.85,14.85,0,0,1-7.1-2.11,13.57,13.57,0,0,1-4.94-5.07,14.75,14.75,0,0,1,.16-14.3A13.73,13.73,0,0,1,184.36,25a16.45,16.45,0,0,1,15.16,0,13.56,13.56,0,0,1,5.29,5.09,14.15,14.15,0,0,1,1.91,7.3,14.45,14.45,0,0,1-1.37,6.29,13.49,13.49,0,0,1-3.86,4.81,14.43,14.43,0,0,1-5.71,2.7,10.17,10.17,0,0,0,2.69,2.13,5.73,5.73,0,0,0,2.64.66,6.64,6.64,0,0,0,5.09-2.39Zm-25.56-11a10.2,10.2,0,0,0,3.9,3.84A11.16,11.16,0,0,0,192,48.07a10.93,10.93,0,0,0,5.49-1.39,10.15,10.15,0,0,0,3.88-3.84,11.32,11.32,0,0,0,0-10.94,10.15,10.15,0,0,0-3.88-3.84A10.93,10.93,0,0,0,192,26.67a11.16,11.16,0,0,0-5.55,1.39,10.2,10.2,0,0,0-3.9,3.84,11.32,11.32,0,0,0,0,10.94Z"/><path class="cls-2" d="M215.67,48.43q-3.1-3.18-3.1-9.15V23.45h4V39.12q0,9,7.83,9a7.55,7.55,0,0,0,5.85-2.21q2-2.2,2-6.74V23.45h3.86V39.28q0,6-3.1,9.17t-8.68,3.16Q218.77,51.61,215.67,48.43Z"/><polygon class="cls-2" points="264.48 47.83 264.48 51.29 244.27 51.29 244.27 23.45 263.92 23.45 263.92 26.91 248.25 26.91 248.25 35.46 262.21 35.46 262.21 38.84 248.25 38.84 248.25 47.83 264.48 47.83"/><polygon class="cls-2" points="294.87 23.45 294.87 51.29 291.61 51.29 274.9 30.53 274.9 51.29 270.93 51.29 270.93 23.45 274.19 23.45 290.89 44.21 290.89 23.45 294.87 23.45"/><polygon class="cls-2" points="308.76 26.91 299.21 26.91 299.21 23.45 322.24 23.45 322.24 26.91 312.69 26.91 312.69 51.29 308.76 51.29 308.76 26.91"/><polygon class="cls-2" points="326.58 23.45 330.56 23.45 330.56 47.83 345.63 47.83 345.63 51.29 326.58 51.29 326.58 23.45"/><polygon class="cls-2" points="357.96 41.67 357.96 51.29 354.03 51.29 354.03 41.59 342.97 23.45 347.22 23.45 356.13 38.13 365.08 23.45 369.02 23.45 357.96 41.67"/><path class="cls-2" d="M401.48,44.33H386.69l-3.07,7h-4.1l12.61-27.84h3.94l12.65,27.84h-4.17Zm-1.39-3.18-6-13.65-6,13.65Z"/><path class="cls-2" d="M414.91,50.64a12.6,12.6,0,0,1-4.6-2.53l1.48-3.1a12.17,12.17,0,0,0,4.07,2.32,15,15,0,0,0,5.12.9,9.24,9.24,0,0,0,5.17-1.17,3.64,3.64,0,0,0,1.71-3.13,3,3,0,0,0-.94-2.32,6.19,6.19,0,0,0-2.31-1.38c-.91-.31-2.2-.67-3.87-1.07a40.12,40.12,0,0,1-5.08-1.51,8.51,8.51,0,0,1-3.3-2.33A6.25,6.25,0,0,1,411,31.08a7.16,7.16,0,0,1,1.17-4,8.1,8.1,0,0,1,3.56-2.87,14.59,14.59,0,0,1,5.93-1.07,18.87,18.87,0,0,1,4.85.63,13.09,13.09,0,0,1,4.1,1.83l-1.31,3.19a14.33,14.33,0,0,0-3.74-1.69,13.81,13.81,0,0,0-3.9-.58,8.62,8.62,0,0,0-5.07,1.23,3.79,3.79,0,0,0-1.69,3.19,3,3,0,0,0,.95,2.32,6.61,6.61,0,0,0,2.37,1.39,34.28,34.28,0,0,0,3.84,1.06,39,39,0,0,1,5.05,1.51,8.39,8.39,0,0,1,3.28,2.31,6,6,0,0,1,1.38,4.18,7.06,7.06,0,0,1-1.2,4,8,8,0,0,1-3.62,2.87,15,15,0,0,1-6,1A19,19,0,0,1,414.91,50.64Z"/><polygon class="cls-2" points="446.63 38.92 441.54 44.09 441.54 51.29 437.56 51.29 437.56 23.45 441.54 23.45 441.54 39 456.66 23.45 461.19 23.45 449.3 35.98 461.95 51.29 457.29 51.29 446.63 38.92"/><polygon class="cls-2" points="486.37 47.83 486.37 51.29 466.17 51.29 466.17 23.45 485.82 23.45 485.82 26.91 470.14 26.91 470.14 35.46 484.11 35.46 484.11 38.84 470.14 38.84 470.14 47.83 486.37 47.83"/><path class="cls-2" d="M492.82,23.45h11.73a16.92,16.92,0,0,1,7.84,1.75,12.8,12.8,0,0,1,5.31,4.91,13.89,13.89,0,0,1,1.89,7.26,13.89,13.89,0,0,1-1.89,7.26,12.8,12.8,0,0,1-5.31,4.91,16.92,16.92,0,0,1-7.84,1.75H492.82Zm11.49,24.38a12.94,12.94,0,0,0,5.95-1.31,9.53,9.53,0,0,0,4-3.68,10.57,10.57,0,0,0,1.39-5.47,10.57,10.57,0,0,0-1.39-5.47,9.53,9.53,0,0,0-4-3.68,12.82,12.82,0,0,0-5.95-1.31H496.8V47.83Z"/><path class="cls-2" d="M189.49,110.23a11.94,11.94,0,0,1-4.49,3.44,14,14,0,0,1-5.79,1.18,17.89,17.89,0,0,1-5.51-.79,17.66,17.66,0,0,1-5-2.59,43.27,43.27,0,0,1-5.59-5.07,20.16,20.16,0,0,1-8.49-3.41,18.24,18.24,0,0,1-5.8-6.61,18.71,18.71,0,0,1-2.07-8.76A18.39,18.39,0,0,1,156.73,71a23.49,23.49,0,0,1,20.93,0,18.76,18.76,0,0,1-2.54,34.36,6.54,6.54,0,0,0,2.07,1.63,5.3,5.3,0,0,0,2.23.47,7.56,7.56,0,0,0,5.56-2.57ZM158.59,93.1a9.29,9.29,0,0,0,3.57,3.7,10.33,10.33,0,0,0,10.07,0,9.42,9.42,0,0,0,3.57-3.7,12.12,12.12,0,0,0,0-11,9.56,9.56,0,0,0-3.57-3.7,10.33,10.33,0,0,0-10.07,0,9.42,9.42,0,0,0-3.57,3.7,12.12,12.12,0,0,0,0,11Z"/><path class="cls-2" d="M197.28,102.26q-4.53-4.45-4.54-12.64V69.26h10.39v20q0,8.82,7,8.81T217,89.3v-20h10.23V89.62q0,8.17-4.53,12.64T210,106.72Q201.83,106.72,197.28,102.26Z"/><polygon class="cls-2" points="263.78 97.96 263.78 105.98 234.29 105.98 234.29 69.26 263.09 69.26 263.09 77.29 244.57 77.29 244.57 83.48 260.89 83.48 260.89 91.24 244.57 91.24 244.57 97.96 263.78 97.96"/><path class="cls-2" d="M273.8,105.62a21.4,21.4,0,0,1-6.82-2.94L270.39,95a22.06,22.06,0,0,0,5.71,2.62,21.64,21.64,0,0,0,6.4,1q6,0,6-3a2.48,2.48,0,0,0-1.7-2.34,32,32,0,0,0-5.48-1.6,52.07,52.07,0,0,1-6.93-1.91,11.69,11.69,0,0,1-4.77-3.28,8.85,8.85,0,0,1-2-6.09,10.56,10.56,0,0,1,1.84-6.05,12.21,12.21,0,0,1,5.48-4.28,22.59,22.59,0,0,1,8.95-1.57,31.63,31.63,0,0,1,7.13.81,21.64,21.64,0,0,1,6.19,2.39L294,79.44a21.35,21.35,0,0,0-10.17-2.84,8.58,8.58,0,0,0-4.52.92,2.76,2.76,0,0,0-1.41,2.39,2.36,2.36,0,0,0,1.68,2.2,30,30,0,0,0,5.4,1.52,51.68,51.68,0,0,1,6.95,1.92,12,12,0,0,1,4.77,3.25,8.68,8.68,0,0,1,2,6.06,10.35,10.35,0,0,1-1.83,6,12.53,12.53,0,0,1-5.51,4.28,22.4,22.4,0,0,1-8.92,1.6A34.07,34.07,0,0,1,273.8,105.62Z"/><polygon class="cls-2" points="310.78 77.5 299.5 77.5 299.5 69.26 332.39 69.26 332.39 77.5 321.17 77.5 321.17 105.98 310.78 105.98 310.78 77.5"/><rect class="cls-2" x="336.28" y="69.26" width="10.39" height="36.72"/><path class="cls-2" d="M362.11,104.25a18.78,18.78,0,0,1,0-33.26,23.51,23.51,0,0,1,20.94,0,18.78,18.78,0,0,1,0,33.26,23.43,23.43,0,0,1-20.94,0Zm15.51-7.45a9.33,9.33,0,0,0,3.56-3.7,12,12,0,0,0,0-11,9.46,9.46,0,0,0-3.56-3.7,10.35,10.35,0,0,0-10.08,0,9.46,9.46,0,0,0-3.56,3.7,12.12,12.12,0,0,0,0,11,9.33,9.33,0,0,0,3.56,3.7,10.35,10.35,0,0,0,10.08,0Z"/><polygon class="cls-2" points="433.38 69.26 433.38 105.98 424.83 105.98 408.62 86.42 408.62 105.98 398.44 105.98 398.44 69.26 407 69.26 423.21 88.83 423.21 69.26 433.38 69.26"/><path class="cls-2" d="M445,105.62a21.5,21.5,0,0,1-6.82-2.94L441.57,95a22,22,0,0,0,5.72,2.62,21.54,21.54,0,0,0,6.4,1c4,0,6-1,6-3A2.49,2.49,0,0,0,458,93.31a31.76,31.76,0,0,0-5.48-1.6,51.88,51.88,0,0,1-6.92-1.91,11.66,11.66,0,0,1-4.78-3.28,8.85,8.85,0,0,1-2-6.09,10.55,10.55,0,0,1,1.83-6.05,12.24,12.24,0,0,1,5.49-4.28,22.54,22.54,0,0,1,8.94-1.57,31.78,31.78,0,0,1,7.14.81,21.88,21.88,0,0,1,6.19,2.39l-3.2,7.71A21.39,21.39,0,0,0,455,76.6a8.52,8.52,0,0,0-4.51.92,2.75,2.75,0,0,0-1.42,2.39,2.36,2.36,0,0,0,1.68,2.2,30,30,0,0,0,5.4,1.52,51.26,51.26,0,0,1,7,1.92,12.06,12.06,0,0,1,4.78,3.25,8.73,8.73,0,0,1,2,6.06,10.36,10.36,0,0,1-1.84,6,12.47,12.47,0,0,1-5.51,4.28,22.4,22.4,0,0,1-8.92,1.6A34.13,34.13,0,0,1,445,105.62Z"/><path class="cls-2" d="M395,321l.72-60.24s1.92-11.51-6.24-16.31c0,0-5.52-8.16-27.84-5l-34.56,60,.72,16.8"/><polyline class="cls-2" points="508.02 268.52 508.28 275.92 545.12 275.92 545.12 266.71 539.58 266.24 535.91 257.5 517.49 257.5 512.89 266.71 508.28 266.71"/><rect class="cls-2" x="284.11" y="272.72" width="53.04" height="37.2"/><polygon class="cls-2" points="288.19 173.13 288.43 215.61 296.35 263.6 318.91 261.92 315.07 166.17 288.19 173.13"/><polygon class="cls-3" points="478.36 312.75 432.31 312.75 427.71 266.71 482.96 266.71 478.36 312.75"/><rect class="cls-3" x="423.11" y="257.5" width="64.46" height="9.21"/><path class="cls-1" d="M464.54,220.67A18.41,18.41,0,0,0,483,202.25a9.21,9.21,0,1,1,18.42,0,36.81,36.81,0,0,1-36.84,36.83"/><path class="cls-1" d="M464.54,229.87a27.61,27.61,0,0,0,27.63-27.62"/><path class="cls-1" d="M464.54,257.5V151.6a9.21,9.21,0,1,0-18.41,0V257.5"/><line class="cls-1" x1="455.33" y1="151.6" x2="455.33" y2="257.5"/><path class="cls-1" d="M446.13,202.25a18.41,18.41,0,0,1-18.42-18.42,9.21,9.21,0,0,0-18.42,0,36.82,36.82,0,0,0,36.84,36.84"/><path class="cls-1" d="M446.13,211.46a27.62,27.62,0,0,1-27.63-27.63"/><path class="cls-4" d="M464.54,222.66A20.4,20.4,0,0,0,485,202.25a7.21,7.21,0,1,1,14.42,0,34.81,34.81,0,0,1-34.84,34.83,2,2,0,0,0,0,4,38.81,38.81,0,0,0,38.84-38.83,11.21,11.21,0,1,0-22.42,0,16.41,16.41,0,0,1-16.42,16.42,2,2,0,0,0,0,4Z"/><path class="cls-4" d="M464.54,231.87a2,2,0,1,0-2-2,2,2,0,0,0,.59,1.42,2,2,0,0,0,1.41.58"/><path class="cls-4" d="M492.72,211.42h0a2,2,0,0,0-3.8-1.24h0a2,2,0,0,0,3.8,1.24Zm-4.21,8.25h0a2,2,0,1,0-3.23-2.35h0a2,2,0,0,0,3.23,2.35ZM482,226.22h0a2,2,0,1,0-2.79-.44A2,2,0,0,0,482,226.22Zm-8.26,4.21h0a2,2,0,1,0-1.23-3.8h0a2,2,0,1,0,1.23,3.8Z"/><path class="cls-4" d="M492.17,204.25a2,2,0,0,0,1.41-.59,2,2,0,0,0,.59-1.41,2,2,0,0,0-2-2,2,2,0,0,0-2,2,2,2,0,0,0,.58,1.41,2,2,0,0,0,1.42.59"/><path class="cls-4" d="M466.54,257.5V151.6a11.21,11.21,0,1,0-22.41,0V257.5a2,2,0,0,0,4,0V151.6a7.21,7.21,0,1,1,14.41,0V257.5a2,2,0,0,0,4,0Z"/><path class="cls-4" d="M455.33,153.6a2,2,0,0,0,2-2,2,2,0,0,0-4,0,2,2,0,0,0,.59,1.42,2,2,0,0,0,1.41.58"/><path class="cls-4" d="M453.33,249.35h0a2,2,0,1,0,2-2A2,2,0,0,0,453.33,249.35Zm0-8.14h0a2,2,0,1,0,2-2A2,2,0,0,0,453.33,241.21Zm0-8.15h0a2,2,0,1,0,2-2A2,2,0,0,0,453.33,233.06Zm0-8.15h0a2,2,0,1,0,2-2A2,2,0,0,0,453.33,224.91Zm0-8.14h0a2,2,0,1,0,2-2A2,2,0,0,0,453.33,216.77Zm0-8.15h0a2,2,0,1,0,2-2A2,2,0,0,0,453.33,208.62Zm0-8.14h0a2,2,0,1,0,2-2A2,2,0,0,0,453.33,200.48Zm0-8.15h0a2,2,0,1,0,2-2A2,2,0,0,0,453.33,192.33Zm0-8.15h0a2,2,0,1,0,2-2A2,2,0,0,0,453.33,184.18Zm0-8.14h0a2,2,0,1,0,2-2A2,2,0,0,0,453.33,176Zm0-8.15h0a2,2,0,1,0,2-2A2,2,0,0,0,453.33,167.89Zm0-8.14h0a2,2,0,1,0,2-2A2,2,0,0,0,453.33,159.75Z"/><path class="cls-4" d="M455.33,259.5a2,2,0,1,0-1.41-.59,2,2,0,0,0,1.41.59"/><path class="cls-4" d="M446.13,200.25a16.41,16.41,0,0,1-16.42-16.42,11.21,11.21,0,0,0-22.42,0,38.81,38.81,0,0,0,38.84,38.83,2,2,0,1,0,0-4,34.82,34.82,0,0,1-34.84-34.84,7.21,7.21,0,1,1,14.42,0,20.41,20.41,0,0,0,20.42,20.42,2,2,0,0,0,0-4Z"/><path class="cls-4" d="M446.13,213.46a2,2,0,1,0-1.42-.59,2,2,0,0,0,1.42.59"/><path class="cls-4" d="M421.75,191.76h0A2,2,0,1,0,418,193h0a2,2,0,0,0,3.8-1.24Zm3.64,7.14h0a2,2,0,0,0-3.23,2.35h0a2,2,0,1,0,3.23-2.35Zm5.67,5.67h0a2,2,0,0,0-2.35,3.23h0a2,2,0,1,0,2.35-3.23Zm7.14,3.64h0A2,2,0,1,0,437,212h0a2,2,0,0,0,1.23-3.8Z"/><path class="cls-4" d="M418.5,185.83a2,2,0,0,0,2-2,2,2,0,0,0-2-2,2,2,0,0,0-2,2,2,2,0,0,0,2,2"/><path class="cls-4" d="M487.56,257.5v-2H423.11a2,2,0,0,0-2,2v9.21a2,2,0,0,0,2,2h64.45a2,2,0,0,0,2-2V257.5a2,2,0,0,0-2-2v2h-2v7.21H425.11V259.5h62.45v-2h0Z"/><path class="cls-2" d="M435.7,276.14l3.07,27.62a2,2,0,1,0,4-.44l-3.07-27.63a2,2,0,1,0-4,.45"/><path class="cls-4" d="M434.3,312.55l-4.6-46a2,2,0,1,0-4,.4l4.6,46a2,2,0,1,0,4-.4"/><path class="cls-4" d="M481,266.51l-4.6,46a2,2,0,0,0,4,.4l4.6-46a2,2,0,0,0-4-.4"/><path class="cls-4" d="M388.27,312.75V257.5a2,2,0,0,0-4,0v55.25a2,2,0,0,0,4,0"/><path class="cls-4" d="M397.48,312.75V257.5a2,2,0,0,0-4,0v55.25a2,2,0,0,0,4,0"/><path class="cls-4" d="M388.27,257.5a20.42,20.42,0,0,0-20.42-20.42,2,2,0,0,0,0,4,16.41,16.41,0,0,1,16.42,16.42,2,2,0,0,0,4,0Z"/><path class="cls-4" d="M397.48,257.5a20.42,20.42,0,0,0-20.42-20.42,2,2,0,0,0,0,4,16.42,16.42,0,0,1,16.42,16.42,2,2,0,0,0,4,0Z"/><path class="cls-4" d="M386.27,299.5h9.21a2,2,0,0,0,0-4h-9.21a2,2,0,0,0,0,4"/><path class="cls-4" d="M386.27,291.5h9.21a2,2,0,0,0,0-4h-9.21a2,2,0,0,0,0,4"/><path class="cls-4" d="M386.27,283.5h9.21a2,2,0,0,0,0-4h-9.21a2,2,0,0,0,0,4"/><path class="cls-4" d="M386.27,275.5h9.21a2,2,0,0,0,0-4h-9.21a2,2,0,0,0,0,4"/><path class="cls-4" d="M386.27,267.5h9.21a2,2,0,0,0,0-4h-9.21a2,2,0,0,0,0,4"/><path class="cls-4" d="M386.27,259.5h9.21a2,2,0,0,0,0-4h-9.21a2,2,0,0,0,0,4"/><path class="cls-4" d="M377.06,237.08h-9.21a2,2,0,0,0,0,4h9.21a2,2,0,0,0,0-4"/><path class="cls-2" d="M325,128.57A32.23,32.23,0,1,1,278.52,130"/><path class="cls-4" d="M323.59,130A30.23,30.23,0,1,1,280,131.34a2,2,0,1,0-3-2.69,34.23,34.23,0,1,0,49.35-1.51,2,2,0,0,0-2.8,2.86Z"/><path class="cls-1" d="M284.72,303.54l-.29-3.45a23,23,0,0,0-.29,3.45Z"/><path class="cls-1" d="M367.62,209.47l-51.25-11.83L302.56,257.5l-13.81-59.86h-.67l-56,12.93,44.8.89,7.57,88.63a23,23,0,0,1,22.73-19.57v23h59.09a8.36,8.36,0,0,0,8.45-9.18Z"/><path class="cls-3" d="M334.67,119.37h0a53,53,0,0,0-36.43-16c-14.4.49-22.36,6.46-37.23,9.26a43.19,43.19,0,0,0,9.21,11.58V151.6a32.07,32.07,0,0,1,8.31-21.6l0,0a45.21,45.21,0,0,0,48.63-3.44l-2.14,2a32.15,32.15,0,0,1,9.68,23V119.37h0Z"/><path class="cls-3" d="M296.34,103.26c.64,0,1.26,0,1.89,0s1.25,0,1.9,0Z"/><path class="cls-4" d="M296.34,105.26a51.11,51.11,0,0,1,36.88,15.49l.16.15h0l1.28-1.54-1.55-1.27a43,43,0,0,1-70.37-6.48l-1.75.95.37,2c8-1.5,14-3.89,19.78-5.82a56.18,56.18,0,0,1,19-3.46,2,2,0,0,0,0-4,60.3,60.3,0,0,0-20.25,3.66c-6,2-11.69,4.27-19.25,5.69a2,2,0,0,0-1.39,2.92,47,47,0,0,0,77,7.11,2,2,0,0,0-.26-2.81h0l-1.28,1.53L336.1,118a55.12,55.12,0,0,0-39.76-16.71,2,2,0,0,0,0,4Z"/><path class="cls-4" d="M323.59,130A30.23,30.23,0,1,1,280,131.34a2,2,0,1,0-3-2.69,34.23,34.23,0,1,0,49.35-1.51,2,2,0,0,0-2.8,2.86Z"/><path class="cls-4" d="M336.67,151.6V119.37a2,2,0,0,0-4,0V151.6a2,2,0,0,0,4,0"/><path class="cls-4" d="M272.21,151.6V124.15a2,2,0,0,0-4,0V151.6a2,2,0,0,0,4,0"/><path class="cls-4" d="M286,303.54a21,21,0,0,1,21-21,2,2,0,0,0,0-4,25,25,0,0,0-25,25,2,2,0,0,0,4,0Z"/><path class="cls-4" d="M290.62,197.64V181.53a2,2,0,1,0-4,0v16.11a2,2,0,0,0,4,0"/><path class="cls-4" d="M318.25,197.64V181.53a2,2,0,1,0-4,0v16.11a2,2,0,0,0,4,0"/><path class="cls-4" d="M304.38,258l13.82-59.86a2,2,0,1,0-3.9-.9l-13.81,59.86a2,2,0,1,0,3.89.9"/><path class="cls-4" d="M286.67,198.09,300.49,258a2,2,0,1,0,3.89-.9l-13.81-59.86a2,2,0,1,0-3.9.9"/><path class="cls-4" d="M342.65,239.25l3.45,41.47a2,2,0,0,0,4-.17v0a2,2,0,0,0-.59-1.41,2,2,0,0,0-1.41-.59H307a2,2,0,1,0,0,4H348.1v-2h-2v0h2l2-.16-3.46-41.47a2,2,0,1,0-4,.33Z"/><path class="cls-4" d="M288.17,195.69l-56,12.93a2,2,0,1,0,.9,3.9l56-12.93a2,2,0,0,0-.9-3.9"/><path class="cls-4" d="M315.8,199.59l49.82,11.5,7,83.44c0,.2,0,.4,0,.59a6.39,6.39,0,0,1-1.84,4.56,6.46,6.46,0,0,1-4.63,1.86H338.5a2,2,0,0,0,0,4h27.63a10.46,10.46,0,0,0,7.45-3,10.36,10.36,0,0,0,3-7.39c0-.3,0-.61,0-.92l-7.08-84.9a2,2,0,0,0-1.55-1.78L316.7,195.69a2,2,0,0,0-.9,3.9Z"/><path class="cls-4" d="M305,280.52v23a2,2,0,0,0,4,0v-23a2,2,0,0,0-4,0"/><path class="cls-4" d="M319.21,303.54v-23a2,2,0,0,0-4,0v23a2,2,0,0,0,4,0"/><rect class="cls-3" x="63.98" y="331.17" width="488.05" height="36.83"/><rect class="cls-3" x="82.39" y="331.17" width="138.13" height="36.83"/><rect class="cls-3" x="238.94" y="331.17" width="138.13" height="36.83"/><rect class="cls-3" x="395.48" y="331.17" width="138.13" height="36.83"/><rect class="cls-3" x="54.77" y="312.75" width="506.46" height="18.42"/><path class="cls-4" d="M561.23,331.17v-2H56.77V314.75H559.23v16.42h2v0h2V312.75a2,2,0,0,0-2-2H54.77a2,2,0,0,0-2,2v18.42a2,2,0,0,0,.58,1.41,2,2,0,0,0,1.42.59H561.23a2,2,0,0,0,1.42-.59,2,2,0,0,0,.58-1.41Z"/><path class="cls-4" d="M62,331.17V368a2,2,0,0,0,4,0V331.17a2,2,0,0,0-4,0"/><path class="cls-4" d="M80.39,331.17V368a2,2,0,0,0,4,0V331.17a2,2,0,0,0-4,0"/><path class="cls-4" d="M531.61,331.17V368a2,2,0,0,0,4,0V331.17a2,2,0,1,0-4,0"/><path class="cls-4" d="M550,331.17V368a2,2,0,0,0,4,0V331.17a2,2,0,0,0-4,0"/><path class="cls-4" d="M218.52,331.17V368a2,2,0,0,0,4,0V331.17a2,2,0,0,0-4,0"/><path class="cls-4" d="M236.94,331.17V368a2,2,0,0,0,4,0V331.17a2,2,0,0,0-4,0"/><path class="cls-4" d="M375.06,331.17V368a2,2,0,0,0,4,0V331.17a2,2,0,0,0-4,0"/><path class="cls-4" d="M393.48,331.17V368a2,2,0,0,0,4,0V331.17a2,2,0,0,0-4,0"/><polygon class="cls-3" points="145.89 211.46 154.33 312.75 283.25 312.75 274.81 211.46 145.89 211.46"/><rect class="cls-3" x="163.54" y="303.54" width="174.96" height="9.21"/><path class="cls-5" d="M166.68,231.29l9.54-9.54a2,2,0,1,0-2.83-2.83l-9.54,9.54a2,2,0,1,0,2.83,2.83"/><path class="cls-5" d="M165,245.68l10.52-10.53a2,2,0,0,0-2.83-2.82l-10.52,10.52a2,2,0,0,0,2.83,2.83"/><path class="cls-5" d="M165,264.81l37-37a2,2,0,1,0-2.83-2.83l-37,37a2,2,0,0,0,2.83,2.83"/><path class="cls-5" d="M153.55,287.84,180,261.37a2,2,0,0,0-2.83-2.83L150.73,285a2,2,0,0,0,2.82,2.83"/><path class="cls-5" d="M240.35,240.42,267.74,213a2,2,0,1,0-2.83-2.83l-27.39,27.4a2,2,0,0,0,2.83,2.83"/><path class="cls-5" d="M251.22,235.75l-15.1,15.1a2,2,0,0,0,2.83,2.82l15.1-15.09a2,2,0,0,0-2.83-2.83"/><path class="cls-5" d="M217.33,240.42l7.15-7.16a2,2,0,0,0-2.83-2.83l-7.15,7.16a2,2,0,0,0,2.83,2.83"/><path class="cls-5" d="M175.48,293.44l7.63-7.63a2,2,0,1,0-2.82-2.83l-7.64,7.64a2,2,0,0,0,2.83,2.82"/><path class="cls-5" d="M217.33,291.14l15.82-15.81a2,2,0,1,0-2.83-2.83L214.5,288.31a2,2,0,1,0,2.83,2.83"/><path class="cls-5" d="M219.25,305l38.51-38.52a2,2,0,1,0-2.83-2.83l-38.51,38.52a2,2,0,0,0,2.83,2.83"/><path class="cls-5" d="M246.5,288.65,278.15,257a2,2,0,1,0-2.83-2.83l-31.65,31.65a2,2,0,1,0,2.83,2.83"/><path class="cls-5" d="M262,295.75l5.27-5.28a2,2,0,0,0-2.82-2.83l-5.28,5.28a2,2,0,0,0,2.83,2.83"/><path class="cls-4" d="M145.89,211.46l-2,.16,8.44,101.3a2,2,0,0,0,2,1.83H283.25a2,2,0,0,0,1.47-.65,2,2,0,0,0,.53-1.52L276.8,211.29a2,2,0,0,0-2-1.83H145.89a2,2,0,0,0-1.47.64,2,2,0,0,0-.52,1.52l2-.16v2H273l8.11,97.29H156.17l-8.28-99.46-2,.17v0Z"/><path class="cls-4" d="M223.78,262.1h-2a7.22,7.22,0,1,1-2.11-5.09,7.16,7.16,0,0,1,2.11,5.09h4a11.21,11.21,0,1,0-11.21,11.21,11.22,11.22,0,0,0,11.21-11.21Z"/><path class="cls-4" d="M283.25,314.75H338.5a2,2,0,0,0,2-2v-9.21a2,2,0,0,0-2-2H283.25a2,2,0,0,0,0,4H336.5v5.21H283.25a2,2,0,0,0,0,4Z"/><path class="cls-4" d="M153.57,305.54H282.1a2,2,0,0,0,0-4H153.57a2,2,0,0,0,0,4"/><polygon class="cls-1" points="512.89 275.92 515.19 312.75 538.21 312.75 540.51 275.92 512.89 275.92"/><path class="cls-4" d="M545.12,266.71v-2H508.28a2,2,0,0,0-1.41.58,2,2,0,0,0-.59,1.42v9.21a2,2,0,0,0,2,2h36.84a2,2,0,0,0,2-2v-9.21a2,2,0,0,0-.59-1.42,2,2,0,0,0-1.41-.58v2h-2v7.21H510.28v-5.21h34.84v-2h0Z"/><path class="cls-4" d="M512.89,275.92l-2,.12,2.3,36.83a2,2,0,0,0,2,1.88h23a2,2,0,0,0,2-1.88l2.3-36.83a2,2,0,0,0-.54-1.49,2,2,0,0,0-1.46-.63H512.89a2,2,0,0,0-1.46.63,2,2,0,0,0-.54,1.49l2-.12v2h25.49l-2,32.84H517.07l-2.19-35-2,.13v0Z"/><path class="cls-4" d="M535.91,257.5v-2H517.49a2,2,0,0,0-1.79,1.1l-4.6,9.21a2,2,0,0,0,1.79,2.9h27.62a2,2,0,0,0,1.79-2.9l-4.6-9.21a2,2,0,0,0-1.79-1.1v2l-1.79.89,3.16,6.32H516.12l2.61-5.21h17.18v-2l-1.79.89Z"/><path class="cls-4" d="M515.19,287.12h23a2,2,0,0,0,0-4h-23a2,2,0,0,0,0,4"/><path class="cls-4" d="M537.06,301.54H516.34a2,2,0,0,0,0,4h20.72a2,2,0,0,0,0-4"/><path class="cls-4" d="M64,370H552a2,2,0,0,0,0-4H64a2,2,0,0,0,0,4"/></g></g></svg>