<svg xmlns="http://www.w3.org/2000/svg" viewBox="0 0 48.15 42.09"><defs><style>.cls-1{fill:#424242;}</style></defs><title>drawstring</title><g id="Layer_2" data-name="Layer 2"><g id="Layer_5" data-name="Layer 5"><path class="cls-1" d="M47.67.67A2.36,2.36,0,0,0,45.49.39c-1.23.32-2.46.69-3.67,1.08A37,37,0,0,0,37.41,3.2c-2,.9-4,1.81-5.87,2.9C29.21,7.45,27,9,24.7,10.45a.65.65,0,0,1-.86,0c-1.24-.87-2.45-1.8-3.75-2.56C18,6.64,15.79,5.44,13.58,4.35c-1.69-.83-3.46-1.52-5.22-2.21C6.84,1.55,5.31,1,3.74.5,2.8.23,1.61-.33.68.26A1.69,1.69,0,0,0,0,1.78C.11,3.86,2.53,4.37,4.11,4.89c1.79.6,3.58,1.2,5.32,1.94s3.7,1.7,5.49,2.66,3.67,2.09,5.45,3.21a33.39,33.39,0,0,1,2.73,2c1.13.9,2.42,1.66,3.11,3a1,1,0,0,0,.21.25,22.83,22.83,0,0,1,5.79,9.13,12.88,12.88,0,0,1,.74,4.3c0,2,.79,3.64,2.82,4a.64.64,0,0,1,.3.11,1.14,1.14,0,0,1,.37.42c.65,1.81,1.27,3.63,1.9,5.45a.94.94,0,0,0,1,.65.85.85,0,0,0,.82-1,3.77,3.77,0,0,0-.21-.94c-.53-1.56-1.08-3.1-1.63-4.65a.71.71,0,0,1,.27-.92,3.32,3.32,0,0,0,.73-4,3.79,3.79,0,0,0-2.07-1.72c-.26-.11-.62-.38-.65-.61a19.17,19.17,0,0,0-1.84-5.4A29.71,29.71,0,0,0,29.1,15c-.41-.43-.86-.83-1.27-1.25-.19-.19-.43-.39,0-.64.91-.58,1.79-1.21,2.73-1.75,1.78-1,3.57-2,5.4-3a48.57,48.57,0,0,1,4.47-2c1.7-.68,3.46-1.24,5.19-1.83,1-.34,2.43-.7,2.56-2a4.34,4.34,0,0,0,0-.51A2.62,2.62,0,0,0,48,1.11,1.29,1.29,0,0,0,47.67.67Z"/><path class="cls-1" d="M8.59,39c-.21.53-.4,1.08-.56,1.63a.77.77,0,0,0,.33.94.94.94,0,0,0,1.5-.45c.62-1.54,1.22-3.08,1.74-4.65a1.27,1.27,0,0,1,1.11-1A3.26,3.26,0,0,0,15.62,32a17.69,17.69,0,0,1,1-5.45,18.92,18.92,0,0,1,3-5.49c1.14-1.46,2.45-2.8,3.69-4.17.31-.34.36-.58,0-.88-.8-.59-1.58-1.2-2.36-1.81a.43.43,0,0,0-.66,0c-.35.37-.72.7-1.07,1.08A30.37,30.37,0,0,0,13.79,23a24,24,0,0,0-1.71,4.77.56.56,0,0,0,.31.73,3.34,3.34,0,0,1,1.29,1.17,5.1,5.1,0,0,1,.21,1.93c0,.13-.32.36-.49.35s-.27-.29-.37-.47,0-.21,0-.24a1.69,1.69,0,0,0-.93-1.77,1.55,1.55,0,0,0-1.75,0A3.1,3.1,0,0,0,8.92,31.9a3.73,3.73,0,0,0,.95,2.67.76.76,0,0,1,.18.64C9.59,36.48,9.08,37.73,8.59,39Z"/></g></g></svg>