<?xml version="1.0" encoding="utf-8"?>
<!-- Generator: Adobe Illustrator 22.0.1, SVG Export Plug-In . SVG Version: 6.00 Build 0)  -->
<svg version="1.1" id="Layer_1" xmlns="http://www.w3.org/2000/svg" xmlns:xlink="http://www.w3.org/1999/xlink" x="0px" y="0px"
	 viewBox="0 0 180 180" style="enable-background:new 0 0 180 180;" xml:space="preserve">
<style type="text/css">
	.st0{fill:#2C97DE;}
	.st1{fill:#FFFFFF;}
</style>
<title>yemen</title>
<desc>Created with Sketch.</desc>
<path class="st0" d="M180,90c0-10.5-1.8-20.6-5.1-30h0c0-0.1-0.1-0.2-0.1-0.3c-0.3-1-0.7-1.9-1.1-2.8c0-0.1-0.1-0.2-0.1-0.4
	c-0.3-0.9-0.7-1.7-1.1-2.6c-0.1-0.2-0.2-0.4-0.3-0.6c-0.4-0.9-0.8-1.8-1.3-2.7c-0.1-0.2-0.2-0.4-0.3-0.5c-0.4-0.8-0.8-1.6-1.3-2.4
	c-0.1-0.1-0.1-0.3-0.2-0.4c-0.5-0.9-1-1.8-1.5-2.6c-0.1-0.2-0.2-0.4-0.3-0.6c-0.5-0.9-1-1.7-1.6-2.6c0,0,0,0,0,0
	c-0.5-0.8-1.1-1.7-1.7-2.5c-0.1-0.2-0.3-0.4-0.4-0.6c-0.6-0.8-1.2-1.6-1.7-2.4c-0.1-0.1-0.2-0.2-0.3-0.4c-0.5-0.7-1.1-1.4-1.7-2.1
	c-0.1-0.2-0.2-0.3-0.4-0.5c-0.6-0.8-1.3-1.5-1.9-2.3c-0.1-0.2-0.3-0.3-0.4-0.5c-0.6-0.7-1.2-1.4-1.9-2c-0.1-0.1-0.2-0.2-0.2-0.3
	c-0.7-0.7-1.4-1.4-2.1-2.1c-0.2-0.2-0.3-0.3-0.5-0.5c-0.7-0.7-1.5-1.4-2.2-2.1c0,0-0.1-0.1-0.1-0.1c-0.7-0.6-1.4-1.3-2.2-1.9
	c-0.2-0.1-0.3-0.3-0.5-0.4c-0.8-0.6-1.5-1.3-2.3-1.9c-0.1-0.1-0.3-0.2-0.4-0.3c-0.7-0.5-1.4-1.1-2.2-1.6c-0.1-0.1-0.3-0.2-0.4-0.3
	c-0.8-0.6-1.6-1.1-2.4-1.7c-0.2-0.1-0.4-0.2-0.5-0.4c-0.8-0.5-1.6-1-2.4-1.5c-0.1,0-0.2-0.1-0.2-0.1c-0.9-0.5-1.7-1-2.6-1.5
	c-0.2-0.1-0.4-0.2-0.6-0.3c-0.9-0.5-1.8-1-2.7-1.4c-0.1,0-0.2-0.1-0.3-0.1c-0.8-0.4-1.7-0.8-2.6-1.2c-0.2-0.1-0.4-0.2-0.6-0.3
	c-0.9-0.4-1.8-0.8-2.8-1.2c-0.2-0.1-0.3-0.1-0.5-0.2c-0.8-0.3-1.7-0.7-2.5-1c-0.2-0.1-0.3-0.1-0.5-0.2c-0.9-0.3-1.9-0.7-2.9-1
	c-0.2-0.1-0.4-0.1-0.6-0.2c-0.9-0.3-1.9-0.6-2.9-0.9c0,0-0.1,0-0.1,0c-1-0.3-2-0.5-3-0.8c-0.2-0.1-0.5-0.1-0.7-0.2
	c-1-0.2-2-0.5-3-0.7c-0.1,0-0.3,0-0.4-0.1c-0.9-0.2-1.9-0.4-2.8-0.5c-0.2,0-0.4-0.1-0.6-0.1c-1-0.2-2-0.3-3.1-0.4
	c-0.2,0-0.4,0-0.6-0.1c-0.9-0.1-1.9-0.2-2.8-0.3c-0.2,0-0.3,0-0.5,0c-1-0.1-2.1-0.1-3.2-0.2c-0.2,0-0.5,0-0.7,0C92.2,0,91.1,0,90,0
	s-2.2,0-3.3,0.1c-0.2,0-0.5,0-0.7,0c-1.1,0-2.1,0.1-3.2,0.2c-0.2,0-0.3,0-0.5,0c-1,0.1-1.9,0.2-2.8,0.3c-0.2,0-0.4,0-0.6,0.1
	c-1,0.1-2.1,0.3-3.1,0.4c-0.2,0-0.4,0.1-0.6,0.1c-0.9,0.2-1.9,0.3-2.8,0.5c-0.1,0-0.3,0-0.4,0.1c-1,0.2-2,0.4-3,0.7
	c-0.2,0.1-0.5,0.1-0.7,0.2c-1,0.2-2,0.5-3,0.8c0,0-0.1,0-0.1,0c-1,0.3-1.9,0.6-2.9,0.9c-0.2,0.1-0.4,0.1-0.6,0.2
	c-1,0.3-1.9,0.7-2.9,1c-0.2,0.1-0.3,0.1-0.5,0.2c-0.9,0.3-1.7,0.7-2.5,1c-0.2,0.1-0.3,0.1-0.5,0.2c-0.9,0.4-1.8,0.8-2.8,1.2
	c-0.2,0.1-0.4,0.2-0.6,0.3c-0.9,0.4-1.7,0.8-2.6,1.2c-0.1,0-0.2,0.1-0.3,0.1c-0.9,0.5-1.8,0.9-2.7,1.4c-0.2,0.1-0.4,0.2-0.6,0.3
	c-0.9,0.5-1.7,1-2.6,1.5c-0.1,0-0.2,0.1-0.2,0.1c-0.8,0.5-1.6,1-2.4,1.5c-0.2,0.1-0.4,0.2-0.5,0.4c-0.8,0.6-1.6,1.1-2.4,1.7
	c-0.1,0.1-0.3,0.2-0.4,0.3c-0.7,0.5-1.4,1.1-2.2,1.6c-0.1,0.1-0.3,0.2-0.4,0.3c-0.8,0.6-1.5,1.2-2.3,1.9c-0.2,0.1-0.3,0.3-0.5,0.4
	c-0.7,0.6-1.5,1.3-2.2,1.9c0,0-0.1,0.1-0.1,0.1c-0.7,0.7-1.5,1.4-2.2,2.1c-0.2,0.2-0.3,0.3-0.5,0.5c-0.7,0.7-1.4,1.4-2.1,2.1
	c-0.1,0.1-0.2,0.2-0.2,0.3c-0.6,0.7-1.2,1.3-1.9,2c-0.1,0.2-0.3,0.3-0.4,0.5c-0.7,0.7-1.3,1.5-1.9,2.3c-0.1,0.2-0.2,0.3-0.4,0.5
	c-0.6,0.7-1.1,1.4-1.7,2.1c-0.1,0.1-0.2,0.2-0.3,0.4c-0.6,0.8-1.2,1.6-1.7,2.4c-0.1,0.2-0.3,0.4-0.4,0.6c-0.6,0.8-1.1,1.7-1.7,2.5
	c0,0,0,0,0,0c-0.5,0.9-1.1,1.7-1.6,2.6c-0.1,0.2-0.2,0.4-0.3,0.6c-0.5,0.9-1,1.7-1.5,2.6c-0.1,0.1-0.1,0.3-0.2,0.4
	c-0.4,0.8-0.8,1.6-1.3,2.4c-0.1,0.2-0.2,0.4-0.3,0.5c-0.4,0.9-0.9,1.8-1.3,2.7c-0.1,0.2-0.2,0.4-0.3,0.6c-0.4,0.8-0.7,1.7-1.1,2.6
	c0,0.1-0.1,0.2-0.1,0.4c-0.4,0.9-0.7,1.9-1.1,2.8c0,0.1-0.1,0.2-0.1,0.3h0C1.8,69.4,0,79.5,0,90s1.8,20.6,5.1,30h0
	c0,0.1,0.1,0.2,0.1,0.3c0.3,1,0.7,1.9,1.1,2.8c0,0.1,0.1,0.2,0.1,0.4c0.3,0.9,0.7,1.7,1.1,2.6c0.1,0.2,0.2,0.4,0.3,0.6
	c0.4,0.9,0.8,1.8,1.3,2.7c0.1,0.2,0.2,0.4,0.3,0.5c0.4,0.8,0.8,1.6,1.3,2.4c0.1,0.1,0.1,0.3,0.2,0.4c0.5,0.9,1,1.8,1.5,2.6
	c0.1,0.2,0.2,0.4,0.3,0.6c0.5,0.9,1,1.7,1.6,2.6c0,0,0,0,0,0c0.5,0.8,1.1,1.7,1.7,2.5c0.1,0.2,0.3,0.4,0.4,0.6
	c0.6,0.8,1.2,1.6,1.7,2.4c0.1,0.1,0.2,0.2,0.3,0.4c0.5,0.7,1.1,1.4,1.7,2.1c0.1,0.2,0.2,0.3,0.4,0.5c0.6,0.8,1.3,1.5,1.9,2.3
	c0.1,0.2,0.3,0.3,0.4,0.5c0.6,0.7,1.2,1.4,1.9,2c0.1,0.1,0.2,0.2,0.2,0.3c0.7,0.7,1.4,1.4,2.1,2.1c0.2,0.2,0.3,0.3,0.5,0.5
	c0.7,0.7,1.5,1.4,2.2,2.1c0,0,0.1,0.1,0.1,0.1c0.7,0.6,1.4,1.3,2.2,1.9c0.2,0.1,0.3,0.3,0.5,0.4c0.8,0.6,1.5,1.3,2.3,1.9
	c0.1,0.1,0.3,0.2,0.4,0.3c0.7,0.5,1.4,1.1,2.2,1.6c0.1,0.1,0.3,0.2,0.4,0.3c0.8,0.6,1.6,1.1,2.4,1.7c0.2,0.1,0.4,0.2,0.5,0.4
	c0.8,0.5,1.6,1,2.4,1.5c0.1,0,0.2,0.1,0.2,0.1c0.9,0.5,1.7,1,2.6,1.5c0.2,0.1,0.4,0.2,0.6,0.3c0.9,0.5,1.8,1,2.7,1.4
	c0.1,0,0.2,0.1,0.3,0.1c0.8,0.4,1.7,0.8,2.6,1.2c0.2,0.1,0.4,0.2,0.6,0.3c0.9,0.4,1.8,0.8,2.8,1.2c0.2,0.1,0.3,0.1,0.5,0.2
	c0.8,0.3,1.7,0.7,2.5,1c0.2,0.1,0.3,0.1,0.5,0.2c0.9,0.3,1.9,0.7,2.9,1c0.2,0.1,0.4,0.1,0.6,0.2c0.9,0.3,1.9,0.6,2.9,0.9
	c0,0,0.1,0,0.1,0c1,0.3,2,0.5,3,0.8c0.2,0.1,0.5,0.1,0.7,0.2c1,0.2,2,0.5,3,0.7c0.1,0,0.3,0,0.4,0.1c0.9,0.2,1.9,0.4,2.8,0.5
	c0.2,0,0.4,0.1,0.6,0.1c1,0.2,2,0.3,3.1,0.4c0.2,0,0.4,0,0.6,0.1c0.9,0.1,1.9,0.2,2.8,0.3c0.2,0,0.3,0,0.5,0c1,0.1,2.1,0.1,3.2,0.2
	c0.2,0,0.5,0,0.7,0c1.1,0,2.2,0.1,3.3,0.1s2.2,0,3.3-0.1c0.2,0,0.5,0,0.7,0c1.1,0,2.1-0.1,3.2-0.2c0.2,0,0.3,0,0.5,0
	c1-0.1,1.9-0.2,2.8-0.3c0.2,0,0.4,0,0.6-0.1c1-0.1,2.1-0.3,3.1-0.4c0.2,0,0.4-0.1,0.6-0.1c0.9-0.2,1.9-0.3,2.8-0.5
	c0.1,0,0.3,0,0.4-0.1c1-0.2,2-0.4,3-0.7c0.2-0.1,0.5-0.1,0.7-0.2c1-0.2,2-0.5,3-0.8c0,0,0.1,0,0.1,0c1-0.3,1.9-0.6,2.9-0.9
	c0.2-0.1,0.4-0.1,0.6-0.2c1-0.3,1.9-0.7,2.9-1c0.2-0.1,0.3-0.1,0.5-0.2c0.9-0.3,1.7-0.7,2.5-1c0.2-0.1,0.3-0.1,0.5-0.2
	c0.9-0.4,1.8-0.8,2.8-1.2c0.2-0.1,0.4-0.2,0.6-0.3c0.9-0.4,1.7-0.8,2.6-1.2c0.1,0,0.2-0.1,0.3-0.1c0.9-0.5,1.8-0.9,2.7-1.4
	c0.2-0.1,0.4-0.2,0.6-0.3c0.9-0.5,1.7-1,2.6-1.5c0.1,0,0.2-0.1,0.2-0.1c0.8-0.5,1.6-1,2.4-1.5c0.2-0.1,0.4-0.2,0.5-0.4
	c0.8-0.6,1.6-1.1,2.4-1.7c0.1-0.1,0.3-0.2,0.4-0.3c0.7-0.5,1.4-1.1,2.2-1.6c0.1-0.1,0.3-0.2,0.4-0.3c0.8-0.6,1.5-1.2,2.3-1.9
	c0.2-0.1,0.3-0.3,0.5-0.4c0.7-0.6,1.5-1.3,2.2-1.9c0,0,0.1-0.1,0.1-0.1c0.7-0.7,1.5-1.4,2.2-2.1c0.2-0.2,0.3-0.3,0.5-0.5
	c0.7-0.7,1.4-1.4,2.1-2.1c0.1-0.1,0.2-0.2,0.2-0.3c0.6-0.7,1.2-1.3,1.9-2c0.1-0.2,0.3-0.3,0.4-0.5c0.7-0.7,1.3-1.5,1.9-2.3
	c0.1-0.2,0.2-0.3,0.4-0.5c0.6-0.7,1.1-1.4,1.7-2.1c0.1-0.1,0.2-0.2,0.3-0.4c0.6-0.8,1.2-1.6,1.7-2.4c0.1-0.2,0.3-0.4,0.4-0.6
	c0.6-0.8,1.1-1.7,1.7-2.5c0,0,0,0,0,0c0.5-0.9,1.1-1.7,1.6-2.6c0.1-0.2,0.2-0.4,0.3-0.6c0.5-0.9,1-1.7,1.5-2.6
	c0.1-0.1,0.1-0.3,0.2-0.4c0.4-0.8,0.8-1.6,1.3-2.4c0.1-0.2,0.2-0.4,0.3-0.5c0.4-0.9,0.9-1.8,1.3-2.7c0.1-0.2,0.2-0.4,0.3-0.6
	c0.4-0.8,0.7-1.7,1.1-2.6c0-0.1,0.1-0.2,0.1-0.4c0.4-0.9,0.7-1.9,1.1-2.8c0-0.1,0.1-0.2,0.1-0.3h0C178.2,110.6,180,100.5,180,90z"/>
<path class="st1" d="M152.7,90.2c-0.1,34.3-27.9,61.9-62,61.8c-34.2-0.1-61.9-27.8-61.8-61.9c0-34.3,27.8-61.9,62-61.9
	C125,28.2,152.7,56,152.7,90.2z M93.4,116.9c0.1,0,0.2,0,0.3,0c6.7,0,13.5,0,20.2,0c0.3,0,0.4-0.1,0.4-0.3c0.9-3.6,1.6-7.2,2.1-10.8
	c0.6-3.9,0.9-7.9,1-11.9c0-0.4,0-0.8,0-1.2c-0.2,0-0.3,0-0.4,0c-7.8,0-15.5,0-23.3,0c-0.4,0-0.5,0.1-0.5,0.5c0,7.7,0,15.5,0,23.2
	C93.4,116.6,93.4,116.8,93.4,116.9z M114.3,63.3c-7,0-13.9,0-20.9,0c0,8.1,0,16.1,0,24.1c8.1,0,16.1,0,24.1,0
	C117.4,79.2,116.4,71.2,114.3,63.3z M63.9,92.8c0,0.1,0,0.2,0,0.3c0.3,3.6,0.4,7.1,0.8,10.7c0.4,4.3,1.3,8.5,2.3,12.7
	c0.1,0.3,0.2,0.5,0.6,0.5c6.7,0,13.3,0,20,0c0.1,0,0.3,0,0.4,0c0-8.1,0-16.1,0-24.1C80,92.8,72,92.8,63.9,92.8z M63.9,87.4
	c8.1,0,16.1,0,24.1,0c0-8.1,0-16.1,0-24.1c-7,0-13.9,0-20.9,0C65.1,71.2,64.1,79.2,63.9,87.4z M119.9,63.2c1.9,8,2.9,16,3.1,24.1
	c8.1,0,16.1,0,24.2,0c0-0.1,0-0.2,0-0.3c-0.2-3.1-0.6-6.2-1.2-9.2c-1.1-5-2.8-9.7-5.2-14.2c-0.2-0.3-0.3-0.4-0.7-0.4
	c-6.5,0-13.1,0-19.6,0C120.3,63.2,120.1,63.2,119.9,63.2z M61.6,63.3c-0.1,0-0.1,0-0.2,0c-6.7,0-13.4,0-20.2,0
	c-0.1,0-0.3,0.1-0.4,0.2c-1.5,2.7-2.7,5.5-3.7,8.5c-1.4,4.1-2.3,8.4-2.7,12.7c-0.1,0.9-0.1,1.8-0.2,2.7c8.1,0,16.2,0,24.2,0
	C58.7,79.2,59.7,71.2,61.6,63.3z M34.4,92.8c0,0.1,0,0.2,0,0.2c0.1,2.7,0.5,5.4,1,8.1c1.1,5.4,2.9,10.6,5.5,15.5
	c0.2,0.3,0.3,0.4,0.6,0.4c6.6,0,13.1,0,19.7,0c0.2,0,0.3,0,0.5,0c0-0.2-0.1-0.4-0.1-0.5c-1.1-4.4-1.9-8.9-2.3-13.5
	c-0.3-3.2-0.4-6.5-0.6-9.7c0-0.4-0.1-0.5-0.6-0.5c-7.7,0-15.4,0-23.1,0C34.7,92.8,34.5,92.8,34.4,92.8z M147.2,92.8
	c-8.1,0-16.1,0-24.2,0c-0.2,8.2-1.1,16.2-3.1,24.1c0.2,0,0.2,0,0.3,0c6.7,0,13.3,0,20,0c0.2,0,0.4-0.1,0.4-0.3
	c1.3-2.3,2.3-4.8,3.2-7.3c1.5-4,2.4-8.2,2.9-12.4C147,95.6,147.1,94.2,147.2,92.8z M112.7,122.5c-6.5,0-12.8,0-19.2,0
	c0,7.9,0,15.9,0,23.8c0.1,0,0.2,0,0.3-0.1c1.6-0.4,3.2-1.1,4.6-2c3-2,5.4-4.6,7.4-7.5c2.5-3.6,4.4-7.4,5.9-11.5
	C112.1,124.3,112.4,123.4,112.7,122.5z M93.5,57.7c6.4,0,12.8,0,19.2,0c-0.1-0.2-0.1-0.3-0.2-0.5c-0.6-1.5-1.1-3-1.7-4.5
	c-1.9-4.5-4.2-8.7-7.4-12.3c-2-2.3-4.3-4.3-7.2-5.6c-0.9-0.4-1.8-0.7-2.7-1C93.5,41.9,93.5,49.8,93.5,57.7z M68.8,122.5
	c0,0.1,0.1,0.2,0.1,0.3c1.2,3.6,2.7,7,4.5,10.3c1.7,3,3.6,5.8,6.1,8.2c2.2,2.1,4.6,3.8,7.5,4.8c0.3,0.1,0.7,0.2,1,0.3
	c0-8,0-15.9,0-23.8C81.6,122.5,75.2,122.5,68.8,122.5z M88,57.7c0-8,0-15.9,0-23.8c-0.1,0-0.2,0-0.2,0c-1.7,0.4-3.2,1.1-4.7,2.1
	c-3.3,2.1-5.7,5-7.9,8.2c-2.3,3.4-4,7.1-5.5,10.9c-0.3,0.9-0.6,1.7-0.9,2.6C75.2,57.7,81.6,57.7,88,57.7z M75,144.3
	c-0.1-0.1-0.1-0.1-0.2-0.2c-3.2-3.4-5.6-7.3-7.7-11.5c-1.5-3.2-2.8-6.5-3.9-9.8c-0.1-0.3-0.2-0.4-0.5-0.4c-6,0-12,0-18,0
	c-0.1,0-0.2,0-0.4,0C52.2,133.3,62.3,140.6,75,144.3z M106.5,144.4c12.7-3.8,22.8-11.1,30.5-21.9c-6.3,0-12.5,0-18.7,0
	C115.8,130.5,112.3,138,106.5,144.4z M44.4,57.7c0.2,0,0.3,0,0.4,0c6,0,12,0,18,0c0.3,0,0.4-0.1,0.5-0.4c0.9-2.4,1.7-4.8,2.7-7.2
	c1.9-4.5,4.3-8.8,7.5-12.6c0.5-0.6,1-1.1,1.6-1.8c-6.6,1.9-12.6,4.9-18.1,9C52.1,48.4,48,52.7,44.4,57.7z M106.6,35.9
	c0.1,0.1,0.1,0.2,0.2,0.3c2.8,3.1,5.1,6.6,7,10.3c1.8,3.5,3.2,7.2,4.4,11c0.1,0.3,0.2,0.4,0.5,0.4c6,0,12,0,17.9,0
	c0.1,0,0.2,0,0.4,0C129.3,46.9,119.2,39.6,106.6,35.9z"/>
</svg>
