<svg xmlns="http://www.w3.org/2000/svg" viewBox="-30.945 -3.46 121.5 127.58"><defs><style>.cls-1{fill:#e2e2e2;}.cls-2{fill:#424242;}.cls-3{fill:#0c77f8;}</style></defs><title>guide-leggings</title><g id="Layer_2" data-name="Layer 2"><g id="Layer_1-2" data-name="Layer 1"><path class="cls-1" d="M57,11.11a.54.54,0,0,1-.65-.42.55.55,0,0,1,.42-.66l.39-.09C56.75,8,56.3,6.33,55.9,5c-.22-.72-.43-1.32-.62-1.81h0a7,7,0,0,0-.49-1.08h0l0,0,0,0h0l0-.05,0,0h0a2.51,2.51,0,0,0-1-.79h0A7.59,7.59,0,0,0,51.42.67h0C50.57.59,49.6.55,48.53.55c-3.87,0-9,.43-13,.43h-.06c-4,0-9.16-.43-13-.43a23.53,23.53,0,0,0-3.7.23h0a6.22,6.22,0,0,0-1.4.38h0a2.51,2.51,0,0,0-1,.79h0l0,.05h0l0,0,0,0,0,0h0a7,7,0,0,0-.49,1.08h0a59.37,59.37,0,0,0-2.37,8.94A74.3,74.3,0,0,0,11.88,26c0,.89,0,1.79.07,2.68.39,8,2.33,15.35,3.86,22.25A155.5,155.5,0,0,1,19.28,71.7c.11,1.58.16,3,.16,4.39v0c0,4.6-.51,8.19-.52,12.22a39.39,39.39,0,0,0,.3,5c.46,3.7,1.34,8.64,2.14,13.27.21,1.24.38,2.54.65,3.85h0c.07.3.15.51.2.67a.48.48,0,0,1,0,.39,1.69,1.69,0,0,0-.13.61v0a1.43,1.43,0,0,0,.25.8.49.49,0,0,1,.09.37v.14a3.84,3.84,0,0,0,.21,1.1h0a3.24,3.24,0,0,1,.11.51c0,.2.05.43.08.67h0c.09.79.17,1.57.21,2.33l0,.15,0,.19,0,.09a1.46,1.46,0,0,0,.32.45,2.71,2.71,0,0,0,.76.55,7.34,7.34,0,0,0,3.31.62,10.43,10.43,0,0,0,3.31-.37,2.94,2.94,0,0,0,1.05-.64,3.2,3.2,0,0,0,.6-.86,1,1,0,0,0,.11-.46h0c0-.53,0-1,0-1.52s0-.74,0-1v0h0v-.06l0-.1v-.12a2.47,2.47,0,0,0,.08-.6h0a2.36,2.36,0,0,0,0-.32.54.54,0,0,1,.08-.41l.11-.19h0a1.38,1.38,0,0,0,.12-.56h0v0h0a2.15,2.15,0,0,0-.14-.69v0h0a4.65,4.65,0,0,1-.23-1.6h0c0-.58.05-1.21.07-1.88.05-1.53.13-3,.22-4.57.19-2.86.49-4.91.74-7a53.49,53.49,0,0,0,.47-7.1c0-1.34,0-2.86-.15-4.62-.09-1.49-.13-2.78-.13-3.9a57,57,0,0,1,.86-9c0-.49.07-1.1.07-1.85,0-3.78-.53-10.92-.57-14.82,0-1.06,0-2,0-2.78,0-2.61.06-4.07.18-5.58s.29-3.09.51-5.91c.11-1.41.14-2.59.15-3.54,0-.16,0-.3,0-.45a.56.56,0,0,1,1.11,0v0c0,1,0,2.33.15,3.95.22,2.82.4,4.4.51,5.91s.18,3,.18,5.58c0,.81,0,1.72,0,2.78,0,3.9-.57,11-.57,14.82,0,.75,0,1.36.07,1.85a57,57,0,0,1,.86,9c0,1.12,0,2.41-.13,3.9-.11,1.76-.15,3.28-.15,4.62A53.49,53.49,0,0,0,37.4,97c.26,2.09.55,4.14.74,7,.1,1.52.17,3,.22,4.56,0,.67.07,1.3.07,1.88h0v0a4.71,4.71,0,0,1-.23,1.61h0a2.15,2.15,0,0,0-.14.69v0a1.33,1.33,0,0,0,.13.58l.11.18a.54.54,0,0,1,.08.41,2.36,2.36,0,0,0,0,.32h0a2.57,2.57,0,0,0,.08.61h0l0,.09v.17h0v0c0,.28,0,.62,0,1s0,1,0,1.53h0a1,1,0,0,0,.11.46,3.26,3.26,0,0,0,.61.86,3.2,3.2,0,0,0,1.68.81h0a14.37,14.37,0,0,0,2.67.2h0a7.34,7.34,0,0,0,3.31-.62,2.71,2.71,0,0,0,.76-.55,1.46,1.46,0,0,0,.32-.45l0-.09,0-.2,0-.14c0-.76.11-1.54.2-2.33h0c0-.25.06-.48.09-.68a2.53,2.53,0,0,1,.1-.52h0a3.55,3.55,0,0,0,.2-1.1v-.12a.59.59,0,0,1,.09-.37,1.41,1.41,0,0,0,.25-.8h0a1.54,1.54,0,0,0-.08-.48l-.06-.14a.55.55,0,0,1,0-.38c0-.09.06-.17.09-.28a2.66,2.66,0,0,0,.11-.39h0c.27-1.31.44-2.61.65-3.85.8-4.63,1.68-9.57,2.14-13.27a38.93,38.93,0,0,0,.3-4.92v0c0-4-.51-7.63-.52-12.23v0h0c0-1.36,0-2.81.16-4.39a156.06,156.06,0,0,1,3.48-20.78C56.66,44,58.6,36.68,59,28.67c0-.89.06-1.79.06-2.68a75.39,75.39,0,0,0-1.64-15Z"/><path class="cls-2" d="M53.86,2.61l.55-.33a1.91,1.91,0,0,0-.94-.74,7.12,7.12,0,0,0-2.09-.46A27.08,27.08,0,0,0,48.54,1c-3.86,0-9,.43-13.07.43a.65.65,0,0,0-.64.64V34.1a.65.65,0,0,0,.64.64,1.81,1.81,0,0,1,.5.06l.16.08a.91.91,0,0,1,.19.46,14.07,14.07,0,0,1,.11,2.19c0,1,0,2.31.16,3.92A106.9,106.9,0,0,1,37.28,53c0,.81,0,1.72,0,2.78,0,3.93-.57,11.08-.57,14.83a17.68,17.68,0,0,0,.07,1.8,57.79,57.79,0,0,1,.86,9c0,1.13,0,2.43-.13,3.93-.11,1.75-.15,3.26-.15,4.59a54.85,54.85,0,0,0,.46,7c.26,2.08.56,4.15.75,7,.1,1.53.17,3,.22,4.58,0,.67.07,1.31.07,1.91a5.08,5.08,0,0,1-.26,1.78,1.53,1.53,0,0,0-.12.57.92.92,0,0,0,.08.4,1.31,1.31,0,0,0,.25.35l.17.19h0l.15-.09-.16,0v0l.15-.09-.16,0,.32-.09h-.34l0,.09.32-.09h-.06l-.27-.09v.09h.28l-.27-.09v0a3.07,3.07,0,0,0-.16.46,1.5,1.5,0,0,0,0,.29,2.17,2.17,0,0,0,.07.52,2,2,0,0,1,0,.24v.12c0,.3,0,.67,0,1s0,1,0,1.52a.59.59,0,0,0,.07.29,2.47,2.47,0,0,0,2,1.45,13.17,13.17,0,0,0,2.58.19,6.89,6.89,0,0,0,3.13-.57,1.92,1.92,0,0,0,.89-.8l.06-.25c0-.79.11-1.59.21-2.4a6.64,6.64,0,0,1,.2-1.27,3.69,3.69,0,0,0,.2-1,2.35,2.35,0,0,0-.06-.51l0-.12v0l-.21,0h.21v0l-.21,0h-.24L48,113l0-.19h-.45L48,113l-.39-.18.33.28L48,113l-.39-.18.33.28-.15-.13.14.14h0l-.15-.13.14.14.21-.21a1.15,1.15,0,0,0,.32-.75,1.35,1.35,0,0,0-.16-.57.41.41,0,0,1-.06-.17v0a1,1,0,0,1,.08-.35,5.51,5.51,0,0,0,.19-.63c.27-1.29.43-2.59.65-3.84.8-4.63,1.67-9.57,2.13-13.25a38.63,38.63,0,0,0,.3-4.9c0-4-.51-7.62-.51-12.27,0-1.37,0-2.83.15-4.42a156.49,156.49,0,0,1,3.49-20.84c1.52-6.91,3.45-14.23,3.85-22.18,0-.89.06-1.78.06-2.66a75.06,75.06,0,0,0-1.74-15.42c-.47-2.15-1-4-1.4-5.42-.22-.71-.42-1.31-.61-1.79a6.8,6.8,0,0,0-.49-1.08l-.55.33.55-.33-.55.33L53.31,3a4.9,4.9,0,0,1,.39.87A57.17,57.17,0,0,1,56,12.49,72.13,72.13,0,0,1,57.37,26c0,.86,0,1.73-.06,2.6-.39,7.78-2.29,15-3.83,22a159.28,159.28,0,0,0-3.51,21c-.11,1.62-.16,3.12-.16,4.51,0,4.75.52,8.38.52,12.27A37.74,37.74,0,0,1,50,93.1c-.45,3.63-1.33,8.56-2.13,13.2-.22,1.28-.38,2.56-.64,3.79a3.91,3.91,0,0,1-.15.47,2.28,2.28,0,0,0-.15.77v.17a1.8,1.8,0,0,0,.18.58l0,.1.08,0-.08,0h0l.08,0-.08,0,.26-.06h-.27v.06l.26-.06h0l-.26-.12,0,.12h.29l-.26-.12.11.05-.1-.07v0l.11.05-.1-.07,0,0-.2.21a.75.75,0,0,0-.16.24.85.85,0,0,0-.07.33,1.45,1.45,0,0,0,.06.39l0,.24a2.24,2.24,0,0,1-.13.63,8.2,8.2,0,0,0-.26,1.49c-.09.83-.18,1.66-.22,2.51l.65,0-.59-.27.3.14-.27-.19,0,.05.3.14-.27-.19,0,0c-.09.1-.68.65-2.86.65a8.9,8.9,0,0,1-2.74-.26,1.18,1.18,0,0,1-.43-.26,1.16,1.16,0,0,1-.27-.41l-.58.29h.64c0-.49,0-1,0-1.5,0-.31,0-.68,0-1.07v-.15a2.36,2.36,0,0,0-.08-.5,1.17,1.17,0,0,1,0-.23v0l.07-.16a1.43,1.43,0,0,0,.13-.5A1.14,1.14,0,0,0,40,113c-.14-.18-.27-.29-.29-.32h0l-.25.17h.3l-.05-.17-.25.17h.17l.13,0v0h-.13l.13,0,0-.14a6.26,6.26,0,0,0,.35-2.23c0-.68-.06-1.33-.08-2,0-1.54-.12-3.08-.22-4.62-.19-2.93-.5-5-.75-7.1a51.11,51.11,0,0,1-.46-6.89c0-1.3,0-2.78.15-4.51.09-1.53.13-2.85.13-4A58.2,58.2,0,0,0,38,72.23c0-.37-.06-.94-.06-1.65,0-3.66.53-10.81.58-14.82,0-1.06,0-2,0-2.79a106.91,106.91,0,0,0-.69-11.62c-.22-2.73-.1-4.51-.22-5.74A2.56,2.56,0,0,0,37.08,34a1.6,1.6,0,0,0-.73-.46,3.08,3.08,0,0,0-.88-.11v.64h.64V2h-.64v.64c4.15,0,9.29-.43,13.07-.43A21.4,21.4,0,0,1,52,2.45a4.68,4.68,0,0,1,1,.26.72.72,0,0,1,.34.24h0Z"/><path class="cls-2" d="M17.08,2.61l.55.33A.82.82,0,0,1,18,2.71a6.18,6.18,0,0,1,1.71-.35,26.71,26.71,0,0,1,2.71-.12c3.78,0,8.92.43,13.07.43V2h-.64V34.1h.64v-.64a3.08,3.08,0,0,0-.88.11,1.75,1.75,0,0,0-.66.38,2.1,2.1,0,0,0-.57,1.14,15.89,15.89,0,0,0-.14,2.42c0,1,0,2.27-.15,3.84A106.91,106.91,0,0,0,32.38,53c0,.81,0,1.73,0,2.79,0,4,.57,11.15.57,14.81,0,.71,0,1.29-.06,1.66A58.2,58.2,0,0,0,32,81.39c0,1.16,0,2.48.13,4,.11,1.73.15,3.21.15,4.52a51.07,51.07,0,0,1-.46,6.88c-.25,2.07-.56,4.17-.74,7.1-.1,1.54-.18,3.08-.23,4.62,0,.62-.07,1.27-.07,2a6.24,6.24,0,0,0,.34,2.23l0,.12v0l.14,0H31.2v0l.14,0h.18l-.29-.13,0,.13h.32l-.29-.13.2.09-.17-.14,0,0,.2.09-.17-.14A4.19,4.19,0,0,0,31,113a1,1,0,0,0-.25.67,1.28,1.28,0,0,0,.12.5l.07.16v0a1.17,1.17,0,0,1,0,.23,2.36,2.36,0,0,0-.08.5v.14c0,.4,0,.77,0,1.08,0,.51,0,1,0,1.5h.64l-.57-.29a1.31,1.31,0,0,1-.28.41,1.55,1.55,0,0,1-.84.37,12.69,12.69,0,0,1-2.33.15,5.87,5.87,0,0,1-2.54-.42,1.38,1.38,0,0,1-.31-.22l0,0-.28.19.3-.14,0-.05-.28.19.3-.14-.58.27.64,0c0-.85-.12-1.68-.22-2.51a9.08,9.08,0,0,0-.25-1.49,2,2,0,0,1-.14-.63l0-.24a2.06,2.06,0,0,0,.05-.39.85.85,0,0,0-.07-.33.9.9,0,0,0-.22-.31l-.14-.14,0,0-.13.1.15,0,0,0-.13.1.15,0-.29.1h.31l0-.1-.29.1h0l.26,0v0h-.27l.26,0-.1,0,.1,0h0l-.1,0,.1,0a2.14,2.14,0,0,0,.22-.68v-.17a2.28,2.28,0,0,0-.15-.77,3.91,3.91,0,0,1-.15-.47c-.26-1.23-.42-2.51-.64-3.79-.8-4.64-1.68-9.57-2.13-13.2a37.74,37.74,0,0,1-.29-4.74c0-3.89.52-7.52.52-12.27,0-1.39-.05-2.89-.16-4.51a159.28,159.28,0,0,0-3.51-21c-1.54-6.94-3.44-14.18-3.82-22-.05-.87-.07-1.74-.07-2.6a73.5,73.5,0,0,1,1.72-15.15c.46-2.12.94-3.94,1.37-5.31.21-.69.41-1.27.58-1.71A5.81,5.81,0,0,1,17.63,3h0l-.55-.33-.54-.33A6.68,6.68,0,0,0,16,3.36a58.32,58.32,0,0,0-2.35,8.88A73.63,73.63,0,0,0,12.29,26c0,.88,0,1.77.06,2.66.4,8,2.33,15.27,3.85,22.18a156.49,156.49,0,0,1,3.49,20.84c.11,1.59.15,3,.15,4.42,0,4.65-.51,8.26-.51,12.27a38.63,38.63,0,0,0,.3,4.9c.46,3.68,1.34,8.62,2.13,13.25.22,1.25.38,2.55.65,3.84.06.26.14.46.19.63a1.11,1.11,0,0,1,.09.35v0a.41.41,0,0,1-.06.17,1.25,1.25,0,0,0-.15.58,1.09,1.09,0,0,0,.31.74l.15.15.06,0h0l.29-.28-.36.16.07.12.29-.28-.36.16.41-.18h-.45l0,.18.41-.18h-.24l-.21,0v0h.21l-.21,0,0,.14a2.32,2.32,0,0,0-.05.51,3.36,3.36,0,0,0,.19,1,6.64,6.64,0,0,1,.2,1.27c.1.81.18,1.61.22,2.4l.05.25a2,2,0,0,0,.9.8,6.81,6.81,0,0,0,3.12.57,9.86,9.86,0,0,0,3.17-.35,2.51,2.51,0,0,0,.9-.54,2.42,2.42,0,0,0,.52-.75.59.59,0,0,0,.07-.29c0-.52,0-1,0-1.52s0-.75,0-1.06v-.11a.77.77,0,0,1,0-.24,2.17,2.17,0,0,0,.07-.52,1,1,0,0,0,0-.29,2,2,0,0,0-.15-.43l0,0h0l-.3.08H32v-.08l-.3.08h0l.3.12,0-.12h-.32l.3.12-.12-.05.11.06h0l-.12-.05.11.06h0a2.6,2.6,0,0,1,.24-.27,1.13,1.13,0,0,0,.18-.27.8.8,0,0,0,.08-.4,1.53,1.53,0,0,0-.12-.57,5.08,5.08,0,0,1-.26-1.78c0-.6,0-1.25.08-1.91,0-1.53.12-3,.22-4.58.18-2.87.48-4.94.74-7a53.06,53.06,0,0,0,.46-7c0-1.34,0-2.85-.15-4.6-.09-1.5-.13-2.8-.13-3.93a57.79,57.79,0,0,1,.86-9,17.77,17.77,0,0,0,.07-1.81c0-3.75-.53-10.89-.57-14.82,0-1.06,0-2,0-2.78a106.9,106.9,0,0,1,.69-11.52c.22-2.8.11-4.67.22-5.71a1.45,1.45,0,0,1,.23-.84.33.33,0,0,1,.17-.1,1.81,1.81,0,0,1,.5-.06.62.62,0,0,0,.45-.19.64.64,0,0,0,.19-.45V2a.64.64,0,0,0-.19-.45.62.62,0,0,0-.45-.19C31.4,1.39,26.26,1,22.4,1a23.77,23.77,0,0,0-3.63.22,5.56,5.56,0,0,0-1.3.36,2,2,0,0,0-.94.74l.55.33-.54-.33Z"/><path class="cls-2" d="M56.91,10.57l.94-.2c-.47-2.18-1-4.06-1.42-5.51C56.2,4.14,56,3.52,55.8,3h0a7.94,7.94,0,0,0-.57-1.23l-.82.5.86.43h0a1,1,0,0,0-.33-1.23h0l-.53.8.86-.43h0a1,1,0,0,0-.86-.54h0v1l.81-.51A2.89,2.89,0,0,0,53.86.65h0A8.23,8.23,0,0,0,51.48.12h0C50.6,0,49.61,0,48.53,0c-3.91,0-9,.43-13,.43h-.05l0,1v-1h0c-4,0-9.14-.43-13-.43a23.78,23.78,0,0,0-3.79.23h0a6.9,6.9,0,0,0-1.53.42h0a2.94,2.94,0,0,0-1.36,1.12l.82.51v-1h0a1,1,0,0,0-.87.54h0l.86.43L16,1.48h0a1,1,0,0,0-.33,1.23h0l.86-.43-.82-.5A7.94,7.94,0,0,0,15.14,3h0a58.83,58.83,0,0,0-2.39,9A74.35,74.35,0,0,0,11.33,26c0,.9,0,1.8.06,2.71.4,8.08,2.36,15.45,3.87,22.34a155.5,155.5,0,0,1,3.47,20.7c.11,1.57.15,3,.15,4.35v0c0,4.57-.51,8.16-.51,12.25a40.59,40.59,0,0,0,.3,5c.47,3.72,1.35,8.67,2.14,13.3.21,1.22.38,2.52.66,3.86h0a5.91,5.91,0,0,0,.22.73h0l0,.11h0l.38-.07h-.39v.07l.38-.07h.58l-1-.06v0l1,.06-.95-.1.67.07-.64-.23,0,.16.67.07-.64-.23.19.07-.19-.08h0l.19.07-.19-.08v0l0,.05h0a2.29,2.29,0,0,0-.23.91v0a2.06,2.06,0,0,0,.59,1.4h0l.06.06.69-.67-1-.2a3.51,3.51,0,0,0-.07.66h0v0l1,0h-1a4.42,4.42,0,0,0,.24,1.29h0a8.36,8.36,0,0,1,.17,1.1c.09.8.18,1.58.2,2.33l0,.19.06.24,0,.16a2.22,2.22,0,0,0,.43.61,3.3,3.3,0,0,0,.91.67h0a7.9,7.9,0,0,0,3.56.67h0a10.8,10.8,0,0,0,3.5-.4h0a3.25,3.25,0,0,0,1.24-.77h0a3.68,3.68,0,0,0,.71-1,1.53,1.53,0,0,0,.17-.72c0-.54,0-1,0-1.53s0-.8,0-1h-.73l.73,0v0h-.73l.73,0v-.15h-.68l.67.09v-.09h-.68l.67.09h0l0-.11h0a4,4,0,0,0,.1-.72h0a2.34,2.34,0,0,0-.06-.5,3,3,0,0,0-.17-.53l-.88.39.7.65.18-.19,0,0a2.28,2.28,0,0,0,.32-.49l-.87-.41.87.41a2.07,2.07,0,0,0,.18-.8h-.87l.87,0v0h-.87l.87,0v0a3,3,0,0,0-.18-.89h0a4.16,4.16,0,0,1-.2-1.44h0c0-.54,0-1.17.08-1.87,0-1.52.12-3,.22-4.54.18-2.84.47-4.88.73-7a54.34,54.34,0,0,0,.48-7.17c0-1.36,0-2.88-.16-4.65-.09-1.49-.12-2.76-.12-3.87a57.31,57.31,0,0,1,.85-8.9,17.58,17.58,0,0,0,.08-1.92c0-3.81-.54-10.95-.58-14.83,0-1.06,0-2,0-2.77,0-2.6.07-4,.18-5.54s.29-3.08.51-5.91c.11-1.43.14-2.62.16-3.57s0-1.68.05-2.12h0a1.29,1.29,0,0,1,.06-.38v0l-.52-.21.37.41a.78.78,0,0,0,.15-.2l-.52-.21.37.41,0,0-.43-.43.32.52.11-.09-.43-.43.32.52-.3-.49.23.52.07,0-.3-.49.23.52-.1-.22.08.23h0l-.1-.22.08.23L35,34.8l.29.91-.06-.18,0,.19h0l-.06-.18,0,.19h.21V35l0,.71h0V35l0,.71h.25l0-.18,0,.18h0l0-.18,0,.18L36,34.8l-.46.85.16.08.46-.85-.65.72.37-.41-.5.24.13.17.37-.41-.5.24,0,0,0,0h0l0,0,0,0,0,.11h0a5.85,5.85,0,0,1,.06.72c0,.34,0,.77,0,1.27,0,1,0,2.35.16,4,.22,2.83.4,4.42.51,5.91s.18,2.94.18,5.54c0,.8,0,1.71,0,2.77,0,3.88-.57,11-.57,14.83a17.88,17.88,0,0,0,.07,1.92,57.14,57.14,0,0,1,.86,8.9c0,1.11,0,2.38-.13,3.87-.11,1.77-.16,3.3-.16,4.65a54.34,54.34,0,0,0,.48,7.17c.26,2.09.55,4.13.73,7,.1,1.51.18,3,.22,4.54,0,.7.08,1.33.08,1.87v0l1,0h-1v0a4.14,4.14,0,0,1-.2,1.43h0a2.69,2.69,0,0,0-.19.89h0v0a2.12,2.12,0,0,0,.18.81h0a2.53,2.53,0,0,0,.41.58h0l.1.12.71-.65-.88-.39a3.72,3.72,0,0,0-.17.53,2.34,2.34,0,0,0-.06.5h0a3.73,3.73,0,0,0,.1.72v0l0,.11h0l.68-.09H37.9v.09l.68-.09H37.9v.13l1,0h-1v0c0,.23,0,.6,0,1s0,1,0,1.54a1.65,1.65,0,0,0,.17.72,3.68,3.68,0,0,0,.71,1h0a3.72,3.72,0,0,0,2,1h0a14.33,14.33,0,0,0,2.78.2h0A7.89,7.89,0,0,0,47,120h0a3.53,3.53,0,0,0,.92-.67,2.16,2.16,0,0,0,.42-.61l0-.16.06-.24,0-.19c0-.75.11-1.53.2-2.33h0a8.36,8.36,0,0,1,.17-1.1h0a4.11,4.11,0,0,0,.24-1.29,3.42,3.42,0,0,0-.07-.66l-.95.19.69.67.06-.06h0a2.06,2.06,0,0,0,.59-1.4v0a2.29,2.29,0,0,0-.12-.66l-.08-.2,0,0h0v0l0,0h0l-.45.18.46-.13v-.05l-.45.18.46-.13-.69.19.72-.07,0-.12-.69.19.72-.07-1,.1,1-.06v0l-1,.06h.49l.47.06v-.06h-.47l.47.06-.14,0,.13,0h0l-.14,0,.13,0,0-.11h0a5.91,5.91,0,0,0,.22-.73h0c.28-1.34.45-2.64.66-3.86.79-4.63,1.67-9.58,2.14-13.3a40.59,40.59,0,0,0,.3-5c0-4.09-.51-7.69-.51-12.25h0c0-1.35,0-2.78.15-4.35A155.5,155.5,0,0,1,55.68,51c1.52-6.89,3.47-14.26,3.87-22.34,0-.91.06-1.81.06-2.71a76,76,0,0,0-1.76-15.62l-.94.2-.94.2A74.13,74.13,0,0,1,57.69,26q0,1.31-.06,2.61c-.39,7.83-2.3,15.09-3.83,22a159.28,159.28,0,0,0-3.51,21c-.11,1.61-.16,3.09-.16,4.48h0v0c0,4.72.52,8.33.52,12.25a38.47,38.47,0,0,1-.29,4.78c-.45,3.64-1.33,8.58-2.13,13.21-.22,1.28-.38,2.56-.64,3.8h0a2.83,2.83,0,0,1-.17.52l.92.31-.91-.32a2.14,2.14,0,0,0-.14.67v.14l.06.28.09.2.87-.41-.89.36c.06.14.07.15.07.17v.07l1,0h-.89l-.07,0v0h.08l-.07,0-.06.09h0l-.06.06a1,1,0,0,0-.26.87,1.67,1.67,0,0,1,0,.28,2.36,2.36,0,0,1-.15.73h0a8.65,8.65,0,0,0-.24,1.44h0c-.1.82-.18,1.65-.22,2.49l1,0-.94-.22-.06.24.94.23-.89-.38.33.14-.31-.18,0,0,.33.14-.31-.18h0a1.31,1.31,0,0,1-.46.35h0a6.09,6.09,0,0,1-2.69.47h0a12.43,12.43,0,0,1-2.4-.17h0a1.94,1.94,0,0,1-1-.45h0a1.64,1.64,0,0,1-.34-.49l-.29.14h.32l0-.14-.29.14h.32c0-.49,0-1,0-1.5,0-.34,0-.68,0-1.06v0h0v-.11h0a1.23,1.23,0,0,0,0-.26l0-.21-.94.23.94-.21a1.57,1.57,0,0,1,0-.32h0v-.09l.05-.16a.93.93,0,0,0-.16-1l-.1-.11h0a.57.57,0,0,1-.1-.12h0l-.11.06.12,0v0l-.11.06.12,0h0a.6.6,0,0,1,.06-.25h0a6.2,6.2,0,0,0,.33-2.11h0v0l-.75,0h.75v0l-.75,0h.75c0-.66-.06-1.3-.08-1.93,0-1.54-.12-3.07-.22-4.61-.19-2.91-.5-5-.75-7.08a53.22,53.22,0,0,1-.46-6.93c0-1.31,0-2.8.15-4.53.09-1.52.13-2.83.13-4a60.15,60.15,0,0,0-.86-9.13,14.69,14.69,0,0,1-.07-1.69c0-3.68.53-10.83.58-14.81,0-1.06,0-2,0-2.79,0-2.63-.06-4.14-.18-5.68s-.29-3.11-.51-5.92c-.13-1.58-.14-2.84-.15-3.86,0-.5,0-.95,0-1.34a7.24,7.24,0,0,0-.11-1h0a1.75,1.75,0,0,0-.48-1l-.2-.13L36.42,34l-.16-.07a2.68,2.68,0,0,0-.78-.1h0v1l0-1h0a2.68,2.68,0,0,0-.78.1h0a1.75,1.75,0,0,0-.31.15,1.1,1.1,0,0,0-.24.19l.68.68-.65-.71a.92.92,0,0,0-.26.35,2.82,2.82,0,0,0-.28,1.11l1,.09-1-.1c-.06.61-.06,1.34-.07,2.28s0,2.08-.15,3.45c-.22,2.81-.39,4.37-.51,5.92S32.7,50.34,32.7,53c0,.81,0,1.73,0,2.79,0,4,.57,11.13.57,14.81a15,15,0,0,1-.07,1.7,59.72,59.72,0,0,0-.86,9.12c0,1.15,0,2.47.13,4,.11,1.73.15,3.22.15,4.53a51.51,51.51,0,0,1-.46,6.93c-.25,2.07-.56,4.17-.74,7.08-.1,1.54-.18,3.07-.23,4.61,0,.63-.07,1.27-.07,1.93v0h0a6,6,0,0,0,.32,2.12l.9-.34-.9.33a.6.6,0,0,1,.06.25h1l-1,0v0h0l.13,0-.12-.06v0l.13,0-.12-.06h0l0,0,.73.63-.71-.65-.17.19a1,1,0,0,0-.17,1l0,.16v.09h0a1.09,1.09,0,0,1-.05.32l.94.21-.94-.23,0,.21c0,.07,0,.12,0,.26h0v.12h1l-1,0v0c0,.38,0,.73,0,1.06,0,.5,0,1,0,1.5h.32l-.29-.14,0,.14h.32l-.29-.14a1.83,1.83,0,0,1-.33.49h0a1.51,1.51,0,0,1-.54.33h0a9,9,0,0,1-2.85.29h0a6.12,6.12,0,0,1-2.69-.47h0a1.34,1.34,0,0,1-.39-.28l-.06-.07h0l-.31.18.33-.14,0,0-.31.18.33-.14-.89.38.94-.23-.06-.24-.93.22,1,0c0-.84-.12-1.67-.22-2.49a8.65,8.65,0,0,0-.24-1.44h0a2.31,2.31,0,0,1-.15-.74v0l-.89,0h.89v0l-.89,0h.89a1.68,1.68,0,0,1,0-.27.94.94,0,0,0-.26-.87l-.06-.06h0l-.05-.06v0l-.08,0h.08v0l-.08,0h.08v-.07s0,0,.07-.17l-.89-.36.87.41.09-.2.06-.28v-.14a2.14,2.14,0,0,0-.14-.67l-.91.32.92-.31a3.88,3.88,0,0,1-.17-.52h0c-.26-1.24-.42-2.52-.64-3.8-.8-4.63-1.67-9.57-2.13-13.21a38.47,38.47,0,0,1-.29-4.78c0-3.92.52-7.53.52-12.25v0c0-1.39,0-2.87-.16-4.48a157.55,157.55,0,0,0-3.51-21c-1.53-6.93-3.44-14.19-3.82-22-.05-.87-.07-1.74-.07-2.61a72.67,72.67,0,0,1,1.39-13.56,57.63,57.63,0,0,1,2.3-8.73h0a6.21,6.21,0,0,1,.41-.93.94.94,0,0,0,0-.93h0l-.86.43.54.8h0a.88.88,0,0,0,.32-.37h0l-.86-.43v1h0a1,1,0,0,0,.81-.45,1,1,0,0,1,.5-.37h0a4.84,4.84,0,0,1,1.08-.29h0a21.44,21.44,0,0,1,3.48-.2c3.79,0,8.92.42,13.05.42h0l0-.67v.67h0l0-.67v.67h0c4.12,0,9.25-.43,13-.42A25.06,25.06,0,0,1,51.28,2h0a6.55,6.55,0,0,1,1.82.38l.37-.88-.38.88a1,1,0,0,1,.5.37,1,1,0,0,0,.82.45h0v-1l-.86.43h0a.88.88,0,0,0,.32.37h0l.53-.8-.86-.43h0a1,1,0,0,0,0,.93,6.21,6.21,0,0,1,.41.93h0c.18.45.38,1,.59,1.72.43,1.39.92,3.22,1.38,5.34Z"/><polyline class="cls-3" points="55.7 22.48 54.6 22.48 54.6 23.31 55.7 23.31"/><path class="cls-3" d="M20.85,22.48H18.59v.83h2.26Zm4.5,0H23.1v.83h2.25Zm4.5,0H27.6v.83h2.25Zm4.5,0H32.1v.83h2.25Zm4.5,0H36.6v.83h2.25Zm4.5,0H41.1v.83h2.25Zm4.5,0H45.6v.83h2.25Zm4.5,0H50.1v.83h2.25Z"/><polyline class="cls-3" points="16.34 22.48 15.24 22.48 15.24 23.31 16.34 23.31"/><polygon class="cls-3" points="54.92 20.2 59.58 22.9 54.92 25.59 54.92 20.2"/><polygon class="cls-3" points="16.02 20.2 11.36 22.9 16.02 25.59 16.02 20.2"/><path class="cls-3" d="M24.54,19.69l.17-.06h.09l.09,0,.12.07,0,0h.05l.14-.05a3.54,3.54,0,0,0,.24-.31c.09-.11.29-.39.59-.84a3.13,3.13,0,0,0-.08-.37q-.08-.36-.15-.6a1,1,0,0,0-.12-.33l-.19-.08-.2,0-.19.05,0-.11L25.5,17l.28-.09.22,0,.23.09a1.4,1.4,0,0,1,.19.56l.07.4a6.29,6.29,0,0,1,.49-.68,1.73,1.73,0,0,1,.3-.27l.27-.09.19,0a.26.26,0,0,1,.14.24l-.07.19-.17.07h-.08l-.07,0-.09,0-.08,0h-.05c-.1,0-.25.14-.44.41a1.85,1.85,0,0,0-.28.47,2.12,2.12,0,0,0,.07.35c0,.19.09.4.14.61a1.71,1.71,0,0,0,.12.42c.05.13.11.19.18.19l.19-.1a3.58,3.58,0,0,0,.3-.38l.1.06a3,3,0,0,1-.32.47.8.8,0,0,1-.58.36.3.3,0,0,1-.28-.17,1,1,0,0,1-.11-.32l-.22-.87-.72.95a2.49,2.49,0,0,1-.33.33.49.49,0,0,1-.28.08.34.34,0,0,1-.31-.14l0-.18Z"/><polyline class="cls-3" points="5.59 4.51 5.59 5.62 6.42 5.62 6.42 4.51"/><path class="cls-3" d="M5.59,110.28v2.23h.83v-2.23Zm0-4.45v2.22h.83v-2.22Zm0-4.46v2.23h.83v-2.23Zm0-4.45v2.22h.83V96.92Zm0-4.46v2.23h.83V92.46Zm0-4.45v2.23h.83V88Zm0-4.45v2.22h.83V83.56Zm0-4.46v2.23h.83V79.1Zm0-4.45v2.23h.83V74.65Zm0-4.45v2.22h.83V70.2Zm0-4.46V68h.83V65.74Zm0-4.45v2.23h.83V61.29Zm0-4.45v2.22h.83V56.84Zm0-4.46v2.23h.83V52.38Zm0-4.45v2.23h.83V47.93Zm0-4.46V45.7h.83V43.47Zm0-4.45v2.23h.83V39Zm0-4.45v2.22h.83V34.57Zm0-4.46v2.23h.83V30.11Zm0-4.45v2.23h.83V25.66Zm0-4.45v2.22h.83V21.21Zm0-4.46V19h.83V16.75Zm0-4.45v2.23h.83V12.3Zm0-4.45v2.22h.83V7.85Z"/><polyline class="cls-3" points="5.59 114.73 5.59 115.84 6.42 115.84 6.42 114.73"/><polygon class="cls-3" points="3.31 5.3 6 0.63 8.7 5.3 3.31 5.3"/><polygon class="cls-3" points="3.31 115.05 6 119.72 8.7 115.05 3.31 115.05"/><path class="cls-3" d="M.07,62.64l.2-.08.16,0,.14.1.05,0,.05,0h0c.12,0,.3-.15.56-.46a1.35,1.35,0,0,0,.38-.66,4.05,4.05,0,0,0-.13-.77c-.09-.39-.17-.73-.26-1A3.67,3.67,0,0,0,1,59a.47.47,0,0,0-.42-.22H.29v-.11l1-.19h.08s.17.25.33.79a7.75,7.75,0,0,1,.28,1l.15.84c.24-.42.42-.73.54-1A2.52,2.52,0,0,0,3,59.29l0-.12-.09-.1-.06,0-.14-.1-.07-.21.07-.18.21-.08a.46.46,0,0,1,.29.1.5.5,0,0,1,.1.36,3.15,3.15,0,0,1-.41,1.21,12.52,12.52,0,0,1-.7,1.23,10.44,10.44,0,0,1-.85,1.15c-.37.43-.68.64-.92.64l-.26-.09A.3.3,0,0,1,0,62.83Z"/></g></g></svg>