<svg xmlns="http://www.w3.org/2000/svg" viewBox="-31.005 0 121.5 127.58"><defs><style>.cls-1{fill:#e2e2e2;}.cls-2{fill:#424242;}.cls-3{fill:#0c77f8;}</style></defs><title>guide-yoga</title><g id="Layer_2" data-name="Layer 2"><g id="Layer_1-2" data-name="Layer 1"><path class="cls-1" d="M57.3,19.37a.55.55,0,1,1-.21-1.08l.3-.06a56.1,56.1,0,0,0-2.27-8.39A7.88,7.88,0,0,0,54.73,9l0-.07A19.75,19.75,0,0,1,53.64,5.3c-.19-1-.28-1.85-.52-3l0-.11L53,2l0-.09a2.17,2.17,0,0,0-1-.82h0a7.16,7.16,0,0,0-2-.45h0C49.17.58,48.28.55,47.31.55c-3.54,0-8.21.39-11.9.39h-.06C31.66.94,27,.56,23.45.55a22.07,22.07,0,0,0-3.37.21h0a5.45,5.45,0,0,0-1.28.35h0a2.13,2.13,0,0,0-1,.82l-.05.1-.05.12,0,.11c-.24,1.19-.33,2.08-.52,3a20.59,20.59,0,0,1-1.06,3.62L16,9a7.07,7.07,0,0,0-.39.85h0a57.15,57.15,0,0,0-2.39,8.93,74.77,74.77,0,0,0-1.43,14c0,.89,0,1.79.06,2.68.4,8,2.34,15.38,3.87,22.3a154.82,154.82,0,0,1,3.48,20.85c.12,1.59.16,3,.16,4.41v0c0,4.62-.51,8.22-.51,12.26a37.59,37.59,0,0,0,.3,4.95c.46,3.71,1.34,8.66,2.14,13.31.21,1.24.38,2.54.65,3.85h0a4,4,0,0,0,.2.65h0v0a.56.56,0,0,1,0,.36l-.08.19a1.76,1.76,0,0,0-.07.43h0a1.37,1.37,0,0,0,.25.78.56.56,0,0,1,.1.38l0,.14a3.76,3.76,0,0,0,.21,1.09h0a4,4,0,0,1,.11.54c0,.2.05.43.08.68h0c.1.79.18,1.57.21,2.34l0,.15,0,.16,0,.08a1.47,1.47,0,0,0,.3.43,2.5,2.5,0,0,0,.73.53,7.19,7.19,0,0,0,3.28.61,10.21,10.21,0,0,0,3.29-.37h0a2.85,2.85,0,0,0,1-.61,3,3,0,0,0,.57-.82l.06-.14,0-.18,0-.15q0-.78,0-1.5c0-.4,0-.75,0-1v0h0V122l0-.1h0a2.53,2.53,0,0,0,.08-.59v-.06l0-.24v0a.61.61,0,0,1,.09-.42l.12-.2a1.24,1.24,0,0,0,.12-.53h0a1.84,1.84,0,0,0-.14-.66v0h0a4.73,4.73,0,0,1-.24-1.65c0-.59.06-1.23.08-1.91,0-1.53.12-3.06.22-4.58.19-2.87.49-4.93.74-7a53.25,53.25,0,0,0,.47-7.07v0h0c0-1.35,0-2.86-.15-4.63-.09-1.5-.13-2.79-.13-3.92a57.19,57.19,0,0,1,.86-9,16,16,0,0,0,.07-1.84c0-3.79-.53-10.95-.57-14.87,0-1.06,0-2,0-2.79,0-2.62.06-4.08.18-5.6s.29-3.09.51-5.93c.11-1.41.14-2.59.15-3.54s0-1.68.07-2.18v0l0-.21a.54.54,0,0,1,.55-.48h0a.54.54,0,0,1,.54.46,15.13,15.13,0,0,1,.1,2c0,1,0,2.33.15,4,.23,2.83.4,4.41.52,5.93s.17,3,.18,5.6c0,.81,0,1.73,0,2.79,0,3.92-.58,11.08-.58,14.87,0,.74,0,1.36.07,1.84a57.19,57.19,0,0,1,.86,9c0,1.13,0,2.42-.12,3.92-.11,1.77-.16,3.28-.16,4.63h0v0h0a55,55,0,0,0,.47,7.07c.26,2.1.56,4.16.75,7,.09,1.52.17,3,.22,4.58,0,.67.07,1.3.07,1.88h0v0a4.78,4.78,0,0,1-.23,1.61h0v0a1.84,1.84,0,0,0-.14.66h0a1.34,1.34,0,0,0,.13.55l.11.19a.52.52,0,0,1,.09.42v0l0,.23v.07a2.43,2.43,0,0,0,.08.58h0v0l0,.1,0,.11v.06h0c0,.29,0,.63,0,1h0c0,.48,0,1,0,1.5l0,.15,0,.18.05.14a3,3,0,0,0,.58.82,3.24,3.24,0,0,0,1.64.79,13.5,13.5,0,0,0,2.66.19,7.17,7.17,0,0,0,3.27-.61,2.72,2.72,0,0,0,.74-.53,1.59,1.59,0,0,0,.3-.42l0-.1,0-.15,0-.15c0-.77.11-1.55.2-2.35h0c0-.25.06-.48.09-.68a3.43,3.43,0,0,1,.1-.52h0a3.48,3.48,0,0,0,.2-1.09v-.14a.56.56,0,0,1,.09-.38,1.37,1.37,0,0,0,.26-.77h0a1.38,1.38,0,0,0-.09-.45l-.07-.17a.59.59,0,0,1,0-.37v0a4,4,0,0,0,.2-.65c.28-1.32.44-2.62.66-3.86.8-4.65,1.68-9.6,2.14-13.31a39.28,39.28,0,0,0,.3-4.95c0-4-.52-7.64-.52-12.27v0h0v0c0-1.35,0-2.8.16-4.38A157.08,157.08,0,0,1,55,57.73c1.53-6.92,3.47-14.28,3.87-22.3,0-.89.06-1.79.06-2.68A73.5,73.5,0,0,0,57.6,19.31Z"/><path class="cls-2" d="M54.23,10.19l.23-.6a8.24,8.24,0,0,0-2.2-.43c-.88-.08-1.9-.11-3-.11-4.08,0-9.53.4-13.86.4a.64.64,0,0,0-.45.19.66.66,0,0,0-.19.46V40.88a.63.63,0,0,0,.64.64,1.75,1.75,0,0,1,.5.06l.16.09a.72.72,0,0,1,.19.46,13.75,13.75,0,0,1,.12,2.19c0,1,0,2.32.16,3.93a107.62,107.62,0,0,1,.69,11.56c0,.81,0,1.72,0,2.78,0,3.94-.57,11.11-.57,14.87a15.08,15.08,0,0,0,.07,1.8,58.37,58.37,0,0,1,.86,9c0,1.14,0,2.43-.13,3.94-.11,1.76-.15,3.27-.15,4.61a53.55,53.55,0,0,0,.46,7.07c.26,2.08.56,4.15.75,7,.1,1.53.17,3.06.22,4.59,0,.66.08,1.31.08,1.92a5.11,5.11,0,0,1-.27,1.78,1.57,1.57,0,0,0-.12.57.93.93,0,0,0,.09.4,1.12,1.12,0,0,0,.25.35l.16.19,0,0,.14-.09-.16,0,0,0,.14-.09-.16,0,.32-.1h-.33v.1l.32-.1h-.05l-.27-.09v.09h.28l-.27-.09v0a2.07,2.07,0,0,0-.17.46,1.5,1.5,0,0,0,0,.29,2.17,2.17,0,0,0,.07.52,2,2,0,0,1,0,.25v.12c0,.3,0,.66,0,1.05s0,1,0,1.53a.55.55,0,0,0,.07.28,2.64,2.64,0,0,0,.53.75,2.78,2.78,0,0,0,1.48.71,13.55,13.55,0,0,0,2.6.18,6.89,6.89,0,0,0,3.13-.57,1.82,1.82,0,0,0,.89-.8l.06-.24c0-.8.12-1.6.21-2.42a7.81,7.81,0,0,1,.21-1.27,3.36,3.36,0,0,0,.19-1,2.35,2.35,0,0,0-.06-.51l0-.12v0l-.22,0H48v0l-.22,0h-.23L48,120l0-.19h-.45L48,120l-.39-.18.33.28L48,120l-.39-.18.33.28-.16-.13.15.14h0l-.16-.13.15.14.2-.21a1.06,1.06,0,0,0,.32-.75,1.24,1.24,0,0,0-.15-.57.74.74,0,0,1-.07-.18v0a1.44,1.44,0,0,1,.08-.35,4.76,4.76,0,0,0,.2-.63c.27-1.29.43-2.59.65-3.84.8-4.65,1.68-9.6,2.14-13.29a38.93,38.93,0,0,0,.3-4.92c0-4-.52-7.64-.52-12.3,0-1.37,0-2.84.16-4.43a155.44,155.44,0,0,1,3.49-20.9c1.53-6.93,3.47-14.27,3.86-22.24,0-.89.07-1.79.07-2.68a73.31,73.31,0,0,0-1.44-13.91A56,56,0,0,0,54.82,10a.58.58,0,0,0-.36-.36l-.23.6-.6.23a56.48,56.48,0,0,1,2.3,8.65,72.06,72.06,0,0,1,1.41,13.67c0,.87,0,1.75-.06,2.61-.39,7.81-2.29,15.07-3.83,22a157.07,157.07,0,0,0-3.52,21.09c-.12,1.63-.16,3.12-.16,4.52,0,4.76.51,8.4.51,12.3a36.34,36.34,0,0,1-.29,4.76c-.45,3.63-1.33,8.58-2.13,13.23-.22,1.29-.38,2.57-.64,3.8a3.91,3.91,0,0,1-.15.47,2.34,2.34,0,0,0-.15.77v.17a1.68,1.68,0,0,0,.17.59l0,.1.08,0-.09,0h0l.08,0-.09,0,.26-.06h-.26v.06l.26-.06h0l-.27-.12,0,.12h.29l-.27-.12.11.05-.1-.07v0l.11.05-.1-.07v0l-.2.2a.77.77,0,0,0-.16.25.6.6,0,0,0-.07.33,2.06,2.06,0,0,0,.05.39l0,.24a2.48,2.48,0,0,1-.14.64,8,8,0,0,0-.25,1.49c-.1.83-.19,1.66-.22,2.52l.64,0-.59-.27.31.14-.28-.18,0,0,.31.14-.28-.18,0,0c-.09.1-.68.65-2.86.65a8.83,8.83,0,0,1-2.75-.27,1.24,1.24,0,0,1-.44-.25,1.61,1.61,0,0,1-.27-.41l-.57.29H40c0-.49,0-1,0-1.51,0-.31,0-.68,0-1.07v-.16a2.61,2.61,0,0,0-.08-.5,1.17,1.17,0,0,1,0-.23h0l.06-.17A1,1,0,0,0,39.9,120c-.14-.17-.27-.29-.29-.32h0l-.19.15.23-.09,0-.06-.19.15.23-.09-.29.12h.31l0-.12-.29.12h.18l.13,0v0h-.13l.13,0,0-.14a6.29,6.29,0,0,0,.35-2.23c0-.68-.06-1.34-.08-2,0-1.55-.12-3.09-.22-4.63-.19-2.94-.5-5-.75-7.12a51.43,51.43,0,0,1-.46-6.91c0-1.31,0-2.79.15-4.53.09-1.53.13-2.85.13-4A58.37,58.37,0,0,0,38,79.12c0-.37-.06-1-.06-1.66,0-3.67.53-10.84.57-14.85,0-1.07,0-2,0-2.8a105.22,105.22,0,0,0-.7-11.66c-.21-2.74-.1-4.52-.21-5.75A2.65,2.65,0,0,0,37,40.81a1.6,1.6,0,0,0-.73-.45,2.86,2.86,0,0,0-.89-.12v.64H36V10.1h-.65v.64c4.4,0,9.85-.41,13.86-.41,1.1,0,2.09,0,2.9.11a7,7,0,0,1,1.86.35l.23-.6-.6.23Z"/><path class="cls-2" d="M35.38,10.1v.64c4.4,0,9.85-.41,13.86-.41,1.1,0,2.09,0,2.9.11a7,7,0,0,1,1.86.35.64.64,0,0,0,.68-.15.63.63,0,0,0,.14-.69,5.8,5.8,0,0,0-.45-1l-.55.34.6-.23a21.14,21.14,0,0,1-1.09-3.72c-.19-1-.29-1.88-.52-3.05l-.08-.21a1.87,1.87,0,0,0-.88-.7A6.34,6.34,0,0,0,49.92,1,25.55,25.55,0,0,0,47.31.87c-3.52,0-8.21.39-11.93.39S27,.87,23.45.87a21.39,21.39,0,0,0-3.33.2,5.5,5.5,0,0,0-1.2.33,1.78,1.78,0,0,0-.88.7L18,2.31c-.24,1.17-.33,2.07-.52,3.05a20.48,20.48,0,0,1-1.1,3.72l.6.23L16.4,9a6.61,6.61,0,0,0-.46,1,.67.67,0,0,0,.14.69.65.65,0,0,0,.69.15,7,7,0,0,1,1.85-.35c.82-.08,1.81-.11,2.9-.11,4,0,9.46.41,13.86.41V9.45c-4.33,0-9.77-.4-13.86-.4-1.12,0-2.14,0-3,.11a8.15,8.15,0,0,0-2.2.43l.23.6.6.23a5.19,5.19,0,0,1,.35-.77l.05-.11A22,22,0,0,0,18.7,5.6c.2-1,.29-1.93.52-3l-.63-.13.55.33a.6.6,0,0,1,.29-.18A5.45,5.45,0,0,1,21,2.25c.69-.07,1.53-.1,2.47-.1,3.44,0,8.14.39,11.93.39s8.49-.39,11.93-.39a19.15,19.15,0,0,1,3.12.19,3.89,3.89,0,0,1,.91.24.6.6,0,0,1,.29.18l.55-.33-.63.13c.22,1.11.32,2,.52,3a22.73,22.73,0,0,0,1.15,3.94l.06.11a6.56,6.56,0,0,1,.35.77l.6-.23.23-.6a8.24,8.24,0,0,0-2.2-.43c-.88-.08-1.9-.11-3-.11-4.08,0-9.53.4-13.86.4Z"/><path class="cls-2" d="M35.38,12.63H36V10.1a.65.65,0,0,0-.65-.65c-4.33,0-9.77-.4-13.86-.4-1.12,0-2.14,0-3,.11a8.15,8.15,0,0,0-2.2.43.63.63,0,0,0-.37.36,58.33,58.33,0,0,0-2.37,8.88,74.2,74.2,0,0,0-1.43,13.92q0,1.34.06,2.67c.4,8,2.33,15.31,3.86,22.24a157.7,157.7,0,0,1,3.5,20.9c.11,1.59.16,3.06.16,4.43,0,4.66-.52,8.28-.52,12.3a38.93,38.93,0,0,0,.3,4.92c.46,3.69,1.34,8.64,2.14,13.29.21,1.25.38,2.55.65,3.84a4.94,4.94,0,0,0,.19.63,1.08,1.08,0,0,1,.08.35v0a.39.39,0,0,1-.06.18,1.35,1.35,0,0,0-.16.57,1.15,1.15,0,0,0,.32.75l.15.15.05,0h0l.29-.28-.36.16.07.12.29-.28-.36.16.41-.18h-.45l0,.18.41-.18H23l-.21,0v0H23l-.21,0,0,.14a2.35,2.35,0,0,0-.06.51,3.69,3.69,0,0,0,.2,1,6.91,6.91,0,0,1,.2,1.27c.1.82.19,1.62.22,2.42l.05.24a1.92,1.92,0,0,0,.9.8,6.86,6.86,0,0,0,3.13.57,10,10,0,0,0,3.18-.34,2.4,2.4,0,0,0,.9-.55,2.81,2.81,0,0,0,.52-.75.55.55,0,0,0,.07-.28c0-.52,0-1,0-1.53s-.05-.75-.05-1.05v-.12a1.4,1.4,0,0,1,0-.25,2.17,2.17,0,0,0,.07-.52,1,1,0,0,0,0-.29,2,2,0,0,0-.15-.43l0,0h0l-.3.08h.31v-.08l-.3.08h0l.29.12,0-.12h-.31l.29.12-.12-.05.11.07v0l-.12-.05.11.07v0a2.6,2.6,0,0,1,.24-.27.9.9,0,0,0,.18-.27.93.93,0,0,0,.09-.4,1.82,1.82,0,0,0-.13-.57,5.12,5.12,0,0,1-.26-1.78c0-.61,0-1.25.08-1.92.05-1.53.12-3.06.22-4.59.18-2.89.48-5,.74-7a53.37,53.37,0,0,0,.47-7.07c0-1.34,0-2.85-.15-4.61-.09-1.51-.13-2.8-.13-3.94a58.37,58.37,0,0,1,.86-9,17.55,17.55,0,0,0,.07-1.8c0-3.76-.53-10.93-.58-14.87,0-1.06,0-2,0-2.79a105.06,105.06,0,0,1,.69-11.55c.22-2.8.11-4.69.22-5.73a1.43,1.43,0,0,1,.23-.84.33.33,0,0,1,.17-.1,1.81,1.81,0,0,1,.5-.06.7.7,0,0,0,.46-.18.68.68,0,0,0,.19-.46V12.63H34.74V40.88h.64v-.64a2.76,2.76,0,0,0-.88.12,1.73,1.73,0,0,0-.66.37,2.1,2.1,0,0,0-.57,1.14,16.12,16.12,0,0,0-.14,2.43c0,1,0,2.28-.15,3.85a107.67,107.67,0,0,0-.7,11.65c0,.82,0,1.74,0,2.81.05,4,.58,11.18.58,14.85a14,14,0,0,1-.07,1.66,59.61,59.61,0,0,0-.87,9.18c0,1.17,0,2.49.14,4,.1,1.74.15,3.22.15,4.53a53.14,53.14,0,0,1-.46,6.91c-.26,2.07-.56,4.18-.75,7.12-.1,1.54-.18,3.08-.23,4.63,0,.62-.07,1.28-.07,2a6.28,6.28,0,0,0,.34,2.23l0,.12v0l.14,0H31.1v0l.14,0h.18l-.29-.13,0,.13h.32l-.29-.13.2.09-.17-.14,0,0,.2.09-.17-.14a4.19,4.19,0,0,0-.29.33,1,1,0,0,0-.12,1.17l.06.17h0a1.17,1.17,0,0,1,0,.23,2.61,2.61,0,0,0-.08.5v.16c0,.39,0,.76,0,1.07,0,.51,0,1,0,1.51h.64l-.57-.29a1.27,1.27,0,0,1-1.12.77,11.83,11.83,0,0,1-2.34.16,5.72,5.72,0,0,1-2.55-.43,1.16,1.16,0,0,1-.31-.21l0,0-.27.18.3-.14,0,0-.27.18.3-.14-.58.27.64,0c0-.86-.13-1.69-.22-2.52A8.91,8.91,0,0,0,24.1,121a2.11,2.11,0,0,1-.14-.64l0-.24a1.45,1.45,0,0,0,.06-.39.85.85,0,0,0-.07-.33,1.07,1.07,0,0,0-.22-.31l-.14-.14,0,0-.13.1.15,0,0,0-.13.1.15,0-.29.09h.31l0-.09-.29.09h0l.26.06v-.06h-.27l.26.06-.1,0,.1,0h0l-.1,0,.1,0a2.27,2.27,0,0,0,.22-.69v-.17a2.34,2.34,0,0,0-.15-.77c-.07-.2-.13-.36-.16-.47-.25-1.23-.42-2.51-.64-3.8-.8-4.65-1.68-9.6-2.13-13.23a38.16,38.16,0,0,1-.29-4.76c0-3.9.52-7.54.52-12.3,0-1.4-.05-2.89-.16-4.52a158.77,158.77,0,0,0-3.52-21.09c-1.54-7-3.45-14.22-3.83-22-.05-.86-.07-1.73-.07-2.6a72.79,72.79,0,0,1,1.41-13.67,56.07,56.07,0,0,1,2.31-8.66l-.6-.23.23.6a7,7,0,0,1,1.85-.35c.82-.08,1.81-.11,2.9-.11,4,0,9.46.41,13.86.41V10.1h-.64v2.53Z"/><path class="cls-2" d="M57.1,18.85l.95-.19a57.7,57.7,0,0,0-2.42-9,7.07,7.07,0,0,0-.47-1l-.83.48.9-.34a19.68,19.68,0,0,1-1-3.56c-.18-.94-.28-1.84-.52-3.07l0-.16-.07-.17-.07-.15a2.65,2.65,0,0,0-1.28-1h0A7.73,7.73,0,0,0,50,.11h0C49.2,0,48.3,0,47.31,0,43.73,0,39.06.39,35.4.39v0h0v0h-.07l.05,1v-1h0C31.71.39,27,0,23.45,0A22.43,22.43,0,0,0,20,.21h0a6.43,6.43,0,0,0-1.4.39h0a2.68,2.68,0,0,0-1.27,1l-.08.15L17.15,2l0,.15c-.25,1.23-.34,2.13-.52,3.07a21.48,21.48,0,0,1-1.05,3.56l.9.34-.84-.48a8.88,8.88,0,0,0-.47,1h0a59.12,59.12,0,0,0-2.41,9,75,75,0,0,0-1.45,14.09c0,.9,0,1.81.07,2.71.4,8.09,2.35,15.48,3.88,22.39a156,156,0,0,1,3.47,20.77c.11,1.57.16,3,.16,4.37v0c0,4.58-.51,8.19-.52,12.28a38.71,38.71,0,0,0,.31,5C19.1,104,20,109,20.78,113.64c.21,1.23.38,2.54.66,3.88h0a4.89,4.89,0,0,0,.22.73h0l0,.11h0l.39-.05h-.4v.05l.39-.05h-.4v0l1,0-1,0v0l1,0-1-.1.57.06-.54-.19,0,.13.57.06-.54-.19.24.09-.24-.1h0l.24.09-.24-.1,0,0v0l.14.06-.14-.07h0l.14.06-.14-.07a1.75,1.75,0,0,0-.12.29,2,2,0,0,0-.11.6v0a2,2,0,0,0,.57,1.34v0h0l.09.1.69-.68-.95-.19v0h0a3.23,3.23,0,0,0-.07.69,4,4,0,0,0,.23,1.26h0a6.55,6.55,0,0,1,.17,1.11h0c.1.8.18,1.58.21,2.34l0,.19,0,.21.05.15a2.11,2.11,0,0,0,.41.59,3.22,3.22,0,0,0,.9.65h0a7.75,7.75,0,0,0,3.53.66,10.53,10.53,0,0,0,3.47-.39h0a3.43,3.43,0,0,0,1.21-.75,3.54,3.54,0,0,0,.69-1l.08-.21.05-.24,0-.22c0-.54,0-1.06,0-1.54s0-.8,0-1H32l.88,0v0H32l.88,0v-.15h-.6l.6.08v-.07h-.6l.6.08h0l0-.13h0a3.29,3.29,0,0,0,.09-.7v-.11l0-.27,0-.1a2.93,2.93,0,0,0-.2-.59l-.87.41.71.64.21-.23,0,0a2.34,2.34,0,0,0,.31-.47h0a2,2,0,0,0,.17-.76h-.81l.81,0v0h-.81l.81,0v0a2.86,2.86,0,0,0-.18-.86h0a4.25,4.25,0,0,1-.21-1.48c0-.56.05-1.2.07-1.89.05-1.53.12-3,.22-4.57.19-2.85.48-4.89.74-7a54.17,54.17,0,0,0,.48-7.16h-.77l.77,0v0h-.77l.77,0v0c0-1.36-.05-2.89-.16-4.66-.09-1.49-.12-2.77-.12-3.89A57.5,57.5,0,0,1,35,79.37,17.5,17.5,0,0,0,35,77.46c0-3.83-.54-11-.58-14.88,0-1.06,0-2,0-2.78,0-2.61.07-4,.18-5.55s.29-3.09.51-5.93c.12-1.43.15-2.62.16-3.58s0-1.69.06-2.13h0a2.13,2.13,0,0,1,.07-.41v0l0,0,0,0h0l0,0,0,0L35,41.93l.36.38.11-.14L35,41.93l.36.38,0,0-.39-.37.28.46.11-.09-.39-.37.28.46L35,42l.19.43,0,0L35,42l.19.43-.06-.13,0,.13h0l-.06-.13,0,.13-.31-.91.3.92h0a.86.86,0,0,1,.23,0h.23v0h0v0h0l.1-.32-.16.29.06,0,.1-.32-.16.29.26-.47-.36.4.1.07.26-.47-.36.4h0l.3-.31-.4.18.1.13.3-.31-.4.18v0l0,.11h0a13.86,13.86,0,0,1,.09,2c0,1,0,2.34.16,4,.22,2.83.4,4.42.51,5.92s.18,2.95.18,5.56c0,.81,0,1.72,0,2.78,0,3.9-.57,11-.57,14.88a17.19,17.19,0,0,0,.08,1.9,57.9,57.9,0,0,1,.85,8.94c0,1.12,0,2.4-.13,3.89-.11,1.77-.15,3.3-.15,4.66h0v0a56.14,56.14,0,0,0,.47,7.16c.26,2.1.56,4.14.74,7,.1,1.52.17,3,.22,4.57,0,.69.08,1.32.08,1.88v0l1,0h-1a4.25,4.25,0,0,1-.21,1.48h0a2.35,2.35,0,0,0-.18.86h0v0a1.76,1.76,0,0,0,.17.77,2,2,0,0,0,.4.56l.7-.65-.71.64.14.16.72-.64-.87-.41a2.84,2.84,0,0,0-.2.58l0,.11,0,.27v.11a2.61,2.61,0,0,0,.1.7v0l0,.11h0l.5-.08h-.51v.08l.5-.08h-.51v.13h0c0,.24,0,.61,0,1h0c0,.48,0,1,0,1.54l0,.22.06.24.07.21a3.42,3.42,0,0,0,2.62,1.92,14.09,14.09,0,0,0,2.77.2,7.7,7.7,0,0,0,3.52-.66h0a3.31,3.31,0,0,0,.89-.65,1.92,1.92,0,0,0,.41-.59l.05-.16,0-.2,0-.19c0-.75.11-1.54.2-2.34a7.41,7.41,0,0,1,.18-1.12h0A4.3,4.3,0,0,0,49,120.4a3.25,3.25,0,0,0-.08-.69l-.94.2,1-.17h0l-1,.16.69.68.09-.1h0a2,2,0,0,0,.56-1.34v0h0v0a2.1,2.1,0,0,0-.11-.63l-.08-.19,0,0h0l-.17.07.17-.07h0l-.17.07.17-.07,0,0v0h0l-.54.19.57,0,0-.14-.54.19.57,0-1,.09,1-.05v0l-1,0,1,0h0l-.86,0h.86v0l-.86,0h.46l.4.05v-.05h-.4l.4.05H49l.07,0H49l.07,0,0-.12h0c0-.12.14-.38.22-.73.28-1.34.44-2.65.65-3.88.8-4.64,1.68-9.6,2.15-13.33a40.48,40.48,0,0,0,.3-5c0-4.09-.51-7.7-.51-12.29h0c0-1.35,0-2.8.15-4.37a156.52,156.52,0,0,1,3.48-20.77c1.52-6.91,3.48-14.3,3.88-22.39,0-.9.06-1.81.06-2.71a75,75,0,0,0-1.44-14.09l-.95.19-.94.18a73.26,73.26,0,0,1,1.41,13.72q0,1.3-.06,2.61c-.39,7.84-2.3,15.11-3.84,22.07a159,159,0,0,0-3.52,21.05C50,80.1,50,81.59,50,83h0v0c0,4.74.52,8.37.52,12.29a38.36,38.36,0,0,1-.29,4.78c-.46,3.65-1.34,8.6-2.13,13.25-.23,1.28-.39,2.56-.65,3.81a3.1,3.1,0,0,1-.16.5l.91.31-.91-.32a2.24,2.24,0,0,0-.13.7v0h0v.13a1.32,1.32,0,0,0,.07.3l.09.21.87-.4-.89.37.07.15v0l1,0h-1v0h.16l-.15,0v0h.16l-.15,0h0l0,0,.69.67-.68-.68-.1.1a1,1,0,0,0-.26.84v.06a1.49,1.49,0,0,1,0,.28,2.45,2.45,0,0,1-.14.7h0a8.12,8.12,0,0,0-.25,1.46c-.09.82-.18,1.65-.22,2.5l1,0-.93-.22-.05.21.94.22-.89-.38.39.17-.37-.21,0,0,.39.17-.37-.21,0,0,0,0h0l0,0,0,0a1.06,1.06,0,0,1-.42.32h0a5.8,5.8,0,0,1-2.65.46A13.39,13.39,0,0,1,41,125.5a1.82,1.82,0,0,1-.95-.43,1.55,1.55,0,0,1-.32-.47l-.86.43.93-.22-.06-.25-.93.23h1c0-.5,0-1,0-1.51h0c0-.33,0-.68,0-1.07h0v-.14l-1,0h1c0-.14,0-.2,0-.28l0-.21-.93.22.93-.21a1.3,1.3,0,0,1,0-.29h-1l1,.1,0-.27-1-.1.94.22.07-.19a1,1,0,0,0-.15-1l-.15-.16h0l-.07-.09-.11.06h.13l0-.06-.11.06h.13s0,0,.06-.22h0a5.93,5.93,0,0,0,.33-2.15h0v0l-.76,0h.76v0l-.76,0h.76c0-.67,0-1.32-.07-1.94,0-1.55-.13-3.09-.23-4.63-.19-2.92-.49-5-.75-7.1a53.47,53.47,0,0,1-.46-6.93h0c0-1.32,0-2.8.15-4.54.1-1.53.14-2.85.14-4a60,60,0,0,0-.87-9.16,14.38,14.38,0,0,1-.07-1.68c0-3.69.53-10.86.58-14.86,0-1.06,0-2,0-2.8,0-2.64-.07-4.15-.19-5.7s-.29-3.12-.51-5.93c-.12-1.58-.14-2.85-.15-3.87a15.38,15.38,0,0,0-.14-2.39h0a2.29,2.29,0,0,0-.17-.56,1.41,1.41,0,0,0-.34-.47h0a1.42,1.42,0,0,0-.56-.32h0a3.09,3.09,0,0,0-.83-.11,3,3,0,0,0-.82.11h0a1.5,1.5,0,0,0-.61.37l.7.67L34,40.93a1.58,1.58,0,0,0-.4.68,4.3,4.3,0,0,0-.15.82h0c-.06.61-.05,1.35-.07,2.29s0,2.09-.14,3.46c-.23,2.81-.4,4.38-.52,5.93s-.18,3.06-.18,5.7c0,.82,0,1.74,0,2.81,0,4,.57,11.16.57,14.85,0,.72,0,1.3-.06,1.68a58.72,58.72,0,0,0-.87,9.16c0,1.16,0,2.48.13,4,.11,1.74.15,3.22.15,4.54h1l-1,0v0a51.75,51.75,0,0,1-.46,6.93c-.25,2.07-.56,4.18-.75,7.1-.1,1.54-.17,3.08-.22,4.63,0,.62-.08,1.28-.08,2a6.18,6.18,0,0,0,.33,2.15h0a.54.54,0,0,1,.06.22h1l-1,0v0h.12l-.11,0v0h.12l-.11,0h0l0,0,.73.63-.71-.65-.22.24a1,1,0,0,0-.16,1l.07.19.94-.21-1,.1,0,.27,1-.1H31a1.65,1.65,0,0,1-.05.3l.94.2L31,121.6l0,.21a1.35,1.35,0,0,0,0,.27v.11h1l-1,0v0c0,.38,0,.74,0,1.07,0,.51,0,1,0,1.51h1l-.94-.22-.06.24.94.22L31,124.6a1.75,1.75,0,0,1-.32.47,1.45,1.45,0,0,1-.52.31h0a8.85,8.85,0,0,1-2.83.29,5.73,5.73,0,0,1-2.65-.46h0a1.27,1.27,0,0,1-.36-.26l-.05-.06h0l-.39.22.41-.17,0-.05-.39.22.41-.17-.89.37.94-.22-.05-.21-.94.22,1,0c0-.85-.12-1.68-.22-2.5h0a8.07,8.07,0,0,0-.24-1.46h0a2.2,2.2,0,0,1-.15-.7,1.68,1.68,0,0,1,0-.29h0v0a1,1,0,0,0-.26-.87l-.09-.1h0l-.68.68.7-.67,0,0h0l-.16,0h.16v0l-.16,0h.16v0a.64.64,0,0,0,.07-.15l-.89-.37.88.4.08-.21.07-.29v-.19l-.89,0h.89v0l-.89,0h.89a2.28,2.28,0,0,0-.14-.7h0a4.08,4.08,0,0,1-.16-.51h0c-.26-1.25-.42-2.53-.64-3.81-.8-4.65-1.68-9.6-2.13-13.25a36.53,36.53,0,0,1-.29-4.78c0-3.92.51-7.55.51-12.28v0c0-1.39,0-2.89-.16-4.51A158.47,158.47,0,0,0,17.1,57.43c-1.54-7-3.45-14.23-3.84-22.07q-.06-1.3-.06-2.61A73.26,73.26,0,0,1,14.61,19a55.59,55.59,0,0,1,2.32-8.69h0a7.73,7.73,0,0,1,.35-.76l.06-.14a22.12,22.12,0,0,0,1.15-3.88c.19-1,.29-1.92.51-3l-.94-.19.9.35L19,2.5l-.9-.35.82.5a.82.82,0,0,1,.4-.28h0a4.28,4.28,0,0,1,1-.26h0a21.05,21.05,0,0,1,3.15-.18c3.46,0,8.14.38,11.92.39h.06l0-.81v.82h0l0-.81v.82h0v0h0c3.78,0,8.46-.4,11.91-.39a20.79,20.79,0,0,1,2.5.1h0a5.62,5.62,0,0,1,1.62.34h0a.88.88,0,0,1,.4.28l.82-.5-.9.35.07.17.89-.35-.94.19c.23,1.13.32,2,.52,3.05a21.93,21.93,0,0,0,1.14,3.88l.06.14a4.78,4.78,0,0,1,.35.76A56.76,56.76,0,0,1,56.16,19Z"/><polyline class="cls-3" points="5.59 4.26 5.59 5.37 6.42 5.37 6.42 4.26"/><path class="cls-3" d="M5.59,116.87v2.19h.83v-2.19Zm0-4.37v2.19h.83V112.5Zm0-4.37v2.19h.83v-2.19Zm0-4.37v2.18h.83v-2.18Zm0-4.38v2.19h.83V99.38Zm0-4.37V97.2h.83V95Zm0-4.37v2.18h.83V90.64Zm0-4.37v2.18h.83V86.27Zm0-4.38v2.19h.83V81.89Zm0-4.37v2.19h.83V77.52Zm0-4.37v2.18h.83V73.15Zm0-4.37V71h.83V68.78Zm0-4.38v2.19h.83V64.4Zm0-4.37v2.19h.83V60Zm0-4.37v2.18h.83V55.66Zm0-4.38v2.19h.83V51.28Zm0-4.37V49.1h.83V46.91Zm0-4.37v2.19h.83V42.54Zm0-4.37v2.18h.83V38.17Zm0-4.38V36h.83V33.79Zm0-4.37v2.19h.83V29.42Zm0-4.37v2.18h.83V25.05Zm0-4.37v2.18h.83V20.68Zm0-4.38v2.19h.83V16.3Zm0-4.37v2.19h.83V11.93Zm0-4.37V9.74h.83V7.56Z"/><polyline class="cls-3" points="5.59 121.25 5.59 122.35 6.42 122.35 6.42 121.25"/><polygon class="cls-3" points="3.31 5.05 6 0.39 8.7 5.05 3.31 5.05"/><polygon class="cls-3" points="3.31 121.57 6 126.23 8.7 121.57 3.31 121.57"/><polyline class="cls-3" points="55.62 25.94 54.51 25.94 54.51 26.77 55.62 26.77"/><path class="cls-3" d="M20.76,25.94H18.51v.84h2.25Zm4.5,0H23v.84h2.25Zm4.5,0H27.51v.84h2.25Zm4.5,0H32v.84h2.25Zm4.5,0H36.51v.84h2.25Zm4.5,0H41v.84h2.25Zm4.5,0H45.51v.84h2.25Zm4.5,0H50v.84h2.25Z"/><polyline class="cls-3" points="16.26 25.94 15.15 25.94 15.15 26.77 16.26 26.77"/><polygon class="cls-3" points="54.83 23.67 59.49 26.36 54.83 29.05 54.83 23.67"/><polygon class="cls-3" points="15.94 23.67 11.27 26.36 15.94 29.05 15.94 23.67"/><path class="cls-3" d="M24.45,23.15l.18-.06h.08l.09,0,.12.06,0,0H25l.14,0,.24-.3c.09-.12.29-.4.59-.85a3.13,3.13,0,0,0-.08-.37c-.05-.24-.1-.44-.14-.6a1.73,1.73,0,0,0-.12-.33l-.2-.08-.19,0-.2,0,0-.11.39-.13.28-.08.22,0,.22.09a1.47,1.47,0,0,1,.19.56l.07.4a5,5,0,0,1,.5-.68,1.41,1.41,0,0,1,.29-.27l.27-.09.2,0a.25.25,0,0,1,.13.24l-.07.18-.17.07h-.07l-.08,0-.09,0-.07,0h-.06c-.1,0-.25.14-.44.41a2.21,2.21,0,0,0-.28.48,2.1,2.1,0,0,0,.07.34c0,.19.09.4.14.61a3.12,3.12,0,0,0,.12.42c.05.13.11.19.18.19l.2-.1.29-.38.1.06a3.83,3.83,0,0,1-.31.47.84.84,0,0,1-.59.36.31.31,0,0,1-.28-.17,1.26,1.26,0,0,1-.11-.32l-.22-.87-.72.95a2.49,2.49,0,0,1-.33.33.42.42,0,0,1-.28.08.32.32,0,0,1-.31-.14l0-.17Z"/><path class="cls-3" d="M.07,65.77l.2-.08.16,0,.14.1.05,0,.05,0h0c.12,0,.3-.15.56-.46a1.35,1.35,0,0,0,.38-.66A4.05,4.05,0,0,0,1.53,64c-.09-.38-.17-.73-.26-1A3.54,3.54,0,0,0,1,62.12a.48.48,0,0,0-.42-.23H.47l-.18,0V61.8l1-.18h.08s.17.26.33.79a7.75,7.75,0,0,1,.28,1.05l.15.84c.24-.41.42-.73.54-1A2.66,2.66,0,0,0,3,62.43l0-.12-.09-.1-.06,0-.14-.11-.07-.21.07-.18.21-.07a.41.41,0,0,1,.29.1.49.49,0,0,1,.1.35,3.1,3.1,0,0,1-.41,1.21,11.61,11.61,0,0,1-.7,1.24,11.52,11.52,0,0,1-.85,1.15c-.37.42-.68.63-.92.63L.11,66.2A.3.3,0,0,1,0,66Z"/></g></g></svg>