<svg xmlns="http://www.w3.org/2000/svg" viewBox="0 -16.78 121.5 127.58"><defs><style>.cls-1{fill:#e2e2e2;}.cls-2{fill:#424242;}.cls-3{fill:#0c77f8;}</style></defs><title>guide-sweatshirt</title><g id="Layer_2" data-name="Layer 2"><g id="Layer_1-2" data-name="Layer 1"><path class="cls-1" d="M116.72,46.94a1,1,0,0,0-.15-.54h0L98.39,15.93h0a1.08,1.08,0,0,0-.44-.41h0l-7-3.39-16-7.76h0l0,0a17.77,17.77,0,0,0-4.14-1.62l-.1,0C67.71,1.21,63.44.56,58.64.55h0c-4.81,0-9.07.66-12,2.14l-.1,0A16.86,16.86,0,0,0,42.4,4.35l0,0h0l-16,7.75-7,3.39h0a1.08,1.08,0,0,0-.44.41L.7,46.4a1.15,1.15,0,0,0-.15.54v.12c.65,7.36,1,14.22,1.39,19.33a56.51,56.51,0,0,0,.76,6.24,9,9,0,0,0,.59,2h0a3.08,3.08,0,0,0,.49.76l.06,0h0a.62.62,0,0,1,.18.3l1,4.52a1,1,0,0,0,1,.83l.22,0a29,29,0,0,1,5.14-.44h0a33.49,33.49,0,0,1,3.84.22h0l1.09.15h0l.29,0h.09l.2,0h0a1,1,0,0,0,1-.8l1.16-4.74.11-.22.14-.17a4.83,4.83,0,0,0,.57-1.5h0a27.75,27.75,0,0,0,.53-4.23c.34-5.1.33-13.52.34-25.22a.55.55,0,0,1,.21-.43.54.54,0,0,1,.47-.11l3.1.7a.57.57,0,0,1,.43.55c-.06,4-.1,7.75-.1,11.17,0,15.76.61,25.46,1.31,31.41.25,2.17.51,3.83.76,5.12l0,.13,0,.07h0l0,.07.12.19,0,.05,0,0,0,0,.18.13.07,0,0,0,.1,0,.13,0h.35C37.82,92.12,52.42,92,57.09,92h3.09c4.67,0,19.27.13,28.91,1.47h.35l.14,0,.1,0,0,0,.06,0L90,93.2l.05,0,0,0,0-.06.12-.19,0-.08h0l0-.07,0-.13c.25-1.29.51-2.95.77-5.12.69-6,1.3-15.65,1.3-31.41,0-3.42,0-7.15-.1-11.17a.57.57,0,0,1,.44-.55l3.09-.7a.53.53,0,0,1,.47.11.55.55,0,0,1,.21.43c0,9.38,0,16.67.18,21.8a63.58,63.58,0,0,0,.47,6.46,10.25,10.25,0,0,0,.44,2h0a4.46,4.46,0,0,0,.35.73l.14.17.11.22,1.16,4.74a1,1,0,0,0,1,.8h0l.2,0h0a31,31,0,0,1,5.29-.43h0a29,29,0,0,1,5.15.44l.21,0a1,1,0,0,0,1-.83l1-4.52a.56.56,0,0,1,.16-.29h0l.07-.07a3.92,3.92,0,0,0,.78-1.52h0a24.71,24.71,0,0,0,.75-4.19c.59-5.22.9-13.53,1.7-22.59Z"/><path class="cls-2" d="M58.61,85.13H57.27c-4.63,0-20.18.11-30.12,1.6A.64.64,0,0,0,27.34,88c9.78-1.47,25.33-1.59,29.93-1.59H58.6a.64.64,0,1,0,0-1.28Z"/><path class="cls-2" d="M58.61,90.3H57.28c-4.5,0-19.4.1-29.36,1.49a.64.64,0,0,0,.17,1.27c9.82-1.37,24.72-1.48,29.19-1.48H58.6a.64.64,0,1,0,0-1.28Z"/><path class="cls-2" d="M26.61,87.44c.25,2.16.52,3.83.77,5.11a.63.63,0,0,0,.75.5.65.65,0,0,0,.51-.75c-.25-1.24-.5-2.87-.75-5a.63.63,0,0,0-.71-.56A.64.64,0,0,0,26.61,87.44Z"/><path class="cls-2" d="M26.71,43.63v-.09a.64.64,0,1,0-1.28,0v.09a.64.64,0,1,0,1.28,0"/><path class="cls-2" d="M25.43,43.61q-.12,6.78-.12,12.46c0,15.75.61,25.44,1.3,31.37a.64.64,0,0,0,1.28-.15c-.69-5.86-1.29-15.5-1.29-31.22,0-3.79,0-7.92.11-12.44a.65.65,0,0,0-.63-.66A.64.64,0,0,0,25.43,43.61Z"/><path class="cls-2" d="M26.42,44.08,26.5,44a.64.64,0,1,0-.86-1l-.08.07a.65.65,0,0,0,0,.91.66.66,0,0,0,.91,0"/><path class="cls-2" d="M26.49,44a12,12,0,0,0,3.41-5.8,28.4,28.4,0,0,0,1-7.86,45.94,45.94,0,0,0-3.51-17.54.64.64,0,0,0-.84-.32.65.65,0,0,0-.33.85,44.8,44.8,0,0,1,3.4,17,27,27,0,0,1-.94,7.5,10.71,10.71,0,0,1-3,5.19.65.65,0,0,0-.07.91A.66.66,0,0,0,26.49,44Z"/><path class="cls-2" d="M26.13,43l-6.24-1.41a.64.64,0,1,0-.29,1.25l6.25,1.41a.63.63,0,0,0,.76-.48.64.64,0,0,0-.48-.77"/><path class="cls-2" d="M25.84,44.22l.08,0A.64.64,0,0,0,26.21,43l-.07,0a.66.66,0,0,0-.78.48.64.64,0,0,0,.48.77"/><path class="cls-2" d="M17.56,74.72,16.3,79.87l.62.15.13-.63a33,33,0,0,0-5.66-.48,30.6,30.6,0,0,0-5.49.48L6,80l.62-.13L5.55,74.74A.64.64,0,1,0,4.29,75l1.1,5.15a.64.64,0,0,0,.74.5,29.5,29.5,0,0,1,5.26-.45,31.86,31.86,0,0,1,3.9.23c.48,0,.86.11,1.12.15l.29,0,.1,0a.64.64,0,0,0,.75-.48L18.8,75a.64.64,0,1,0-1.24-.3Z"/><path class="cls-2" d="M18.42,74.27a21.43,21.43,0,0,0-7.14-1.22,17.43,17.43,0,0,0-6.6,1.23.64.64,0,0,0-.36.83.65.65,0,0,0,.84.36,16.29,16.29,0,0,1,6.12-1.14,21.07,21.07,0,0,1,4.77.57c.6.15,1.08.29,1.41.4l.37.12.09,0h0a.65.65,0,0,0,.48-1.2Z"/><path class="cls-2" d="M19.1,42.18c0,10.37,0,18.31-.18,23.76a58,58,0,0,1-.45,6.26,8.82,8.82,0,0,1-.36,1.64,2.52,2.52,0,0,1-.18.39l-.06.08h0l0,0,0,0h0l0,0,0,0a.64.64,0,1,0,.62,1.12,2.06,2.06,0,0,0,.83-1.16A17.08,17.08,0,0,0,20,70.41c.44-5.2.41-14.62.43-28.23a.65.65,0,0,0-1.29,0Z"/><path class="cls-2" d="M19.14,29.73q0,6.72,0,12.45a.65.65,0,0,0,1.29,0q0-5.73,0-12.45a.65.65,0,0,0-1.29,0Z"/><path class="cls-2" d="M26.51,12.5l-7,3.39a.72.72,0,0,0-.27.25L1.05,46.61A.66.66,0,0,0,1,47c.66,7.38,1,14.26,1.4,19.36a57.58,57.58,0,0,0,.75,6.19,9,9,0,0,0,.56,1.89,2.3,2.3,0,0,0,.43.65,1.24,1.24,0,0,0,.7.41A.64.64,0,0,0,5,74.24l0,.09.05-.08H5l0,.09.05-.08A.72.72,0,0,1,5,74.11,4.45,4.45,0,0,1,4.53,73,67.44,67.44,0,0,1,3.39,62.91c-.31-4.58-.63-10.14-1.15-16l-.64.06.55.33L20.24,17l6.83-3.31a.64.64,0,1,0-.56-1.15Z"/><path class="cls-2" d="M46.77,3.08a16.74,16.74,0,0,0-4.24,1.66l.35.54-.27-.58-.08,0a.65.65,0,0,0-.3.86.63.63,0,0,0,.86.29l.07,0,.07,0-.09-.15.09.15h0l-.09-.15.09.15a15.22,15.22,0,0,1,3.87-1.5.63.63,0,0,0,.45-.79.64.64,0,0,0-.78-.45Z"/><path class="cls-2" d="M47.11,4.32l.1,0a.65.65,0,0,0,.45-.79.63.63,0,0,0-.79-.44l-.11,0a.64.64,0,0,0,.35,1.24"/><path class="cls-2" d="M27.07,13.65l16-7.76a.64.64,0,0,0-.56-1.15l-16,7.76a.64.64,0,1,0,.56,1.15"/><path class="cls-2" d="M58.67,86.41H60c4.6,0,20.15.12,29.93,1.59a.64.64,0,0,0,.19-1.27c-9.94-1.49-25.49-1.6-30.12-1.6H58.66a.64.64,0,0,0,0,1.28Z"/><path class="cls-2" d="M89.36,91.79C79.39,90.4,64.49,90.3,60,90.3H58.66a.64.64,0,0,0,0,1.28H60c4.47,0,19.37.11,29.19,1.48a.64.64,0,0,0,.72-.55A.63.63,0,0,0,89.36,91.79Z"/><path class="cls-2" d="M90.66,87.44c.69-5.93,1.3-15.62,1.3-31.37q0-5.68-.11-12.46a.65.65,0,1,0-1.29,0c.08,4.52.12,8.65.12,12.44,0,15.72-.61,25.36-1.29,31.22A.63.63,0,0,0,90,88,.64.64,0,0,0,90.66,87.44Z"/><path class="cls-2" d="M89.9,92.55c.25-1.28.51-3,.76-5.11a.64.64,0,0,0-1.27-.15c-.25,2.14-.51,3.77-.75,5a.64.64,0,0,0,.5.75A.65.65,0,0,0,89.9,92.55Z"/><path class="cls-2" d="M90.56,43.54v.09a.65.65,0,0,0,1.29,0v-.1a.64.64,0,0,0-.65-.63.65.65,0,0,0-.63.66"/><path class="cls-2" d="M90.77,44l.08.08a.66.66,0,0,0,.91,0,.64.64,0,0,0-.05-.91l-.08-.07a.63.63,0,0,0-.9.05.63.63,0,0,0,0,.9"/><path class="cls-2" d="M89.9,12.81a45.94,45.94,0,0,0-3.51,17.54,28.39,28.39,0,0,0,1,7.86,12,12,0,0,0,3.4,5.8.66.66,0,0,0,.91-.06.65.65,0,0,0-.07-.91,10.71,10.71,0,0,1-3-5.19,27,27,0,0,1-.94-7.5,44.8,44.8,0,0,1,3.4-17,.65.65,0,0,0-.32-.85A.65.65,0,0,0,89.9,12.81Z"/><path class="cls-2" d="M91.14,43l-.08,0a.64.64,0,1,0,.29,1.25l.08,0A.64.64,0,0,0,91.14,43"/><path class="cls-2" d="M97.39,41.56,91.14,43a.64.64,0,0,0-.48.77.64.64,0,0,0,.77.48l6.24-1.41a.64.64,0,0,0-.28-1.25"/><path class="cls-2" d="M112.59,74.28a17.43,17.43,0,0,0-6.6-1.23,21.43,21.43,0,0,0-7.14,1.22.66.66,0,0,0-.35.84.64.64,0,0,0,.83.36h0A19.86,19.86,0,0,1,106,74.33a16.29,16.29,0,0,1,6.12,1.14.65.65,0,0,0,.84-.36A.64.64,0,0,0,112.59,74.28Z"/><path class="cls-2" d="M96.85,29.73q0,6.72,0,12.45a.64.64,0,1,0,1.28,0c0-3.82,0-8,0-12.45a.64.64,0,1,0-1.28,0Z"/><path class="cls-2" d="M99.41,74.31l0,0,0,0h0l0,0,0,0a1.58,1.58,0,0,1-.29-.61,17.53,17.53,0,0,1-.55-3.65c-.41-5.13-.38-14.49-.4-27.88a.64.64,0,0,0-.64-.64.64.64,0,0,0-.64.64c0,10.37,0,18.31.18,23.8a59.7,59.7,0,0,0,.46,6.41A10.17,10.17,0,0,0,98,74.27a2,2,0,0,0,.82,1.16.64.64,0,0,0,.87-.25A.63.63,0,0,0,99.41,74.31Z"/><path class="cls-2" d="M111.73,74.74l-1.1,5.15.63.13.11-.63a30.52,30.52,0,0,0-5.49-.48,33.12,33.12,0,0,0-5.66.48l.13.63.62-.15-1.25-5.15a.64.64,0,0,0-1.25.3l1.26,5.15a.64.64,0,0,0,.75.48l.09,0a31.89,31.89,0,0,1,5.31-.43,29.43,29.43,0,0,1,5.26.45.64.64,0,0,0,.74-.5L113,75a.65.65,0,0,0-.49-.76A.64.64,0,0,0,111.73,74.74Z"/><path class="cls-2" d="M74.18,5.89l16,7.76a.64.64,0,1,0,.56-1.15l-16-7.76a.64.64,0,0,0-.56,1.15"/><path class="cls-2" d="M70.06,4.29l.11,0A.64.64,0,0,0,71,3.87a.65.65,0,0,0-.45-.79l-.11,0a.64.64,0,0,0-.79.44.65.65,0,0,0,.45.79"/><path class="cls-2" d="M70.17,4.32a21.58,21.58,0,0,1,3,1c.32.15.55.26.69.34l.16.09,0,0h0l.1-.16-.1.16h0l.1-.16-.1.16.07,0,.08,0A.62.62,0,0,0,75,5.6a.64.64,0,0,0-.3-.86l-.07,0-.28.58.35-.54a16.53,16.53,0,0,0-4.23-1.66.64.64,0,1,0-.34,1.24Z"/><path class="cls-2" d="M90.2,13.65,97,17l18.08,30.31.55-.33-.64-.06c-.66,7.41-1,14.31-1.4,19.38a52.45,52.45,0,0,1-.73,6,7.15,7.15,0,0,1-.46,1.59,1.68,1.68,0,0,1-.2.33l0,0,0,.08,0-.09h0l0,.08,0-.09a.64.64,0,1,0,.24,1.26,1.27,1.27,0,0,0,.71-.41,3.51,3.51,0,0,0,.69-1.38,23.1,23.1,0,0,0,.73-4.12c.59-5.19.9-13.51,1.71-22.59a.66.66,0,0,0-.09-.39L98,16.14a.65.65,0,0,0-.27-.25l-7-3.39a.63.63,0,0,0-.85.3A.63.63,0,0,0,90.2,13.65Z"/><path class="cls-2" d="M47.24,4.27c2.47-1.32,6.66-2,11.4-2s8.92.71,11.4,2a.64.64,0,0,0,.6-1.13C67.82,1.65,63.5,1,58.64,1s-9.19.69-12,2.18a.64.64,0,0,0,.61,1.13Z"/><path class="cls-2" d="M46.63,3.14A6.88,6.88,0,0,0,44.33,5a4.14,4.14,0,0,0-.88,2.54,5.73,5.73,0,0,0,1.27,3.39A13.65,13.65,0,0,0,50.25,15a21.23,21.23,0,0,0,8.39,1.69,20.55,20.55,0,0,0,10.62-2.84,11.9,11.9,0,0,0,3.29-2.9,5.66,5.66,0,0,0,1.27-3.39A4.14,4.14,0,0,0,72.94,5a6.78,6.78,0,0,0-2.3-1.84A.64.64,0,1,0,70,4.27a5.68,5.68,0,0,1,1.88,1.49,2.82,2.82,0,0,1,.62,1.76,4.44,4.44,0,0,1-1,2.62,12.41,12.41,0,0,1-5,3.65,20.14,20.14,0,0,1-7.87,1.58,19.24,19.24,0,0,1-10-2.66,10.34,10.34,0,0,1-2.94-2.57,4.44,4.44,0,0,1-1-2.62,2.88,2.88,0,0,1,.62-1.76,5.73,5.73,0,0,1,1.89-1.49.64.64,0,0,0-.61-1.13Z"/><path class="cls-2" d="M58.64,2.62V2a25.4,25.4,0,0,0-8.11,1.1,7.19,7.19,0,0,0-2.62,1.48,3.23,3.23,0,0,0-1.08,2.35,4.22,4.22,0,0,0,1,2.57,10.59,10.59,0,0,0,4.3,3,17.49,17.49,0,0,0,6.49,1.23,16.56,16.56,0,0,0,8.21-2.08,8.94,8.94,0,0,0,2.57-2.14,4.16,4.16,0,0,0,1-2.57,3.23,3.23,0,0,0-1.08-2.35,9.27,9.27,0,0,0-4.34-2A30.11,30.11,0,0,0,58.64,2V3.26a24.13,24.13,0,0,1,7.67,1,6,6,0,0,1,2.17,1.2,1.87,1.87,0,0,1,.67,1.42,2.91,2.91,0,0,1-.73,1.78,9.33,9.33,0,0,1-3.79,2.59,16.1,16.1,0,0,1-6,1.14,15.39,15.39,0,0,1-7.57-1.91,7.9,7.9,0,0,1-2.21-1.82,2.93,2.93,0,0,1-.74-1.78,1.88,1.88,0,0,1,.68-1.42,8,8,0,0,1,3.74-1.65,29,29,0,0,1,6.1-.58Z"/><path class="cls-2" d="M25.65,87.44h0a1,1,0,0,0,1,1,1,1,0,0,0,.68-.28,1,1,0,0,0,.28-.68h0a1,1,0,1,0-1.92,0h0a1,1,0,0,0,1,1,1,1,0,0,0,.68-.28,1,1,0,0,0,.28-.68h0a1,1,0,1,0-1.92,0Z"/><path class="cls-2" d="M116.22,46.61l.83-.49L98.87,15.65h0a1.58,1.58,0,0,0-.67-.61h0l-7-3.39-16-7.76h0l0,0-.42.87.51-.82a17.4,17.4,0,0,0-4.4-1.73l-.25.93L71,2.24C67.93.67,63.55,0,58.64,0h0c-4.9,0-9.29.67-12.36,2.24l.45.86-.26-.93A17.23,17.23,0,0,0,42.07,3.9l.5.82-.43-.86,0,0-16,7.75-7,3.39h0a1.54,1.54,0,0,0-.67.62L.23,46.12a1.59,1.59,0,0,0-.23.82v.15H0C.66,54.44,1,61.31,1.4,66.44a56,56,0,0,0,.77,6.3,9.39,9.39,0,0,0,.63,2.11h0a3.4,3.4,0,0,0,.59.9l.09.08h0l1,4.51A1.59,1.59,0,0,0,6,81.62l.28,0h0a28.4,28.4,0,0,1,5.09-.44,32.65,32.65,0,0,1,3.79.22h0l1.07.15h0l.28,0,.17-1-.18.94.07,0h0a1.63,1.63,0,0,0,.31,0,1.6,1.6,0,0,0,1.56-1.22l1.21-4.94-.94-.23.67.69a3,3,0,0,0,.39-.46h0a5.34,5.34,0,0,0,.65-1.68h0A27.17,27.17,0,0,0,21,69.45c.35-5.32.33-14.13.35-26.46h-1l-.22.93,5,1.15.22-.94-1,0q-.12,6.49-.11,12c0,15.78.61,25.49,1.31,31.48.25,2.18.52,3.87.77,5.18l.06.18,0,.11,0,.11.17.28.08.09,0,0,.09.09.25.18.11,0,.05,0,.11.05a1.16,1.16,0,0,0,.32.08h.43c9.61-1.34,24.32-1.47,28.92-1.47h1.66l-.17-.94-.17.94h1.59c4.54,0,19.33.12,29,1.47h.43a1.16,1.16,0,0,0,.32-.08l.11-.05,0,0,.11,0,.26-.19.08-.08,0,0,.08-.09.18-.28,0-.11h0l.05-.1,0-.19c.26-1.31.52-3,.78-5.18.69-6,1.3-15.7,1.3-31.48q0-5.48-.1-12l-1,0,.22.94,5-1.15L96.89,43h-1c0,10,0,17.65.19,23a59.91,59.91,0,0,0,.47,6.52,11,11,0,0,0,.47,2.06h0a3.57,3.57,0,0,0,.41.86h0a2.45,2.45,0,0,0,.38.46l.67-.69-.94.23,1.21,4.94a1.6,1.6,0,0,0,1.56,1.22,1.63,1.63,0,0,0,.31,0h0l-.19-1,.18,1a29.49,29.49,0,0,1,5.2-.43,28.33,28.33,0,0,1,5.09.44h0l.29,0a1.61,1.61,0,0,0,1.57-1.27l1-4.51h0l.09-.09a4.56,4.56,0,0,0,.9-1.73h0a24.79,24.79,0,0,0,.77-4.3c.6-5.26.9-13.56,1.71-22.62v-.14a1.58,1.58,0,0,0-.22-.82h0l-.83.49-.83.5.28-.17h-.32l0,.17.28-.17h0l-.32,0v0h.32l-.32,0c-.81,9.11-1.12,17.45-1.7,22.57a23.69,23.69,0,0,1-.7,4h0a2.66,2.66,0,0,1-.48,1l.71.64-.63-.73-.26.22a1,1,0,0,0-.32.53l-1,4.84.32.07V79.7a.33.33,0,0,0-.32.25l.32.07v0l0-.31h0V80l0-.31h0a30.67,30.67,0,0,0-5.43-.47,31.74,31.74,0,0,0-5.57.47h0l.06.3v-.3h-.06l.06.3v0l.31-.08a.33.33,0,0,0-.31-.24V80l.31-.08L99.46,75a1,1,0,0,0-.27-.46l-.12-.14h0a1.89,1.89,0,0,1-.22-.47h0a9.82,9.82,0,0,1-.38-1.7A62.13,62.13,0,0,1,98,66c-.18-5.32-.17-13-.18-23a1,1,0,0,0-1.18-.93l-5,1.14a1,1,0,0,0-.75,1q.1,6.48.11,11.93c0,15.73-.61,25.38-1.3,31.26-.25,2.14-.5,3.78-.75,5l1,.19L89,92.18l-.05.1h0l0,.12.89.37-.72-.65-.07.07-.06.07.68.68-.43-.86-.08,0-.09,0,.38.88-.06-1h-.24l.06,1,.13-1c-9.87-1.37-24.67-1.48-29.25-1.48H58.67v0h0v1l.17-1h0a.91.91,0,0,0-.33,0h0l.17.94v-1h0v0H57.15c-4.65,0-19.36.12-29.19,1.48l.13,1,.06-1h-.24l-.05,1,.37-.88-.09,0-.08,0-.42.86.67-.68-.06-.07-.07-.07-.71.65.89-.37-.05-.12,0-.1-.89.37.94-.19c-.24-1.25-.5-2.89-.75-5-.69-5.88-1.29-15.53-1.29-31.26q0-5.46.1-11.93a1,1,0,0,0-.75-1l-5-1.14a.93.93,0,0,0-.81.18,1,1,0,0,0-.37.75c0,12.33,0,21.16-.34,26.34a27.26,27.26,0,0,1-.49,4h0a3.48,3.48,0,0,1-.4,1.09l.81.52-.8-.53-.11.14a.84.84,0,0,0-.27.46l-1.21,4.94.31.08V79.7a.33.33,0,0,0-.31.24l.31.08v0L17,79.7h-.07V80L17,79.7h0l-.08,0h0l-.3-.05h0l-1.16-.16h0a33.79,33.79,0,0,0-4-.24A30.67,30.67,0,0,0,6,79.7H6L6,80v-.3H6L6,80v0L6.33,80A.32.32,0,0,0,6,79.7V80L6.33,80l-1-4.84A1,1,0,0,0,5,74.58l-.26-.22-.62.73.7-.65A2.1,2.1,0,0,1,4.54,74h0a7.71,7.71,0,0,1-.5-1.67,59.07,59.07,0,0,1-.73-6.08c-.41-5.07-.74-12-1.4-19.37h0l-.36,0h.36v0l-.36,0h.05l.27.16,0-.16H1.61l.27.16L20.06,16.63l-.27-.16.14.28.13-.12-.27-.16.14.28h0l7-3.4,16-7.75h0l0,0,.08,0A15.17,15.17,0,0,1,47,4L47.16,4c2.58-1.34,6.75-2,11.48-2h0c4.73,0,8.91.69,11.48,2L70.3,4a15.17,15.17,0,0,1,3.89,1.51l.09,0,0,0h0l16,7.75,7,3.4h0l.14-.28-.27.16.13.12.14-.28-.27.16h0l18.18,30.48h0Z"/><polyline class="cls-3" points="44.16 6.83 44.16 7.94 45 7.94 45 6.83"/><path class="cls-3" d="M44.17,83.48v2.16H45V83.48Zm0-4.31v2.15H45V79.17Zm0-4.32V77H45V74.85Zm0-4.32v2.16H45V70.53Zm0-4.31v2.15H45V66.22Zm0-4.32v2.16H45V61.9Zm0-4.32v2.16H45V57.58Zm0-4.32v2.16H45V53.26Zm0-4.31v2.16H45V49Zm0-4.32v2.16H45V44.63Zm0-4.32v2.16H45V40.31Zm0-4.31v2.16H45V36Zm0-4.32v2.16H45V31.68Zm0-4.32v2.16H45V27.36Zm0-4.31v2.16H45V23.05Zm0-4.32v2.16H45V18.73Zm0-4.32v2.16H45V14.41Zm0-4.31v2.15H45V10.1Z"/><polyline class="cls-3" points="44.16 87.8 44.16 88.91 45 88.91 45 87.8"/><polygon class="cls-3" points="41.89 7.62 44.58 2.95 47.27 7.62 41.89 7.62"/><polygon class="cls-3" points="41.89 88.12 44.58 92.78 47.27 88.12 41.89 88.12"/><path class="cls-3" d="M38.65,50.33l.2-.08.15,0,.15.1.05,0,0,0h.06c.11,0,.3-.15.55-.46a1.31,1.31,0,0,0,.39-.66,4.37,4.37,0,0,0-.14-.77c-.08-.38-.17-.73-.25-1a3.45,3.45,0,0,0-.32-.85.46.46,0,0,0-.42-.23H39l-.17,0v-.12l1-.19h.07c.06,0,.17.25.34.79a9.65,9.65,0,0,1,.28,1l.14.84c.25-.41.43-.73.54-1a2.42,2.42,0,0,0,.34-.92l0-.11-.1-.1-.06,0-.13-.1-.08-.21.07-.18.22-.08a.39.39,0,0,1,.28.11.47.47,0,0,1,.11.35,3.28,3.28,0,0,1-.41,1.21,11.68,11.68,0,0,1-.71,1.24,9.15,9.15,0,0,1-.84,1.14c-.37.43-.68.64-.93.64l-.25-.09a.28.28,0,0,1-.11-.24Z"/><polyline class="cls-3" points="83.38 27.64 82.27 27.64 82.27 28.47 83.38 28.47"/><path class="cls-3" d="M39.73,27.63H37.49v.84h2.24Zm4.48,0H42v.84h2.24Zm4.48,0H46.45v.84h2.24Zm4.48,0H50.93v.84h2.24Zm4.47,0H55.4v.84h2.24Zm4.48,0H59.88v.84h2.24Zm4.48,0H64.36v.84H66.6Zm4.48,0H68.84v.84h2.24Zm4.48,0H73.32v.84h2.24Zm4.47,0H77.8v.84H80Z"/><polyline class="cls-3" points="35.25 27.64 34.14 27.64 34.14 28.47 35.25 28.47"/><polygon class="cls-3" points="82.59 25.36 87.26 28.05 82.59 30.74 82.59 25.36"/><polygon class="cls-3" points="34.93 25.36 30.27 28.05 34.93 30.74 34.93 25.36"/><path class="cls-3" d="M73.37,24.84l.18-.06.08,0,.09,0,.13.06,0,0h0l.14-.05.24-.3c.09-.12.29-.4.59-.85a3.13,3.13,0,0,0-.08-.37c0-.24-.1-.44-.14-.6a1.73,1.73,0,0,0-.12-.33l-.2-.08-.19,0-.2.05,0-.11.39-.13.28-.08.22,0,.22.09a1.47,1.47,0,0,1,.19.56l.07.4a5.74,5.74,0,0,1,.5-.68,1.41,1.41,0,0,1,.29-.27l.27-.09.2,0a.25.25,0,0,1,.13.24l-.07.18-.17.07H76.4l-.08,0-.09,0-.07,0-.06,0c-.1,0-.25.14-.44.41a2.21,2.21,0,0,0-.28.48,2.1,2.1,0,0,0,.07.34c0,.19.09.4.14.61a4,4,0,0,0,.12.43q.08.18.18.18l.2-.1.29-.38.1.06a3.83,3.83,0,0,1-.31.47.84.84,0,0,1-.59.36.29.29,0,0,1-.27-.17,1.2,1.2,0,0,1-.12-.32L75,24l-.72,1a2.49,2.49,0,0,1-.33.33.42.42,0,0,1-.28.08.3.3,0,0,1-.3-.14l0-.17Z"/><path class="cls-3" d="M117.88,26.82,115.8,29.3a1.68,1.68,0,0,1,.35.1,1.27,1.27,0,0,1,.4.34l.21.28.18.17.22.07.15,0,0-.08,0-.13,0-.19.07-.17.17-.06.19.09.07.2a.48.48,0,0,1-.2.36.77.77,0,0,1-.49.17.85.85,0,0,1-.31-.06l-.22-.11-.43-.23a2.12,2.12,0,0,0-.34-.17l-.27-.05-.15,0-.16.1-.08-.06,2.24-2.69h-1a.69.69,0,0,0-.36.08.84.84,0,0,0-.22.35l-.12,0,.23-.84h2Z"/><path class="cls-3" d="M118.44,75l-.1,1.35.83.06.1-1.34Zm.33-4.42-.16,2.21.83.07.16-2.22Zm.33-4.42-.16,2.21.83.06.16-2.21Zm.33-4.42-.16,2.21.83.06.16-2.21Zm.33-4.42-.16,2.21.82.06.17-2.21Zm.33-4.42-.17,2.21.83.06.17-2.21Zm.33-4.42-.17,2.21.83.06.17-2.21Zm-.45-4,.66,1.13,0,.65.83.06.06-.78v-.13L120.69,44l-.72.42Zm-2.23-3.83,1.12,1.91.72-.42-1.12-1.91Zm-2.23-3.83,1.12,1.91.72-.42-1.12-1.91Zm-2.23-3.84,1.12,1.92.71-.42L114,32.53Zm-2.23-3.83L112.17,31l.71-.42-1.11-1.91Zm-2.23-3.83,1.11,1.92.72-.42-1.11-1.92Zm-2.23-3.83,1.11,1.92.72-.42L107.31,21Zm-2.23-3.83,1.11,1.92.72-.42-1.12-1.92Zm-2.24-3.83,1.12,1.92.72-.42-1.12-1.92Zm-3-2.66,2,1,.37-.75-2-1Zm-4-2,2,1,.38-.74-2-1Z"/><polygon class="cls-3" points="94.84 11.54 91.87 7.05 97.25 6.72 94.84 11.54"/><polygon class="cls-3" points="116.13 75.34 118.47 80.2 121.5 75.74 116.13 75.34"/></g></g></svg>