<svg xmlns="http://www.w3.org/2000/svg" viewBox="0 -10.565 121.5 127.58"><defs><style>.cls-1{fill:#e2e2e2;}.cls-2{fill:#424242;}.cls-3{fill:#0c77f8;}</style></defs><title>guide-hoodie</title><g id="Layer_2" data-name="Layer 2"><g id="Layer_1-2" data-name="Layer 1"><path class="cls-1" d="M116.71,59.47v-.1a1,1,0,0,0-.15-.54h0L98.39,28.36h0a1,1,0,0,0-.45-.41l-7-3.39L77.82,18.2a.55.55,0,0,1-.3-.6,16.49,16.49,0,0,0,.28-2.85,9,9,0,0,0-.65-3.55,6.16,6.16,0,0,0-1.74-2.33.55.55,0,0,1-.19-.45c0-.17,0-.28,0-.4a6.48,6.48,0,0,0-.17-1.54h0a5.59,5.59,0,0,0-2.52-3.4h0a13.91,13.91,0,0,0-5.08-1.84A46.76,46.76,0,0,0,58.64.55a46.87,46.87,0,0,0-8.84.69,13.78,13.78,0,0,0-5.07,1.84h0a5.6,5.6,0,0,0-2.51,3.4h0A6.46,6.46,0,0,0,42,8c0,.12,0,.23,0,.4a.56.56,0,0,1-.2.45,6.26,6.26,0,0,0-1.74,2.33h0a9,9,0,0,0-.65,3.55,15.55,15.55,0,0,0,.29,2.85.56.56,0,0,1-.31.6L26.33,24.56l-7,3.39a1,1,0,0,0-.45.41h0L.7,58.83a1.12,1.12,0,0,0-.15.54v.1c.65,7.37,1,14.24,1.4,19.35a54.79,54.79,0,0,0,.75,6.24,9.17,9.17,0,0,0,.59,2h0a2.55,2.55,0,0,0,.49.75l.06.07h0a.66.66,0,0,1,.17.29l1,4.51a1,1,0,0,0,1,.83l.23,0A30.1,30.1,0,0,1,11.39,93a33.53,33.53,0,0,1,3.86.23h0c.47,0,.84.11,1.09.15h0l.28,0h.08l.23,0a1,1,0,0,0,1-.8h0L19.1,88l.11-.22.14-.17a4.83,4.83,0,0,0,.57-1.5h0a26.69,26.69,0,0,0,.53-4.23c.34-5.1.33-13.53.34-25.22a.58.58,0,0,1,.21-.44.56.56,0,0,1,.47-.1l3.1.7a.57.57,0,0,1,.43.55c-.06,4-.09,7.75-.09,11.17,0,15.76.6,25.46,1.3,31.41.25,2.16.51,3.83.76,5.12l0,.12,0,.08h0l0,.08.13.19,0,0,0,0,0,0,.19.13.06,0h0l.11,0h0l.13,0h.35c9.68-1.35,24.36-1.47,29-1.48h3c4.61,0,19.3.13,29,1.48h.36l.12,0h0l.1,0h0l.06,0,.18-.13,0,0,0,0,.08-.09h0l.07-.12,0-.12h0l0-.07,0-.13c.25-1.29.52-3,.77-5.12.69-6,1.3-15.65,1.3-31.41,0-3.42,0-7.15-.1-11.17a.57.57,0,0,1,.44-.55l3.09-.7a.56.56,0,0,1,.47.1.58.58,0,0,1,.21.44c0,9.37,0,16.67.18,21.8a63.11,63.11,0,0,0,.47,6.45,9.91,9.91,0,0,0,.44,2h0a4.46,4.46,0,0,0,.35.73l.14.16.11.23,1.16,4.73a1,1,0,0,0,1,.8l.23,0h0a30.29,30.29,0,0,1,5.29-.44h0a29.69,29.69,0,0,1,5.12.44l.25,0a1,1,0,0,0,1-.82l1-4.52a.56.56,0,0,1,.16-.29h0l.07-.07a3.92,3.92,0,0,0,.78-1.52h0a24.71,24.71,0,0,0,.75-4.19C115.6,76.84,115.91,68.54,116.71,59.47Z"/><path class="cls-2" d="M51.15,37.28a2.14,2.14,0,0,0,.74-2.71,2.19,2.19,0,0,0-.5-.64c0-.13.13-.26.13-.39V15.46a1.24,1.24,0,1,0-2.48,0V33.54a.5.5,0,0,0,.12.39,2,2,0,0,0-.49,2.58A1.61,1.61,0,0,0,51.15,37.28Z"/><path class="cls-2" d="M67.9,37.28a2.12,2.12,0,0,0,.74-2.71,2.15,2.15,0,0,0-.49-.64c0-.13.12-.26.12-.39V15.46a1.24,1.24,0,1,0-2.48,0V33.54a.48.48,0,0,0,.13.39,2.05,2.05,0,0,0-.5,2.58A1.59,1.59,0,0,0,67.9,37.28Z"/><path class="cls-2" d="M116.22,59l.83-.49L98.87,28.07h0a1.69,1.69,0,0,0-.68-.62h0l-7-3.39L77.39,17.38l-.42.87.94.2a18,18,0,0,0,.45-3.7,9.8,9.8,0,0,0-.7-3.77A6.78,6.78,0,0,0,75.35,8.1l-.56.78.95.09a9.25,9.25,0,0,0,.05-1,7.16,7.16,0,0,0-.18-1.67h0a6.17,6.17,0,0,0-2.76-3.74h0A14.68,14.68,0,0,0,67.58.69,48.28,48.28,0,0,0,58.64,0,48.13,48.13,0,0,0,49.7.69a14.66,14.66,0,0,0-5.28,1.93,1,1,0,0,0-.43.8h1l-.52-.81a6.13,6.13,0,0,0-2.76,3.74h0A7.19,7.19,0,0,0,41.48,8a9.25,9.25,0,0,0,.05,1l1-.09-.56-.78A6.81,6.81,0,0,0,39.61,11a9.6,9.6,0,0,0-.69,3.77,17.36,17.36,0,0,0,.44,3.7l.94-.2-.42-.87L26.09,24.06l-7,3.39h0a1.57,1.57,0,0,0-.68.62L.23,58.55a1.5,1.5,0,0,0-.23.82v.14H0C.66,66.87,1,73.74,1.4,78.87a56.34,56.34,0,0,0,.77,6.3,9.84,9.84,0,0,0,.63,2.1h0a4,4,0,0,0,.59.9l.09.08h0l1,4.52A1.6,1.6,0,0,0,6,94.05l.29,0a29.29,29.29,0,0,1,5.09-.43,32.65,32.65,0,0,1,3.79.22c.47,0,.83.11,1.08.15h0l.28.05.17-1-.18.94.07,0h.06l.15-1-.19.94a1.63,1.63,0,0,0,.31,0,1.6,1.6,0,0,0,1.56-1.22l1.21-4.94-.94-.23.67.69a3.5,3.5,0,0,0,.39-.46h0a5.34,5.34,0,0,0,.65-1.68h0A27.18,27.18,0,0,0,21,81.88c.35-5.32.33-14.13.35-26.47h-1l-.22.94,5,1.14.21-.93-1,0q-.12,6.48-.11,12C24.35,84.28,25,94,25.66,100c.25,2.18.52,3.87.77,5.18l.06.18,0,.1h0l0,.12.17.28.08.09,0,0,.09.09.26.19.11.05,0,0,.11,0a.88.88,0,0,0,.32.07h.43c9.65-1.35,24.44-1.47,29-1.47H58.8l-.16-1-.17,1h1.59c4.54,0,19.33.12,29,1.47h.42a.88.88,0,0,0,.32-.07l.11,0,0,0,.11-.06.26-.18.08-.08,0,0,.08-.09a1.21,1.21,0,0,0,.18-.28l0-.12h0l.05-.1,0-.18c.26-1.31.52-3,.78-5.18.69-6,1.3-15.7,1.3-31.48q0-5.48-.1-12l-1,0,.22.93,5-1.14-.21-.94h-1c0,10,0,17.66.18,23A60.32,60.32,0,0,0,96.58,85,11,11,0,0,0,97.05,87h0a4,4,0,0,0,.41.86h0a2.82,2.82,0,0,0,.38.46l.67-.69-.93.22,1.2,5a1.6,1.6,0,0,0,1.56,1.22,1.63,1.63,0,0,0,.31,0l-.18-.94.14,1h.06a29.62,29.62,0,0,1,5.2-.43A29.21,29.21,0,0,1,111,94h0l.29,0a1.61,1.61,0,0,0,1.57-1.27l1-4.52h0l.1-.09a4.53,4.53,0,0,0,.9-1.74h0a25,25,0,0,0,.77-4.3c.6-5.27.9-13.56,1.71-22.62v-.14a1.64,1.64,0,0,0-.22-.83l-.83.5-.83.49.28-.16h-.32l0,.16.28-.16h0l-.33,0v0h.33l-.33,0c-.81,9.11-1.12,17.44-1.7,22.57a23.69,23.69,0,0,1-.7,4h0a2.56,2.56,0,0,1-.5,1l.72.65-.62-.74-.26.22a1,1,0,0,0-.33.54l-1,4.84.32.07v-.32a.33.33,0,0,0-.32.25l.32.07v0l.06-.31h-.06v.31l.06-.31h0a32.47,32.47,0,0,0-11,0l.19.94-.15-.95h-.06l.06.3v-.3h-.06l.06.3v0l.31-.08a.32.32,0,0,0-.31-.24v.32l.31-.08-1.2-4.94a1.06,1.06,0,0,0-.27-.47l-.12-.13-.8.53.81-.52a2.33,2.33,0,0,1-.22-.47h0a9.61,9.61,0,0,1-.38-1.7A61.89,61.89,0,0,1,98,78.38c-.18-5.32-.17-13-.18-23a1,1,0,0,0-.36-.75,1,1,0,0,0-.81-.19l-5,1.15a1,1,0,0,0-.75,1Q91,63.05,91,68.5c0,15.73-.61,25.38-1.29,31.25-.25,2.15-.51,3.79-.76,5l1,.18L89,104.6l0,.11h0l0,.12.89.36-.72-.64-.06.07-.07.07.68.68-.43-.86-.08,0-.09,0,.38.88-.06-1h-.25l.07,1,.13-1c-9.87-1.37-24.67-1.48-29.25-1.49H58.67v0h0v1l.17-1h0a1,1,0,0,0-.34,0h0l.17,1v-1h0v0H57.21c-4.58,0-19.38.12-29.25,1.49l.14,1,.06-1h-.24l-.06,1,.37-.89-.09,0-.08,0-.42.86.68-.68-.07-.07-.07-.07-.71.64.89-.36-.05-.12h0l0-.1-.89.36.94-.18c-.24-1.25-.5-2.89-.75-5-.69-5.87-1.29-15.52-1.29-31.25q0-5.46.1-11.93a1,1,0,0,0-.75-1l-5-1.15a1,1,0,0,0-1.18.94c0,12.33,0,21.16-.34,26.34a27.27,27.27,0,0,1-.49,4h0a3.48,3.48,0,0,1-.4,1.09l.81.52-.8-.53-.11.13a.9.9,0,0,0-.27.47l-1.21,4.94.31.08v-.32a.33.33,0,0,0-.31.24l.31.08v0l.07-.31h-.07v.31l.07-.31h-.11l-.31,0h0c-.26,0-.66-.11-1.15-.16a33.79,33.79,0,0,0-4-.24A30.67,30.67,0,0,0,6,92.13l0,.31v-.31H6l0,.31v0l.32-.07A.32.32,0,0,0,6,92.13v.32l.32-.07-1-4.84A1,1,0,0,0,5,87l-.26-.21-.62.73.7-.65a1.74,1.74,0,0,1-.25-.41h0a7.71,7.71,0,0,1-.5-1.67,59.07,59.07,0,0,1-.73-6.08c-.41-5.08-.74-12-1.4-19.37h0l-.36,0h.36v0l-.36,0h.05l.27.16,0-.16H1.61l.27.16L20.06,29.06l-.28-.17.14.3.14-.13-.28-.17.14.3h0l7-3.39,13.79-6.68A1,1,0,0,0,41.24,18a15.59,15.59,0,0,1-.4-3.29,7.91,7.91,0,0,1,.54-3,4.92,4.92,0,0,1,1.67-2.07,1,1,0,0,0,.4-.87,6.62,6.62,0,0,1,0-.77,5.06,5.06,0,0,1,.13-1.22h0a4.18,4.18,0,0,1,1.94-2.57,1,1,0,0,0,.43-.81H45l.53.81a12.72,12.72,0,0,1,4.58-1.65,46.3,46.3,0,0,1,8.58-.66,46.18,46.18,0,0,1,8.57.66A12.86,12.86,0,0,1,71.8,4.23h0A4.16,4.16,0,0,1,73.73,6.8h0A5.08,5.08,0,0,1,73.87,8c0,.26,0,.51,0,.77a1,1,0,0,0,.39.87,4.92,4.92,0,0,1,1.67,2.07,7.72,7.72,0,0,1,.54,3A15.59,15.59,0,0,1,76,18a1,1,0,0,0,.52,1.07l13.79,6.68,7,3.39h0l.14-.29-.27.16.13.13.14-.29-.27.16h0l18.18,30.47Z"/><path class="cls-2" d="M27.35,100.42c2.68-.4,5.81-.7,9-.93a.63.63,0,0,0,.59-.68.65.65,0,0,0-.68-.6c-3.24.23-6.4.54-9.14,1a.64.64,0,0,0,.2,1.26Z"/><path class="cls-2" d="M36.38,99.49c8.5-.59,17.62-.65,20.93-.65H58.6a.65.65,0,0,0,.65-.64.64.64,0,0,0-.64-.64h-1.3c-3.33,0-12.46.06-21,.66a.65.65,0,0,0-.6.69A.63.63,0,0,0,36.38,99.49Z"/><path class="cls-2" d="M58.61,102.73H57.27c-4.52,0-19.4.11-29.35,1.49a.65.65,0,1,0,.18,1.28c9.8-1.37,24.67-1.48,29.17-1.48H58.6a.65.65,0,0,0,.65-.64A.64.64,0,0,0,58.61,102.73Z"/><path class="cls-2" d="M26.61,99.86c.25,2.17.52,3.83.77,5.11a.63.63,0,0,0,.75.51.65.65,0,0,0,.51-.75c-.25-1.24-.5-2.88-.75-5a.64.64,0,0,0-1.28.14Z"/><path class="cls-2" d="M26.71,56.06V56a.64.64,0,1,0-1.28,0V56a.63.63,0,0,0,.62.65.64.64,0,0,0,.66-.62"/><path class="cls-2" d="M25.43,56c-.08,4.53-.12,8.67-.12,12.47,0,15.75.61,25.44,1.3,31.36a.64.64,0,1,0,1.28-.14c-.69-5.86-1.29-15.5-1.29-31.22q0-5.69.11-12.44a.65.65,0,0,0-.63-.66A.64.64,0,0,0,25.43,56Z"/><path class="cls-2" d="M26.42,56.5l.08-.07a.66.66,0,0,0,.05-.91.65.65,0,0,0-.91,0l-.08.07a.66.66,0,0,0,0,.91.65.65,0,0,0,.91,0"/><path class="cls-2" d="M26.49,56.44a12,12,0,0,0,3.41-5.81,28.4,28.4,0,0,0,1-7.86,45.89,45.89,0,0,0-3.51-17.53.63.63,0,0,0-.84-.32.64.64,0,0,0-.33.85,44.75,44.75,0,0,1,3.4,17,27,27,0,0,1-.94,7.5,10.7,10.7,0,0,1-3,5.2.63.63,0,0,0-.06.9A.64.64,0,0,0,26.49,56.44Z"/><path class="cls-2" d="M26.13,55.4,19.89,54a.65.65,0,0,0-.29,1.26l6.25,1.41a.64.64,0,1,0,.28-1.25"/><path class="cls-2" d="M25.85,56.65l.08,0a.64.64,0,0,0,.28-1.25l-.08,0a.64.64,0,1,0-.28,1.25"/><path class="cls-2" d="M17.56,87.15,16.3,92.29l.62.16.13-.63a30.7,30.7,0,0,0-5.66-.48,31.48,31.48,0,0,0-5.49.47l.12.64.62-.14L5.55,87.16a.65.65,0,0,0-.76-.49.64.64,0,0,0-.5.76l1.1,5.15a.64.64,0,0,0,.74.5,29.65,29.65,0,0,1,5.26-.46,34.37,34.37,0,0,1,3.91.23l1.11.16.29,0,.1,0a.65.65,0,0,0,.75-.48l1.25-5.15a.64.64,0,1,0-1.24-.3Z"/><path class="cls-2" d="M18.42,86.7a21.58,21.58,0,0,0-7.14-1.23,17.62,17.62,0,0,0-6.6,1.23.64.64,0,0,0-.35.84.63.63,0,0,0,.83.35,16.27,16.27,0,0,1,6.12-1.13,20.51,20.51,0,0,1,4.77.57c.6.14,1.08.29,1.41.39l.37.13.09,0h0a.64.64,0,1,0,.48-1.19Z"/><path class="cls-2" d="M19.1,54.61c0,10.36,0,18.31-.18,23.75a58,58,0,0,1-.45,6.27,8.82,8.82,0,0,1-.36,1.64,2.52,2.52,0,0,1-.18.39l-.06.07h0l0,0,0,0h0l0,0,0,0a.64.64,0,0,0-.25.87.65.65,0,0,0,.88.25,2.13,2.13,0,0,0,.82-1.16A17.3,17.3,0,0,0,20,82.84c.44-5.2.41-14.62.43-28.23a.65.65,0,0,0-1.29,0Z"/><path class="cls-2" d="M19.14,42.15q0,6.72,0,12.46a.65.65,0,0,0,1.29,0q0-5.73,0-12.45a.66.66,0,0,0-.64-.65A.65.65,0,0,0,19.14,42.15Z"/><path class="cls-2" d="M26.51,24.93l-7,3.39a.62.62,0,0,0-.28.25L1.05,59a.56.56,0,0,0-.08.38c.65,7.38,1,14.26,1.39,19.37A57.58,57.58,0,0,0,3.11,85a9,9,0,0,0,.56,1.89,2.62,2.62,0,0,0,.43.65,1.3,1.3,0,0,0,.7.41A.64.64,0,0,0,5,86.67l0,.09.05-.08H5l0,.09.05-.08A.72.72,0,0,1,5,86.54a4.4,4.4,0,0,1-.42-1.12A68.65,68.65,0,0,1,3.39,75.34c-.31-4.58-.62-10.14-1.15-16l-.64.06.56.33L20.24,29.39l6.83-3.31a.65.65,0,0,0,.3-.86A.64.64,0,0,0,26.51,24.93Z"/><path class="cls-2" d="M27.07,26.08l14.24-6.9A.64.64,0,1,0,40.75,18l-14.24,6.9a.64.64,0,1,0,.56,1.15"/><path class="cls-2" d="M80.9,99.49c3.21.23,6.34.53,9,.93a.63.63,0,0,0,.73-.53.64.64,0,0,0-.54-.73c-2.74-.41-5.89-.72-9.13-1a.66.66,0,0,0-.69.6A.65.65,0,0,0,80.9,99.49Z"/><path class="cls-2" d="M81,98.21c-8.56-.6-17.69-.66-21-.66H58.66a.63.63,0,0,0-.63.64.64.64,0,0,0,.64.64H60c3.31,0,12.42.06,20.93.65a.63.63,0,0,0,.68-.59A.65.65,0,0,0,81,98.21Z"/><path class="cls-2" d="M89.36,104.21c-10-1.38-24.83-1.49-29.35-1.49H58.66a.63.63,0,0,0-.63.64.64.64,0,0,0,.64.64H60c4.49,0,19.37.11,29.17,1.48a.65.65,0,0,0,.72-.55.63.63,0,0,0-.54-.72Z"/><path class="cls-2" d="M90.66,99.86C91.35,93.94,92,84.25,92,68.5c0-3.8,0-7.94-.11-12.47a.65.65,0,0,0-1.29,0q.12,6.77.12,12.44c0,15.72-.61,25.36-1.29,31.22a.64.64,0,1,0,1.27.14Z"/><path class="cls-2" d="M89.9,105c.25-1.28.51-2.94.76-5.11a.64.64,0,1,0-1.27-.14c-.25,2.13-.51,3.77-.75,5a.64.64,0,1,0,1.26.24Z"/><path class="cls-2" d="M90.56,56v.1a.65.65,0,0,0,1.29,0v-.09a.65.65,0,0,0-1.29,0"/><path class="cls-2" d="M90.77,56.43l.08.07a.64.64,0,1,0,.87-1l-.09-.07a.63.63,0,0,0-.9,0,.65.65,0,0,0,0,.91"/><path class="cls-2" d="M89.9,25.24a45.89,45.89,0,0,0-3.51,17.53,28.39,28.39,0,0,0,1,7.86,12,12,0,0,0,3.4,5.81.65.65,0,0,0,.91-.07.64.64,0,0,0-.07-.9,10.7,10.7,0,0,1-3-5.2,27,27,0,0,1-.94-7.5,44.75,44.75,0,0,1,3.4-17,.64.64,0,1,0-1.17-.53Z"/><path class="cls-2" d="M91.14,55.4l-.08,0a.64.64,0,0,0,.29,1.25l.08,0a.64.64,0,0,0-.29-1.25"/><path class="cls-2" d="M97.39,54,91.14,55.4a.64.64,0,0,0,.29,1.25l6.24-1.41A.65.65,0,0,0,97.39,54"/><path class="cls-2" d="M112.59,86.7a17.62,17.62,0,0,0-6.6-1.23,21.48,21.48,0,0,0-7.13,1.23.65.65,0,0,0-.36.84.63.63,0,0,0,.83.35h0A20,20,0,0,1,106,86.76a16.27,16.27,0,0,1,6.12,1.13.64.64,0,0,0,.84-.35A.65.65,0,0,0,112.59,86.7Z"/><path class="cls-2" d="M96.85,42.16q0,6.72,0,12.45a.64.64,0,0,0,.64.64.64.64,0,0,0,.64-.64c0-3.82,0-8,0-12.46a.64.64,0,0,0-.64-.64A.65.65,0,0,0,96.85,42.16Z"/><path class="cls-2" d="M99.41,86.74l0,0,0,0h0l0,0,0,0a1.48,1.48,0,0,1-.29-.6,18.38,18.38,0,0,1-.55-3.65c-.41-5.13-.38-14.49-.4-27.88a.64.64,0,1,0-1.28,0c0,10.37,0,18.31.18,23.8a62.68,62.68,0,0,0,.46,6.41A10.57,10.57,0,0,0,98,86.7a2,2,0,0,0,.82,1.16.64.64,0,0,0,.87-.25A.63.63,0,0,0,99.41,86.74Z"/><path class="cls-2" d="M111.73,87.16l-1.1,5.15.63.14.11-.64a31.4,31.4,0,0,0-5.49-.47,30.83,30.83,0,0,0-5.66.48l.13.63.62-.16-1.25-5.14a.65.65,0,0,0-.78-.48.66.66,0,0,0-.47.78l1.26,5.15a.65.65,0,0,0,.75.48l.09,0a30.29,30.29,0,0,1,5.31-.44,29.49,29.49,0,0,1,5.26.46.66.66,0,0,0,.75-.5L113,87.43a.63.63,0,0,0-.49-.76A.64.64,0,0,0,111.73,87.16Z"/><path class="cls-2" d="M76,19.18l14.24,6.9a.64.64,0,0,0,.86-.3.63.63,0,0,0-.3-.85L76.52,18a.64.64,0,0,0-.86.29.65.65,0,0,0,.3.86"/><path class="cls-2" d="M90.2,26.08,97,29.39,115.12,59.7l.55-.33-.64-.06c-.66,7.41-1,14.31-1.4,19.37a52.45,52.45,0,0,1-.73,6,7.1,7.1,0,0,1-.46,1.6,1.68,1.68,0,0,1-.2.33l0,0,0,.08,0-.09h0l0,.08,0-.09a.64.64,0,0,0-.51.75.65.65,0,0,0,.76.51,1.34,1.34,0,0,0,.7-.41,3.58,3.58,0,0,0,.69-1.38A23.27,23.27,0,0,0,114.6,82c.6-5.2.9-13.51,1.71-22.6a.63.63,0,0,0-.09-.38L98,28.57a.59.59,0,0,0-.27-.25l-7-3.39a.63.63,0,0,0-.85.29A.64.64,0,0,0,90.2,26.08Z"/><path class="cls-2" d="M45.66,4.49c1.87-1.24,5.71-2.25,13-2.25a.64.64,0,0,0,.64-.64A.64.64,0,0,0,58.64,1C51.25,1,47.23,1.94,45,3.42a.64.64,0,1,0,.71,1.07Z"/><path class="cls-2" d="M41.66,18.45a16.18,16.18,0,0,1-.5-3.7,7.33,7.33,0,0,1,.52-2.89A4.56,4.56,0,0,1,43.5,9.72a.64.64,0,0,0,.3-.62A9.63,9.63,0,0,1,43.73,8a4.8,4.8,0,0,1,.12-1.14,3.88,3.88,0,0,1,1.81-2.39A.64.64,0,0,0,45,3.42,5.21,5.21,0,0,0,42.6,6.58,6.05,6.05,0,0,0,42.44,8a11.55,11.55,0,0,0,.08,1.23l.64-.07-.34-.55a5.84,5.84,0,0,0-2.32,2.73,8.71,8.71,0,0,0-.62,3.39,17.64,17.64,0,0,0,.53,4,.64.64,0,1,0,1.25-.3Z"/><path class="cls-2" d="M40.41,18.75l0,.13a.61.61,0,0,0,.23.36c3.38,2.64,8.92,4.43,15.36,4.82.85.05,1.72.08,2.61.08s1.75,0,2.61-.08a.64.64,0,0,0-.08-1.28c-.83,0-1.68.08-2.53.08s-1.7,0-2.53-.08c-6.24-.37-11.59-2.14-14.65-4.55l-.4.51.63-.15,0-.13a.64.64,0,1,0-1.25.29Z"/><path class="cls-2" d="M59.18,18.31a67.88,67.88,0,0,0-12-13.59c-.57-.5-1.06-.93-1.46-1.26a.65.65,0,0,0-.9.09.64.64,0,0,0,.08.9c.39.32.88.74,1.44,1.23A67.29,67.29,0,0,1,58.1,19a.63.63,0,0,0,.88.2A.65.65,0,0,0,59.18,18.31Z"/><path class="cls-2" d="M72.32,3.42C70.05,1.94,66,1,58.64,1a.65.65,0,0,0,0,1.29c7.27,0,11.1,1,13,2.24a.64.64,0,0,0,.89-.18A.65.65,0,0,0,72.32,3.42Z"/><path class="cls-2" d="M59.28,18.66V1.6A.64.64,0,0,0,58.64,1,.64.64,0,0,0,58,1.6V18.66a.64.64,0,0,0,.64.64.64.64,0,0,0,.64-.64"/><path class="cls-2" d="M76.86,18.75a17.09,17.09,0,0,0,.53-4,8.71,8.71,0,0,0-.61-3.39,5.86,5.86,0,0,0-2.33-2.73l-.34.55.64.07A11.73,11.73,0,0,0,74.83,8a6.05,6.05,0,0,0-.16-1.44,5.17,5.17,0,0,0-2.35-3.16.65.65,0,0,0-.89.19.63.63,0,0,0,.19.88,3.86,3.86,0,0,1,1.8,2.39A4.8,4.8,0,0,1,73.55,8a9.63,9.63,0,0,1-.07,1.08.63.63,0,0,0,.29.62,4.51,4.51,0,0,1,1.82,2.14,7.33,7.33,0,0,1,.52,2.89,16.17,16.17,0,0,1-.49,3.7.64.64,0,1,0,1.24.3Z"/><path class="cls-2" d="M75.61,18.46l0,.13.63.15-.4-.51c-3,2.41-8.4,4.18-14.64,4.55a.63.63,0,0,0-.6.68.64.64,0,0,0,.68.6c6.43-.39,12-2.18,15.36-4.82a.65.65,0,0,0,.22-.36l0-.13a.64.64,0,0,0-.47-.77A.65.65,0,0,0,75.61,18.46Z"/><path class="cls-2" d="M61.79,23.16a35.51,35.51,0,0,0-2.61-4.85.64.64,0,0,0-.89-.19.63.63,0,0,0-.19.88,35.34,35.34,0,0,1,2.52,4.68.64.64,0,0,0,.84.33A.63.63,0,0,0,61.79,23.16Z"/><path class="cls-2" d="M59.18,19A67.29,67.29,0,0,1,71,5.68l1.43-1.23a.64.64,0,0,0,.08-.9.65.65,0,0,0-.9-.09c-.4.33-.89.76-1.46,1.26a68.19,68.19,0,0,0-12,13.59.64.64,0,1,0,1.08.69Z"/><path class="cls-2" d="M35.69,85.75v13.1a.64.64,0,1,0,1.28,0V85.75a.64.64,0,0,0-1.28,0"/><path class="cls-2" d="M45.6,73.65a16.09,16.09,0,0,1-4.21,7.73,18.76,18.76,0,0,1-5.34,3.8.64.64,0,1,0,.56,1.15,20,20,0,0,0,5.7-4A17.61,17.61,0,0,0,46.85,74a.64.64,0,0,0-1.25-.3Z"/><path class="cls-2" d="M46.23,74.44H57.52a.64.64,0,1,0,0-1.28H46.23a.64.64,0,0,0,0,1.28"/><path class="cls-2" d="M81.59,98.85V85.75a.65.65,0,0,0-1.29,0v13.1a.65.65,0,1,0,1.29,0"/><path class="cls-2" d="M81.22,85.18a18.76,18.76,0,0,1-5.34-3.8,16.26,16.26,0,0,1-4.21-7.73.64.64,0,0,0-1.25.3A17.61,17.61,0,0,0,75,82.28a20,20,0,0,0,5.71,4,.64.64,0,0,0,.55-1.15Z"/><path class="cls-2" d="M59.75,74.44h11.3a.64.64,0,0,0,0-1.28H59.75a.64.64,0,0,0,0,1.28"/><path class="cls-2" d="M59.75,73.16H57.52a.64.64,0,0,0,0,1.28h2.23a.64.64,0,0,0,0-1.28"/><polyline class="cls-3" points="41.02 22.65 41.02 23.76 41.85 23.76 41.85 22.65"/><path class="cls-3" d="M41,96.42v2.2h.83v-2.2ZM41,92v2.2h.83V92Zm0-4.4v2.2h.83v-2.2Zm0-4.41v2.21h.83V83.2Zm0-4.4V81h.83V78.8Zm0-4.4v2.2h.83V74.4ZM41,70V72.2h.83V70Zm0-4.4v2.2h.83v-2.2Zm0-4.4v2.2h.83v-2.2Zm0-4.41V59h.83v-2.2Zm0-4.4v2.2h.83v-2.2ZM41,48v2.2h.83V48Zm0-4.41v2.2h.83v-2.2Zm0-4.4v2.2h.83v-2.2Zm0-4.4V37h.83v-2.2Zm0-4.41v2.2h.83v-2.2ZM41,26v2.2h.83V26Z"/><polyline class="cls-3" points="41.02 100.82 41.02 101.93 41.85 101.93 41.85 100.82"/><polygon class="cls-3" points="38.74 23.44 41.43 18.77 44.13 23.44 38.74 23.44"/><polygon class="cls-3" points="38.74 101.14 41.43 105.8 44.13 101.14 38.74 101.14"/><path class="cls-3" d="M35.5,65l.2-.08.16,0,.14.1,0,0,0,0h.06c.12,0,.3-.15.56-.46a1.35,1.35,0,0,0,.38-.66,5.12,5.12,0,0,0-.13-.77c-.09-.38-.18-.73-.26-1a3.54,3.54,0,0,0-.31-.85.48.48,0,0,0-.42-.23h-.08l-.17,0v-.12l1-.19h.07c.06,0,.17.25.34.79a9.65,9.65,0,0,1,.28,1l.14.84c.25-.41.43-.73.55-1a2.57,2.57,0,0,0,.33-.91l0-.12-.1-.1-.06,0-.13-.11L38,61.13l.07-.18.21-.08a.38.38,0,0,1,.28.11.43.43,0,0,1,.11.35,3.28,3.28,0,0,1-.41,1.21,11.68,11.68,0,0,1-.71,1.24,9.15,9.15,0,0,1-.84,1.14c-.37.43-.68.64-.93.64l-.25-.09a.28.28,0,0,1-.11-.24Z"/><polyline class="cls-3" points="83.84 39.87 82.73 39.87 82.73 40.7 83.84 40.7"/><path class="cls-3" d="M40.19,39.87H38v.83h2.24Zm4.48,0H42.43v.83h2.24Zm4.47,0H46.91v.83h2.23Zm4.48,0H51.38v.83h2.24Zm4.48,0H55.86v.83H58.1Zm4.48,0H60.34v.83h2.24Zm4.48,0H64.82v.83h2.24Zm4.47,0H69.3v.83h2.23Zm4.48,0H73.77v.83H76Zm4.48,0H78.25v.83h2.24Z"/><polyline class="cls-3" points="35.71 39.87 34.6 39.87 34.6 40.7 35.71 40.7"/><polygon class="cls-3" points="83.05 37.59 87.72 40.29 83.05 42.98 83.05 37.59"/><polygon class="cls-3" points="35.39 37.59 30.72 40.29 35.39 42.98 35.39 37.59"/><path class="cls-3" d="M73.83,37.08,74,37h.09l.09,0,.12.07,0,0h.05l.14,0a3.54,3.54,0,0,0,.24-.31c.09-.11.28-.39.59-.84a3,3,0,0,0-.08-.38q-.08-.35-.15-.6a1.16,1.16,0,0,0-.12-.33l-.19-.07-.2,0-.19.05,0-.11.39-.13.28-.09.22,0,.23.09a1.59,1.59,0,0,1,.19.55l.07.41a5.43,5.43,0,0,1,.49-.69,1.31,1.31,0,0,1,.3-.26l.27-.09.19,0a.25.25,0,0,1,.14.24l-.07.19-.17.07h-.08l-.07,0-.09,0-.08,0h0c-.1,0-.25.14-.44.41a1.85,1.85,0,0,0-.28.47,3,3,0,0,0,.06.35c0,.19.1.39.15.61a1.86,1.86,0,0,0,.12.42c0,.13.11.19.18.19l.19-.1a3.58,3.58,0,0,0,.3-.38l.1.06a2.85,2.85,0,0,1-.32.46.79.79,0,0,1-.58.37.32.32,0,0,1-.28-.17,1,1,0,0,1-.11-.32l-.22-.87-.72.94a1.65,1.65,0,0,1-.33.33.43.43,0,0,1-.28.09.34.34,0,0,1-.31-.14l0-.18Z"/><path class="cls-3" d="M117.69,39.68l-2.09,2.48a1.73,1.73,0,0,1,.36.11,1.12,1.12,0,0,1,.4.33l.21.28.18.17.22.07.15,0,0-.08,0-.13-.05-.2.08-.16.17-.06.19.08.06.2a.45.45,0,0,1-.2.36.67.67,0,0,1-.48.17.91.91,0,0,1-.32-.06l-.21-.1-.43-.24-.34-.17-.27-.05-.15,0-.17.11-.07-.07L117.17,40h-1a.6.6,0,0,0-.36.09.66.66,0,0,0-.22.34l-.12,0,.22-.83h2Z"/><path class="cls-3" d="M118.25,87.82l-.1,1.34.83.06.1-1.34Zm.33-4.42-.17,2.21.83.06.17-2.21Zm.33-4.42-.17,2.21.83.06.17-2.21Zm.33-4.43-.17,2.22.83.06.17-2.21Zm.33-4.42-.17,2.21.83.07.17-2.21Zm.33-4.42-.17,2.21.83.06.16-2.21Zm.33-4.42-.17,2.21.83.06.16-2.21Zm-.45-4,.66,1.13,0,.65.83.06.06-.78v-.13l-.79-1.35-.72.42Zm-2.23-3.83,1.12,1.92.71-.42-1.11-1.92Zm-2.23-3.83,1.11,1.92.72-.42L116,49.22Zm-2.23-3.83,1.11,1.91.72-.41-1.11-1.92ZM110.86,42,112,43.89l.72-.42-1.12-1.91Zm-2.23-3.83,1.11,1.91.72-.42-1.12-1.91Zm-2.24-3.83,1.12,1.91.72-.42-1.12-1.91Zm-2.23-3.84,1.12,1.92L106,32l-1.12-1.91Zm-2.23-3.83,1.12,1.92.72-.42-1.12-1.91Zm-3-2.65,2,1,.37-.74-2-1Zm-4-2,2,1,.37-.75-2-1Z"/><polygon class="cls-3" points="94.64 24.41 91.68 19.91 97.05 19.59 94.64 24.41"/><polygon class="cls-3" points="115.94 88.21 118.28 93.06 121.31 88.61 115.94 88.21"/></g></g></svg>