<svg xmlns="http://www.w3.org/2000/svg" viewBox="-9.185 -47.685 115.11 115.11"><defs><style>.cls-1{fill:#e2e2e2;}</style></defs><title>hoodie-label</title><g id="Layer_2" data-name="Layer 2"><g id="Layer_5" data-name="Layer 5"><path class="cls-1" d="M95.87,49.74a.87.87,0,0,0,.87-.87V.87A.87.87,0,0,0,95.87,0H.87A.87.87,0,0,0,0,.87v48a.87.87,0,0,0,.87.87Zm-20-9L68.6,48H67.51l7.28-7.28H73.42L66.14,48H65.05l.24-.24,7-7H71l-6.36,6.36-.92.92H62.6l1.46-1.47,6.63-6.62V38.55l-7.31,7.3L61.23,48H60.14l2.69-2.69,7.86-7.86V36.09l-3.28,3.27v1.36H66.05l-3.9,3.9L58.78,48h-1.1l3.93-3.92L65,40.72h-.52l-.36-.48-3.16,3.15L56.32,48H55.23l5.15-5.15,3.23-3.23L63,38.85,59.7,42.17,53.86,48H52.77l6.38-6.38,3.39-3.39L62,37.45l-3.49,3.49L51.41,48H50.32l7.27-7.28H56.23L49,48H47.86l7.28-7.28h0V39.37l-8.26,8.26L46.5,48H45.4l.92-.92,6.36-6.36H51.32L45.64,46.4,44,48H43l2.15-2.15,5.27-5.27L50,39.63l-5.54,5.54L41.58,48H40.49l3.38-3.38,5.76-5.75-.42-1-6,6L39.13,48H38l4.61-4.61,5.55-5.54H46.82L42,42.71,36.67,48H35.58l5.83-5.83,4.32-4.32H44.37L43,39.18l-.66,1.54h-.88l-.76.76L34.21,48H33.12l7.06-7.06.22-.22H39.21l.13-.3L31.76,48H30.67l7.27-7.28H36.58L29.3,48H28.21l.37-.37,6.91-6.91h-.41l-.4-.56L27.9,46.94,26.84,48H25.75l1.61-1.6,6.88-6.88-.56-.81-7,7L24.39,48H23.3l2.83-2.83,7.1-7.1-.56-.81-2.6,2.61v.85h-.86l-3.76,3.77L21.93,48H20.84l4.06-4.06,3.22-3.22h-1v-.34l-2.88,2.88L19.48,48h-1.1l5.29-5.29,3.43-3.42V37.92L23,42l-6,6H15.93l6.51-6.52,4.66-4.65V35.47l-2.68,2.68a3.59,3.59,0,0,1-.77,1.33,3.24,3.24,0,0,1-1.49.92l-.4.4L14.56,48H13.47l7.34-7.34c-.32,0-.64.06-1,.06h-.42L12.11,48H11l7.27-7.28H16.93l-6.77,6.77L9.65,48H8.56l1.06-1.06,6.22-6.22H14.47L8.93,46.26,7.19,48H6.1l2.29-2.29L14,40.13V38.76L7.71,45l-3,3H3.65l3.51-3.51L14,37.67V36.31L6.48,43.8,2.28,48H1.74v-.55l4.19-4.19,8.05-8V33.85L5.25,42.58,1.74,46.09V45l3-3,9.15-9.14.13-.13V31.39l-.82.82L4,41.35,1.74,43.63V42.54L3.48,40.8l9.14-9.14L14,30.3V28.94l-2,2L2.79,40.12l-1,1.06V40.09l.51-.52,9.14-9.14L14,27.85v-.44h.43l6.12-6.12,4.63-4.63-.49-.87-4.82,4.82-9.14,9.14-9,9V37.63l8.42-8.43,9.14-9.14,5-5-.5-.87-5.15,5.15L9.48,28.52,1.74,36.26V35.17L8.93,28l9.15-9.15,5.3-5.3-.5-.86-5.49,5.48L8.25,27.29,1.74,33.81V32.72l6-6,9.14-9.15L22.48,12,22,11.1l-5.82,5.82L7,26.06,1.74,31.35V30.26l4.74-4.74,9.14-9.14,6-6-.5-.87-6.15,6.15L5.8,24.84,1.74,28.9V27.8l3.51-3.51,9.14-9.14L23.54,6,27.8,1.74h1.1L24.08,6.55,21.31,9.32h1.37l2.08-2.09,5.5-5.49h1.09l-6,6L23.77,9.32h.41l.35.6L26,8.46l6.73-6.72h1.09L26.54,9l-1.61,1.6.5.86,1.79-1.78,8-7.95h1.09l-8.49,8.5-1.93,1.93.5.86,2.11-2.11,1.33-1.33.15-.27h.12l7.54-7.54,0,0h1.09l-.58.58-7,7H32.5L38.82,3l1.27-1.26h1.09L39.36,3.55l-6.8,6.8-1.83,3.19.17-.17,9.15-9.14,2.49-2.49h1.09l-3,3-9.14,9.14-2.18,2.17-.73,1.29v.81l3.59-3.59,2-2A6.32,6.32,0,0,1,35.36,11a7,7,0,0,1,1.51-1.13l4.4-4.4L45,1.74h1.09L41.82,6l-3.2,3.2A7.07,7.07,0,0,1,40.17,9L42.5,6.69l5-4.95h1.1l-5.5,5.49L41.22,9.07a7.29,7.29,0,0,1,1.15.21l1.36-1.36,6.18-6.18H51L44.28,8.46l-1.11,1.1a6.38,6.38,0,0,1,.9.47L45,9.14l7.41-7.4h1.09l-8,8-.78.79a5.43,5.43,0,0,1,.58.51l.13.14.76-.76,8.63-8.63h1.1l0,0-9.15,9.14-.79.79a6.52,6.52,0,0,1,.55.82l.93-.93,2.22-2.23v0h.06l6.86-6.86.72-.72h1.09L57.1,3,50.79,9.32h1.36l5.64-5.63,2-1.95h1.09l-2.5,2.49L52.62,10v1.36L59,4.91l3.18-3.17h1.09L59.56,5.46,52.62,12.4v1.37l7.62-7.63,4.41-4.4h1.09l-4.95,5L58.16,9.32h1.36l1.95-1.95L67.1,1.74h1.1L62,7.92l-1.41,1.4h.44v.93L62.7,8.6l6.86-6.86h1.09l-7.41,7.4-2.19,2.2V12.7l2.88-2.87.21-.21v-.3h.29L72,1.74h1.09L65.53,9.32h1.36L74.3,1.91l.17-.17h1.09l-.72.72L68,9.32h1.36l6.19-6.19,1.4-1.4H78l-2,2L70.38,9.37a9.62,9.62,0,0,1,1.2.17l5.17-5.17,2.64-2.63h1.09L77.3,4.91,72.44,9.78a3.74,3.74,0,0,1,.92.44L78,5.6l3.86-3.86h1.09l-4.4,4.4L74,10.72a3.36,3.36,0,0,1,.55.82l4.71-4.72L84.3,1.74h1.09L79.76,7.37l-5,5a5.64,5.64,0,0,1,.15,1.21l5.52-5.52,6.31-6.31h1.1L81,8.6l-6.13,6.13a3.65,3.65,0,0,1-2.45,3.14l.28.4,9-9,7.54-7.54H90.3L82.21,9.83,73.13,18.9l.57.8,0-.05,9.14-9.14,8.78-8.77h1.09l-.18.17-9.14,9.14L74.3,20.2l-.15.14.57.8.26-.26,9.14-9.14,9.15-9.15.85-.85H95V2L93.81,3.14l-9.14,9.14-9.14,9.14-.36.36.57.8.47-.47L85.35,13l9.14-9.14.51-.5V4.41l-9.1,9.1-9.15,9.14L72,27.41h1.36l4.08-4.07,9.14-9.15L95,5.77V6.86l-7.87,7.88L78,23.88l-3.53,3.53h.94c.14,0,.26,0,.4,0l2.87-2.88,9.15-9.14L95,8.23V9.32L88.35,16l-9.14,9.14L76.82,27.5a9.59,9.59,0,0,1,1.14.22l1.93-1.93L89,16.65l6-6v1.1L89.58,17.2l-9.14,9.14L78.81,28a6.83,6.83,0,0,1,1,.42L81.12,27l9.14-9.14L95,13.14v1.09l-4.19,4.19-9.14,9.15-1.26,1.26c.14.11.31.2.45.32l.29.3,1.2-1.2,9.14-9.14L95,15.6v1.09l-3,3-9.15,9.14-1.25,1.26a5.32,5.32,0,0,1,.5.87l1.44-1.44,9.14-9.15L95,18.05v1.09l-1.73,1.74L84.12,30l-1.68,1.69a6.53,6.53,0,0,1,.24,1.12L84.8,30.7,94,21.56l1-1V21.6l-.51.51-9.14,9.14-2.6,2.6V34a8.91,8.91,0,0,1-.1,1.3L86,31.93l9-9v1.09l-8.42,8.42L82.3,36.75a5.64,5.64,0,0,1-1.4,2.16,5.43,5.43,0,0,1-2,1.22l-1.48,1.49L71.06,48H70l6.92-6.92.54-.54A12,12,0,0,1,75.9,40.7ZM2.11,2.87,3.24,1.74H4.33L2.66,3.41l-.92.92V3.24Zm-.37-1V1.74h.14Zm1.6,2.21L5.7,1.74H6.79L3.88,4.64,1.74,6.79V5.7ZM4.57,5.32,8.15,1.74h1.1L5.11,5.87,1.74,9.25V8.15ZM5.8,6.55l4.81-4.81H11.7L6.34,7.1l-4.6,4.6V10.61ZM7,7.78l6.05-6h1.09L7.57,8.33,1.74,14.16V13.07ZM8.25,9l7.27-7.27h1.09L8.8,9.55,1.74,16.62v-1.1Zm1.23,1.23L18,1.74h1.09l-9,9L1.74,19.07V18ZM1.74,20.44l9-9,9.14-9.14.59-.58h1.09L20.4,2.87,11.25,12,2.11,21.15l-.37.38Zm1.05,1.39,9.15-9.14,9.14-9.14,1.81-1.81H24L21.63,4.09l-9.15,9.15L3.34,22.38,1.74,24V22.89ZM4,23.06l9.14-9.14,9.15-9.14,3-3h1.09L22.85,5.32l-9.14,9.15L4.57,23.61,1.74,26.44V25.35ZM93.16,48H92.07L95,45.07v1.09ZM95,47.53V48h-.47ZM90.71,48H89.62L95,42.62v1.09ZM95,41.25,88.25,48H87.16l7.47-7.47.37-.37Zm-1-1.4L85.79,48H84.7l8.7-8.7L95,37.7v1.09Zm-1.23-1.23-9.14,9.14-.24.24H82.25l.78-.78,9.14-9.15L95,35.25v1.09Zm-1.23-1.23-9.14,9.14L80.88,48H79.79l2-2L91,36.84l4-4.05v1.09Zm-1.23-1.23-9.14,9.15L78.43,48h-1.1l3.25-3.24,9.14-9.14L95,30.33v1.1ZM89,34.93l-9.15,9.15L76,48H74.88l4.47-4.47,9.14-9.14L95,27.88V29Zm-1.23-1.22-9.15,9.14L73.51,48H72.42l5.7-5.7,9.14-9.14L95,25.42v1.09Z"/><polygon class="cls-1" points="67.11 14.02 67.61 13.51 69.25 11.87 67.89 11.87 67.11 12.65 67.11 14.02"/><path class="cls-1" d="M49.64,11.83V10.46L48,12.15l-1.12,1.12a6.76,6.76,0,0,1,.32,1.05l1.48-1.49Z"/><polygon class="cls-1" points="52.62 16.23 58.08 10.76 58.08 9.4 52.62 14.86 52.62 16.23"/><polygon class="cls-1" points="64.14 10.71 61.05 13.79 61.05 15.16 64.14 12.07 64.14 10.71"/><path class="cls-1" d="M64.14,13.17l-3.09,3.08v.51a8.82,8.82,0,0,1-.07.92l3.16-3.15Z"/><path class="cls-1" d="M64.14,17V15.62L60.72,19a4.9,4.9,0,0,1-1.27,2.18,5.36,5.36,0,0,1-2.16,1.26L49.2,30.56l.41,1,8.86-8.86Z"/><path class="cls-1" d="M67.11,15.11v.7h.66l1.07-1.07,2.48-2.48a2.65,2.65,0,0,0-1-.33l-2.12,2.13Z"/><polygon class="cls-1" points="64.14 19.44 64.14 18.08 59.02 23.2 49.94 32.28 50.35 33.23 50.55 33.02 55.13 28.45 55.13 27.41 56.17 27.41 59.7 23.88 64.14 19.44"/><path class="cls-1" d="M68.86,15.81h.42a6,6,0,0,0,1-.08l1.58-1.57c0-.13,0-.27,0-.41a2.68,2.68,0,0,0-.13-.86l-2.4,2.4Z"/><polygon class="cls-1" points="64.14 21.9 64.14 20.53 60.24 24.43 57.26 27.41 57.91 27.41 58.22 27.82 60.92 25.11 64.14 21.9"/><polygon class="cls-1" points="67.11 18.38 67.11 18.93 67.65 18.38 67.11 18.38"/><polygon class="cls-1" points="69.16 18.38 68.74 18.38 67.11 20.02 67.11 21.38 69.55 18.94 69.16 18.38"/><polygon class="cls-1" points="65.86 22.63 64.5 22.63 61.47 25.66 58.69 28.44 59.28 29.21 62.15 26.34 65.86 22.63"/><polygon class="cls-1" points="70.56 20.39 70 19.59 67.11 22.48 67.11 22.63 66.95 22.63 62.7 26.88 59.75 29.83 60.34 30.6 63.38 27.57 70.56 20.39"/><polygon class="cls-1" points="71 21.03 64.63 27.41 65.99 27.41 71.56 21.84 71 21.03"/><polygon class="cls-1" points="72.11 22.63 72.01 22.48 67.08 27.41 67.41 27.41 67.41 28.45 73.23 22.63 72.11 22.63"/><polygon class="cls-1" points="74.32 22.63 67.41 29.54 67.41 30.9 70.69 27.63 70.69 27.41 70.9 27.41 75.69 22.63 74.32 22.63"/><path class="cls-1" d="M75.31,30h-1l-.66.66V32l2-2Z"/><path class="cls-1" d="M76.65,30.13l-3,3v1.36l4-4A4.61,4.61,0,0,0,76.65,30.13Z"/><path class="cls-1" d="M78.68,31.06c-.09-.08-.2-.14-.29-.22l-4.73,4.73v1.37l5.4-5.41A2.89,2.89,0,0,0,78.68,31.06Z"/><path class="cls-1" d="M77.93,37.58l1.36-1.36a4.4,4.4,0,0,0,.46-1.82l-3.66,3.66A4.78,4.78,0,0,0,77.93,37.58Z"/><path class="cls-1" d="M36.45,15.2,40,11.64a3.61,3.61,0,0,0-2.48,1.22A4.29,4.29,0,0,0,36.45,15.2Z"/><path class="cls-1" d="M36.65,17.45,42.07,12a3.92,3.92,0,0,0-1-.36l-4.64,4.64A4.61,4.61,0,0,0,36.65,17.45Z"/><path class="cls-1" d="M37.53,18.93l0,0,5.81-5.8c-.08-.1-.15-.21-.24-.31a3.16,3.16,0,0,0-.43-.39L37,18.2A4.51,4.51,0,0,0,37.53,18.93Z"/><path class="cls-1" d="M39.07,20l5.1-5.1a4.33,4.33,0,0,0-.36-1l-5.65,5.65A3.89,3.89,0,0,0,39.07,20Z"/><path class="cls-1" d="M40.34,20.17A3.9,3.9,0,0,0,41.49,20L44,17.43a4.72,4.72,0,0,0,.25-1.53v-.08L40,20.14C40.09,20.15,40.21,20.17,40.34,20.17Z"/><path class="cls-1" d="M49.64,12.92l-.45.45-1.9,1.9c0,.2,0,.41,0,.62a6.06,6.06,0,0,1,0,.75l2.36-2.36Z"/><path class="cls-1" d="M41.22,22.71a8.69,8.69,0,0,1-.89.05l-.51,0-5,5a5.19,5.19,0,0,1,1,.35l4.85-4.85Z"/><path class="cls-1" d="M49.64,16.74V15.38L47,18a6.82,6.82,0,0,1-4.43,4.42l-1.32,1.33-4.71,4.71h0a3.1,3.1,0,0,1,.64.71L42,24.43Z"/><path class="cls-1" d="M49.94,18.9a6.77,6.77,0,0,1-.22-1.14L42.5,25l-4.92,4.92A4.72,4.72,0,0,1,37.83,31l5.36-5.35Z"/><path class="cls-1" d="M52.65,17.28a4,4,0,0,0,.26,1.1l.65-.64,4.52-4.52V11.85l-5.21,5.21Z"/><path class="cls-1" d="M50.73,20.56a4.8,4.8,0,0,1-.49-.86l-6.51,6.5-5.85,5.85a5.8,5.8,0,0,1-.27,1.64l6.8-6.81Z"/><path class="cls-1" d="M53.29,19.09l.07.1a2.45,2.45,0,0,0,.65.56l.77-.78,3.3-3.3V14.31l-4,4Z"/><path class="cls-1" d="M51.25,21.2l0,0L45,27.41h1.36L52,21.78A5.81,5.81,0,0,1,51.25,21.2Z"/><path class="cls-1" d="M54.78,20.06a2.72,2.72,0,0,0,.58.06,2.6,2.6,0,0,0,.89-.16l1.51-1.51a4.49,4.49,0,0,0,.31-1.68l-2.74,2.74Z"/><path class="cls-1" d="M52.68,22.17l-5.25,5.24h.41l.29.67,5.55-5.55A5.39,5.39,0,0,1,52.68,22.17Z"/><path class="cls-1" d="M55.36,22.76a6.16,6.16,0,0,1-.76-.06l-6.14,6.15.41.95L56,22.71A5.87,5.87,0,0,1,55.36,22.76Z"/><polygon class="cls-1" points="58.1 32.38 58.1 32.85 58.3 32.65 58.1 32.38"/><polygon class="cls-1" points="60.81 31.22 61.41 32 64.44 28.96 64.44 27.6 63.93 28.11 60.81 31.22"/><polygon class="cls-1" points="58.77 33.27 58.1 33.94 58.1 35.3 59.36 34.04 58.77 33.27"/><polygon class="cls-1" points="62.47 33.39 64.44 31.42 64.44 30.05 61.88 32.62 62.47 33.39"/><polygon class="cls-1" points="59.83 34.66 58.1 36.4 58.1 37.76 60.42 35.44 59.83 34.66"/><polygon class="cls-1" points="60.9 36.06 58.1 38.85 58.1 40.22 61.48 36.83 60.9 36.06"/><polygon class="cls-1" points="63.53 34.78 64.44 33.87 64.44 32.51 62.94 34.01 63.53 34.78"/><polygon class="cls-1" points="64.44 35.98 64.44 34.97 64 35.4 64.44 35.98"/><polygon class="cls-1" points="67.41 32 67.41 33.36 68.29 32.48 70.69 30.09 70.69 28.72 67.61 31.8 67.41 32"/><polygon class="cls-1" points="67.41 34.45 67.41 35.82 69.52 33.71 70.69 32.54 70.69 31.18 68.84 33.02 67.41 34.45"/><polygon class="cls-1" points="67.41 36.91 67.41 38.27 70.69 35 70.69 33.63 70.07 34.25 67.41 36.91"/><path class="cls-1" d="M75,38.09l4.76-4.75a4.54,4.54,0,0,0-.27-1.1l-5.7,5.7-.09.09v.06Z"/><polygon class="cls-1" points="27.06 14.27 28.26 12.19 26.74 13.72 27.06 14.27"/><polygon class="cls-1" points="25.57 18.7 25.57 17.38 25.56 17.35 21.08 21.84 15.5 27.41 16.87 27.41 21.76 22.52 25.57 18.7"/><polygon class="cls-1" points="25.57 21.16 25.57 19.8 22.31 23.06 17.96 27.41 19.16 27.41 19.31 27.42 22.99 23.75 25.57 21.16"/><path class="cls-1" d="M26.56,22.63h-1v-.38l-2,2-3.2,3.2a6,6,0,0,1,1.12.24L24.22,25Z"/><path class="cls-1" d="M33.51,14.32l-.83.83-4.14,4.13v1.37l4.8-4.8A7.47,7.47,0,0,1,33.51,14.32Z"/><path class="cls-1" d="M33.64,18a6.85,6.85,0,0,1-.23-1.13l-4.87,4.87v.89h-.89l-2.89,2.89-2.53,2.53a2.52,2.52,0,0,1,.73.56l0,0,2.45-2.45Z"/><path class="cls-1" d="M34.43,19.67a5.76,5.76,0,0,1-.48-.88l-8,8L23.44,29.3a3.33,3.33,0,0,1,.36,1l2.87-2.87Z"/><path class="cls-1" d="M35.36,20.79c-.16-.16-.32-.32-.46-.49l-7.12,7.11h1.37L35.58,21Z"/><path class="cls-1" d="M36.18,21.47l-5.94,5.94H31.6L37,22A6.22,6.22,0,0,1,36.18,21.47Z"/><polygon class="cls-1" points="31.51 29.96 30.15 29.96 30.07 30.04 30.07 31.4 30.36 31.11 31.51 29.96"/><path class="cls-1" d="M37.78,22.33l-5.11,5.11a12.24,12.24,0,0,1,1.27.09l4.91-4.9A8.84,8.84,0,0,1,37.78,22.33Z"/><path class="cls-1" d="M33.79,30.14a4.8,4.8,0,0,0-1.2-.17L30.9,31.66l-.83.84v1.36l1.52-1.52Z"/><path class="cls-1" d="M34.84,31.54a1.62,1.62,0,0,0-.36-1l-2.35,2.35-1,1h1.12l.25,0,.32-.32Z"/><path class="cls-1" d="M34.31,33.41a1.54,1.54,0,0,0,.42-.67l-.94.95A1.43,1.43,0,0,0,34.31,33.41Z"/><polygon class="cls-1" points="46.41 31.37 45.73 32.94 46.67 31.99 46.41 31.37"/><polygon class="cls-1" points="47 32.76 44.89 34.86 44.73 35.24 45.88 35.24 47.41 33.71 47 32.76"/><polygon class="cls-1" points="47.74 34.48 46.98 35.24 48.06 35.24 47.74 34.48"/><polygon class="cls-1" points="50.68 33.99 51.09 34.94 51.78 34.25 55.13 30.91 55.13 29.54 51.1 33.57 50.68 33.99"/><polygon class="cls-1" points="51.42 35.71 51.83 36.66 53.01 35.48 55.13 33.36 55.13 32 52.33 34.8 51.42 35.71"/><polygon class="cls-1" points="52.16 37.42 52.57 38.38 54.24 36.71 55.13 35.82 55.13 34.45 53.56 36.03 52.16 37.42"/><polygon class="cls-1" points="52.9 39.14 53.31 40.09 55.13 38.27 55.13 36.91 54.78 37.25 52.9 39.14"/><path class="cls-1" d="M17,32.24,19.22,30a7,7,0,0,0-.85,0H17.9l-.95,1Z"/><path class="cls-1" d="M18.36,32.8h.5l1.88-1.88a1,1,0,0,0-.5-.7l-.12-.05L17.48,32.8Z"/><path class="cls-1" d="M19,35.15H17.6l-.65.65v1.37l.58-.59Z"/><path class="cls-1" d="M20.65,32.09l-.42.42A.86.86,0,0,0,20.65,32.09Z"/><path class="cls-1" d="M22.85,33.26a3,3,0,0,1-.48.33l-.47.22a4.12,4.12,0,0,1,.65.2l4.55-4.55V28.1l-3.28,3.27A2.56,2.56,0,0,1,22.85,33.26Z"/><path class="cls-1" d="M21,35.54l-.16-.1a3.41,3.41,0,0,0-.88-.22l-1.9,1.9L17,38.21h1.36l.41-.41Z"/><path class="cls-1" d="M23.87,34.92l.09.13,3.14-3.13V30.55l-3.84,3.84A3.87,3.87,0,0,1,23.87,34.92Z"/><path class="cls-1" d="M20.9,37.89a1.25,1.25,0,0,0,.64-1.23,1.73,1.73,0,0,0-.07-.48l-2,2A3.74,3.74,0,0,0,20.9,37.89Z"/><path class="cls-1" d="M24.59,36.88l2.51-2.5V33l-2.74,2.74A3.16,3.16,0,0,1,24.59,36.88Z"/><polygon class="cls-1" points="32.12 36.48 31 36.48 30.07 37.41 30.07 38.77 32.22 36.62 32.12 36.48"/><polygon class="cls-1" points="35.8 36.59 36.37 37.38 36.5 37.25 43.91 29.84 44.95 27.44 35.82 36.57 35.8 36.59"/><polygon class="cls-1" points="36.82 38.02 37.39 38.82 37.73 38.48 42.04 34.17 43.08 31.77 37.05 37.8 36.82 38.02"/><polygon class="cls-1" points="37.84 39.46 38.41 40.26 38.95 39.71 40.17 38.49 41.21 36.09 38.27 39.03 37.84 39.46"/></g></g></svg>