<svg xmlns="http://www.w3.org/2000/svg" viewBox="0 0 105.81 96.05"><defs><style>.cls-1{fill:#e2e2e2;}</style></defs><title>hoodie-frontside</title><g id="Layer_2" data-name="Layer 2"><g id="Layer_5" data-name="Layer 5"><path class="cls-1" d="M105.61,52.82h0L89.2,25.33a1.38,1.38,0,0,0-.61-.56L70.43,16a14.47,14.47,0,0,0,.27-2.67,8.59,8.59,0,0,0-.63-3.4,6.17,6.17,0,0,0-1.69-2.3V7.24a6.54,6.54,0,0,0-.16-1.51,5.55,5.55,0,0,0-2.49-3.37A13.27,13.27,0,0,0,61,.63,43.16,43.16,0,0,0,52.91,0a43.2,43.2,0,0,0-8.07.63,13.27,13.27,0,0,0-4.76,1.73,5.55,5.55,0,0,0-2.49,3.37,6.54,6.54,0,0,0-.16,1.51c0,.12,0,.25,0,.37a6.09,6.09,0,0,0-1.7,2.3,8.59,8.59,0,0,0-.63,3.4A14.47,14.47,0,0,0,35.38,16L17.22,24.77a1.38,1.38,0,0,0-.61.56L.2,52.82a1.47,1.47,0,0,0-.19.87c.34,3.92.59,7.72.81,11.07.15,2.35.29,4.51.44,6.4A49.27,49.27,0,0,0,2,76.85a8.37,8.37,0,0,0,.57,1.9,3.34,3.34,0,0,0,.53.81l.09.09L4,83.71a1.45,1.45,0,0,0,1.68,1.13,25,25,0,0,1,4.59-.4,29.87,29.87,0,0,1,3.42.2l1,.13.31.06a1.45,1.45,0,0,0,1.7-1.08l1-4.24.17-.22a4.93,4.93,0,0,0,.58-1.52,24.67,24.67,0,0,0,.49-3.9c.29-4.39.3-11.5.31-21.34V51.08l2.79.64C22,55.27,22,58.66,22,61.8a263,263,0,0,0,1.18,28.41c.21,1.79.44,3.36.7,4.66l.08.25.12.26c.07.1.14.17.18.22l.2.18a1.75,1.75,0,0,0,.25.14l.25.09a.56.56,0,0,0,.24,0h.3c8.85-1.24,22.29-1.31,26.21-1.33h2.51c4,0,17.34.1,26.16,1.33h.24l.29,0a1.58,1.58,0,0,0,.26-.1l.23-.12a1.62,1.62,0,0,0,.22-.2l.17-.21a.54.54,0,0,0,.1-.22l.1-.28c.26-1.31.49-2.88.7-4.67a263.07,263.07,0,0,0,1.18-28.4c0-3.16,0-6.55-.08-10.09l2.79-.64v1.43c0,7.76,0,13.89.16,18.26a55,55,0,0,0,.43,5.88,10.58,10.58,0,0,0,.42,1.87,4,4,0,0,0,.38.78l.16.21,1,4.24a1.46,1.46,0,0,0,1.71,1.08,26.22,26.22,0,0,1,4.69-.39,25,25,0,0,1,4.59.4,1.45,1.45,0,0,0,1.68-1.13l.86-4.06.1-.1a4.14,4.14,0,0,0,.81-1.57,22.08,22.08,0,0,0,.7-3.88c.28-2.46.48-5.66.72-9.36.22-3.34.47-7.13.82-11A1.55,1.55,0,0,0,105.61,52.82ZM103,64.63c-.41,6.26-.83,12.71-1.65,13.5a18.22,18.22,0,0,0-11.75,0c-1-1.53-1-11.7-1-25.58V49.27c0-3.45,0-7.19,0-11.24a.58.58,0,0,0-.58-.57h0a.58.58,0,0,0-.58.58q0,5.79,0,10.77l-4.89,1.11c-5.13-4.72-3.79-18.5-.6-26.12l5.62,2.72L103.77,53.7C103.43,57.58,103.19,61.32,103,64.63ZM90.09,79.14a17.27,17.27,0,0,1,10.61,0l-.77,3.61a30,30,0,0,0-9,0ZM18.39,48.81q0-5,0-10.77a.58.58,0,0,0-.58-.58h0a.58.58,0,0,0-.58.57c0,4,0,7.79,0,11.24v3.22c0,13.91,0,24.09-1,25.6a18.18,18.18,0,0,0-11.74,0c-.84-.85-1.25-7.27-1.66-13.5-.22-3.31-.46-7-.8-10.93L18.26,26.52l5.62-2.72c3.19,7.62,4.53,21.4-.6,26.12ZM14.84,82.75a30.07,30.07,0,0,0-9,0l-.77-3.61a17.27,17.27,0,0,1,10.61,0Zm24.41-74a.58.58,0,0,0,.27-.55,5.76,5.76,0,0,1,0-2,3.33,3.33,0,0,1,1.29-1.89l.94.82a60.61,60.61,0,0,1,10.62,12,32.34,32.34,0,0,1,1.92,3.44,35.69,35.69,0,0,1-3.72,0,33.74,33.74,0,0,1-4.14-.49V14a1.12,1.12,0,1,0-2.23,0v5.61a19.13,19.13,0,0,1-6.68-3C36.65,12.66,37.21,10,39.25,8.77Zm27.31,0c2,1.27,2.6,3.89,1.68,7.8a19.16,19.16,0,0,1-6.64,3V14a1.12,1.12,0,1,0-2.24,0v6.1a34.23,34.23,0,0,1-3.78.47,31.74,31.74,0,0,0-2-3.67A61.78,61.78,0,0,1,64,5.13L65,4.31a3.43,3.43,0,0,1,1.3,1.89,6,6,0,0,1,0,2A.58.58,0,0,0,66.56,8.77Zm12.34,85-1-.11,2.59-2.58c-.06.44-.12.86-.18,1.27ZM24,61.66l6.44-6.44,9.14-9.15,9.15-9.14,9.14-9.14,1.49-1.49v1.09l-1,.94-9.14,9.15-9.14,9.14L31,55.76l-7,7ZM69.15,17.6l-1.59,1.59-6,6V24.06l5.28-5.28a15.45,15.45,0,0,0,2-1.28ZM61.93,31.19l0-.06,8.81-8.8,2.67-2.68.74.36-2.87,2.87L62.12,32A1.6,1.6,0,0,0,61.93,31.19ZM70,21.65,61.6,30.06V29l7.87-7.87,2.25-2.25.74.36Zm-1.22-1.23L61.6,27.61V26.52l6.64-6.65,1.83-1.82.73.35ZM34.53,22.74,27,30.26c-.06-.3-.12-.6-.19-.9L34,22.19l4-4c.22.14.47.26.7.39Zm.69.68,4.32-4.32.76.33L35.76,24l-8.38,8.38c0-.32-.1-.63-.15-.94ZM27.55,33.54l8.9-8.89,4.82-4.82.8.28L37,25.2l-9.14,9.14-.19.18C27.63,34.2,27.59,33.87,27.55,33.54Zm1,1.48,9.14-9.14,5.44-5.44c.28.09.56.16.85.24l-5.74,5.74-9.14,9.15-1.25,1.24c0-.34,0-.69-.06-1ZM52.27,22.19,46.48,28v-1.1l5.14-5.13,1.07,0Zm-5.79,3.34V24.44l2.84-2.84c.33,0,.66.07,1,.09Zm0-2.46V22l.65-.65.95.14ZM29.76,36.25l9.14-9.14,5.35-5.35v1.09l-4.8,4.8L30.3,36.79l-2.43,2.44c0-.36,0-.73,0-1.09ZM31,37.48l9.14-9.15,4.12-4.11v1.09l-3.57,3.57L31.53,38l-3.82,3.83c0-.39.07-.79.1-1.19Zm1.22,1.22,9.15-9.14,2.89-2.89v1.09L41.9,30.11l-9.14,9.14L27.2,44.81c.11-.45.2-.9.28-1.37Zm1.23,1.23,9.15-9.14,1.66-1.66v1.09l-1.12,1.12L34,40.48l-8.4,8.39a12,12,0,0,0,1-2.1ZM53,22.88l1.11-1.12,1.14-.05L53.5,23.42l-7.1,7.11.08-.27v-.91ZM46.9,31.39l7.28-7.29,2.53-2.52,1.23-.14-3.21,3.21L47,32.41A1.86,1.86,0,0,0,46.9,31.39Zm15.88-11c.56-.17,1.11-.35,1.64-.55L61.6,22.7V21.6ZM36.89,17.5l.25.17-3.83,3.84-6.75,6.75c-.08-.29-.15-.58-.23-.86L32.76,21l2.85-2.85Zm-4.81,2.78L26,26.34c-.08-.28-.17-.56-.26-.83l5.09-5.09,2.12-1ZM25.4,24.5q-.15-.41-.3-.78l1-1,2.11-1Zm.13,25.8,9.14-9.14,9-9a1.82,1.82,0,0,0,.22.8l0,.05-8.72,8.72-9.15,9.14-2,2c0-.36,0-.74,0-1.11Zm1.23,1.23,9.14-9.14,8.66-8.66a1.53,1.53,0,0,0,.91.18l-9,9L27.3,52.08,24,55.35c0-.37,0-.73,0-1.11ZM28,52.76l9.15-9.14,9.14-9.15,9.14-9.14,4-3.95v1.09L56,25.88,46.82,35l-9.15,9.14-9.14,9.15L24,57.82c0-.36,0-.72,0-1.1ZM29.21,54l9.15-9.14L47.5,35.7l9.14-9.14,2.72-2.72v1.09l-2.17,2.18L48,36.25,38.9,45.39l-9.14,9.14L24,60.29V59.2Zm2.46,2.45,9.14-9.14L50,38.16,59.1,29l.26-.27v1.09L50.5,38.7l-9.14,9.15L32.21,57,24,65.19c0-.35,0-.72,0-1.08ZM24,66.55l8.88-8.88L42,48.53l9.14-9.14,7.64-7.64a1.86,1.86,0,0,0,.11,1l-7.2,7.2-9.14,9.15-9.15,9.14L24.3,67.36l-.27.27C24,67.27,24,66.91,24,66.55ZM25,68l9.15-9.14,9.14-9.14,9.14-9.14,7-7a1.36,1.36,0,0,0,.76.34L53,41.16,43.81,50.3l-9.14,9.15-9.14,9.14-1.46,1.46c0-.35,0-.71,0-1.08Zm1.23,1.23,9.14-9.14L44.5,51l9.14-9.15,9.14-9.14,9.14-9.14L75,20.45l.73.36L72.47,24.1l-9.14,9.15-9.15,9.14L45,51.53,35.9,60.67l-9.14,9.15-2.64,2.64,0-1.07Zm1.23,1.23,9.14-9.14,9.14-9.15,9.15-9.14L64,33.93l9.14-9.14,3.53-3.54.74.36L73.7,25.33l-9.14,9.14-9.15,9.15-9.14,9.14L37.13,61.9,28,71.05l-3.8,3.8,0-1.06Zm1.23,1.23,9.14-9.15L47,53.44l9.14-9.14,9.15-9.14L74.38,26l4-4,.73.35-4.14,4.15L65.78,35.7l-9.14,9.15L47.5,54l-9.14,9.14-9.15,9.14-4.94,5c0-.35,0-.7,0-1ZM29.9,73,39,63.81l9.14-9.14,9.14-9.14,9.15-9.15,9.14-9.14L80,22.86l.74.35-4.58,4.58L67,36.93l-9.14,9.14-9.14,9.15-9.15,9.14L30.44,73.5l-6.07,6.07c0-.34,0-.69-.05-1Zm1.22,1.22L40.27,65l9.14-9.14,9.14-9.14,9.14-9.15,9.15-9.14,3.35-3.35c-.18.52-.36,1.06-.52,1.61L77.38,29l-9.14,9.14L59.1,47.3,50,56.44l-9.14,9.15-9.14,9.14-7.18,7.18c0-.34,0-.68-.06-1Zm41.33,3.55V88.57C63.08,88,53,88,52.93,88h0c-.1,0-10.15-.07-19.52.55V77.73a16.57,16.57,0,0,0,8.79-10.56H63.66A16.57,16.57,0,0,0,72.45,77.73ZM32.2,85.39v1.09l-2.37,2.37L28.62,89Zm0,2.45v.82l-.88.06Zm2.23-12,4.86-4.86A15.78,15.78,0,0,1,34.43,75.79ZM32.2,84l-4.76,4.76-.35.35-1.24.15,1-1,5.31-5.31ZM64.93,67.4l7.13-7.13,9.14-9.15.45-.45.06.07c0,.32,0,.63,0,.95l-9.12,9.12L65.2,68.22C65.1,68,65,67.68,64.93,67.4Zm15.59-17-9.14,9.14-6.76,6.76,0,0-.06-.1-.08-.07-.1-.06-.09,0-.12,0h-.29l7-7L80,49.89l.54-.54c.15.21.31.42.47.62Zm-1.23-1.23-9.14,9.14L62.5,66H61.4l8.2-8.2,9.15-9.14.88-.89c.12.25.24.49.37.73ZM78.06,48l-9.14,9.15L60,66H59l.28-.29,9.15-9.14,9.14-9.14L79,46c.08.28.18.55.28.81Zm-1.22-1.22L67.69,55.9,58.55,65l-1,1H56.49L58,64.5l9.14-9.15,9.14-9.14,2.15-2.15c.07.3.13.6.2.89Zm-1.23-1.23-9.14,9.14-9.15,9.14L55.13,66H54l2.74-2.74,9.14-9.15L75.06,45l3-3c0,.33.08.65.13,1ZM74.38,44.3l-9.14,9.14-9.15,9.14L52.67,66H51.58l4-4,9.14-9.14,9.14-9.15L78,39.63c0,.35,0,.7.05,1Zm-1.23-1.23L64,52.21l-9.14,9.15L50.22,66h-1.1l5.2-5.2,9.14-9.14,9.15-9.14L78,37.17c0,.37,0,.74,0,1.11Zm-1.23-1.23L62.78,51l-9.14,9.14L47.76,66H46.67l6.42-6.43,9.15-9.14,9.14-9.14,6.77-6.77c0,.4-.08.8-.11,1.2ZM70.7,40.62l-9.15,9.14L52.41,58.9,45.3,66H44.21l7.65-7.66L61,49.21l9.14-9.14,8.38-8.38c-.07.43-.14.86-.2,1.29Zm7.91-10.38-9.14,9.15-9.15,9.14-9.14,9.14L42.85,66h-1.1l8.89-8.88L59.78,48l9.14-9.14,9.14-9.14,1.11-1.11c-.11.47-.22.94-.32,1.42ZM32.35,75.41l8.73-8.73a14.59,14.59,0,0,1-.49,1.58L32.9,76l-8.26,8.26c0-.34-.05-.68-.07-1ZM32.2,78v1.09L25,86.33l-.16.17-.09-1Zm-6.54,9,6.54-6.53v1.09l-6,6L25,88.74c0-.32-.07-.65-.1-1Zm.1,3.45-.48.48c0-.13,0-.27-.05-.41Zm1.56-.19,1.23-.14-3,3c-.05-.31-.1-.62-.14-1Zm2,.43.7-.71,1.19-.1L29.9,91.24l-2.52,2.52-1.24.14Zm1.23,1.22,2.14-2.14h.1l1.07-.07-2.77,2.77-1,1-1.2.11Zm1.23,1.23,3.54-3.54,1.15-.06-3.73,3.73-1.18.08Zm6.12-3.67,1.14,0-3.68,3.68-1.16.07Zm2.56-.1,1.13,0L38,93,36.83,93ZM43,89.3l1.12,0-3.62,3.61-1.13,0Zm2.51-.06,1.11,0-.24.25L43.07,92.8l-1.12,0Zm1.55.91.95-1h1.1L47.63,90.7l-2.05,2-1.11,0Zm1.23,1.23,2.2-2.2h1.09l-2.75,2.74-.78.79H47Zm1.23,1.23L53,89.18h1.1l-3.51,3.51h-1.1Zm5.88-3.43h1.08L53,92.69H51.92Zm2.43,0,1.08,0-3.47,3.47H54.38Zm2.42,0,1.07,0L57.9,92.71H56.82Zm2.4.05,1.06,0-3.42,3.43-1.07,0Zm2.15.31.23-.23,1.06,0-.75.74L62.72,92.8l-1.07,0Zm1.23,1.23,1.37-1.37,1,.05L66.6,91.38l-1.5,1.5-1,0Zm1.22,1.23,2.49-2.49,1,.06-3,3-.36.36-1,0Zm4.81-2.35.9.06h.12l-3.3,3.3-1,0Zm2.29.17,1,.08-3.26,3.26-1-.07Zm2.26.2,1,.09-3.21,3.21-1-.07Zm2.22.23,1,.12-3.15,3.15-1-.09Zm1-1,.92-.93c0,.37-.07.71-.1,1Zm.76-2.12-2,2-1-.12,2.41-2.41,1-.95c0,.41-.06.81-.09,1.19Zm-1.23-1.23-3,3-1-.09,3.42-3.43L81.25,83c0,.41,0,.8-.08,1.17ZM78.2,84.69l-4,4-.58,0v-.47l4-4L81.4,80.4c0,.39,0,.78-.06,1.15ZM77,83.46l-3.36,3.37v-1.1l2.82-2.81,5.09-5.09c0,.38,0,.76,0,1.14Zm-1.23-1.23-2.13,2.14V83.28l1.59-1.59,6.41-6.41c0,.38,0,.76,0,1.13ZM74.52,81l-.91.9V80.82l.36-.36,7.71-7.71c0,.38,0,.75,0,1.12Zm-.91-1.55v-1.1l8.13-8.12c0,.37,0,.75,0,1.11Zm7.59-10-7.68,7.68v0L73.45,77l-.11-.08-.06-.05-.41-.2,7.79-7.79,1.12-1.12c0,.38,0,.75,0,1.11ZM80,68.18l-8,8c-.22-.12-.44-.26-.67-.41l8.11-8.12,2.37-2.37c0,.37,0,.74,0,1.1ZM78.75,67l-8.24,8.24-.62-.47,8.31-8.31,3.61-3.61v1.09Zm-1.23-1.23-8.37,8.37c-.18-.17-.37-.35-.55-.54L77,65.18l4.84-4.84v1.09ZM76.29,64.5l-8.35,8.35c-.17-.19-.33-.4-.49-.6L75.74,64l6.06-6.06c0,.37,0,.73,0,1.09Zm-1.23-1.23-8.19,8.19c-.15-.21-.29-.43-.43-.66l8.08-8.08,7.26-7.26c0,.36,0,.72,0,1.08ZM73.83,62,66,69.92c-.12-.23-.24-.48-.35-.73l7.69-7.7L81.75,53c0,.36,0,.72,0,1.08ZM63.92,3.67l-.67.59A65.18,65.18,0,0,0,53.48,15V2C58.32,2.08,61.82,2.63,63.92,3.67ZM52.33,15A64.73,64.73,0,0,0,42.56,4.26l-.67-.59c2.1-1,5.6-1.59,10.44-1.63Z"/></g></g></svg>