<svg xmlns="http://www.w3.org/2000/svg" viewBox="0 0 105.81 96.04"><defs><style>.cls-1{fill:#e2e2e2;}</style></defs><title>hoodie-sleeves</title><g id="Layer_2" data-name="Layer 2"><g id="Layer_5" data-name="Layer 5"><path class="cls-1" d="M101.8,83.71l.87-4.07h0l.09-.08a4,4,0,0,0,.81-1.57h0a23,23,0,0,0,.7-3.88h0c.53-4.75.81-12.23,1.54-20.41h0v-.12a1.5,1.5,0,0,0-.2-.75h0L89.2,25.33h0a1.38,1.38,0,0,0-.61-.56h0l-6.32-3.06L70.43,16a14.27,14.27,0,0,0,.27-2.66h0a8.64,8.64,0,0,0-.63-3.4,6.16,6.16,0,0,0-1.7-2.29c0-.13,0-.24,0-.38a6.81,6.81,0,0,0-.16-1.51h0a5.6,5.6,0,0,0-2.49-3.37A13.07,13.07,0,0,0,61,.63h0A43.06,43.06,0,0,0,52.91,0a43.1,43.1,0,0,0-8.07.63h0a13.14,13.14,0,0,0-4.76,1.73,5.62,5.62,0,0,0-2.49,3.37,6.81,6.81,0,0,0-.16,1.51c0,.14,0,.25,0,.38a6.08,6.08,0,0,0-1.71,2.29,8.83,8.83,0,0,0-.63,3.4h0A15.17,15.17,0,0,0,35.38,16L23.54,21.71l-6.32,3.06h0a1.43,1.43,0,0,0-.61.56L.2,52.82h0a1.53,1.53,0,0,0-.2.75v.12H0c.58,6.64.88,12.84,1.26,17.47A50.59,50.59,0,0,0,2,76.85H2a8.42,8.42,0,0,0,.57,1.89h0a3.22,3.22,0,0,0,.53.81l.08.07h0L4,83.71H4a1.45,1.45,0,0,0,1.42,1.15l.26,0h0a25.38,25.38,0,0,1,4.59-.4,29.26,29.26,0,0,1,3.42.2l1,.13h0l.24,0H15l.27,0a1.46,1.46,0,0,0,1.41-1.11l1-4.27.15-.19h0a4.8,4.8,0,0,0,.58-1.52h0a25.24,25.24,0,0,0,.49-3.9h0c.31-4.63.3-12.23.31-22.79l2.8.64Q22,57.17,22,61.8c0,14.24.55,23,1.18,28.41.23,2,.47,3.49.7,4.67l0,.16,0,.09h0l0,.1.16.25.07.08,0,0,.08.08.23.16.1.05.05,0,.1,0a1,1,0,0,0,.28.07h.39c8.71-1.22,22.06-1.33,26.15-1.33h2.57c4.09,0,17.44.11,26.15,1.33h.39A1,1,0,0,0,81,96l.1,0,0,0,.1-.05.23-.16.08-.08,0,0,.07-.08.16-.25,0-.1h0l0-.1,0-.16c.23-1.18.47-2.7.7-4.67.63-5.4,1.18-14.17,1.18-28.4,0-3.09,0-6.46-.08-10.09l2.79-.64c0,8.46,0,15,.16,19.69a57.81,57.81,0,0,0,.43,5.88h0a10.76,10.76,0,0,0,.42,1.86h0a3.67,3.67,0,0,0,.38.77h0l.15.18,1,4.27a1.44,1.44,0,0,0,1.4,1.11l.27,0h0a26.12,26.12,0,0,1,4.69-.39,25.3,25.3,0,0,1,4.59.4h0l.25,0A1.45,1.45,0,0,0,101.8,83.71Zm-1.1-4.56-.07.3-3,3-1-.06L100.05,79C100.27,79,100.48,79.07,100.7,79.15Zm.75-1.27a1.46,1.46,0,0,1-.15.25L101,78l.67-.67A3.88,3.88,0,0,1,101.45,77.88Zm.74-3.54c0,.46-.11.89-.18,1.28l-2.07,2.07c-.3-.08-.6-.14-.89-.2Zm.17-1.53-4.47,4.47c-.33,0-.66-.09-1-.11L102.08,72l.39-.39C102.44,72,102.4,72.43,102.36,72.81Zm.23-2.69-1.19,1.2-5.8,5.8c-.39,0-.77,0-1.13,0l6.38-6.39,1.83-1.83C102.65,69.35,102.62,69.74,102.59,70.12Zm.19-2.64-2.61,2.61L93,77.31c-.48.07-.92.15-1.32.23l8-8,3.23-3.23C102.83,66.7,102.81,67.1,102.78,67.48Zm.35-5.26-5.42,5.41-8.58,8.59c0-.3-.08-.62-.12-1l8.16-8.15,6-6C103.18,61.44,103.16,61.83,103.13,62.22ZM99.37,46.33,97,48.67l-8.44,8.44c0-.36,0-.72,0-1.09l7.91-7.9L99,45.64ZM95.7,40.17l-3.58,3.58L88.57,47.3V46.21l3-3,3.72-3.72Zm-.92-1.54-3.89,3.89-2.32,2.33V43.76L90.35,42l4-4ZM82.54,49.92l-.06-.07,4.93-4.93V46l-3.63,3.62ZM87.39,40c0,.36,0,.73,0,1.09l-6.53,6.53c-.13-.24-.25-.48-.36-.74Zm0,2.45v1.09l-5.57,5.57c-.16-.19-.31-.42-.46-.64Zm6.46-5.37-4.2,4.2-1.1,1.1V41.31l.56-.56,4.34-4.34ZM93,35.56,88.55,40c0-.36,0-.73,0-1.09l4-4ZM92,34l-3.64,3.64a.57.57,0,0,0-1,.38v.62l-.17.18-7.07,7.07c-.06-.19-.14-.36-.19-.55a2.86,2.86,0,0,1-.07-.28l6.78-6.79,5-4.95Zm-.92-1.54L86,37.61,79.61,44c-.06-.3-.11-.62-.16-.93l6-6L90.7,31.8Zm-.92-1.54-5.44,5.44-5.47,5.47-.09-1,5-5,5.57-5.58Zm-.92-1.54-5.75,5.76-4.39,4.39c0-.32,0-.63,0-1v-.11L83,34.61l5.89-5.89Zm-.91-1.53-6.07,6.06-3.14,3.15c0-.39,0-.77.06-1.16l2.54-2.54,6.2-6.2Zm-1-1.45L81.07,32.7l-1.73,1.72c0-.41.1-.83.16-1.25l1-1,6.09-6.09Zm-1.66-.8-5.85,5.85-.08.08c.08-.45.17-.9.26-1.35L85,25.26ZM84,24.82l-3.61,3.6c.13-.51.26-1,.41-1.5l2.46-2.46Zm-2.51,0c.14-.36.27-.72.41-1.06l.44.21ZM65,4.31A3.38,3.38,0,0,1,66.25,6.2a4.51,4.51,0,0,1,.11,1,7.93,7.93,0,0,1-.07,1,.59.59,0,0,0,.27.56,4.08,4.08,0,0,1,1.65,1.93,6.85,6.85,0,0,1,.46,2.61,14.61,14.61,0,0,1-.42,3.25,19.39,19.39,0,0,1-6.65,3V14a1.12,1.12,0,1,0-2.24,0v6.1a34.12,34.12,0,0,1-3.79.47,31.6,31.6,0,0,0-2-3.66A61.22,61.22,0,0,1,64,5.13C64.37,4.81,64.68,4.55,65,4.31ZM53.48,2c5.43,0,8.64.73,10.45,1.63l-.68.6A64.63,64.63,0,0,0,53.48,15ZM52.33,2V15A64.63,64.63,0,0,0,42.56,4.26l-.68-.6C43.69,2.76,46.91,2.07,52.33,2ZM37.6,10.7a4.19,4.19,0,0,1,1.65-1.93.59.59,0,0,0,.27-.56,7.91,7.91,0,0,1-.07-1,4.05,4.05,0,0,1,.12-1,3.28,3.28,0,0,1,1.28-1.89l.95.82a60.53,60.53,0,0,1,10.62,12,31.92,31.92,0,0,1,1.89,3.43c-.47,0-.93,0-1.4,0-.78,0-1.54,0-2.29-.07a33.51,33.51,0,0,1-4.14-.49V14a1.12,1.12,0,1,0-2.23,0v5.61a19.2,19.2,0,0,1-6.68-3,14.06,14.06,0,0,1-.43-3.25A6.85,6.85,0,0,1,37.6,10.7ZM23.44,24l-3,3-6.17,6.17,1.61-2.71,4-4L21.32,25Zm-5.18,2.51.42-.21-.74.74Zm-6,10,8.87-8.87,3-3c.1.26.2.51.3.79L21.71,28.2l-9.15,9.14-1.89,1.89Zm10.65-7.1-9.15,9.15L7,45.32l1.62-2.71L13.25,38l9.14-9.14,2.43-2.43c.09.28.17.55.25.84ZM5,48.7l.31-.31,9.15-9.14,9.14-9.14,1.74-1.75c.08.29.15.58.22.88l-1.42,1.41L15,39.8,5.88,48.94,3.41,51.41Zm16.82-2.08,4.68-4.68c-.05.44-.12.86-.19,1.28l-3.94,3.94-2.08,2.08-.89-.2Zm-.68-.68L18.39,48.7c0-.35,0-.73,0-1.09l2.22-2.22,6.07-6.07c0,.38,0,.76,0,1.13Zm-1.23-1.23L18.4,46.24V45.15l1-1,7.27-7.27c0,.36,0,.71,0,1.06Zm-9.68,8.6,7-7V47.4l-6.45,6.45L2.67,62c0-.34,0-.68-.07-1Zm8.46-9.83-.3.3v-1.1l8.08-8.08c0,.34.06.68.08,1Zm7.63-10.09-7.93,7.92c0-.36,0-.72,0-1.09l7.65-7.66.13-.13C26.25,32.75,26.29,33.07,26.34,33.39Zm-.95-1.51-7,7V38l-.05-.24,6.47-6.46,1-1c.06.3.12.6.17.91ZM2.07,54.11l4.49-4.49,9.14-9.14,1.57-1.57c0,.37,0,.74,0,1.1l-1,1L7.11,50.17,2.16,55.11Zm.19,2.27,5.53-5.53,9.14-9.14.33-.33c0,.37,0,.73,0,1.1L8.33,51.39l-6,6C2.32,57.05,2.29,56.71,2.26,56.38Zm.17,2.28L9,52.08l8.23-8.23c0,.37,0,.73,0,1.09L9.56,52.62l-7,7.06C2.48,59.34,2.46,59,2.43,58.66Zm.32,4.6,8.72-8.73,5.77-5.76v1.09L12,55.08,2.88,64.22l-.06.06C2.8,63.94,2.77,63.6,2.75,63.26Zm.15,2.3.66-.66,9.14-9.14,4.53-4.53v1.09l-4,4L4.1,65.45,3,66.59C3,66.25,2.92,65.91,2.9,65.56Zm.75,9.08,4.82-4.82,8.74-8.75v1.1L9,70.36,3.79,75.59C3.74,75.29,3.7,75,3.65,74.64Zm1.46,4.51,0,0,0,0Zm.25,1.15L7,78.61c.44-.09.88-.16,1.31-.21l-2.8,2.8Zm4.82-2,.72,0L6.54,82.67c-.22,0-.44,0-.66.09l-.09-.44,4-4ZM8.07,82.5l4.1-4.1,1,.13-3.9,3.9Zm2.54-.08,3.67-3.67.21,0,.66.18-3.48,3.48C11.33,82.43,11,82.42,10.61,82.42Zm2.34.11L15.51,80l-.35,1.44-1.22,1.22C13.65,82.59,13.32,82.56,13,82.53Zm3.41-4.78-.28.29c-.22-.07-.5-.16-.85-.25l.61-.6.83-.83A8.49,8.49,0,0,1,16.36,77.75Zm.48-2.93L15.16,76.5l-1,1-.92-.17,1.4-1.4,2.32-2.32C16.9,74.06,16.87,74.45,16.84,74.82ZM17,72.19l-3.08,3.08L12,77.21l-1-.07,2.41-2.41,3.68-3.67C17,71.45,17,71.83,17,72.19Zm.09-2.54-4.4,4.4L9.61,77.14c-.39,0-.78,0-1.17.08l3.72-3.72,5-5C17.12,68.92,17.11,69.28,17.1,69.65Zm0-2.51-5.68,5.68L6.81,77.48a14.76,14.76,0,0,0-1.48.39l5.6-5.6L17.17,66C17.17,66.41,17.16,66.78,17.15,67.14Zm-6.9,4.45-6,6a4.06,4.06,0,0,1-.16-.52c0-.1,0-.22-.08-.34L9.7,71l7.5-7.49c0,.37,0,.74,0,1.1Zm7-11.89-.29.29L7.79,69.13,3.51,73.41c0-.31-.07-.65-.1-1l3.83-3.83,9.15-9.14.83-.84Zm0-2.46L15.7,58.76,6.56,67.91,3.3,71.17c0-.33,0-.67-.08-1L6,67.36l9.14-9.14,2.07-2.07Zm0-2.46-2.75,2.76L5.33,66.68l-2.2,2.2c0-.3,0-.59-.07-.9v-.12l1.74-1.73L13.93,57l3.3-3.3Zm4.19-5.28,1.65-1.65L26,45c0,.13-.06.27-.1.4-.12.42-.27.82-.42,1.21l-1.82,1.82L22.31,49.7ZM80.07,94c-9-1.18-21.94-1.28-25.93-1.28H51.68c-4,0-17,.1-25.94,1.28-.17-.92-.34-2-.51-3.43,2.3-.32,4.9-.57,7.59-.76,7.67-.54,15.88-.59,18.87-.59h2.43c3,0,11.21,0,18.87.59,2.69.19,5.29.44,7.59.76C80.41,91.91,80.24,93,80.07,94ZM67.63,74.24a17.85,17.85,0,0,0,4.82,3.49V88.57c-7.53-.5-15.4-.55-18.33-.55H51.69c-2.93,0-10.8,0-18.33.55V77.73a17.85,17.85,0,0,0,4.82-3.49,15.85,15.85,0,0,0,4-7.07H63.66A15.85,15.85,0,0,0,67.63,74.24ZM81.81,61.8a265.19,265.19,0,0,1-1.09,27.58c-2.18-.3-4.6-.54-7.11-.72V77.37l0-.08,0-.12-.06-.1L73.45,77l-.1-.08-.07-.05a17,17,0,0,1-4.82-3.42,14.67,14.67,0,0,1-3.79-7l0,0-.05-.11-.06-.09-.08-.07-.09-.06-.11,0-.11,0H41.66l-.11,0-.1,0-.09.06-.09.07-.06.09,0,.11,0,0a14.68,14.68,0,0,1-3.8,7,17,17,0,0,1-4.82,3.42l-.07.05-.1.08-.06.09-.06.1,0,.12,0,.08V88.66c-2.5.18-4.93.42-7.1.72A261.47,261.47,0,0,1,24,61.8q0-5.05.1-11.08a11,11,0,0,0,2.87-5,25.39,25.39,0,0,0,.89-7.1,41.89,41.89,0,0,0-2.95-15.3l12-5.79a20.8,20.8,0,0,0,7.36,3.26v9.5a.45.45,0,0,0,.11.35,1.85,1.85,0,0,0-.45,2.33,1.46,1.46,0,0,0,2.24.7,1.93,1.93,0,0,0,.67-2.45,2.07,2.07,0,0,0-.45-.58c0-.12.11-.23.11-.35v-9a36.87,36.87,0,0,0,4.07.48c.77.05,1.56.07,2.36.07s1.56,0,2.32-.07h0a37.43,37.43,0,0,0,4.1-.48v9a.45.45,0,0,0,.11.35A1.85,1.85,0,0,0,59,32.94a1.43,1.43,0,0,0,2.23.7,1.92,1.92,0,0,0,.67-2.45,1.9,1.9,0,0,0-.45-.58c0-.12.12-.23.12-.35V20.75a20.49,20.49,0,0,0,7.32-3.26l12,5.8a41.89,41.89,0,0,0-3,15.3,25.39,25.39,0,0,0,.89,7.1,11,11,0,0,0,2.87,5Q81.82,56.75,81.81,61.8Zm3.74-12.57,1.86-1.86c0,.36,0,.73,0,1.09l-.46.45Zm3,0c0-.2,0-.41,0-.61l4.23-4.22L96.21,41l.41.68L93.35,45l-4.77,4.77Zm0,1.85L94,45.66l3.1-3.09.41.68-3,3-6,6Zm6.68-4.23,2.79-2.79.4.69L95.8,47.44l-7.22,7.22V53.57ZM88.59,58.47l9.12-9.12,2.17-2.17.41.69-2,2L89.12,59l-.53.52Zm0,2.45,1.2-1.2,9.14-9.14,1.86-1.86.41.68-1.72,1.72-9.14,9.14L88.6,62Zm0,2.44L91,61l9.14-9.15,1.55-1.54.41.68-1.41,1.41-9.15,9.14-2.95,3C88.62,64.09,88.61,63.73,88.61,63.36Zm0,2.44,3.62-3.63L101.4,53l1.23-1.23.41.68L102,53.58,92.8,62.72l-4.15,4.15C88.65,66.52,88.64,66.16,88.64,65.8Zm0,2.41,4.8-4.81,9.15-9.14.92-.93.22.37c0,.19,0,.37,0,.55l-.56.56L94,64,88.7,69.28C88.69,68.93,88.68,68.58,88.68,68.21Zm.06,2.4,6-6,8.89-8.89-.09,1.19-8.25,8.25-6.48,6.48C88.76,71.32,88.75,71,88.74,70.61Zm7.2-4.75,7.46-7.46-.09,1.18-6.82,6.83L88.9,74c0-.33,0-.67-.06-1ZM89.58,78.09a3.07,3.07,0,0,1-.15-.37c0-.1-.06-.23-.09-.35l9.06-9.05L103,63.68c0,.39,0,.78-.07,1.17l-4,4L89.8,78l0,0Zm.51,1c.33-.11.81-.25,1.42-.39l-.48.48L90.3,80Zm.47,1.92,1.15-1.15,1.47-1.46c.38,0,.79-.09,1.21-.12l-2.13,2.13-1.48,1.48Zm.83,1.63,1.55-1.55,2.86-2.86,1,0-3.37,3.37-.86.86C92.14,82.59,91.73,82.64,91.39,82.69Zm2.78-.32,3.9-3.9c.3,0,.6.12.9.19l-3.76,3.76c-.39,0-.77,0-1.12,0Zm4.67.24,1.43-1.43-.3,1.39-.17.17Z"/><polygon class="cls-1" points="65.73 2.36 65.73 2.36 65.73 2.36 65.73 2.36"/><polygon class="cls-1" points="70.07 9.91 70.07 9.91 70.07 9.91 70.07 9.91"/><polygon class="cls-1" points="40.08 2.36 40.08 2.36 40.08 2.36 40.08 2.36"/><polyline class="cls-1" points="16.61 25.33 16.61 25.33 16.61 25.33"/><polygon class="cls-1" points="35.74 9.91 35.74 9.91 35.74 9.91 35.74 9.91"/></g></g></svg>