<svg xmlns="http://www.w3.org/2000/svg" viewBox="0 0 105.81 96.05"><defs><style>.cls-1{fill:#e2e2e2;}</style></defs><title>hoodie-pocket</title><g id="Layer_2" data-name="Layer 2"><g id="Layer_5" data-name="Layer 5"><path class="cls-1" d="M105.61,52.82h0L89.2,25.33a1.43,1.43,0,0,0-.61-.56L70.43,16a14.37,14.37,0,0,0,.27-2.66,8.59,8.59,0,0,0-.63-3.4,6.17,6.17,0,0,0-1.69-2.3c0-.12,0-.25,0-.37a6.52,6.52,0,0,0-.17-1.51,5.55,5.55,0,0,0-2.49-3.37A13.27,13.27,0,0,0,61,.63,43,43,0,0,0,52.91,0a43.05,43.05,0,0,0-8.07.63,13.27,13.27,0,0,0-4.76,1.73A5.5,5.5,0,0,0,37.6,5.73a6,6,0,0,0-.17,1.51c0,.12,0,.25,0,.37a6.09,6.09,0,0,0-1.7,2.3,9,9,0,0,0-.63,3.4A14.47,14.47,0,0,0,35.38,16L17.22,24.77a1.43,1.43,0,0,0-.61.56L.2,52.82a1.47,1.47,0,0,0-.19.87c.34,3.92.59,7.71.81,11,.15,2.36.29,4.52.45,6.42A47.3,47.3,0,0,0,2,76.85a8.37,8.37,0,0,0,.57,1.9,3.34,3.34,0,0,0,.53.81l.09.08L4,83.71a1.46,1.46,0,0,0,1.68,1.13,25,25,0,0,1,4.58-.4h0a29.72,29.72,0,0,1,3.42.2l1,.13.31.06a1.46,1.46,0,0,0,1.7-1.08l1-4.24.17-.22a4.69,4.69,0,0,0,.58-1.52,24.67,24.67,0,0,0,.49-3.9c.29-4.38.3-11.47.31-21.27V51.08l2.79.64C22,55.26,22,58.65,22,61.8a263.15,263.15,0,0,0,1.18,28.41c.21,1.79.44,3.36.7,4.68a.7.7,0,0,0,.08.23l.12.26a1.08,1.08,0,0,0,.18.21l.2.19a1.19,1.19,0,0,0,.24.13,1.13,1.13,0,0,0,.25.09l.25,0h.3c8.82-1.23,22.23-1.33,26.18-1.33H53s.49,0,1.24,0c4,0,17.34.1,26.15,1.33h.26l.27,0a1,1,0,0,0,.27-.1l.24-.13a1.44,1.44,0,0,0,.21-.19,1.63,1.63,0,0,0,.17-.21l.11-.22.09-.28c.26-1.32.49-2.89.7-4.67a262.94,262.94,0,0,0,1.18-28.4c0-3.15,0-6.54-.08-10.09l2.79-.64v1.48c0,7.74,0,13.85.17,18.21a55.53,55.53,0,0,0,.42,5.88,10.58,10.58,0,0,0,.42,1.87,3.77,3.77,0,0,0,.38.78l.16.21,1,4.24a1.44,1.44,0,0,0,1.7,1.08,26.37,26.37,0,0,1,4.69-.39h0a25.06,25.06,0,0,1,4.59.4,1.45,1.45,0,0,0,1.67-1.13l.87-4.07.09-.09a4.14,4.14,0,0,0,.81-1.57,22.08,22.08,0,0,0,.7-3.88c.28-2.46.48-5.65.72-9.35.22-3.35.47-7.14.82-11.06A1.55,1.55,0,0,0,105.61,52.82ZM103,64.63c-.41,6.26-.83,12.71-1.65,13.5a18.15,18.15,0,0,0-11.75,0c-1-1.53-1-11.71-1-25.6V49.27c0-3.45,0-7.19,0-11.24a.57.57,0,0,0-.58-.57h0a.58.58,0,0,0-.58.58q0,5.79,0,10.77l-4.89,1.11c-5.13-4.72-3.79-18.5-.6-26.12l5.62,2.72L103.77,53.7C103.43,57.58,103.19,61.32,103,64.63ZM91,82.75l-.89-3.61a17.27,17.27,0,0,1,10.61,0l-.77,3.61A30,30,0,0,0,91,82.75ZM52.93,92.69h0c-.17,0-16.58-.12-27.14,1.27-.18-1-.35-2.15-.51-3.43q3.19-.45,7.59-.76c9.5-.67,20-.59,20-.59h.07c.1,0,10.55-.08,20,.59q4.4.32,7.59.76c-.16,1.28-.33,2.42-.51,3.43C69.51,92.57,53.1,92.69,52.93,92.69ZM14.84,82.75a30.07,30.07,0,0,0-9,0l-.77-3.61a17.27,17.27,0,0,1,10.61,0Zm-12-18.12c-.22-3.31-.46-7-.8-10.93L18.26,26.52l5.62-2.72c3.19,7.62,4.53,21.4-.6,26.12L18.4,48.81q0-5,0-10.77a.58.58,0,0,0-.58-.58h0a.57.57,0,0,0-.58.57c0,4,0,7.79,0,11.24v3.24c0,13.9,0,24.07-1,25.58a18.18,18.18,0,0,0-11.74,0C3.66,77.28,3.25,70.86,2.84,64.63ZM39.25,8.77a.58.58,0,0,0,.27-.55,6,6,0,0,1,0-2,3.4,3.4,0,0,1,1.3-1.89l.94.82a60.61,60.61,0,0,1,10.62,12h0a33.1,33.1,0,0,1,1.91,3.43,35.38,35.38,0,0,1-3.71,0,33.74,33.74,0,0,1-4.14-.49V14a1.12,1.12,0,1,0-2.23,0v5.61a19.13,19.13,0,0,1-6.68-3C36.65,12.66,37.21,10,39.25,8.77Zm27.31,0c2,1.27,2.6,3.89,1.68,7.8a19.16,19.16,0,0,1-6.64,3V14a1.12,1.12,0,1,0-2.24,0v6.1a34.23,34.23,0,0,1-3.78.47,31.74,31.74,0,0,0-2-3.67A61.78,61.78,0,0,1,64,5.13c.36-.32.66-.58.95-.82a3.42,3.42,0,0,1,1.29,1.9,5.93,5.93,0,0,1,0,2A.58.58,0,0,0,66.56,8.77Zm-24-4.51-.67-.59c2.1-1,5.6-1.59,10.44-1.63V15A64.73,64.73,0,0,0,42.56,4.26Zm21.36-.59-.67.59A65.18,65.18,0,0,0,53.48,15V2C58.32,2.08,61.82,2.63,63.92,3.67ZM33.36,77.73l.46-.24-.46.46ZM42.72,67.5l.33-.33h1.1l-.88.87-2.34,2.34a15.9,15.9,0,0,0,.82-1.91ZM34.81,77.87,44,68.73l1.56-1.56H46.6l-2.1,2.1-9.15,9.14-2,2V79.32ZM36,79.1,45.18,70,48,67.17h1.09L45.72,70.5l-9.14,9.14-3.22,3.23v-1.1Zm1.22,1.22,9.15-9.14,4-4h1.09L47,71.73l-9.14,9.14-4.45,4.45V84.23Zm1.23,1.23,9.14-9.14,5.25-5.24H54L48.18,73,39,82.1l-5.68,5.68V86.69ZM63.66,67.17l0,.1-1.45,1.46-9.15,9.14L44,87l-1.13,1.14-1.13,0,1.71-1.72,9.15-9.14,9.14-9.14,1-1ZM71.9,88.54l-1-.07,1.58-1.58V88Zm-2.32-.14-1-.05,3.91-3.91v1.09Zm-2.35-.11-1,0L72.45,82v1.09Zm-2.37-.09-1,0,8.64-8.65v1.09Zm7.59-10-.39.39-9.14,9.14-.44.44-1.07,0,1-1L71.51,78l.51-.5.43.23Zm-1.62-.84-9.14,9.14-1.61,1.62-1.08,0,2.14-2.14,9.15-9.14.19-.2c.23.15.45.3.67.43ZM69.6,76.09l-9.14,9.15L57.66,88H56.58l3.34-3.34,9.14-9.14h0c.2.17.41.33.61.48ZM59.23,84l-4,4H54.13l4.56-4.56,9.09-9.09c.18.19.37.37.56.54ZM58,82.78,52.76,88H51.67l5.79-5.79,9.14-9.14,0,0c.17.21.33.41.5.6Zm7.91-10.37-9.14,9.14L50.31,88h-1.1l7-7,9.14-9.15.23-.22c.14.22.29.44.44.65Zm-1.23-1.23-9.14,9.14-7.72,7.73H46.72L55,79.78l9.15-9.14.57-.58c.12.25.24.49.37.72ZM63.46,70,54.32,79.1l-9,9-1.11,0,.41-.42,9.15-9.14,9.14-9.14L64,68.32c.09.27.19.54.29.8ZM61,67.5l-9.15,9.14-9.14,9.14-2.44,2.45-1.14,0,3-3,9.14-9.15,8.93-8.92h1.09ZM50.64,75.41l-9.15,9.14-3.77,3.78-1.15.06L41,84l9.14-9.14,7.7-7.7h1.09Zm-1.23-1.23-9.14,9.15-5.14,5.13L34,88.53l5.75-5.75,9.14-9.14,6.47-6.47h1.1Zm24.2,14.48V77.37l0-.08,0-.12-.06-.1L73.45,77l-.11-.08-.06-.05a15.47,15.47,0,0,1-8.61-10.4l0,0-.05-.11-.06-.09-.08-.07-.1-.06-.09,0-.12,0H41.67l-.13,0-.09,0-.1.08-.07.06-.07.1,0,.1,0,0a15.45,15.45,0,0,1-8.62,10.4l-.06.05-.11.08-.06.09-.06.1,0,.12,0,.08V88.66c-2.71.2-5.09.44-7.11.72-.67-6.09-1.35-17.65-1-38.65,5.55-5.17,4.23-19.37.82-27.44l12-5.79a20.69,20.69,0,0,0,7.36,3.26v9.5a.45.45,0,0,0,.11.35,1.85,1.85,0,0,0-.45,2.33,1.46,1.46,0,0,0,2.24.7,1.93,1.93,0,0,0,.67-2.45,2.07,2.07,0,0,0-.45-.58c0-.12.11-.23.11-.35v-9a40.14,40.14,0,0,0,4.07.47c.81.05,1.6.07,2.36.07s1.54,0,2.35-.07h0a37.72,37.72,0,0,0,4.1-.48v9a.45.45,0,0,0,.11.35A1.85,1.85,0,0,0,59,32.94a1.43,1.43,0,0,0,2.23.7,1.92,1.92,0,0,0,.67-2.45,1.9,1.9,0,0,0-.45-.58c0-.12.12-.23.12-.35V20.75a20.63,20.63,0,0,0,7.32-3.25l12,5.79c-3.41,8.07-4.73,22.27.82,27.45.36,21-.32,32.55-1,38.64C78.7,89.1,76.32,88.86,73.61,88.66Z"/></g></g></svg>