<svg xmlns="http://www.w3.org/2000/svg" viewBox="0 0 105.81 96.04"><defs><style>.cls-1{fill:#e2e2e2;}</style></defs><title>hoodie-backside</title><g id="Layer_2" data-name="Layer 2"><g id="Layer_5" data-name="Layer 5"><polyline class="cls-1" points="105.61 52.82 105.61 52.82 105.61 52.82"/><polygon class="cls-1" points="37.59 5.73 37.59 5.73 37.59 5.73 37.59 5.73"/><polygon class="cls-1" points="35.74 9.91 35.74 9.91 35.74 9.91 35.74 9.91"/><polygon class="cls-1" points="68.22 5.73 68.22 5.73 68.22 5.73 68.22 5.73"/><polygon class="cls-1" points="70.07 9.91 70.07 9.91 70.07 9.91 70.07 9.91"/><polygon class="cls-1" points="40.08 2.36 40.08 2.36 40.08 2.36 40.08 2.36"/><path class="cls-1" d="M105.61,52.82h0L89.2,25.33h0a1.38,1.38,0,0,0-.61-.56l-6.32-3.06L70.43,16a14.27,14.27,0,0,0,.27-2.66h0a8.64,8.64,0,0,0-.63-3.4,6.16,6.16,0,0,0-1.7-2.29c0-.13,0-.24,0-.38a6.81,6.81,0,0,0-.16-1.51,5.58,5.58,0,0,0-2.49-3.37A13.07,13.07,0,0,0,61,.63,43.06,43.06,0,0,0,52.91,0a43.1,43.1,0,0,0-8.07.63,13.14,13.14,0,0,0-4.76,1.73,5.62,5.62,0,0,0-2.49,3.37,6.81,6.81,0,0,0-.16,1.51c0,.14,0,.25,0,.38a6.08,6.08,0,0,0-1.71,2.29,8.83,8.83,0,0,0-.63,3.4h0A15.17,15.17,0,0,0,35.38,16L23.54,21.71l-6.32,3.06a1.43,1.43,0,0,0-.61.56h0L.2,52.82a1.5,1.5,0,0,0-.2.75v.13H0c.58,6.64.88,12.84,1.26,17.47A50.59,50.59,0,0,0,2,76.85H2a8.42,8.42,0,0,0,.57,1.89h0a3.22,3.22,0,0,0,.53.81l.08.07h0L4,83.71a1.45,1.45,0,0,0,1.42,1.15l.26,0h0a25.38,25.38,0,0,1,4.59-.4,29.26,29.26,0,0,1,3.42.2l1,.13h0l.24,0H15l.27,0a1.46,1.46,0,0,0,1.41-1.11l1-4.27.15-.18h0a4.8,4.8,0,0,0,.58-1.52h0A25.25,25.25,0,0,0,19,73.88c.31-4.64.3-12.24.31-22.8l2.8.64Q22,57.17,22,61.8c0,14.24.55,23,1.18,28.41.23,2,.47,3.49.7,4.67l0,.16,0,.1,0,.1.16.25.07.08,0,0,.08.08.23.16.1.05.05,0,.1,0a.89.89,0,0,0,.28.07h.39c8.71-1.22,22.06-1.33,26.15-1.33h2.57c4.09,0,17.44.11,26.15,1.33h.39A.89.89,0,0,0,81,96l.11,0,0,0,.1-.05.23-.17.08-.07,0,0,.07-.08.16-.25,0-.1h0l0-.1,0-.16c.23-1.18.47-2.7.7-4.67.63-5.4,1.18-14.17,1.18-28.4q0-4.65-.08-10.09l2.79-.64c0,8.46,0,15,.16,19.69a57.81,57.81,0,0,0,.43,5.88h0a10.76,10.76,0,0,0,.42,1.86h0a3.67,3.67,0,0,0,.38.77h0l.15.18,1,4.27h0a1.46,1.46,0,0,0,1.41,1.1l.26,0h0a26.12,26.12,0,0,1,4.69-.39,25.49,25.49,0,0,1,4.6.4l.25,0a1.45,1.45,0,0,0,1.42-1.15h0l.87-4.07h0l.09-.08a4.17,4.17,0,0,0,.81-1.56h0a23,23,0,0,0,.7-3.88h0c.53-4.75.81-12.23,1.54-20.41h0v-.12A1.5,1.5,0,0,0,105.61,52.82Zm-3.74,23.62a6.8,6.8,0,0,1-.42,1.44,1.46,1.46,0,0,1-.15.25,15.86,15.86,0,0,0-5.67-1,19.47,19.47,0,0,0-6,1,3.07,3.07,0,0,1-.15-.37,16.78,16.78,0,0,1-.49-3.29c-.37-4.57-.35-12.85-.36-24.67a17.27,17.27,0,0,1,2.82-.22,15.92,15.92,0,0,1,4.87.71,7.72,7.72,0,0,1,3.93,2.67.58.58,0,1,0,.93-.68,8.89,8.89,0,0,0-4.5-3.09,17,17,0,0,0-5.23-.77,17.76,17.76,0,0,0-3.52.33h0l-5.33,1.21A9.84,9.84,0,0,1,80,45.36a24.55,24.55,0,0,1-.85-6.77A41.08,41.08,0,0,1,81.94,23.8l5.61,2.72L103.77,53.7c-.58,6.62-.87,12.76-1.24,17.29A52,52,0,0,1,101.87,76.44Zm-1.17,2.71-.77,3.61a28.2,28.2,0,0,0-4.4-.35,29.31,29.31,0,0,0-4.55.34l-.89-3.61a18.52,18.52,0,0,1,5.54-.86A14.94,14.94,0,0,1,100.7,79.15ZM17.94,48.71h0a17.68,17.68,0,0,0-3.52-.33,17,17,0,0,0-5.23.77,8.93,8.93,0,0,0-4.5,3.09.58.58,0,1,0,.93.68,7.76,7.76,0,0,1,3.93-2.67,15.92,15.92,0,0,1,4.87-.71,17.5,17.5,0,0,1,2.83.22c0,9.11,0,16.12-.17,20.95a55,55,0,0,1-.4,5.65,8.26,8.26,0,0,1-.33,1.47c0,.11-.08.19-.11.26a19.47,19.47,0,0,0-6.05-1,15.86,15.86,0,0,0-5.67,1l0,0a3.61,3.61,0,0,1-.38-1,60.87,60.87,0,0,1-1-9.09C2.78,63.9,2.5,59,2,53.7L18.26,26.52l5.61-2.72a41.08,41.08,0,0,1,2.84,14.79,24.6,24.6,0,0,1-.85,6.77,9.84,9.84,0,0,1-2.59,4.56ZM15.72,79.14l-.88,3.61a29.59,29.59,0,0,0-4.56-.34,28.2,28.2,0,0,0-4.4.35l-.77-3.61a15,15,0,0,1,5.07-.87,19.34,19.34,0,0,1,4.31.51C15,78.92,15.42,79,15.72,79.14ZM37.14,13.31a6.85,6.85,0,0,1,.46-2.61,4.19,4.19,0,0,1,1.65-1.93.57.57,0,0,0,.27-.55,8.24,8.24,0,0,1-.07-1,4.51,4.51,0,0,1,.11-1,3.5,3.5,0,0,1,1.63-2.14c1.65-1.1,5-2,11.14-2V20.61c-.58,0-1.15,0-1.71-.06-5.53-.33-10.27-1.88-13-4A14.06,14.06,0,0,1,37.14,13.31ZM66.25,6.2a4.51,4.51,0,0,1,.11,1,7.93,7.93,0,0,1-.07,1,.59.59,0,0,0,.27.56,4.08,4.08,0,0,1,1.65,1.93,6.85,6.85,0,0,1,.46,2.61,14.61,14.61,0,0,1-.42,3.25c-2.79,2.11-7.53,3.66-13.06,4-.56,0-1.13.05-1.71.06V2c6.19.05,9.5.93,11.14,2A3.5,3.5,0,0,1,66.25,6.2Zm12,87.53-1-.1,3.12-3.13.24,0c0,.33-.08.65-.12,1Zm2-.65c0,.31-.1.61-.15.88l-.65-.08Zm-26.08-.4H53.6l.21-.21,3.28-3.28h1.08l-3.48,3.48Zm-28.47.91,3.52-3.52L30.4,90l-3.91,3.9-.75.1C25.72,93.83,25.7,93.72,25.67,93.59ZM24,61.8v-.92l8.25-8.26,9.15-9.14,9.14-9.14,9.14-9.15,5.72-5.71a19.28,19.28,0,0,0,2.18-1.1l-7.35,7.36-9.15,9.14L41.94,44,32.8,53.17,24,62Zm3-16.11,0-.09,8.27-8.26L44.4,28.2l6.48-6.48c.34,0,.7,0,1,0l-7,7L35.8,37.89,26.66,47l-.25.25A15.68,15.68,0,0,0,27,45.69Zm9.25-27.87-1.1,1.1-8.74,8.73c-.07-.29-.15-.57-.24-.85l8-8ZM26.66,28.74,35.8,19.6l1.69-1.69.66.43-1.8,1.81L27.2,29.29l-.34.34c-.06-.3-.13-.59-.2-.89ZM27.89,30,37,20.83l2-2,.73.36-2.18,2.18-9.15,9.15-1.17,1.17c-.06-.31-.11-.61-.17-.92Zm1.22,1.23,9.15-9.14,2.45-2.45.79.3L38.8,22.6l-9.14,9.15-2.1,2.09c0-.32-.08-.64-.12-1Zm1.23,1.23,9.15-9.15,3-3,.85.24L40,23.83,30.89,33l-3.12,3.12c0-.34-.05-.67-.08-1Zm1.23,1.23,9.14-9.15,3.71-3.7.9.19-4.06,4.06L32.12,34.2l-4.26,4.26c0-.35,0-.71,0-1.06Zm1.23,1.22,9.14-9.14,4.52-4.51.95.14-4.92,4.92-9.14,9.14L27.76,41c0-.38,0-.77.07-1.16ZM34,36.11,43.17,27l5.43-5.44c.33,0,.67.07,1,.09l-5.89,5.89-9.15,9.15-7.16,7.16c.08-.42.15-.86.21-1.3ZM25.82,25.76l-.27-.82,3.79-3.79,2.11-1ZM25.18,24c-.09-.23-.18-.44-.27-.66l1.78-.86Zm2.16,23.76,9.14-9.14,9.15-9.14,7.65-7.66c.38,0,.75,0,1.13,0L46.17,30,37,39.11l-9.14,9.15-3.81,3.81c0-.37,0-.74,0-1.11Zm1.23,1.23,9.14-9.14,9.14-9.15,9-9,1.2-.11-.51.51L47.4,31.2l-9.14,9.14-9.15,9.14L24,54.56c0-.37,0-.73,0-1.11Zm1.23,1.23L38.94,41l9.14-9.14,9.15-9.14,1.4-1.4L60,21.11l-2.18,2.17-9.14,9.15-9.14,9.14-9.15,9.14L24,57c0-.37,0-.73,0-1.1ZM31,51.4l9.14-9.15,9.14-9.14L58.45,24l3.25-3.25c.52-.13,1-.27,1.51-.42L59,24.51l-9.14,9.15L40.71,42.8l-9.14,9.14L24,59.51c0-.36,0-.73,0-1.1ZM24.34,63l9.14-9.14,9.14-9.14,9.15-9.14,9.14-9.15,8.63-8.63.73.36L61.46,27l-9.15,9.14-9.14,9.14L34,54.4l-9.15,9.14-.88.88V63.33Zm1.23,1.23,9.14-9.14,9.14-9.14L53,36.79l9.14-9.14,9-9.06.74.36-.1.1L62.68,28.2l-9.14,9.14L44.4,46.48l-9.14,9.15-9.15,9.14L24,66.86c0-.35,0-.72,0-1.08Zm1.22,1.23,9.15-9.14,9.14-9.15L54.22,38l9.15-9.14,9.14-9.14.34-.34.73.35-.53.53-9.14,9.15-9.14,9.14-9.14,9.14-9.15,9.14L27.34,66l-3.29,3.28c0-.35,0-.71,0-1.07ZM28,66.68l9.15-9.14,9.14-9.15,9.14-9.14,9.14-9.14L73.74,21l.76-.76.74.35-1,1-9.14,9.14L56,39.8l-9.15,9.14-9.14,9.14-9.14,9.14L24.1,71.69c0-.34,0-.71,0-1.07Zm1.23,1.23,9.14-9.15,9.15-9.14,9.14-9.14,9.14-9.14L75,22.19,76.16,21l.73.35-1.38,1.39-9.14,9.14L57.23,41l-9.15,9.15-9.14,9.14L29.8,68.45l-5.64,5.64,0-1.06Zm1.23,1.22L39.62,60l9.14-9.14,9.15-9.14,9.14-9.15,9.14-9.14,1.62-1.62.74.36L76.74,24,67.6,33.11l-9.15,9.14L49.31,51.4l-9.14,9.14L31,69.68l-6.79,6.79c0-.35,0-.69,0-1Zm1.23,1.23,9.14-9.14L50,52.08l9.15-9.15,9.14-9.14,9.14-9.14,2-2,.73.36L78,25.19l-9.15,9.15-9.14,9.14-9.14,9.14L41.4,61.77l-9.15,9.14-7.92,7.92c0-.34,0-.69,0-1Zm1.23,1.23,9.14-9.14,9.14-9.14,9.14-9.15L69.51,35l9.14-9.14,2-2c-.22.54-.42,1.11-.62,1.71l-.85.85-9.15,9.15-9.14,9.14-9.14,9.14L42.62,63l-9.14,9.15-9,9-.06-1ZM25,82l9.14-9.14,9.15-9.14,9.14-9.15,9.14-9.14,9.14-9.14,8.74-8.73c-.13.47-.25,1-.37,1.45l-7.82,7.82-9.14,9.15L53,55.08l-9.15,9.14-9.14,9.14-9.14,9.15-1,1c0-.34-.05-.68-.07-1Zm1.23,1.23,9.14-9.14,9.14-9.15,9.15-9.14,9.14-9.14L72,37.48l6.77-6.77c-.08.44-.17.88-.24,1.33l-6,6-9.14,9.14-9.15,9.15-9.14,9.14-9.14,9.14-9.15,9.15-2,2c0-.32-.06-.66-.08-1Zm1.23,1.23,9.14-9.15,9.14-9.14L54.91,57l9.14-9.14,9.14-9.15,5.09-5.08c0,.41-.1.81-.14,1.23l-4.4,4.4-9.15,9.14-9.14,9.15-9.14,9.14-9.14,9.14L28,85,25,88c0-.32-.07-.65-.1-1Zm1.23,1.23,9.14-9.15L47,67.36l9.14-9.14,9.15-9.14,9.14-9.15,3.6-3.6c0,.38,0,.76,0,1.13l-3,3-9.14,9.14-9.14,9.14-9.14,9.15-9.15,9.14-9.14,9.14-3,3-1.11.15,0-.11Zm50.13-40c0,.19.13.36.19.55l-8.3,8.29-9.14,9.15-9.14,9.14L43.31,82,36.9,88.37l-1.15.06,7-7,9.14-9.15,9.15-9.14L70.19,54l8.58-8.58A2.86,2.86,0,0,0,78.84,45.69Zm2.87,5v.2l-7.3,7.3-9.14,9.14L56.13,76.5,47,85.65,44.54,88.1l-1.12,0,3-3L55.59,76l9.14-9.15,9.14-9.14,7.41-7.41C81.42,50.42,81.56,50.58,81.71,50.72ZM73.19,57l-9.14,9.14-9.14,9.14-9.15,9.15L42,88.17l-1.12,0,4.33-4.33,9.14-9.14,9.14-9.14,9.14-9.15,7.58-7.57c.14.22.29.44.44.65ZM72,55.76,62.82,64.9l-9.14,9.15-9.15,9.14-5.06,5.06-1.14,0L44,82.64l9.14-9.14,9.14-9.14,9.15-9.14,8-8c.1.25.23.49.35.73ZM78.5,44.31l-9,9-9.15,9.14-9.14,9.14-9.14,9.14L34.3,88.51l-1.17.08,8.4-8.4L50.68,71l9.14-9.14L69,52.76l9.14-9.14.23-.23C78.38,43.7,78.44,44,78.5,44.31Zm-1.08-1.38-9.14,9.15-9.14,9.14L50,70.36l-9.14,9.15-9.14,9.14-.05,0-1.19.09.69-.69L40.3,79l9.15-9.14,9.14-9.15,9.14-9.14,9.15-9.14,1.18-1.19c0,.34,0,.68.09,1Zm-1.23-1.22-9.14,9.14L57.91,60l-9.15,9.14-9.14,9.15-9.14,9.14L29,88.93l-1.22.13,2.18-2.19,9.15-9.14,9.14-9.14,9.14-9.14L66.5,50.3l9.15-9.14L78,38.85l0,1.07ZM26.44,90.37l1.23-.14-2.19,2.19c0-.31-.09-.63-.13-1Zm5.44-.53.94-.07.24,0-.12.13-3.69,3.69c-.42,0-.82.08-1.22.12Zm1.74.72.9-.9,1.16-.07L34.16,91.1l-2.23,2.24-1.18.09Zm1.23,1.23,2.27-2.27,1.14-.06-2.87,2.87-.82.83-1.17.08ZM36.07,93l3.61-3.6,1.14,0L37.16,93,36,93.08Zm6.16-3.69,1.12,0-3.62,3.62-1.14,0Zm2.52-.07,1.11,0-3.59,3.59-1.13,0Zm2.5,0h1.1l-3.56,3.56-1.12,0Zm2.48,0h1.1l-.15.15-3.39,3.38-1.11,0Zm1.63.83.83-.83h1.09L51.9,90.56l-2.13,2.13h-1.1Zm1.23,1.23,2.06-2.06h1.09l-2.61,2.61-.9.89H51.14Zm6.92-2,1.08,0L57.13,92.7H56.05Zm2.41,0,1.07,0-3.43,3.43-1.08,0Zm2.39.07,1.06,0L62,92.78l-1.07,0Zm2.37.09,1,0-3.38,3.38-1.06,0Zm2.35.1,1,.06-.43.42-2.92,2.92-1,0Zm1.3,1.16,1-1,1,.07-1.51,1.51L69.07,93,68,93Zm1.22,1.23,2.11-2.1,1,.08L72.1,92.47l-.7.7-1-.06Zm1.23,1.23L75.92,90l1,.09L73.7,93.33l-1-.08Zm5.38-2.92,1,.11L76,93.51l-1-.09Zm2-.92-1-.13,1.7-1.7c0,.42-.08.82-.12,1.21ZM78,89.05l-1-.11,4.14-4.14c0,.41-.06.8-.09,1.19Zm3.25-5.71-5.49,5.49-1-.09,6-6,.61-.61C81.28,82.57,81.26,83,81.23,83.34ZM80,82.1l-6.54,6.54c-.14,0-.26,0-.4,0l-.62,0,7-7,2-2c0,.39,0,.78-.06,1.15Zm-1.22-1.23-7.63,7.62-1-.06,8.11-8.11L81.56,77c0,.39,0,.76,0,1.14Zm-1.23-1.23-8.73,8.72-1,0,.08-.08L77,79.1l4.63-4.63c0,.37,0,.76,0,1.12Zm-1.23-1.23-9.14,9.15-.71.7-1,0L66.64,87l9.14-9.14,5.93-5.93c0,.38,0,.76,0,1.12ZM75.1,77.19,66,86.33l-1.85,1.85-1.06,0,2.36-2.36,9.15-9.14,7.19-7.2c0,.38,0,.74,0,1.11ZM73.87,76,64.73,85.1l-3,3-1.07,0,3.53-3.54,9.15-9.14L81.79,67c0,.38,0,.74,0,1.11Zm7.92-10.37-9.15,9.14L63.5,83.87l-4.19,4.19H58.24L63,83.33l9.14-9.15L81.24,65l.57-.56c0,.37,0,.73,0,1.1Zm-1.23-1.23L71.42,73.5l-9.15,9.14L56.89,88H55.8l5.93-5.92L70.87,73,80,63.81l1.8-1.8v1.1Zm-1.23-1.23-9.14,9.14-9.14,9.15L54.44,88H53.35l7.15-7.15,9.14-9.14,9.15-9.15,3-3v1.09ZM78.1,61.9,69,71l-9.14,9.15L52,88h-1.1l8.38-8.38,9.14-9.14,9.15-9.14,4.23-4.24c0,.37,0,.73,0,1.08Zm-1.22-1.23-9.15,9.15L58.59,79,49.52,88h-1.1l.48-.48L58,78.41l9.15-9.14,9.14-9.14,5.44-5.44c0,.36,0,.72,0,1.08Zm-1.23-1.22L66.5,68.59l-9.14,9.14-9.14,9.14L47,88.05l-1.11,0,1.74-1.74,9.15-9.14L66,68,75.1,58.9l6.64-6.64c0,.36,0,.73,0,1.08Z"/><polygon class="cls-1" points="65.73 2.36 65.73 2.36 65.73 2.36 65.73 2.36"/></g></g></svg>