<svg xmlns="http://www.w3.org/2000/svg" viewBox="-35.77 -3.12 115.11 115.11"><defs><style>.cls-1{fill:#e2e2e2;}</style></defs><title>leggings</title><g id="Layer_2" data-name="Layer 2"><g id="Layer_1-2" data-name="Layer 1"><path class="cls-1" d="M26.49,108.68a12.38,12.38,0,0,0,2.51.19,7.19,7.19,0,0,0,3.21-.61,2.5,2.5,0,0,0,1.2-1.15l.05-.15,0-.21,0-.17c0-.7.1-1.43.18-2.11l0-.17a4.77,4.77,0,0,1,.15-.86,3.64,3.64,0,0,0,.2-1.13v-.16a1.9,1.9,0,0,0,.31-1,2.07,2.07,0,0,0-.17-.75l0-.08a5.11,5.11,0,0,0,.17-.57c.16-.77.28-1.53.39-2.29.07-.4.13-.8.2-1.2l.26-1.54c.64-3.7,1.3-7.52,1.67-10.46a35.12,35.12,0,0,0,.27-4.53c0-1.76-.1-3.41-.22-5.15s-.24-3.76-.24-5.92c0-1.32,0-2.61.14-3.92A136.37,136.37,0,0,1,40,46.05q.31-1.45.66-2.94a98.89,98.89,0,0,0,2.83-17.22c0-.81.06-1.63.06-2.44A68.47,68.47,0,0,0,42,9.35c-.49-2.27-1-3.95-1.28-5-.2-.66-.39-1.22-.56-1.67a7.16,7.16,0,0,0-.51-1.11l0-.07a2.71,2.71,0,0,0-1.2-.95A7.24,7.24,0,0,0,36.23.11C35.5,0,34.64,0,33.57,0c-1.73,0-3.69.09-5.76.19s-4.17.2-6,.2h0c-1.84,0-4-.1-6-.2S11.73,0,10,0A21.75,21.75,0,0,0,6.58.21,5.67,5.67,0,0,0,5.19.59,2.58,2.58,0,0,0,4,1.49L4,1.61a7.21,7.21,0,0,0-.51,1.11,54.5,54.5,0,0,0-2.16,8.16A68.39,68.39,0,0,0,0,23.45c0,.81,0,1.63.06,2.44A97.69,97.69,0,0,0,2.89,43.1c.22,1,.45,2,.66,2.95A136.62,136.62,0,0,1,6.68,64.73c.09,1.32.14,2.61.14,3.93,0,2.15-.13,4.06-.25,5.9s-.22,3.4-.22,5.16a35,35,0,0,0,.28,4.53c.36,2.93,1,6.73,1.65,10.4l.28,1.6c.07.4.13.8.19,1.2.12.76.24,1.52.4,2.3a3.8,3.8,0,0,0,.17.56l0,.08a1.88,1.88,0,0,0-.17.75,1.83,1.83,0,0,0,.31,1v.18a3.76,3.76,0,0,0,.21,1.16,4.55,4.55,0,0,1,.13.82l0,.17c.08.68.16,1.41.19,2.11l0,.16.06.22,0,.15a2.54,2.54,0,0,0,1.21,1.15,7.19,7.19,0,0,0,3.21.61,9.55,9.55,0,0,0,3.16-.37,2.88,2.88,0,0,0,1.12-.68,3.65,3.65,0,0,0,.65-.91,1.44,1.44,0,0,0,.15-.65c0-.31,0-.61,0-.91v-.48l0-.51c0-.15,0-.29,0-.41v0l0-.15a3.37,3.37,0,0,0,.08-.62,2.33,2.33,0,0,0,0-.38l.13-.24a1.75,1.75,0,0,0,.17-.75,2.51,2.51,0,0,0-.17-.81,3.79,3.79,0,0,1-.18-1.3c0-.31,0-.64,0-1l0-.71c0-1.4.11-2.79.2-4.1.13-2.12.34-3.74.54-5.31l.12-1A48,48,0,0,0,21,81.13c0-1.29,0-2.67-.14-4.2-.08-1.27-.12-2.42-.12-3.5a36,36,0,0,1,.51-6.09c.09-.63.18-1.26.26-1.94a15.36,15.36,0,0,0,.07-1.73c0-1.79-.13-4.46-.26-7-.12-2.3-.24-4.67-.25-6.34,0-.95,0-1.77,0-2.5a63.12,63.12,0,0,1,.32-6.9c.09-.91.19-2,.3-3.43s.13-2.74.14-3.64v0c0,.89,0,2.11.15,3.59s.21,2.51.29,3.42a60.41,60.41,0,0,1,.33,6.91c0,.73,0,1.55,0,2.5,0,1.67-.14,4-.25,6.34-.13,2.58-.27,5.25-.27,7a14.6,14.6,0,0,0,.08,1.72c.07.68.17,1.31.26,1.94a36.22,36.22,0,0,1,.5,6.09c0,1.08,0,2.22-.11,3.5-.1,1.53-.14,2.9-.14,4.2A48,48,0,0,0,23,87.59l.12,1c.2,1.57.4,3.19.54,5.31.09,1.32.15,2.7.2,4.1l0,.7c0,.34,0,.68,0,1a3.63,3.63,0,0,1-.19,1.31,2.46,2.46,0,0,0-.16.8,1.74,1.74,0,0,0,.16.75l.14.24a1.58,1.58,0,0,0,0,.38,2.94,2.94,0,0,0,.09.67h0v.12c0,.13,0,.27,0,.42s0,.34,0,.52v.47c0,.3,0,.6,0,.91a1.44,1.44,0,0,0,.15.65,3.51,3.51,0,0,0,.64.91A3.39,3.39,0,0,0,26.49,108.68Zm6.91-8,.75-.45,0,.09Zm-7.49-2.78c0-.21,0-.43,0-.65l3.39-3.39L34.19,89,34,90.26l-4.16,4.16-3.89,3.89C25.93,98.18,25.92,98,25.91,97.91Zm-.75-9.6,0-.13,8.37-8.36,1.65-1.65c0,.35,0,.71,0,1.06l-1.13,1.13-8.79,8.79C25.23,88.87,25.19,88.59,25.16,88.31Zm-.53-7,5.19-5.2,5-4.95c0,.35,0,.7,0,1l-4.45,4.46-5.73,5.73C24.63,82.06,24.63,81.7,24.63,81.33Zm.17-5.09,2.57-2.56,7.41-7.41c0,.38,0,.76,0,1.13l-6.83,6.82-3.17,3.17c0-.11,0-.22,0-.34C24.78,76.77,24.79,76.5,24.8,76.24ZM24.35,67l0-.15,7.27-7.26,4.55-4.55c-.08.45-.16.89-.23,1.32l-3.78,3.78-7.67,7.67C24.43,67.56,24.39,67.3,24.35,67Zm-.25-1.86c0-.13,0-.3,0-.47l6.31-6.31,6.33-6.33c-.09.46-.17.91-.25,1.35l-5.53,5.53-6.75,6.75C24.14,65.52,24.12,65.35,24.1,65.17ZM24.52,52l8.85-8.85,6.7-6.69c-.1.46-.19.91-.29,1.37l-5.86,5.87L24.77,52.8l-.3.3C24.49,52.71,24.51,52.33,24.52,52Zm.05-2.5,7.57-7.58,8.48-8.47c-.08.44-.15.88-.23,1.32l-7.7,7.7-8.14,8.13v-.24C24.56,50,24.56,49.73,24.57,49.46Zm-.33-8.77c0-.21,0-.44-.06-.67L27.23,37l9.14-9.14,5.17-5.17v1.09l-4.62,4.62-9.14,9.15L24.27,41Zm-4.71-2.3L15,43,6.7,51.22c0-.3-.12-.6-.18-.91l7.88-7.88,5.23-5.23v.1C19.59,37.69,19.56,38.05,19.53,38.39Zm-.24,2.7L16.18,44.2,7.1,53.28c-.06-.3-.12-.6-.18-.92l8.71-8.7,3.77-3.77c0,.28,0,.55-.07.8S19.3,41,19.29,41.09ZM19,50.32c0,.26,0,.56,0,.86L12,58.26,8.42,61.78c0-.31-.07-.63-.12-1l3.1-3.1L19,50.11Zm.41,15.2-.1.11-9.15,9.14L8.49,76.45c0-.38,0-.77.07-1.16l1.07-1.07,9.14-9.14.75-.75c0,.33,0,.62-.05.84S19.44,65.4,19.42,65.52ZM18.36,88.69,12.08,95l-1.44,1.45c0-.17-.05-.34-.08-.5l-.08-.44,1.06-1,7-7c0,.29-.07.58-.11.87C18.39,88.43,18.38,88.56,18.36,88.69Zm-.53,5.44-3.29,3.29-3.14,3.14a2.13,2.13,0,0,0-.17-.92L14,96.87,17.91,93c0,.27,0,.52-.06.8C17.85,93.87,17.84,94,17.83,94.13Zm-.24,5.15-.59.6-5.07,5.06c0-.24,0-.48-.07-.71l0-.2V104l4.63-4.63,1.19-1.19c0,.14,0,.29,0,.43Zm0,6.84c-.15.27-.37.5-1.21.62l1.2-1.2C17.62,105.73,17.62,105.93,17.62,106.12Zm0-3.07,0,.08,0,.24a3.21,3.21,0,0,0-.07.43c0,.13,0,.27,0,.41L15,106.83h-.38c-.26,0-.48,0-.69,0Zm-4.93,3.57a1.7,1.7,0,0,1-.66-.31v-.11l5.61-5.61a4.81,4.81,0,0,0,.19.9Zm3.06-8-4.16,4.16a1.22,1.22,0,0,1-.08-.71,1.45,1.45,0,0,0,0-.35l3.65-3.65,2.53-2.53c0,.38,0,.76-.05,1.14Zm-2.46-2.46L11,98.51c-.05-.31-.11-.62-.16-.93l1.94-1.93,5.4-5.41c0,.39-.08.8-.13,1.22Zm-2.45-2.45-.58.57v0c0-.3-.11-.6-.16-.9l.19-.19,8.5-8.5c0,.42-.07.81-.11,1.21Zm7.91-10.37L9.92,92.21c-.05-.31-.11-.62-.16-.93l8.46-8.46.71-.71c0,.39,0,.77,0,1.13Zm-1.23-1.23-8,8-.15-.93L17,81.59l1.92-1.92c0,.37,0,.72,0,1.07Zm-1.23-1.23L9.22,88l-.15-.94,6.7-6.7,3.05-3c0,.36,0,.7.06,1Zm-1.22-1.23-6.2,6.19c0-.32-.09-.64-.13-1l5.78-5.79L18.71,75c0,.34,0,.69,0,1.05Zm-1.23-1.23L8.61,83.7c0-.33-.08-.66-.11-1l4.81-4.8,5.39-5.39c0,.35,0,.72,0,1.1Zm-1.23-1.23L8.42,81.43c0-.35,0-.71,0-1.05l3.69-3.7,6.76-6.76c0,.37-.06.77-.09,1.18ZM11.4,76l-3,3c0-.38,0-.75,0-1.12l2.44-2.44L19.2,67.1c-.06.42-.12.84-.18,1.28Zm6.69-11.6L9,73.54l-.3.29c0-.38,0-.77.07-1.16l8.82-8.82,2-2c0,.37,0,.73,0,1.06Zm-1.23-1.23L8.79,71.24c0-.37,0-.75,0-1.13l7.48-7.49,3.09-3.08c0,.35,0,.7.05,1Zm-1.23-1.23L8.84,68.73c0-.35,0-.72,0-1.08l6.26-6.25,4.2-4.21c0,.35,0,.7.05,1ZM14.4,60.71,8.79,66.32c0-.33,0-.68,0-1l5.12-5.12,5.31-5.32c0,.35,0,.69,0,1Zm-1.22-1.22L8.65,64c0-.3-.05-.64-.09-1l4.07-4.07,6.44-6.44c0,.34,0,.69,0,1ZM10.72,57,8.14,59.61c0-.31-.09-.63-.14-1l2.17-2.17L19,47.66c0,.34,0,.71,0,1.09Zm7.91-10.37L9.49,55.8,7.82,57.47c-.05-.3-.1-.62-.15-.94L9,55.25l9.14-9.14.94-.94c0,.35,0,.72,0,1.12Zm-1.22-1.23L8.26,54.57l-.79.79c0-.3-.11-.61-.16-.92L7.72,54l9.14-9.15,2.3-2.3c0,.39-.05.77-.08,1.17Zm-3.69-3.68L6.29,49.17c-.06-.29-.12-.6-.19-.9l7.08-7.07,6.57-6.57c0,.35,0,.73,0,1.13Zm-8.85.93c0-.15-.07-.3-.1-.44l4.72-4.72,9.14-9.15L21.2,25.8v1.09l-2,2L10,38.06,5,43.13C4.94,43,4.9,42.83,4.87,42.68ZM2.08,25.79c0-.16,0-.33,0-.5l6.75-6.74L18,9.41,21.2,6.15V7.24L18.5,10,9.35,19.09,2.12,26.33C2.11,26.15,2.09,26,2.08,25.79ZM2,22.87l5.55-5.55,9.14-9.14L21.2,3.7V4.79L17.27,8.72,8.13,17.87,2,24ZM5.68,2.66h0c.1-.18.4-.3.85-.4L5.31,3.48A7.28,7.28,0,0,1,5.68,2.66Zm2.4-.58L9.21,2l-5,5c.15-.55.29-1,.42-1.51Zm2.5,0,1.07,0-.52.52L3.47,10.24c.1-.49.21-1,.31-1.4Zm1.23,1.22L13,2.1l1,0L12.36,3.81,3.21,13l-.3.31c.07-.45.15-.89.23-1.32ZM3.9,13.63,13,4.49,15.33,2.2h.32l.73,0L13.58,5,4.44,14.18,2.5,16.13c0-.43.1-.85.16-1.26Zm1.22,1.23,9.15-9.14L17.68,2.3l1.05.05L14.81,6.27,5.67,15.41,2.22,18.86c0-.4.07-.8.11-1.2Zm1.23,1.23L15.5,7l4.56-4.56,1.07,0L16,7.49,6.9,16.64,2.06,21.47l.06-1.14ZM22.49,2.41l1.12,0L22.36,3.63V2.54ZM39.92,13.09l-9.14,9.14-8.1,8.1-.32-.1v-.67l7.87-7.87,9.15-9.15,1-1c.06.3.11.61.17.92Zm-1.23-1.23L29.55,21l-7.19,7.19V27.1L29,20.46l9.15-9.14,1.79-1.8c.07.29.13.59.19.9Zm-1.23-1.23-9.14,9.15-6,6v-1.1l5.42-5.41,9.14-9.14,2.55-2.56c.07.29.15.58.22.88ZM36.24,9.41l-9.15,9.14-4.73,4.73V22.19L26.55,18l9.14-9.14L39,5.6c.08.27.16.55.24.85ZM35,8.18l-9.14,9.14-3.51,3.5V19.73l3-3,9.14-9.14,3.89-3.89c.09.24.18.51.28.82ZM33.78,7l-9.14,9.14-2.28,2.28v-1.1l1.73-1.72L33.23,6.4,37.3,2.33a1,1,0,0,1,.58.33h0l.07.12ZM32.55,5.72l-9.14,9.14-1.05,1.05V14.82l.5-.5L32,5.17l3.11-3.11,1,.07ZM31.32,4.49l-9,9V12.36L30.78,4,32.68,2c.38,0,.74,0,1.1,0ZM30.1,3.26,22.36,11V9.91l7.19-7.19.61-.61,1.13,0ZM22.36,8.54V7.45l5.22-5.22.34,0,.81,0Zm0-2.46V5L25,2.34l1.14,0ZM10,19.78l9.14-9.15,2-2V9.7l-1.47,1.48-9.15,9.14L2.3,28.6l-.09-1ZM11.27,21l9.14-9.14.79-.8v1.1l-.25.25-9.14,9.14L2.67,30.69l-.11.11c-.05-.32-.09-.64-.13-1ZM3.35,31.38l9.14-9.15,8.71-8.71v1.09L13,22.78,3.9,31.92l-1,1L2.72,32ZM4.58,32.6l9.14-9.14L21.2,16v1.09L14.27,24,5.12,33.15,3.24,35c-.06-.3-.11-.61-.17-.92Zm1.23,1.23L15,24.69l6.25-6.26v1.09l-5.7,5.71L6.35,34.38,3.64,37.09l-.18-.91ZM7,35.06l9.15-9.14,5-5V22l-4.48,4.48L7.58,35.6,4.07,39.12c-.07-.3-.13-.6-.19-.9Zm1.23,1.23,9.15-9.15,3.79-3.79v1.09L18,27.69,8.81,36.83l-4.29,4.3c-.07-.3-.14-.6-.2-.9Zm2.46,2.45,9.14-9.14,1.34-1.34v1.09l-.79.8-9.14,9.14L5.42,45.13c-.06-.29-.13-.59-.2-.89ZM12,40l7.88-7.88a10,10,0,0,0-.06,1.15l-7.28,7.28L5.86,47.15c-.06-.3-.12-.6-.19-.9Zm11.48-9,8-8,9.14-9.14.12-.12.15.95L32,23.46l-8.32,8.31A2.33,2.33,0,0,0,23.43,31Zm.38,2.86c0-.27,0-.53,0-.77l8.89-8.9L41,15.8l.12,1-7.92,7.92-9.14,9.14-.28.28Zm1,.7,9.15-9.14L41.28,18c0,.33.06.67.08,1l-6.9,6.9-9.14,9.14-1.43,1.43c0-.37,0-.72-.05-1.05ZM26,35.74l9.15-9.14,6.3-6.31c0,.35,0,.7,0,1.05l-5.81,5.8-9.14,9.15-2.48,2.48c0-.32-.06-.65-.09-1Zm2.46,2.46,9.14-9.15,3.91-3.9c0,.21,0,.43,0,.64s0,.34,0,.51l-3.3,3.3L29,38.74l-4.54,4.55c0-.34-.05-.67-.08-1Zm1.23,1.23,9.14-9.15,2.52-2.52L41.23,29l-1.85,1.85L30.23,40l-5.68,5.68c0-.38,0-.73,0-1.06Zm1.23,1.22,9.14-9.14,1-1c0,.42-.11.85-.18,1.27l-.27.27L31.46,41.2l-6.89,6.89V47ZM25.46,53.48l9.14-9.14,4.81-4.81c-.11.47-.21.94-.32,1.4l-3.94,4L26,54l-1.65,1.64.06-1.14Zm1.22,1.23,9.15-9.14,2.86-2.87c-.1.47-.21.94-.31,1.41l-2,2-9.14,9.14-3,3c0-.38,0-.76.05-1.15Zm1.23,1.23,9.15-9.15.92-.92c-.1.47-.2.94-.3,1.39l-.08.08-9.14,9.14-4.35,4.35c0-.37,0-.75.05-1.14Zm1.23,1.23L37.32,49c-.1.47-.19.92-.28,1.37l-7.35,7.35L24,63.35c0-.34,0-.71,0-1.11Zm3.69,3.68L35.66,58c-.07.45-.13.88-.19,1.29l-2.1,2.1L24.74,70c0-.34-.07-.67-.11-1ZM24.91,71.22l9.14-9.14,1.21-1.2c-.06.44-.11.86-.16,1.24l-.5.5-9.14,9.15-.59.59c0-.37,0-.72,0-1.06Zm1.23,1.23L35,63.64c0,.35-.06.67-.08,1v.23L26.68,73l-1.82,1.83c0-.39,0-.76,0-1.11Zm2.45,2.46,6.13-6.13c0,.36,0,.72,0,1.07l-5.6,5.6L24.64,80c0-.36,0-.73,0-1.12Zm2.46,2.45,3.85-3.84.06,1L31.6,77.91l-6.83,6.83c0-.33-.05-.67-.07-1Zm1.23,1.23L35,75.83l.06,1-2.27,2.27L25,87c0-.33-.07-.65-.11-1Zm-6.69,11.6,9.15-9.14.43-.44c0,.37,0,.75,0,1.13l-9,9-.63.63c0-.34-.06-.67-.1-1Zm1.23,1.23L35,83.22c0,.26,0,.52-.08.78l-.06.46L27.37,92,25.7,93.63c0-.36-.05-.69-.07-1Zm1.23,1.22,6.6-6.6c-.06.42-.13.85-.2,1.29l-5.86,5.86L25.84,96l-.06-1Zm2.46,2.46,3.19-3.19c-.08.44-.15.88-.23,1.31l-2.42,2.43L25.9,100.8A7.67,7.67,0,0,0,26,99.63Zm-4.61,8L26,103a.94.94,0,0,0,0-.88l5.78-5.78,1.46-1.46-.18,1c0,.09,0,.18,0,.28l-.69.69-6.37,6.36Zm.07,1.78c0-.12,0-.25,0-.38l6.71-6.71c-.07.45-.14.89-.22,1.32L26,105.66v-.75Zm6.35-3.8,0,0A.82.82,0,0,0,32,102l-4.72,4.72a3.13,3.13,0,0,1-.89-.21l5.79-5.78A1.35,1.35,0,0,0,32.32,101.11Zm-.61,3.12c0,.21-.05.43-.07.65l-1.93,1.93c-.22,0-.45,0-.71,0h-.4l3.18-3.18c0,.13,0,.25,0,.38Z"/></g></g></svg>