<svg xmlns="http://www.w3.org/2000/svg" viewBox="0 0 438.68 64.71"><defs><style>.cls-1{fill:#0c77f8;}.cls-2{fill:#424242;}</style></defs><title>logo</title><g id="Layer_2" data-name="Layer 2"><g id="Layer_1-2" data-name="Layer 1"><path class="cls-1" d="M58.41,18.76c-.53-.18-1.08-.36-1.65-.53A74.42,74.42,0,0,0,35.05,15a73.45,73.45,0,0,0-9.37.6c10.15,2.23,21.44,5.3,30.73,9.35q1.38.6,2.7,1.23a64.24,64.24,0,0,1,5.68,3.07A87.18,87.18,0,0,0,70.11,8,65.15,65.15,0,0,0,59.48,3.65a83.55,83.55,0,0,0-48.85,0A65.15,65.15,0,0,0,0,8s.1,1.15.42,3.13c.25,1.56.64,3.65,1.21,6.1A95,95,0,0,0,4.5,27c2.79.36,6.46.9,10.7,1.68,2.65.49,5.52,1.07,8.54,1.76l3.12.75c4.45,1.1,9.14,2.43,13.84,4,1.81.62,3.61,1.27,5.41,2l1.74.69,1.82.76c-.9,1.41-1.84,2.75-2.82,4l0,0-.55.7a50.06,50.06,0,0,1-6.36,6.7l0,0a44.81,44.81,0,0,1-4.83,3.7,47.92,47.92,0,0,1-8.82-7.62l.15,0c.5.12,2.23.55,4.52,1.17l.08,0,.71.19,2.81.79.73-.64a55.27,55.27,0,0,0,6-6.14l.6-.73c-1.5-.5-3-1-4.46-1.4-2-.59-4-1.14-5.91-1.65-4.7-1.22-9.15-2.19-13.17-3l-3-.56c-3.16-.55-6-1-8.32-1.29.7,1.58,1.47,3.19,2.31,4.8.95,1.84,2,3.68,3.15,5.5A59.12,59.12,0,0,0,35.05,64.71,55.73,55.73,0,0,0,49.6,53.82a64.26,64.26,0,0,0,6.19-7.5c.84-1.2,1.64-2.41,2.39-3.62q1.47-2.4,2.72-4.82c.6-1.15,1.17-2.3,1.69-3.43C59.83,33,57,31.62,54.16,30.38q-2.41-1.05-4.85-2l-1.43-.54L45.43,27a181.88,181.88,0,0,0-23.37-6.47l-1-.2-2.84-.57-3-.55-3.14-.53-.43-.07c-.51-1.81-.92-3.48-1.24-5,.59-.21,1.2-.43,1.85-.64l1.09-.35a74.1,74.1,0,0,1,43.41,0c1.05.32,2,.66,2.94,1-.17.79-.37,1.64-.59,2.53S58.67,17.85,58.41,18.76Z"/><path class="cls-1" d="M70.65,43.09l5.66-5.66c3,2.88,6.18,4.38,9.72,4.38,2.29,0,3.88-1,3.88-2.61,0-1.32-.92-2-5.39-3.75-4.9-1.9-8.26-4.11-8.26-8.84a9.68,9.68,0,0,1,3-7,14.77,14.77,0,0,1,10.52-3.85c5.61,0,9.94,1.86,12.94,4.82l-5.39,5.83A12.38,12.38,0,0,0,89,22.9c-2.39,0-3.76,1.15-3.76,2.47s1,1.9,5.43,3.67c4.82,1.86,8.22,4.11,8.22,8.88a10,10,0,0,1-3,7.24C93.49,47.59,89.74,49,85.41,49,79.13,49,74,46.84,70.65,43.09Z"/><path class="cls-1" d="M103.74,37.88a19.94,19.94,0,0,1,.75-5.17l4.42-16.44h8.61l-4.59,17.1a11.71,11.71,0,0,0-.44,3.09c0,3,1.81,4.82,5.12,4.82a6.21,6.21,0,0,0,4.51-1.77,11.38,11.38,0,0,0,2.82-5.43l4.78-17.81h8.61L133.2,35.36c-1.14,4.15-2.73,7.33-5,9.58-2.78,2.79-6.76,4.07-11.66,4.07C108.47,49,103.74,44.86,103.74,37.88Z"/><path class="cls-1" d="M144.51,16.27h13.21c8.53,0,11.44,3.63,11.44,7.78s-2.69,7.07-7.15,8.13c2.82,1.06,4.81,3.18,4.81,6.45,0,5.65-4.68,9.8-14.44,9.8H135.9Zm8.62,25.18c3.18,0,5.12-1.37,5.12-3.53,0-1.68-1.37-2.61-4-2.61h-6.49l-1.68,6.14Zm2.52-12.32c3.31,0,5.08-1.24,5.08-3.4,0-1.5-1.2-2.48-4-2.48H151l-1.54,5.88Z"/><path class="cls-2" d="M172.52,16.27h8.53V40.88h15.68v7.55H172.52Z"/><path class="cls-2" d="M201.46,16.27H210V48.43h-8.57Z"/><path class="cls-2" d="M216.7,16.27h9.05L233.57,29l7.87-12.68h9.05V48.43H242v-19l-8.4,12.85h-.17l-8.31-12.76v18.9H216.7Z"/><path class="cls-2" d="M257.16,16.27h8.57V48.43h-8.57Z"/><path class="cls-2" d="M272.4,16.27h8L294,33.81V16.27h8.44V48.43H295l-14.14-18.2v18.2H272.4Z"/><path class="cls-2" d="M319.94,16.05h8.17L341.8,48.43h-9.1l-2.43-6H317.6l-2.43,6h-8.93Zm7.73,19.53L324,26.21l-3.76,9.37Z"/><path class="cls-2" d="M349.31,23.83h-9.63V16.27h27.83v7.56h-9.63v24.6h-8.57Z"/><path class="cls-2" d="M369.59,32.44v-.09c0-9.23,7.38-16.69,17.32-16.69S404.14,23,404.14,32.27v.08c0,9.24-7.38,16.7-17.32,16.7S369.59,41.67,369.59,32.44Zm25.76,0v-.09c0-4.81-3.45-9-8.53-9s-8.44,4.06-8.44,8.88v.08c0,4.82,3.45,9,8.53,9S395.35,37.26,395.35,32.44Z"/><path class="cls-2" d="M409.44,16.27h15.11c4.72,0,8.08,1.24,10.24,3.45a9.89,9.89,0,0,1,2.83,7.42v.13a10.12,10.12,0,0,1-6.67,9.9l7.73,11.26h-9.89l-6.54-9.85H418v9.85h-8.52Zm14.71,15.51c3.09,0,4.9-1.59,4.9-4v-.08c0-2.65-1.9-4-5-4H418v8.08Z"/></g></g></svg>