<svg xmlns="http://www.w3.org/2000/svg" viewBox="0 0 70.11 64.71"><defs><style>.cls-1{fill:#0c77f8;}</style></defs><title>logo</title><g id="Layer_2" data-name="Layer 2"><g id="Layer_1-2" data-name="Layer 1"><path class="cls-1" d="M58.41,18.76c-.53-.18-1.08-.36-1.65-.53A74.42,74.42,0,0,0,35.05,15a73.45,73.45,0,0,0-9.37.6c10.15,2.23,21.44,5.3,30.73,9.35q1.38.6,2.7,1.23a64.24,64.24,0,0,1,5.68,3.07A87.18,87.18,0,0,0,70.11,8,65.15,65.15,0,0,0,59.48,3.65a83.55,83.55,0,0,0-48.85,0A65.15,65.15,0,0,0,0,8s.1,1.15.42,3.13c.25,1.56.64,3.65,1.21,6.1A95,95,0,0,0,4.5,27c2.79.36,6.46.9,10.7,1.68,2.65.49,5.52,1.07,8.54,1.76l3.12.75c4.45,1.1,9.14,2.43,13.84,4,1.81.62,3.61,1.27,5.41,2l1.74.69,1.82.76c-.9,1.41-1.84,2.75-2.82,4l0,0-.55.7a50.06,50.06,0,0,1-6.36,6.7l0,0a44.81,44.81,0,0,1-4.83,3.7,47.92,47.92,0,0,1-8.82-7.62l.15,0c.5.12,2.23.55,4.52,1.17l.08,0,.71.19,2.81.79.73-.64a55.27,55.27,0,0,0,6-6.14l.6-.73c-1.5-.5-3-1-4.46-1.4-2-.59-4-1.14-5.91-1.65-4.7-1.22-9.15-2.19-13.17-3l-3-.56c-3.16-.55-6-1-8.32-1.29.7,1.58,1.47,3.19,2.31,4.8.95,1.84,2,3.68,3.15,5.5A59.12,59.12,0,0,0,35.05,64.71,55.73,55.73,0,0,0,49.6,53.82a64.26,64.26,0,0,0,6.19-7.5c.84-1.2,1.64-2.41,2.39-3.62q1.47-2.4,2.72-4.82c.6-1.15,1.17-2.3,1.69-3.43C59.83,33,57,31.62,54.16,30.38q-2.41-1.05-4.85-2l-1.43-.54L45.43,27a181.88,181.88,0,0,0-23.37-6.47l-1-.2-2.84-.57-3-.55-3.14-.53-.43-.07c-.51-1.81-.92-3.48-1.24-5,.59-.21,1.2-.43,1.85-.64l1.09-.35a74.1,74.1,0,0,1,43.41,0c1.05.32,2,.66,2.94,1-.17.79-.37,1.64-.59,2.53S58.67,17.85,58.41,18.76Z"/></g></g></svg>