<svg xmlns="http://www.w3.org/2000/svg" viewBox="0 0 42.52 29.05"><defs><style>.cls-1{fill:#424242;fill-rule:evenodd;}</style></defs><title>size-range</title><g id="Layer_2" data-name="Layer 2"><g id="Layer_5" data-name="Layer 5"><path class="cls-1" d="M22,7.44c0,1-2.7,1.77-6,1.77s-6-.79-6-1.77,2.7-1.77,6-1.77S22,6.46,22,7.44Zm-6-3.9C9.1,3.54,3.54,5.29,3.54,7.44S9.1,11.34,16,11.34s12.4-1.75,12.4-3.9S22.8,3.54,16,3.54ZM3.54,21.61a1.43,1.43,0,0,0,.17.71c.76,1.34,3.71,2.17,5.15,2.48V19.49a1.06,1.06,0,1,1,2.12,0v5.69c1.18.16,2.37.26,3.55.31V23a1.06,1.06,0,1,1,2.12,0v2.48H20.2v-6a1.06,1.06,0,1,1,2.12,0v6h3.55V23A1.06,1.06,0,1,1,28,23v2.48h3.55v-6a1.06,1.06,0,1,1,2.12,0v6h4.61A.72.72,0,0,0,39,24.8V15.59a.73.73,0,0,0-.71-.71H16c-2.95,0-8.68-.37-12.41-2.36ZM0,7.44C0,.9,11.36,0,16,0S31.89.9,31.89,7.44v3.9h6.38a4.26,4.26,0,0,1,4.25,4.25V24.8a4.26,4.26,0,0,1-4.25,4.25H16C11.36,29.05,0,28.16,0,21.61Z"/></g></g></svg>