<svg xmlns="http://www.w3.org/2000/svg" viewBox="0 0 34.79 33.07"><defs><style>.cls-1{fill:#0c77f8;}</style></defs><title>stitching</title><g id="Layer_2" data-name="Layer 2"><g id="Layer_5" data-name="Layer 5"><path class="cls-1" d="M2,0h22.1C27,0,26,2.09,25.32,3.85,24.87,5.06,24.25,6.21,23,6.21H3.08c-1.3,0-1.91-1.15-2.37-2.36C.06,2.09-.95,0,2,0Z"/><path class="cls-1" d="M3.08,26.86H23c1.3,0,1.91,1.15,2.36,2.37C26,31,27,33.07,24.07,33.07H2C-.95,33.07.06,31,.71,29.23,1.17,28,1.78,26.86,3.08,26.86Z"/><path class="cls-1" d="M33.92,27.23v0h0v0a4.2,4.2,0,0,1-.7-.26h0a8.27,8.27,0,0,1-2.5-1.77h0a3.46,3.46,0,0,1-.65-.94,2.21,2.21,0,0,1-.23-1v-.24a3.06,3.06,0,0,1,.24-.8,10.3,10.3,0,0,0,1-4.3v-.22a6.53,6.53,0,0,0-1.21-3.68h0a7,7,0,0,0-2.84-2.28,10.53,10.53,0,0,0-4.35-.87h-.46l.06,1,.06-1H3.85a1,1,0,1,0,0,2H22.46l-.07-1,0,1h.31a8.53,8.53,0,0,1,3.52.69,5.13,5.13,0,0,1,2.05,1.62h0a4.56,4.56,0,0,1,.83,2.58V18a8.55,8.55,0,0,1-.86,3.48,4.77,4.77,0,0,0-.4,1.36,4.32,4.32,0,0,0,0,.5,4.08,4.08,0,0,0,.42,1.8,5.81,5.81,0,0,0,1,1.44h0a10,10,0,0,0,3.16,2.24h0c.25.11.48.2.68.27a3.19,3.19,0,0,0,.59.15,1,1,0,1,0,.26-2Z"/><path class="cls-1" d="M22.19,7.93H3.85a1,1,0,1,0,0,2H22.19a1,1,0,0,0,0-2"/><path class="cls-1" d="M22.19,13.91H3.85a1,1,0,0,0,0,2H22.19a1,1,0,0,0,0-2"/><path class="cls-1" d="M22.19,16.9H3.85a1,1,0,0,0,0,2H22.19a1,1,0,1,0,0-2"/><path class="cls-1" d="M22.19,19.89H3.85a1,1,0,0,0,0,2H22.19a1,1,0,0,0,0-2"/><path class="cls-1" d="M22.19,22.88H3.85a1,1,0,0,0,0,2H22.19a1,1,0,0,0,0-2"/></g></g></svg>