<svg xmlns="http://www.w3.org/2000/svg" viewBox="-4.65 -15.14 115.11 115.11"><defs><style>.cls-1{fill:#e2e2e2;}</style></defs><title>sweatshirt-sleeves</title><g id="Layer_2" data-name="Layer 2"><g id="Layer_1-2" data-name="Layer 1"><path class="cls-1" d="M83.84,50.59c0-3.16,0-6.55-.08-10.08l2.79-.64V41.3c0,7.76,0,13.88.16,18.26a57.75,57.75,0,0,0,.43,5.88,10.24,10.24,0,0,0,.42,1.86,3.63,3.63,0,0,0,.38.79l.16.21,1,4.24a1.44,1.44,0,0,0,1.71,1.07,27.6,27.6,0,0,1,4.69-.38,26,26,0,0,1,4.6.39,1.45,1.45,0,0,0,1.67-1.12l.87-4.07.09-.09a4.14,4.14,0,0,0,.81-1.57,22.08,22.08,0,0,0,.7-3.88c.28-2.46.48-5.66.72-9.37.22-3.34.47-7.13.82-11a1.55,1.55,0,0,0-.2-.87h0L89.2,14.11a1.47,1.47,0,0,0-.61-.55l-20.73-10A15.49,15.49,0,0,0,64,2C61.43.69,57.6,0,52.9,0S44.38.69,41.83,2A15.78,15.78,0,0,0,38,3.5L17.22,13.56a1.38,1.38,0,0,0-.61.56L.2,41.61a1.47,1.47,0,0,0-.19.87C.35,46.4.6,50.2.82,53.54c.15,2.35.29,4.51.45,6.4A47.25,47.25,0,0,0,2,65.64a8.11,8.11,0,0,0,.57,1.89,3.41,3.41,0,0,0,.53.82l.09.08L4,72.5a1.44,1.44,0,0,0,1.68,1.12,25.9,25.9,0,0,1,4.59-.39,29.72,29.72,0,0,1,3.42.2l1,.13.32.06a1.44,1.44,0,0,0,1.69-1.08l1-4.24.17-.22a4.93,4.93,0,0,0,.58-1.52,24.67,24.67,0,0,0,.49-3.9c.29-4.39.3-11.49.31-21.31V39.87l2.79.64C22,44,22,47.4,22,50.59A262.81,262.81,0,0,0,23.15,79c.21,1.79.44,3.36.7,4.68l0,.16,0,.1,0,.1.16.25.18.19.24.17.24.11a1,1,0,0,0,.28.07h.39c8.81-1.22,22.17-1.32,26.15-1.32h2.57c4,0,17.34.1,26.15,1.32h.39a1,1,0,0,0,.29-.07l.23-.11.24-.17.18-.19a.82.82,0,0,0,.16-.25l.08-.2,0-.16c.26-1.3.49-2.88.7-4.68A262.94,262.94,0,0,0,83.84,50.59ZM52.93,81.47h0c-.17,0-16.58-.11-27.14,1.27-.18-1-.35-2.15-.51-3.42C34.14,78.06,47.85,78,51.79,78h1.15c.17,0,17.2-.12,27.64,1.35-.16,1.27-.33,2.42-.51,3.42C69.51,81.36,53.1,81.47,52.93,81.47Zm0-4.66h0c-.17,0-17.26-.12-27.78,1.36-.68-6.09-1.36-17.65-1-38.65,5.55-5.17,4.23-19.37.82-27.44L38.87,5.32,39,5.25a6.29,6.29,0,0,1,.74-.38,3.68,3.68,0,0,0-.55,1.92c0,4.64,7.37,8.24,13.71,8.24,7.71,0,13.7-4.43,13.7-8.24a3.68,3.68,0,0,0-.55-1.92,6.29,6.29,0,0,1,.74.38l.14.07,14,6.76c-3.41,8.07-4.73,22.27.82,27.44.36,21-.32,32.55-1,38.65C70.19,76.69,53.1,76.81,52.93,76.81ZM14.84,71.54l-.32-.05.43-.43Zm-1.54-.19-1-.08.28-.28,3.08-3.08.07,0-.33,1.33ZM6.13,67.6c.47-.12.94-.23,1.4-.31L5.42,69.4l-.19-.9Zm2.75-.29.2-.2,1.12,0-.77.77L5.85,71.43l-.19-.91Zm1.23,1.23,1.41-1.41c.34,0,.67.05,1,.1l-1.86,1.85L8.48,71.26l-1.19.09Zm1.23,1.22,2.34-2.34.9.19-2.7,2.7-.9.9H9.9Zm4.19-3.1-.86-.23,2.12-2.12c-.05.47-.1.9-.16,1.25Zm-2-.46-.95-.14L17,61.66c0,.41,0,.8-.07,1.16Zm-2.2-.26c-.34,0-.7,0-1.06,0l6.8-6.8c0,.39,0,.76,0,1.13Zm5.78-8.24L8.87,66c-.4,0-.81.08-1.23.14h0l9.15-9.14.34-.35C17.13,57,17.13,57.35,17.12,57.7Zm-1-1.45L7,65.4,5.9,66.46c-.46.13-.93.28-1.4.46l-.07-.08,2-2,9.15-9.14,1.61-1.61c0,.37,0,.74,0,1.1ZM14.88,55,5.74,64.17,4.06,65.85c-.06-.27-.13-.56-.19-.9L5.2,63.62l9.14-9.14,2.86-2.86c0,.37,0,.73,0,1.1ZM13.66,53.8,4.51,62.94l-.82.82c0-.31-.08-.63-.12-1L4,62.4l9.14-9.15,4.11-4.1c0,.37,0,.73,0,1.09Zm-1.23-1.23-9,9c0-.32-.07-.65-.1-1L11.88,52l5.34-5.34v1.1ZM11.2,51.34,3.25,59.29c0-.33,0-.67-.08-1l7.48-7.48,6.58-6.58v1.1ZM10,50.11,3.08,57c0-.34-.05-.68-.07-1l6.42-6.41,7.8-7.81v1.1ZM2,42.49l.4-.68,8.76-8.75L17.27,27v1.09L11.75,33.6,2.6,42.75l-.5.5Zm17.9-28,2.12-1L16,19.55l-.62.61L17,17.46Zm-3.28,5.74L24,12.89c.11.25.21.51.31.78l-7.11,7.1-5.47,5.48,1.61-2.71Zm1.23,1.23,6.77-6.78c.09.28.18.55.26.83L18.43,22,9.29,31.15,8.1,32.34l1.61-2.71ZM10,31.83l9.14-9.14,6.12-6.12c.08.29.15.58.22.87l-5.79,5.79-9.14,9.14L4.46,38.43l1.62-2.71Zm16.72-3.35-.89.89-7.4,7.41v-1.1l6.86-6.85,1.45-1.46C26.71,27.75,26.7,28.12,26.69,28.48Zm-2.12-.34L18.4,34.32v-1.1L24,27.6l2.6-2.6c0,.35,0,.69.05,1Zm-1.22-1.22-4.94,4.93V30.76l4.39-4.39,3.62-3.62c0,.33.08.65.11,1Zm-1.23-1.23-3.7,3.7v-1.1l3.15-3.15,4.54-4.54c.06.31.11.63.15.94Zm-1.23-1.23-2.46,2.46v-.09a.57.57,0,0,0-.45-.56l2.36-2.36,5.37-5.37c.07.3.13.61.19.91Zm-17.6,19,9.14-9.15,4.83-4.83c0,.37,0,.74,0,1.1L13,34.83,3.83,44,2.29,45.51c0-.33-.06-.67-.08-1Zm1.22,1.23,9.15-9.15,3.59-3.59V33L14.2,36.06,5.06,45.2l-2.6,2.6c0-.33,0-.68-.08-1Zm1.23,1.22,9.14-9.14,2.36-2.36v1.1l-1.81,1.81L6.29,46.43,2.62,50.1c0-.34-.05-.68-.07-1ZM7,47.11,16.11,38l1.13-1.13v1.1l-.58.57L7.52,47.66,2.77,52.4l-.06-1ZM8.2,48.34l9-9v1.1L8.74,48.89,2.92,54.71l-.06-1ZM18.84,37.7l7.64-7.65.13-.12c0,.41-.08.82-.13,1.22L19.73,37.9Zm7.36-4.91c-.1.51-.23,1-.37,1.46l-4.1,4.1-.89-.2Zm-1.29,3.75a8.34,8.34,0,0,1-1.63,2.17l-.44-.1ZM62.4,6.23c0,2.26-4.24,5-9.49,5s-9.49-2.71-9.49-5c0-2,3.81-3.29,9.49-3.29S62.4,4.27,62.4,6.23Zm-20.14,0c0,3.21,5.07,6.13,10.65,6.13S63.55,9.44,63.55,6.23c0-1.49-1.15-2.66-3.24-3.42a13.32,13.32,0,0,1,2.88,1c1.5.8,2.26,1.79,2.26,2.94,0,3.21-5.6,7.08-12.54,7.08S40.36,10,40.36,6.79c0-1.14.75-2.12,2.22-2.91h0l0,0a13.32,13.32,0,0,1,2.88-1C43.41,3.57,42.26,4.74,42.26,6.23ZM99.18,71.44l-1-.12,2.26-2.25-.3,1.38Zm-8.64-3.65-.38.39-.06-.25Zm1.78-.41c.4-.07.82-.14,1.28-.19l-3,3-.22-.87Zm2.76-.3c.35,0,.71,0,1.09,0l-4.34,4.34c-.34,0-.64.08-.85.12l-.07-.29Zm2.36.1c.31,0,.63.08,1,.13l-3.9,3.91c-.41,0-.8,0-1.15.06Zm2.07.38c.28.07.56.15.85.25l-3.43,3.42-1.07,0Zm1.75-.66c-.27-.1-.53-.21-.8-.29l1.45-1.45a6.74,6.74,0,0,1-.42,1.51Zm-1.88-.58c-.3-.07-.61-.13-.91-.18l.34-.33,3.48-3.49c0,.44-.09.85-.14,1.24Zm-1.26-1.2-.85.86-1-.07,1.34-1.33,5-5c0,.41-.07.81-.1,1.19ZM96.9,63.9l-2,2c-.4,0-.8,0-1.17.08l2.65-2.65L102.73,57c0,.39,0,.78-.08,1.17Zm-1.23-1.23-3.56,3.56c-.54.1-1,.21-1.41.31l4.42-4.42,7.79-7.79c0,.39,0,.78-.08,1.17Zm-1.23-1.23-5,5a5.2,5.2,0,0,1-.21-.88l4.7-4.71L103,51.75l0,0c0,.4,0,.79-.07,1.17Zm7.91-10.37-9.14,9.14L89,64.39c0-.31-.06-.64-.09-1l3.73-3.72,9.14-9.15,1.45-1.45c0,.39-.05.79-.08,1.17Zm-1.22-1.23L92,59l-3.12,3.13c0-.33,0-.67-.06-1l2.64-2.63,9.14-9.15,2.87-2.87c0,.4-.06.79-.08,1.18ZM99.9,48.61l-9.14,9.15-2,2c0-.34,0-.7,0-1.06l1.49-1.49,9.14-9.14,4.32-4.32c0,.4-.07.8-.1,1.19Zm-1.23-1.23-9.14,9.15-.84.84,0-1.07L89,56l9.14-9.14,5.17-5.16.4.68Zm-1.23-1.22L88.64,55c0-.35,0-.71,0-1.07l8.27-8.27,5.47-5.47.41.68Zm-1.23-1.23-7.59,7.59c0-.35,0-.71,0-1.08l7.06-7.06,5.78-5.78.41.68ZM95,43.7,88.6,50.09c0-.37,0-.72,0-1.09l5.85-5.85,6.09-6.09.41.69Zm-1.23-1.23-5.17,5.17V46.55l4.62-4.62,6.4-6.41.41.69Zm-1.23-1.23-4,3.95V44.1L92,40.7,98.7,34l.41.69ZM91.3,40l-2.72,2.72V41.65l2.18-2.18,7-7,.41.68Zm-1.23-1.23-1.49,1.49V39.19l1-.95,7.33-7.33.41.68ZM87.39,28.1v1.09l-3.46,3.46L80.61,36c-.11-.25-.22-.51-.32-.78l3.1-3.09Zm-2.78,5.23,2.79-2.78v1.08l-2.24,2.25-3.65,3.65c-.15-.21-.29-.44-.43-.67Zm1.23,1.23L87.41,33v1.09l-1,1-3.53,3.53-.33.08-.42-.42Zm1.23,1.23.34-.35v1.09L86,37.91l-1.41.32Zm1.78,1.77-.28.27V36.74l7.37-7.37.41.68Zm-.28-2.18V34.29L95,27.83l.4.69Zm0-2.45V31.84l5.55-5.55.41.69Zm0-2.45c0-.36,0-.72,0-1.09l4.64-4.64.41.69Zm0-2.45V27l3.73-3.73.41.68Zm-.68-1.76a.55.55,0,0,0-.46.45l-4.7,4.7L80,34.17c-.08-.28-.15-.57-.22-.86l2.43-2.44,9.14-9.14,0-.05.41.68Zm2.76-5.22-9.14,9.14-2,2c-.06-.31-.11-.63-.15-.95l1.59-1.58,9.14-9.15.37-.36.4.68Zm-1.23-1.23L80.25,29l-1,1c0-.34,0-.68-.07-1l.56-.56,9.15-9.15.67-.67.41.68Zm-1.23-1.23L79.1,27.65c0-.36,0-.73,0-1.1l8.51-8.5,1-1,.41.69Zm-1.23-1.23-7.75,7.76c0-.39,0-.78.08-1.18l7.13-7.12,1.29-1.3.41.69Zm-1.22-1.22-6.28,6.27c0-.42.12-.85.18-1.27l5.55-5.55,1-1,.74.35Zm-1.23-1.23L79.9,19.48l.3-1.39,3.73-3.73.55-.54.73.35Zm-1.23-1.23-2.58,2.58c.15-.54.31-1.06.48-1.57l1.55-1.56.12-.12.74.36Z"/></g></g></svg>