<svg xmlns="http://www.w3.org/2000/svg" viewBox="-4.65 -15.14 115.11 115.11"><defs><style>.cls-1{fill:#e2e2e2;}</style></defs><title>sweetshirt-frontside</title><g id="Layer_2" data-name="Layer 2"><g id="Layer_1-2" data-name="Layer 1"><polygon class="cls-1" points="87.38 26.83 87.38 26.83 87.38 26.83 87.38 26.83"/><polyline class="cls-1" points="54.14 81.76 54.13 81.76 54.14 81.76"/><path class="cls-1" d="M105.61,41.61l-.75.45.75-.45L89.2,14.12h0a1.38,1.38,0,0,0-.61-.56L82.27,10.5l-14.45-7h0A16.46,16.46,0,0,0,64,2c-2.76-1.39-6.67-2-11-2h0c-4.37,0-8.28.59-11,2A16.24,16.24,0,0,0,38,3.49h0l-14.45,7-6.32,3.06a1.38,1.38,0,0,0-.61.56h0L.2,41.61h0a1.49,1.49,0,0,0-.2.74v.13c.58,6.64.88,12.84,1.25,17.46a50.79,50.79,0,0,0,.7,5.7H2a8.42,8.42,0,0,0,.57,1.89h0a3.4,3.4,0,0,0,.53.81l.08.07h0L4,72.5H4a1.45,1.45,0,0,0,1.42,1.15l.25,0h0a26.25,26.25,0,0,1,4.59-.39,29.26,29.26,0,0,1,3.42.2h0l1,.13.24,0H15l.29,0a1.46,1.46,0,0,0,1.41-1.11l1-4.27.15-.19h0a5,5,0,0,0,.58-1.52h0a25.4,25.4,0,0,0,.49-3.9c.31-4.63.3-12.23.31-22.79l2.8.64C22,44.13,22,47.5,22,50.59c0,14.24.55,23,1.18,28.4.23,2,.47,3.5.7,4.68l0,.16,0,.09L24,84l.15.25.08.08,0,0,.08.08.23.16.1,0,.05,0,.1,0a1,1,0,0,0,.29.07h.38c8.71-1.21,22.06-1.32,26.15-1.32h2.54c4.06,0,17.45.1,26.18,1.32h.38a1,1,0,0,0,.3-.07l.1,0,0,0,.1,0,.23-.16.08-.08,0,0,.08-.08.15-.25,0-.11,0-.09,0-.16c.23-1.18.47-2.71.7-4.68.63-5.4,1.18-14.16,1.18-28.4,0-3.09,0-6.46-.08-10.08l2.79-.64c0,8.46,0,15,.17,19.69a55.91,55.91,0,0,0,.42,5.88h0a11,11,0,0,0,.42,1.86h0a3.67,3.67,0,0,0,.38.77h0l.15.19,1,4.27h0a1.46,1.46,0,0,0,1.41,1.11,1.27,1.27,0,0,0,.28,0h0a27.79,27.79,0,0,1,9.28,0h0l.25,0a1.45,1.45,0,0,0,1.42-1.15l.87-4.07h0l.09-.08a4.21,4.21,0,0,0,.81-1.57h0a23.22,23.22,0,0,0,.7-3.88c.53-4.75.81-12.24,1.54-20.41v-.13A1.49,1.49,0,0,0,105.61,41.61Zm-4.16,25.06a1.46,1.46,0,0,1-.15.25,15.86,15.86,0,0,0-5.67-1,19.47,19.47,0,0,0-6,1,2,2,0,0,1-.15-.37,16.91,16.91,0,0,1-.49-3.3c-.38-4.63-.35-13.07-.37-25.15h0q0-5.18,0-11.24a.57.57,0,0,0-.58-.57.58.58,0,0,0-.58.58q0,5.79,0,10.77l-4.88,1.1A9.8,9.8,0,0,1,80,34.15a24.6,24.6,0,0,1-.85-6.77,41,41,0,0,1,2.84-14.79l5.61,2.71,16.22,27.19c-.58,6.61-.87,12.76-1.24,17.29a52.38,52.38,0,0,1-.66,5.45A7,7,0,0,1,101.45,66.67Zm-.75,1.26-.77,3.61a29.61,29.61,0,0,0-9,0l-.89-3.61a18.44,18.44,0,0,1,5.54-.87A14.94,14.94,0,0,1,100.7,67.93ZM18.39,37.6q0-5,0-10.77a.58.58,0,0,0-.58-.58.57.57,0,0,0-.58.57q0,6.06,0,11.24c0,9.35,0,16.52-.17,21.43a54.55,54.55,0,0,1-.4,5.65,8.41,8.41,0,0,1-.33,1.48c0,.11-.08.19-.11.26a19.47,19.47,0,0,0-6.05-1,15.86,15.86,0,0,0-5.67,1l0,0a3.75,3.75,0,0,1-.38-1,60.87,60.87,0,0,1-1-9.09c-.28-4.09-.56-9-1-14.28L18.26,15.3l5.61-2.71a41,41,0,0,1,2.84,14.79,24.6,24.6,0,0,1-.85,6.77,9.8,9.8,0,0,1-2.59,4.55ZM14.83,71.54a29.61,29.61,0,0,0-8.95,0l-.77-3.61a14.94,14.94,0,0,1,5.07-.87,18.53,18.53,0,0,1,4.3.52c.53.13.94.25,1.24.35ZM80.21,82c0,.28-.09.55-.14.8l-.59-.08Zm-1.6.23-.35.35-1-.11.78-.78,2.35-2.35.17,0c0,.35-.09.7-.13,1ZM24,50.59v-.86l1.94-1.94,9.14-9.14,9.14-9.14,9.15-9.14,6.7-6.71a17,17,0,0,0,2.14-1l-8.3,8.29-9.14,9.14L35.63,39.2l-9.15,9.14L24,50.83ZM47.4,3.47a25.68,25.68,0,0,1,5.51-.53,21.91,21.91,0,0,1,6.92.93,5.5,5.5,0,0,1,2,1.08,1.74,1.74,0,0,1,.62,1.28,2.7,2.7,0,0,1-.67,1.61,8.54,8.54,0,0,1-3.41,2.34,14.65,14.65,0,0,1-5.41,1,13.68,13.68,0,0,1-6.83-1.72,7.11,7.11,0,0,1-2-1.64,2.62,2.62,0,0,1-.66-1.61A1.69,1.69,0,0,1,44,5,7.27,7.27,0,0,1,47.4,3.47ZM42.31,9.31l.82-.81,0,.06c.14.17.32.34.48.51l-.79.79-.48.47a6.94,6.94,0,0,1-.55-.53Zm1.23,1.23.83-.83c.21.15.41.31.63.46l-.91.92-.3.29-.65-.44Zm1.23,1.23,1.08-1.09c.24.13.49.24.75.35l-1.22,1.21c-.25-.11-.49-.23-.73-.36Zm2.8-.34c.26.09.52.2.8.28l-1.23,1.23-.8-.29Zm-5-3.78-1,1-.42.42a6.26,6.26,0,0,1-.42-.68l.29-.29,1.24-1.23A4,4,0,0,0,42.61,7.65Zm5.58,5.61L49.47,12c.3.07.61.12.92.17l-1.32,1.32C48.77,13.41,48.48,13.33,48.19,13.26Zm3.42-1c.34,0,.69,0,1,0l-1.44,1.43c-.33,0-.66-.06-1-.11Zm2.43,0c.42,0,.83-.08,1.23-.14l-1.65,1.65c-.24,0-.47,0-.71,0l-.4,0ZM57,11.84a13.53,13.53,0,0,0,1.63-.54l-2.23,2.23c-.42.08-.85.15-1.29.2ZM61.28,10l4-4a2.54,2.54,0,0,1,.14.83l0,.14-3.6,3.61-1.95,2a14.81,14.81,0,0,1-1.7.6Zm3-.59a8.31,8.31,0,0,1-1.11,1.11Zm-.79-3V6.23a2.82,2.82,0,0,0-.14-.82l.85-.85a4.7,4.7,0,0,1,.55.54ZM39.27,7.44a5.28,5.28,0,0,0,.22.87l-8.23,8.23-4,4c-.06-.31-.11-.62-.17-.93L30.71,16Zm-7.33,9.79,8-8c.13.21.26.42.41.62l0,0-7.89,7.89-4.92,4.92c0-.32-.08-.64-.13-1Zm1.23,1.23L41,10.61a7.14,7.14,0,0,0,.56.54L33.72,19l-5.94,5.94c0-.34-.06-.67-.09-1Zm1.23,1.22,7.91-7.91.64.45-8,8-7.08,7.08c0-.35,0-.71,0-1.06Zm1.23,1.23,8.17-8.17.71.38-8.34,8.34-8.41,8.41c0-.38,0-.77.07-1.16ZM27.71,31.28l9.14-9.14,8.6-8.6c.25.11.53.2.8.3L37.4,22.69l-9.14,9.14-.86.86c.08-.42.14-.86.2-1.3Zm1.23,1.23,9.14-9.14,9.15-9.14,0,0c.28.09.57.15.86.23l-.35.35-9.14,9.14-9.14,9.15L26.35,36.2A15.19,15.19,0,0,0,27,34.48ZM66.57,7.16,67.93,5.8l.74.36L66.15,8.67A4.61,4.61,0,0,0,66.57,7.16Zm.2-1.93,0,0h0l.07,0,.06,0,.08,0-.53.52a3.29,3.29,0,0,0-.3-.79L66.3,5a2.24,2.24,0,0,1,.32.17ZM63,3.77l.2.1h0l.21.12-.51.51a4.48,4.48,0,0,0-.36-.4L62.39,4l.34-.33Zm-1.42-.36A6.94,6.94,0,0,0,60.87,3L60.93,3c.29.08.56.17.82.26Zm-17-.21a5.51,5.51,0,0,0-1.38.91A3.08,3.08,0,0,0,42.4,5.4l-2,2a3,3,0,0,1-.06-.59,2.63,2.63,0,0,1,0-.49l2.66-2.66A12.48,12.48,0,0,1,44.81,3ZM39.28,6.07l-.11.1L30,15.32l-3.16,3.16c-.06-.3-.13-.6-.2-.89l2.82-2.82,9.14-9.14L39,5.25h0a5.36,5.36,0,0,1,.75-.38A3.69,3.69,0,0,0,39.28,6.07Zm-10.48,8-2.4,2.4-.24-.85,2.1-2.1,6-6,2.12-1Zm-1.22-1.23-1.74,1.73c-.09-.27-.18-.54-.28-.81L27,12.31l2.44-2.43,2.11-1Zm-1.23-1.23L25.2,12.78c-.1-.24-.19-.47-.29-.7l1.91-.92Zm3.82,22.11,9.14-9.14,9.14-9.15.79-.78c.31.06.62.1.94.15L49,16l-9.14,9.14-9.15,9.14-6.64,6.64c0-.37,0-.73,0-1.11ZM31.4,35l9.14-9.15,9.14-9.14L51.41,15c.35,0,.69.05,1,.05l-2.22,2.23-9.15,9.14-9.14,9.14L24,43.41c0-.37,0-.73,0-1.1Zm1.22,1.22,9.15-9.14,9.14-9.14L53.82,15A11.69,11.69,0,0,0,55,14.9l-3.55,3.56L42.31,27.6l-9.14,9.14L24,45.88h0c0-.36,0-.73,0-1.1ZM24.71,46.57l9.14-9.15L43,28.28l9.15-9.14,4.46-4.47c.49-.09,1-.2,1.42-.32l-5.34,5.33-9.14,9.15L34.4,38l-9.14,9.14L24,48.37c0-.37,0-.73,0-1.1ZM27.17,49l9.14-9.14,9.14-9.14,9.14-9.15,9.15-9.14L69.58,6.6l.74.36-6,6-9.14,9.14L46,31.28l-9.15,9.14-9.14,9.15L24,53.28V52.19Zm1.22,1.23,9.15-9.14L46.68,32l9.14-9.14L65,13.68,71.24,7.4l.73.36-6.46,6.47-9.14,9.14-9.14,9.14-9.15,9.14L28.94,50.8,24,55.71c0-.35,0-.72,0-1.08Zm1.23,1.23,9.14-9.14,9.15-9.15,9.14-9.14,9.14-9.14,6.7-6.7.74.35-6.89,6.89L57.6,24.6l-9.15,9.14-9.14,9.14L30.17,52l-6.12,6.12c0-.35,0-.72,0-1.08Zm1.23,1.23L40,43.56l9.15-9.14,9.14-9.14,9.14-9.14L74.55,9l.73.35L68,16.68l-9.15,9.14L49.68,35l-9.14,9.14L31.4,53.25l-7.3,7.3c0-.35,0-.71,0-1.07Zm1.23,1.22,9.14-9.14,9.14-9.14,9.15-9.14,9.14-9.15L76.2,9.81l.74.36-7.75,7.74-9.14,9.14-9.14,9.14-9.14,9.15-9.15,9.14-8.46,8.46,0-1.06ZM24.2,64.27l9.11-9.11L42.45,46l9.14-9.14,9.14-9.15,9.15-9.14,8-8,.73.36-8.17,8.17-9.14,9.14-9.14,9.14L43,46.57l-9.14,9.14-9.14,9.14-.47.47C24.23,65,24.21,64.63,24.2,64.27Zm1.19,1.26,9.14-9.14,9.15-9.14,9.14-9.15L62,29l9.14-9.14,8.41-8.41.74.36-8.6,8.6-9.14,9.14-9.14,9.14-9.15,9.14-9.14,9.15-9.14,9.14-1.61,1.6c0-.34,0-.69,0-1Zm1.23,1.23,9.14-9.14,9.15-9.14,9.14-9.15,9.14-9.14,9.14-9.14,8.29-8.29c-.21.54-.41,1.11-.6,1.7l-7.14,7.13-9.14,9.15-9.15,9.14L45.45,49l-9.14,9.14-9.14,9.15L24.45,70c0-.34,0-.68-.05-1ZM27.85,68,37,58.85l9.14-9.15,9.15-9.14,9.14-9.14,9.14-9.14,5.88-5.88c-.13.47-.25,1-.36,1.45l-5,5L65,32l-9.14,9.15-9.14,9.14-9.14,9.14-9.15,9.15-3.8,3.8c0-.34,0-.68-.07-1Zm1.23,1.23,9.14-9.15,9.14-9.14,9.14-9.14,9.15-9.14,9.14-9.15,3.93-3.92c-.09.44-.17.88-.24,1.33l-3.14,3.14-9.15,9.14-9.14,9.15-9.14,9.14-9.15,9.14-9.14,9.14-4.86,4.87c0-.33-.05-.67-.08-1Zm1.22,1.23,9.15-9.15,9.14-9.14L57.73,43l9.15-9.14L76,24.73l2.25-2.25c0,.41-.1.82-.14,1.23l-1.57,1.57-9.14,9.14-9.14,9.14-9.14,9.15L40,61.85,30.85,71,25,76.88c0-.32-.06-.66-.09-1Zm1.23,1.22,9.14-9.14,9.15-9.14L59,44.25,68.1,35.1,77.25,26l.76-.77c0,.38,0,.75,0,1.13l-.19.19-9.14,9.14-9.14,9.14-9.15,9.14-9.14,9.15-9.14,9.14L26.29,78l-1.19.16v0Zm47.31-37.2c.06.21.14.4.21.61l-5.49,5.48L64.42,49.7l-9.14,9.15L46.13,68,37,77.13l0,0-1.15.06.62-.62,9.15-9.15,9.14-9.14,9.14-9.14L73,40l5.76-5.77Zm2.87,5a2.53,2.53,0,0,1,0,.27l-4.47,4.48L68.1,53.39,59,62.53l-9.14,9.14L44.6,76.89l-1.11,0,5.78-5.78L58.41,62l9.15-9.15L76.7,43.7l4.61-4.61C81.44,39.23,81.57,39.37,81.71,39.5ZM76,43l-9.14,9.14L57.73,61.3l-9.14,9.15L42.08,77,41,77,48,69.9l9.15-9.14,9.14-9.15,9.14-9.14,4.78-4.78c.14.23.29.45.44.66Zm-1.23-1.23-9.14,9.14L56.5,60.08l-9.14,9.14L39.54,77l-1.14,0,8.42-8.42L56,59.53l9.14-9.14,9.14-9.15,5.17-5.16c.11.26.23.49.36.73Zm-2.46-2.46-9.14,9.15-9.14,9.14-9.14,9.14L35.76,75.9l-1.39,1.39-1.16.08,2-2,9.14-9.14,9.14-9.15,9.14-9.14,9.15-9.14,6.55-6.56c0,.31.11.62.18.92ZM71.1,38.1,62,47.25l-9.14,9.14-9.14,9.14-9.15,9.15-2.8,2.8-1.18.09L34,74.13,43.13,65l9.14-9.15,9.15-9.14,9.14-9.14,7.51-7.51c0,.34.05.68.09,1Zm-1.22-1.22L60.73,46l-9.14,9.14-9.14,9.15-9.14,9.14-4.26,4.26-1.22.12,4.93-4.93,9.14-9.14,9.15-9.14,9.14-9.15,9.14-9.14L78,27.71c0,.35,0,.71,0,1.06ZM26.52,79.15,27.75,79l-2.26,2.26c0-.3-.09-.62-.13-1Zm-.84,3.29,3.59-3.59,1.2-.11-3.9,3.9-.83.11ZM32,78.62l1.17-.08-3.81,3.81-1.21.12Zm2.63-.18,1.16-.07L32,82.12l-1.18.09Zm2.6-.14,1.14,0-.11.11-3.58,3.58L33.47,82ZM38.9,79l.85-.85,1.14,0-1.44,1.44-2.22,2.22-1.15,0Zm1.23,1.23L42.3,78.1l1.12,0-2.75,2.75-.87.87-1.14,0Zm1.23,1.23L44.82,78l1.11,0-3.59,3.59-1.13,0Zm6-3.5,1.1,0-3.56,3.57-1.12,0Zm2.48,0h1.1L47.36,81.5l-1.11,0Zm2.46,0h1.09l-3.51,3.51h-1.1Zm2.46,0H55.8l-3.5,3.5H51.21Zm-.59,3.8h0Zm0-.29h-.46l3-3,.52-.52h1.08L57.19,79l-2.43,2.43Zm3.74-1.74L59.58,78l1.07,0-2.24,2.24L57.2,81.49H56.12ZM59.1,81,62,78.06l1.06,0L59.64,81.5l0,0-1.07,0Zm5.28-2.82,1.05,0L62,81.57l-1.07,0Zm2.37.09,1,0-3.37,3.38-1.06,0Zm2.34.1,1,.06-3.34,3.35-1.06,0Zm2.33.13,1,.07-3.31,3.31-1,0Zm2.3.16,1,.08L71.46,82l-1-.06Zm1.89.57L76,78.8l1,.09-.84.84-2.39,2.39-1-.08Zm1.23,1.23L78.22,79l1,.12L77.38,81,76,82.31c-.33,0-.66-.07-1-.09Zm3.39-2.31-1-.12,1.63-1.64c0,.42-.08.83-.12,1.21ZM78,77.84l-1-.1,4.07-4.08c0,.41-.06.8-.09,1.19Zm-2.23-.22-1-.09L81.3,71c0,.4,0,.78-.07,1.17Zm-2.11-.35-.17.17-1-.08.64-.64,8.29-8.29c0,.39,0,.78-.06,1.15ZM81.51,67l-9,9-1.24,1.24-1-.06,1.72-1.73,9.15-9.14.48-.48C81.54,66.25,81.52,66.63,81.51,67Zm-1.13-1.33-9.14,9.14L68.9,77.15l-1-.05,2.84-2.83,9.14-9.15,1.8-1.8c0,.38,0,.76,0,1.13Zm-1.22-1.23L70,73.58l-3.46,3.47-1,0,4-4,9.14-9.14,3.09-3.1c0,.38,0,.75,0,1.12Zm-1.23-1.23-9.14,9.15L64.18,77l-1.06,0,5.12-5.12,9.14-9.14,4.37-4.37c0,.37,0,.74,0,1.11ZM76.7,62l-9.14,9.14L61.79,76.9l-1.07,0L67,70.58l9.14-9.14,5.64-5.63c0,.37,0,.73,0,1.1Zm-1.23-1.23L66.33,69.9l-6.95,6.95H58.3l7.48-7.49,9.15-9.14,6.88-6.88c0,.38,0,.73,0,1.1Zm-1.23-1.23L65.1,68.67,57,76.82H55.87l8.69-8.68L73.7,59l8.11-8.11V52ZM73,58.3l-9.15,9.14-9.14,9.15-.22.22H53.42l.76-.77,9.15-9.14,9.14-9.14,9.14-9.15.2-.19v1.09Zm7.91-10.37-9.14,9.14-9.15,9.15L53.5,75.36l-1.45,1.45H51l2-2,9.14-9.14,9.14-9.14,9.14-9.15L81.79,46c0,.37,0,.73,0,1.09ZM79.7,46.7l-9.14,9.14L61.42,65l-9.15,9.14-2.68,2.68h-1.1l3.24-3.24,9.14-9.14L70,55.3l9.15-9.14,2.61-2.62c0,.36,0,.73,0,1.08Zm-1.23-1.23-9.14,9.15-9.14,9.14L51.05,72.9l-3.94,3.94-1.11,0,4.5-4.5,9.14-9.15,9.15-9.14,9.14-9.14,3.81-3.81c0,.36,0,.72,0,1.07Z"/><polygon class="cls-1" points="0.01 42.48 0.01 42.48 0.01 42.48 0.01 42.48"/><polygon class="cls-1" points="88.59 13.56 88.59 13.56 88.59 13.56 88.59 13.56"/><path class="cls-1" d="M17.22,13.56Z"/></g></g></svg>