<svg xmlns="http://www.w3.org/2000/svg" viewBox="-4.65 -15.14 115.11 115.11"><defs><style>.cls-1{fill:#e2e2e2;}</style></defs><title>sweetshirt-backside</title><g id="Layer_2" data-name="Layer 2"><g id="Layer_1-2" data-name="Layer 1"><polyline class="cls-1" points="105.61 41.61 105.61 41.61 105.61 41.61"/><path class="cls-1" d="M105.61,41.61h0L89.2,14.12a1.33,1.33,0,0,0-.61-.56h0L82.27,10.5l-14.45-7h0A16.24,16.24,0,0,0,64,2C61.19.59,57.28,0,52.91,0h0c-4.37,0-8.28.59-11,2A16.25,16.25,0,0,0,38,3.49h0l-14.45,7-6.32,3.06a1.33,1.33,0,0,0-.61.56L.2,41.61h0a1.41,1.41,0,0,0-.21.74v.14H0c.58,6.64.88,12.84,1.25,17.46a50.79,50.79,0,0,0,.7,5.7H2a8.42,8.42,0,0,0,.57,1.89h0a3.4,3.4,0,0,0,.53.81l.08.07h0L4,72.5a1.45,1.45,0,0,0,1.42,1.15l.26,0a26.25,26.25,0,0,1,4.59-.39,29.26,29.26,0,0,1,3.42.2l1,.13.24,0,.06,0h0a1.33,1.33,0,0,0,.28,0,1.46,1.46,0,0,0,1.41-1.11l1-4.27.15-.19h0a4.89,4.89,0,0,0,.58-1.52h0a25.4,25.4,0,0,0,.49-3.9c.31-4.63.3-12.23.31-22.79l2.79.64C22,44.13,22,47.5,22,50.59c0,14.24.55,23,1.18,28.4.23,2,.47,3.5.7,4.68l0,.17,0,.09h0L24,84l.15.25.08.08,0,0,.08.08.22.16.1,0,0,0,.11,0a.89.89,0,0,0,.28.07h.39c8.69-1.21,22-1.32,26.12-1.32h2.57c4.06,0,17.45.1,26.18,1.32h.39a.89.89,0,0,0,.28-.07l.11,0,0,0,.1,0,.22-.16.08-.08,0,0,.08-.08.15-.25,0-.1h0l0-.09,0-.16c.23-1.18.47-2.71.7-4.68.63-5.4,1.18-14.16,1.18-28.4,0-3.09,0-6.46-.08-10.08l2.79-.64c0,8.46,0,15,.16,19.69a58.28,58.28,0,0,0,.43,5.88,10.76,10.76,0,0,0,.42,1.86h0a3.67,3.67,0,0,0,.38.77h0l.15.19,1,4.27h0a1.46,1.46,0,0,0,1.41,1.11,1.27,1.27,0,0,0,.28,0h0a27.79,27.79,0,0,1,9.28,0l.26,0a1.45,1.45,0,0,0,1.42-1.15h0l.87-4.07h0l.09-.08a4.21,4.21,0,0,0,.81-1.57h0a22.17,22.17,0,0,0,.69-3.88c.54-4.75.82-12.24,1.54-20.41v-.13A1.52,1.52,0,0,0,105.61,41.61ZM90.09,67.93a18.44,18.44,0,0,1,5.54-.87,14.72,14.72,0,0,1,5.07.88l-.77,3.6a29.61,29.61,0,0,0-9,0Zm11.78-2.7a7,7,0,0,1-.42,1.44,1.46,1.46,0,0,1-.15.25,15.86,15.86,0,0,0-5.67-1,19.47,19.47,0,0,0-6,1,3.07,3.07,0,0,1-.15-.37,16.91,16.91,0,0,1-.49-3.3c-.37-4.56-.35-12.85-.36-24.66a17.16,17.16,0,0,1,2.82-.23,15.63,15.63,0,0,1,4.87.72,7.72,7.72,0,0,1,3.93,2.67.58.58,0,1,0,.93-.68,8.83,8.83,0,0,0-4.5-3.09,16.67,16.67,0,0,0-5.23-.77,18.64,18.64,0,0,0-3.52.32h0l-5.33,1.2A9.8,9.8,0,0,1,80,34.15a24.6,24.6,0,0,1-.85-6.77,41,41,0,0,1,2.84-14.79l5.61,2.72,16.22,27.18c-.58,6.61-.87,12.76-1.24,17.29A52.38,52.38,0,0,1,101.87,65.23Zm-84.8-5.74a54.55,54.55,0,0,1-.4,5.65,8.41,8.41,0,0,1-.33,1.48c0,.11-.08.19-.11.26a19.47,19.47,0,0,0-6.05-1,15.86,15.86,0,0,0-5.67,1l0,0a3.75,3.75,0,0,1-.38-1,60.87,60.87,0,0,1-1-9.09c-.28-4.09-.56-9-1-14.28L18.26,15.31l5.61-2.72a41,41,0,0,1,2.84,14.79,24.6,24.6,0,0,1-.85,6.77,9.8,9.8,0,0,1-2.59,4.55l-5.33-1.2h0a18.56,18.56,0,0,0-3.52-.32,16.71,16.71,0,0,0-5.23.77A8.87,8.87,0,0,0,4.68,41a.58.58,0,1,0,.93.68A7.72,7.72,0,0,1,9.54,39a15.63,15.63,0,0,1,4.87-.72,17.39,17.39,0,0,1,2.83.23C17.22,47.66,17.23,54.67,17.07,59.49Zm-1.35,8.44-.89,3.61a29.61,29.61,0,0,0-8.95,0l-.77-3.6a14.76,14.76,0,0,1,5.07-.88,18.7,18.7,0,0,1,4.31.52C15,67.71,15.42,67.83,15.72,67.93ZM52.91,2c4.16,0,7.84.6,10.09,1.74l.21.1.1,0h0c.63.17,1.16.35,1.62.51l-1.41-.12a81.64,81.64,0,0,0-10.61-.53,81.7,81.7,0,0,0-10.62.53l-1.4.12c.45-.16,1-.34,1.61-.51h0l.1,0,.21-.1C45.06,2.63,48.74,2,52.91,2Zm28.9,48.56v.59l-5.75,5.76-9.15,9.14-9.14,9.14-1.59,1.59H55.09l2.13-2.13,9.15-9.15,9.14-9.14,6.3-6.3Zm-2,32.12c-.32,0-.64-.09-1-.12L80.35,81c-.07.47-.13.91-.2,1.3Zm-52.53-.15.66-.65,3.22-3.22c.39,0,.79-.07,1.18-.09l-3.83,3.83Zm0-49.11,3.53-3.53,9.14-9.14L49,11.63,55.72,5l1.07,0-7.21,7.21-9.14,9.14L31.3,30.46,26.8,35c.06-.17.12-.32.17-.49C27.07,34.14,27.14,33.79,27.22,33.45ZM31.3,12.18,37.47,6l1.23-.16h0l-6.89,6.89-5.11,5.12c-.07-.3-.13-.6-.21-.89Zm1.23,1.23L40.3,5.63l1.21-.12L33.07,14l-5.92,5.93c-.06-.31-.11-.62-.17-.93Zm1.22,1.22L42.9,5.49,43,5.36l1.22-.13L43.44,6,34.3,15.18,27.48,22c0-.32-.08-.65-.13-1ZM35,15.86l9.15-9.14,1.6-1.6,1.15-.07L44.67,7.27l-9.14,9.14-7.81,7.81c0-.34,0-.67-.08-1Zm1.23,1.23L45.35,8l3-3,1.12,0L45.9,8.49l-9.14,9.15-8.92,8.91c0-.35,0-.7,0-1.06ZM28.3,27.46l9.14-9.14,9.14-9.14,4.24-4.24h1.1L47.13,9.72,38,18.86,28.84,28l-1,1c0-.37,0-.75,0-1.12Zm1.22,1.23,9.15-9.14,9.14-9.15,5.48-5.48h1.09l-6,6-9.15,9.14-9.14,9.15-2.53,2.52c.07-.41.12-.82.16-1.25Zm1.1-17.19-4.39,4.38L26,15,30.07,11,32.72,8.3l2.11-1Zm-1.23-1.23L25.64,14l-.27-.81L28,10.61l2.12-1Zm-4.42,2-.06-.15.4-.19ZM24.1,39.51a9.29,9.29,0,0,0,1.69-2.17L32,31.15,41.12,22l9.15-9.14L58.11,5l1,.05-8.34,8.34-9.14,9.14-9.14,9.14-8.44,8.44C24.09,39.92,24.09,39.72,24.1,39.51Zm0,2,9.14-9.15,9.14-9.14,9.14-9.14,8.95-8.95,1,.08-.27.27L52,14.63,42.9,23.78l-9.15,9.14-9.14,9.14-.56.56C24.05,42.26,24.06,41.89,24.07,41.52Zm1.22,1.23,9.15-9.15,9.14-9.14,9.14-9.14,9.14-9.15.83-.82.61.08h.12l.25,0L62.41,6.72l-9.14,9.14L44.13,25,35,34.15l-9.14,9.14L24,45.11c0-.36,0-.74,0-1.11ZM26.52,44l9.15-9.14,9.14-9.14L54,16.54,63.09,7.4l1.83-1.83c.39,0,.72.07,1,.11L63.64,8,54.5,17.09l-9.15,9.14-9.14,9.15-9.14,9.14L24,47.58c0-.36,0-.73,0-1.1Zm1.23,1.23,9.14-9.14L46,26.92l9.14-9.15,9.14-9.14,2.79-2.79,1,.13-3.2,3.21-9.15,9.14-9.14,9.14L37.44,36.6,28.3,45.75,24,50.05V49ZM29,46.43l9.14-9.14,9.14-9.15L56.41,19l9.14-9.14,3.51-3.51.73.35-3.7,3.7L57,19.55l-9.14,9.14-9.14,9.14L29.52,47,24,52.5V51.41Zm1.23,1.23,9.14-9.15,9.14-9.14,9.14-9.14,9.15-9.14,3.93-3.94.74.36-4.13,4.12-9.14,9.15L49,29.92l-9.15,9.14L30.75,48.2,24,54.94c0-.36,0-.72,0-1.08Zm1.22,1.23,9.15-9.15,9.14-9.14,9.14-9.14L68,12.31,72.37,8l.73.36-4.55,4.55L59.41,22l-9.14,9.15-9.15,9.14L32,49.43,24,57.37c0-.36,0-.72,0-1.08Zm1.23,1.22L41.81,41,51,31.83l9.14-9.14,9.14-9.15L74,8.75l.74.36-5,5-9.14,9.14-9.15,9.14-9.14,9.15-9.14,9.14-9.13,9.12c0-.35,0-.71,0-1.07ZM24.75,60.48l9.14-9.14L43,42.2l9.15-9.14,9.14-9.15,9.14-9.14,5.22-5.22.73.36L71,15.32l-9.15,9.14L52.72,33.6l-9.14,9.15-9.14,9.14L25.29,61l-1.15,1.16,0-1.07ZM26,61.71l9.14-9.14,9.14-9.14,9.14-9.15,9.15-9.14L71.69,16l5.64-5.64.74.35-5.83,5.83-9.15,9.15L54,34.83,44.81,44l-9.14,9.15-9.15,9.14-2.31,2.31,0-1.06Zm1.22,1.23,9.15-9.14,9.14-9.14,9.14-9.15,9.15-9.14,9.14-9.14L79,11.16l.73.35-6.26,6.26-9.14,9.15-9.14,9.14L46,45.2l-9.15,9.14-9.14,9.15L24.3,66.94c0-.35,0-.7,0-1Zm1.23,1.23L37.58,55l9.14-9.15,9.14-9.14L65,27.6l9.15-9.14L80.64,12l.26.12c-.16.39-.33.78-.48,1.19L74.69,19l-9.14,9.14-9.14,9.15-9.15,9.14-9.14,9.14L29,64.71l-4.57,4.57c0-.34,0-.68-.05-1Zm1.23,1.23,9.14-9.15L48,47.11,57.09,38l9.14-9.14,9.14-9.15,4.38-4.37c-.15.5-.3,1-.43,1.52l-3.4,3.4-9.14,9.14-9.15,9.14-9.14,9.15L39.35,56.8l-9.14,9.14L24.54,71.6c0-.33,0-.68-.06-1Zm1.23,1.23L40,57.48l9.14-9.14,9.15-9.14,9.14-9.15,9.14-9.14,2.31-2.3c-.1.44-.18.89-.26,1.35l-1.5,1.5L68,30.6l-9.14,9.14-9.14,9.15L40.58,58l-9.15,9.14L24.7,73.9c0-.33-.05-.67-.07-1Zm1.23,1.22,9.14-9.14,9.14-9.14,9.14-9.14,9.15-9.15,9.14-9.14.55-.55c0,.41-.11.83-.16,1.25l-9,9L60.09,41,51,50.11l-9.14,9.15L32.66,68.4l-7.77,7.77-.09-1ZM78.84,34.47v0L75.37,38l-9.14,9.14-9.14,9.14L48,65.4,38.8,74.54l-2.65,2.65L35,77.26,38.26,74l9.14-9.14,9.14-9.14,9.15-9.14,9.14-9.15,3.8-3.8C78.7,33.91,78.76,34.2,78.84,34.47Zm.22,7.18L69.92,50.8l-9.15,9.14-9.14,9.14-7.82,7.83-1.12,0,8.39-8.39,9.15-9.15,9.14-9.14,9.14-9.14,2.42-2.42c.17.2.36.37.54.56Zm-1.23-1.22-9.14,9.14-9.15,9.14L50.4,67.85,41.28,77l-1.13,0,.56-.57,9.15-9.14L59,58.16,68.14,49l9.14-9.14L80,37.21c.13.23.27.45.42.67ZM76.6,39.2l-9.14,9.14-9.14,9.14-9.15,9.15L40,75.77l-1.3,1.3-1.15.05,1.91-1.9,9.14-9.14,9.14-9.14,9.14-9.15,9.15-9.14,3.14-3.14c.1.26.2.53.31.78Zm-2.45-2.46L65,45.88,55.86,55l-9.14,9.14-9.14,9.14-4,4-1.17.08L37,72.77l9.14-9.15,9.14-9.14,9.15-9.14,9.14-9.15,4.64-4.63c0,.32.09.63.14.94Zm-1.23-1.23-9.14,9.15L54.63,53.8l-9.14,9.14-9.14,9.14-5.46,5.46-1.2.11,6.11-6.11,9.14-9.14,9.15-9.15,9.14-9.14L72.37,35,78,29.33l.09,1Zm-1.23-1.23-9.14,9.15L53.4,52.57l-9.14,9.14-9.14,9.15-6.94,6.93L27,77.93l7.62-7.62,9.15-9.14L52.86,52,62,42.88l9.14-9.14L78,26.92c0,.15,0,.31,0,.46s0,.42,0,.63Zm-1.23-1.22L61.32,42.2l-9.14,9.14L43,60.48l-9.14,9.15-8.5,8.5-.29,0L25,77.41l8.33-8.33,9.15-9.14,9.14-9.14,9.14-9.15,9.15-9.14,8.16-8.17c0,.4-.06.79-.08,1.18Zm-45,46.39.19-.19,1.25-.16L26,80l-.58.58c0-.31-.09-.63-.13-1Zm1.23,1.23,1.74-1.75,1.21-.11L27.2,81.23,25.73,82.7c-.05-.29-.1-.6-.16-.93Zm7.1-2.19,1.16-.07-3.76,3.77-1.2.1Zm2.61-.15,1.14,0L33.8,82l-1.17.07Zm2.57-.12,1.14,0-3.67,3.66-1.15.07Zm2.55-.09,1.13,0-.13.13L39,81.73l-1.14,0Zm1.68.78.85-.85,1.11,0-1.41,1.42-2.19,2.18-1.12,0Zm1.23,1.22L46.52,78l1.11,0-2.69,2.69-.88.88-1.12,0Zm1.23,1.23L49,78h1.1l-3.54,3.54-1.11,0ZM51.48,78h1.09l-3.52,3.51-1.1,0Zm2.46,0H55l-3.51,3.5H50.43Zm-1.06,3.51,3.5-3.5h1.09L54,81.47h-1.1ZM58.81,78l1.08,0-3.47,3.46H55.34Zm2.1.36.31-.32,1.07,0-.83.84-2.61,2.6-1.07,0Zm1.23,1.23,1.48-1.48,1.06,0-2,2-1.41,1.42-1.07,0Zm1.23,1.23L66,78.19l1,0-3.13,3.13-.25.25-1.06,0Zm5-2.53,1,0L66,81.7l-1.06,0Zm2.34.12,1,.06L68.39,81.8l-1,0Zm2.3.15,1,.07-3.29,3.29-1-.06Zm2.28.17,1,.09L73,82.06,72,82Zm2.25.22,1,.1-3.18,3.19-1-.08Zm2.2.25.86.12,0,.13-.14.14-2.86,2.86-1-.1ZM79.54,78l-1-.11.08-.09L81,75.48c0,.42-.07.82-.11,1.21ZM78,77.13l-.64.63-1-.09,1.08-1.08,3.77-3.77c0,.41-.06.8-.09,1.18ZM76.74,75.9l-1.65,1.66-1-.08,2.11-2.12,5.16-5.16c0,.39,0,.79-.07,1.16Zm-1.23-1.22-2.71,2.7-1-.06L75,74.13l6.52-6.51-.06,1.14Zm-1.23-1.23-3.79,3.79-1-.06,4.28-4.28,7.84-7.84c0,.38,0,.76,0,1.13Zm-1.23-1.23-4.89,4.9-1-.05,5.4-5.4,9.14-9.14h0l0,1.13ZM81,61.85,71.83,71l-6,6-1.06,0,6.54-6.53,9.14-9.15,1.3-1.3c0,.38,0,.75,0,1.12Zm-1.23-1.23L70.6,69.76l-7.18,7.18-1.06,0,7.69-7.69,9.14-9.14,2.58-2.58c0,.38,0,.75,0,1.11Zm-1.23-1.23-9.14,9.15L61,76.88l-1.07,0L68.82,68,78,58.85,81.79,55c0,.37,0,.74,0,1.1Zm-1.23-1.22-9.14,9.14L59,76.45l-.39.39H57.53l.92-.93,9.15-9.14,9.14-9.14,5.07-5.07c0,.37,0,.73,0,1.09Zm-2.45-2.46-9.14,9.14L56.54,74l-2.81,2.82H52.64L56,73.45l9.14-9.14,9.14-9.15,7.53-7.52v1.09ZM73.6,54.48l-9.14,9.14-9.15,9.15-4,4H50.18l4.59-4.59,9.14-9.14,9.14-9.15,8.74-8.73c0,.37,0,.72,0,1.08Zm7.91-10.37-9.14,9.14L63.23,62.4l-9.14,9.14L48.8,76.82H47.7L53.54,71l9.14-9.14,9.15-9.14L81,43.56l.79-.79c0,.37,0,.72,0,1.08Zm-1.22-1.23L71.14,52,62,61.17l-9.14,9.14-6.55,6.54-1.11,0,7.11-7.11,9.15-9.14,9.14-9.14,9.14-9.14,2-2c0,.36,0,.72,0,1.07Z"/></g></g></svg>