<svg xmlns="http://www.w3.org/2000/svg" viewBox="-35.8 0 115.11 115.11"><defs><style>.cls-1{fill:#e2e2e2;}</style></defs><title>yoga-legs</title><g id="Layer_2" data-name="Layer 2"><g id="Layer_1-2" data-name="Layer 1"><path class="cls-1" d="M19.38,113.19a1.26,1.26,0,0,0,.14-.6c0-.31,0-.62,0-.93v-.46c0-.17,0-.35,0-.51s0-.3,0-.42v0l0-.16a2.57,2.57,0,0,0,.08-.61,1.67,1.67,0,0,0,0-.39,1.61,1.61,0,0,0,.15-.26,1.59,1.59,0,0,0,.15-.71,2.11,2.11,0,0,0-.16-.78,4.09,4.09,0,0,1-.18-1.34q0-.48,0-1c0-.24,0-.47,0-.71.05-1.4.12-2.78.2-4.12.14-2.12.35-3.75.55-5.32l.12-1a49.69,49.69,0,0,0,.43-6.47c0-1.29-.05-2.67-.14-4.2-.08-1.28-.12-2.43-.12-3.51a36.49,36.49,0,0,1,.51-6.13c.09-.63.19-1.26.26-1.93a14.92,14.92,0,0,0,.08-1.73c0-1.79-.14-4.46-.27-7-.12-2.3-.24-4.69-.25-6.37,0-1,0-1.78,0-2.5A61,61,0,0,1,21.23,47c.08-.91.18-2,.29-3.43s.13-2.7.15-3.65a14.94,14.94,0,0,1,0-1.5l0-.19h0A16.15,16.15,0,0,1,21.85,40c0,.89,0,2.1.14,3.6s.21,2.52.29,3.44A60.6,60.6,0,0,1,22.61,54c0,.73,0,1.56,0,2.51,0,1.68-.13,4.07-.25,6.37-.13,2.59-.27,5.26-.27,7a14.92,14.92,0,0,0,.08,1.73c.07.67.17,1.3.26,1.94a36.25,36.25,0,0,1,.51,6.12c0,1.08,0,2.23-.12,3.51-.09,1.53-.14,2.91-.14,4.2a49.69,49.69,0,0,0,.43,6.47l.12,1c.2,1.58.41,3.2.55,5.33.08,1.35.15,2.73.2,4.12,0,.24,0,.47,0,.7s0,.68,0,1a3.91,3.91,0,0,1-.19,1.35,2.38,2.38,0,0,0-.16.77,1.75,1.75,0,0,0,.16.71,2,2,0,0,0,.15.26,1.75,1.75,0,0,0,0,.4,2.58,2.58,0,0,0,.09.64l0,.15c0,.14,0,.28,0,.43s0,.34,0,.51v.5c0,.29,0,.59,0,.89a1.3,1.3,0,0,0,.14.61,3,3,0,0,0,.62.88,3.36,3.36,0,0,0,1.74.85,13.13,13.13,0,0,0,2.5.18,7.06,7.06,0,0,0,3.18-.6,2.42,2.42,0,0,0,1.17-1.11l0-.15,0-.18,0-.17c0-.7.11-1.43.19-2.12l0-.17a5,5,0,0,1,.15-.88,3.83,3.83,0,0,0,.19-1.1v-.19a1.72,1.72,0,0,0,.3-1,2,2,0,0,0-.17-.74v0l0-.1a3.8,3.8,0,0,0,.17-.56c.16-.76.27-1.53.39-2.28.06-.41.13-.81.2-1.21l.28-1.64c.63-3.68,1.29-7.47,1.66-10.39A37,37,0,0,0,37.14,86c0-1.77-.11-3.42-.22-5.17s-.25-3.77-.25-5.93c0-1.33,0-2.62.14-3.94A138.13,138.13,0,0,1,40,52.19c.21-1,.44-1.95.66-2.94A97.64,97.64,0,0,0,43.45,32c0-.81.06-1.63.06-2.45a67.79,67.79,0,0,0-1.31-12.7A50.75,50.75,0,0,0,40,8.69a7.35,7.35,0,0,0-.38-.85,18.07,18.07,0,0,1-.93-3.15c-.07-.39-.13-.77-.19-1.16s-.16-1-.28-1.6l0-.15-.06-.16-.07-.14A2.43,2.43,0,0,0,36.92.54,6.63,6.63,0,0,0,35,.1a63.33,63.33,0,0,0-7.71.07c-1.87.09-3.8.18-5.49.18S18.14.26,16.27.17,12.58,0,11,0A19.79,19.79,0,0,0,7.86.19,5.85,5.85,0,0,0,6.58.54a2.45,2.45,0,0,0-1.14.94l-.07.14-.06.16,0,.14C5.15,2.52,5.06,3,5,3.54s-.12.76-.2,1.15a17,17,0,0,1-.92,3.15,9.26,9.26,0,0,0-.39.85,52.14,52.14,0,0,0-2.17,8.15A67.79,67.79,0,0,0,0,29.54c0,.82,0,1.64.06,2.45A97.37,97.37,0,0,0,2.9,49.24c.22,1,.45,2,.66,2.95A135.67,135.67,0,0,1,6.69,70.94c.1,1.32.15,2.6.15,3.94,0,2.16-.13,4.08-.25,5.93s-.22,3.4-.22,5.17a37.13,37.13,0,0,0,.27,4.53c.37,2.93,1,6.74,1.67,10.42l.27,1.6c.07.4.13.81.2,1.21.11.76.23,1.53.39,2.29a4.4,4.4,0,0,0,.17.57l0,.1h0a1.79,1.79,0,0,0-.17.75,1.67,1.67,0,0,0,.3,1v.19a3.81,3.81,0,0,0,.21,1.15,5.83,5.83,0,0,1,.13.83l0,.17c.08.68.16,1.4.19,2.12l0,.17.05.18,0,.15a2.42,2.42,0,0,0,1.17,1.11,7.06,7.06,0,0,0,3.18.6,9.21,9.21,0,0,0,3.14-.36,2.87,2.87,0,0,0,1.09-.67A3.21,3.21,0,0,0,19.38,113.19ZM7.14,2.43c.7-.71,5.68-.48,9-.32,1.9.09,3.87.18,5.6.18s3.71-.09,5.61-.18c3.33-.15,8.31-.39,9,.32.09.51.16.95.23,1.39a20.13,20.13,0,0,0,1.16,4.54h0c-.25,0-.51-.07-.79-.09l-.16,0-.88-.05h-.13l-.91,0H33.47l-1.13,0h-.09l-1.13,0H30.9l-1.2,0h-.29l-1.2.05c-2.19.09-4.46.19-6.46.19s-4.26-.1-6.45-.19L14,8.29l-.39,0-1.28,0h-.27l-1.27,0H8.24c-.29,0-.56,0-.83,0H7.25l-.64,0-.16,0a6.69,6.69,0,0,0-.68.08h0A20.13,20.13,0,0,0,6.91,3.82C7,3.38,7,2.94,7.14,2.43Zm10.44,110a1,1,0,0,1-.61.49l.61-.62Zm-6-3.24a2,2,0,0,1-.12-.58l6.24-6.24c0,.37,0,.76-.05,1.14L12,109.21l-.32.32A3,3,0,0,0,11.57,109.21Zm-1.35-8.6-.08-.49,5.5-5.51,3.08-3.08c0,.42-.08.82-.12,1.22l-2.41,2.4-5.89,5.9ZM8.57,90.27c0-.27-.06-.53-.08-.79l1-1,9.15-9.14h0c0,.34,0,.71,0,1.09L10.05,89,8.6,90.47Zm-.24-5.55,7.86-7.85L19.07,74c-.06.4-.12.82-.17,1.26l-2.16,2.16L8.32,85.83C8.32,85.46,8.32,85.09,8.33,84.72ZM5.46,51.77c-.06-.27-.13-.55-.19-.82L6.91,49.3l9.14-9.14L21.18,35v1.09l-.33.32a1.41,1.41,0,0,0-.84.85L16.6,40.71,7.46,49.85l-2,2ZM2,29.7l1.82-1.82,9.15-9.14,8.26-8.26v1.09l-7.72,7.71L4.32,28.43,2,30.78C2,30.42,2,30.06,2,29.7ZM37.45,9.48l.27,0,.17,0h0l-8,8-7.64,7.64V24.06l7.1-7.1L37,9.42l.32,0Zm4,23.59-7.09,7.09L25.2,49.3l-.73.73c0-.35,0-.69-.07-1l.25-.25,9.14-9.14,7.72-7.72h0C41.49,32.29,41.46,32.68,41.43,33.07ZM34.83,71.6,32,74.41l-7.2,7.2c0-.39,0-.76,0-1.12l6.62-6.62,3.44-3.44c0,.13,0,.26,0,.37C34.86,71.07,34.85,71.33,34.83,71.6ZM35,81l0,.31-7.21,7.21-3,3c0-.33-.05-.66-.08-1l2.54-2.54,7.7-7.69C35,80.47,35,80.71,35,81Zm.21,5-4.94,4.94-4.95,5-.12-1,4.52-4.52,5.48-5.48C35.19,85.25,35.19,85.61,35.19,86Zm-.38,5.3-2.11,2.1-7,7c0-.11,0-.22,0-.33s0-.46-.05-.69l6.52-6.52L35,90l0,.25C34.9,90.59,34.85,90.93,34.81,91.28Zm-.92,5.82L26,105l-.08.08v-.18q0-.33,0-.66V104l8.22-8.22C34,96.23,34,96.66,33.89,97.1Zm-1,5.92-4.41,4.42L26,110l0-.26,0-.24.05-.14a1,1,0,0,0,.11-.53l1.89-1.89,5.17-5.17-.09.49C33,102.48,32.93,102.75,32.88,103Zm-.56,4.4,0,0a.85.85,0,0,0-.24,1,.83.83,0,0,1,0,.35l-1.12,1.12-3.24,3.24a5.41,5.41,0,0,1-1-.14l3.64-3.64,1.94-1.94Zm-.73,4.26-1.41,1.41a7.57,7.57,0,0,1-1.17.08l2.6-2.6.11-.11v.09Zm.75-5.73,0,.11-2.6,2.6-3.77,3.77c0-.23,0-.46,0-.7v-.41l3.2-3.2,3.45-3.45c-.05.32-.1.64-.16,1C32.41,105.74,32.38,105.84,32.34,106Zm-5.1.26-1.51,1.51A6.09,6.09,0,0,0,26,106.4l.74-.74,6.91-6.91c-.08.44-.15.88-.23,1.32Zm6.69-11.6-8.1,8.09c0-.35,0-.69,0-1l7.59-7.6,1.19-1.19c-.06.42-.13.85-.2,1.29Zm-2.46-2.46-5.93,5.94c0-.34-.07-.68-.1-1l5.49-5.48,4.24-4.24c0,.38,0,.76-.07,1.15ZM29,89.7l-4,4c-.05-.33-.08-.65-.12-1l3.56-3.56,6.61-6.61c0,.35,0,.69.05,1Zm-2.46-2.46-1.93,1.93c0-.34,0-.7,0-1.07L26,86.69l8.8-8.79c0,.35,0,.7,0,1Zm7.92-10.37L25.33,86l-.72.73c0-.36,0-.73,0-1.12l.16-.15,9.14-9.15.81-.81c0,.37,0,.73,0,1.08Zm-1.23-1.23L24.69,84.2c0-.29,0-.59,0-.9V83l8-8L34.77,73c0,.38,0,.75,0,1.12Zm-2.46-2.46-5.93,5.94c0-.37,0-.73,0-1.06l5.42-5.42,4.94-4.94c-.06.44-.1.85-.14,1.23ZM29.56,72l-4.8,4.8c0-.35-.06-.68-.09-1L29,71.41l6.56-6.56c-.07.45-.13.87-.19,1.28Zm-1.23-1.23-3.81,3.81c-.05-.32-.09-.64-.14-1l3.41-3.41L36,61.93c-.07.45-.15.89-.21,1.31Zm7.92-10.37L27.11,69.5l-2.9,2.89c0-.31-.09-.63-.13-1L26.56,69l9.14-9.14.88-.88c-.08.46-.17.91-.25,1.34ZM35,59.13l-9.14,9.14L24,70.13V69l1.31-1.3,9.15-9.15,2.7-2.7c-.09.46-.18.92-.27,1.36ZM33.79,57.9,24.65,67l-.59.59c0-.37,0-.74.05-1.14l9.14-9.13,4.59-4.6c-.1.47-.2.94-.3,1.39Zm-1.23-1.23-8.39,8.4.06-1.15L32,56.13l6.52-6.53c-.1.47-.21.94-.31,1.41Zm-1.22-1.23-7,7,.06-1.15,6.43-6.43,8.47-8.47c-.11.47-.21.94-.32,1.41Zm7.91-10.37-9.14,9.15L24.42,59.9c0-.39,0-.77,0-1.14l5.09-5.09,9.15-9.14,1.22-1.23c-.09.46-.19.92-.28,1.38ZM38,43.85,28.88,53l-4.36,4.36c0-.3,0-.59,0-.86v-.25l3.79-3.8,9.15-9.14,3-3c-.08.45-.17.89-.25,1.34Zm-1.23-1.23-9.14,9.14-3.1,3.1V53.77l2.56-2.56,9.14-9.14L41,37.34c-.06.43-.12.86-.19,1.28Zm-1.22-1.23-9.15,9.14-1.88,1.88c0-.38,0-.73,0-1.07L25.88,50,35,40.84l6.29-6.29c0,.41-.08.82-.13,1.23Zm-2.46-2.46L24.3,47.75c0-.29-.06-.59-.08-.91v-.09l8.35-8.36,9-9c0,.37,0,.73,0,1.1ZM41,28.56l-9.15,9.15-7.79,7.78c0-.31-.05-.64-.08-1l7.33-7.33L40.48,28l1-1c0,.34,0,.7,0,1.05ZM39.8,27.33l-9.15,9.15-6.74,6.74c0-.36-.05-.7-.06-1l6.26-6.26,9.14-9.14,2.1-2.1c0,.34,0,.68.07,1Zm-1.23-1.22-9.14,9.14L23.8,40.88c0-.34,0-.65,0-.94V39.8l5.1-5.1L38,25.56l3.1-3.09c0,.32.08.65.11,1Zm-1.23-1.23L28.2,34l-4.46,4.46a4.87,4.87,0,0,0-.15-.94l4.06-4.07,9.14-9.14,4-4c0,.32.09.64.13,1Zm-1.23-1.23L27,32.79l-3.89,3.9a1.58,1.58,0,0,0-.75-.34h0l4.09-4.09,9.15-9.15,4.9-4.9c.06.3.11.61.17.93Zm-6-14.23.48,0h.1l-4.42,4.43-4,4V16.69l3.41-3.41,3.84-3.84h.55Zm2.24-.07h.87l-5.72,5.72-5.19,5.18V19.14L27,14.51l5.15-5.15h.25Zm2.83,0h.48l-6.94,6.93-6.41,6.41V21.6l5.87-5.86,6.41-6.41h.59ZM25.06,12.6l-2.73,2.72V14.23l2.18-2.18L27,9.55l1.14-.05Zm.54-3-1.77,1.77-1.5,1.5V11.78l1-1,1.18-1.18.68,0Zm-2.53.07-.47.47-.27.27V9.68h.74ZM34.88,22.42l-9.14,9.14L22.33,35V33.88L25.2,31l9.14-9.14,5.73-5.74c.07.3.13.6.19.91Zm-1.22-1.23-9.15,9.15-2.18,2.18v-1.1L24,29.79l9.14-9.14,6.51-6.51c.07.28.14.58.21.88ZM32.43,20l-9.14,9.14-1,.95V29l.41-.41,9.14-9.14,7.24-7.23.23.86ZM31.2,18.74,22.33,27.6V26.51l8.32-8.32,7.89-7.89c.09.26.18.53.27.83ZM5.2,9.66l0,0,.15,0,.23,0,.16,0,.27,0h0L4.86,10.69l0,0C5,10.32,5.08,10,5.2,9.66Zm.35,1.71,2-2h.27l.53,0h.32L6.09,11.91,3.9,14.11c.12-.52.25-1,.37-1.47ZM6.77,12.6,10,9.33l1.07,0L7.32,13.14,3.21,17.25c.09-.47.19-.93.28-1.37ZM8,13.83l4.44-4.44,1.05,0L8.55,14.37,2.69,20.22c.07-.44.14-.87.22-1.3Zm1.23,1.22L14.8,9.48l.45,0,.6,0L9.78,15.6,2.32,23.05l.15-1.24Zm1.23,1.23,6.7-6.7h.32l.74,0L11,16.83,2.08,25.75c0-.4.06-.79.1-1.19ZM2.54,26.65l9.15-9.14,7.85-7.86h1.07l-8.38,8.38L3.09,27.2,2,28.33c0-.38,0-.76,0-1.13ZM5,29.11,14.14,20l7-7V14l-6.49,6.49L5.55,29.65,2.08,33.12c0-.34-.05-.68-.07-1Zm1.23,1.23,9.14-9.15,5.81-5.8v1.09l-5.26,5.26L6.77,30.88,2.29,35.37c0-.33-.08-.66-.11-1Zm1.23,1.22,9.14-9.14,4.58-4.57v1.09l-4,4L8,32.11,2.56,37.55c0-.32-.09-.63-.13-1Zm1.22,1.23,9.15-9.14,3.35-3.35v1.09L18.37,24.2,9.23,33.34,2.89,39.68l-.15-.94ZM9.91,34l9.15-9.14,2.12-2.12v1.09L19.6,25.42l-9.14,9.15L3.27,41.76l-.18-.92Zm1.23,1.23,9.14-9.14.9-.9v1.1l-.35.34-9.14,9.14-8,8c-.06-.3-.13-.6-.19-.9Zm1.23,1.23,8.81-8.81v1.09L12.92,37l-8.8,8.8c-.07-.3-.14-.59-.2-.89ZM4.45,46.85l9.15-9.14,7.58-7.58v1.09l-7,7L5,47.39l-.44.44c-.06-.3-.13-.59-.2-.89Zm1.23,1.23,9.15-9.15,6.35-6.35v1.09l-5.81,5.81L6.23,48.62,5,49.83c-.07-.29-.14-.59-.2-.89Zm2.46,2.45,9.14-9.14,2.47-2.47c0,.32,0,.65,0,1V40l-1.89,1.9L8.68,51.08,5.91,53.86c-.07-.3-.13-.6-.2-.9Zm1.23,1.23,9.14-9.14,1.19-1.19c0,.36,0,.74-.06,1.14l-.58.59L9.91,52.31,6.33,55.89c-.06-.3-.12-.6-.19-.91ZM10.6,53l8.94-8.94c0,.42-.07.82-.1,1.19l-8.3,8.29-4.4,4.41L6.56,57Zm1.22,1.23,7.48-7.48v.1c0,.39-.06.75-.1,1.1l-6.82,6.82L7.13,60c-.06-.3-.12-.61-.17-.93Zm1.23,1.22,6-6c0,.37,0,.75-.06,1.15L13.6,56l-6.11,6.1c0-.3-.1-.61-.16-.93Zm1.23,1.23L19,52c0,.34,0,.7,0,1.1l-4.13,4.14-7,7c0-.31-.1-.62-.15-.95Zm1.23,1.23L19,54.45v1.09l-2.91,2.91-7.9,7.9c0-.31-.09-.62-.14-1Zm1.23,1.23L19,56.88c0,.34,0,.69,0,1.07l-1.73,1.72L8.42,68.54c0-.31-.07-.63-.12-1ZM8.82,69.5,18,60.36l1.1-1.1c0,.35,0,.69,0,1.05l-.59.59L9.37,70.05l-.74.73c0-.29-.05-.63-.08-1Zm1.23,1.23,9.12-9.12c0,.35,0,.69,0,1L10.6,71.27,8.75,73.12c0-.34,0-.69,0-1.05ZM11.28,72l8-8c0,.35,0,.7,0,1L11.82,72.5l-3.05,3V74.46Zm1.23,1.22,6.88-6.88c0,.36,0,.7.05,1l-6.39,6.38L8.69,78.09c0-.38,0-.76.05-1.14Zm1.22,1.23,5.75-5.74c0,.38,0,.74,0,1.08L14.28,75,8.54,80.69c0-.38.05-.77.08-1.16ZM15,75.64l4.49-4.49v.23c0,.35-.1.68-.14,1l-3.79,3.79L8.39,83.31l.06-1.16ZM8.34,87.18l9.08-9.08,1.33-1.34c0,.37-.05.75-.06,1.16l-.73.72L8.82,87.79l-.44.43C8.36,87.87,8.35,87.52,8.34,87.18Zm2.39,2.52,8-8c0,.34,0,.69,0,1l-7.46,7.46L8.9,92.62c-.05-.33-.1-.64-.14-1ZM12,90.92l6.85-6.85c0,.36,0,.71.05,1l-6.35,6.36L9.23,94.75l-.15-1Zm1.23,1.23,5.71-5.71c0,.38,0,.74,0,1.08L13.73,92.7,9.58,96.85c-.06-.31-.11-.62-.16-.93Zm1.23,1.23,4.46-4.47c0,.4,0,.78-.05,1.15L15,93.93l-5,5c0-.31-.1-.62-.16-.93Zm2.45,2.46,1.54-1.54c0,.1,0,.19,0,.29,0,.31-.08.64-.12,1l-.83.83-6.77,6.77-.15-.94Zm1.2,1.25c0,.39-.08.8-.12,1.21l-6.94,7c-.06-.31-.11-.62-.16-.93Zm-6.84,10.37,0,0a1.64,1.64,0,0,0,.15-.51,1.82,1.82,0,0,0-.05-.58l6.54-6.54V100c0,.29,0,.6-.06.91l-6.52,6.52Zm1.41,2.43L17.58,105c0,.37,0,.75,0,1.12l-4.36,4.37-1.27,1.27c0-.34-.07-.67-.1-1Zm1.23,1.23,3.8-3.8a4.32,4.32,0,0,0,.19.68v0l-.19.22a1.09,1.09,0,0,0-.18.33l-3.08,3.09L13,113a2.79,2.79,0,0,1-.83-.26Zm1.23,1.23,2.46-2.47,0,.24c0,.23,0,.46,0,.69V111l-1.91,1.9-.26.27h-1.1ZM33.39,107h0l.69-.38,0,.11-.7.28Z"/></g></g></svg>