<svg xmlns="http://www.w3.org/2000/svg" viewBox="-35.8 0 115.11 115.11"><defs><style>.cls-1{fill:#e2e2e2;}</style></defs><title>yoga-waist</title><g id="Layer_2" data-name="Layer 2"><g id="Layer_1-2" data-name="Layer 1"><polygon class="cls-1" points="17.68 108.25 17.68 108.25 17.68 108.25 17.68 108.25"/><polyline class="cls-1" points="34.94 74.88 34.94 74.87 34.94 74.88"/><polygon class="cls-1" points="24.76 114.08 24.75 114.08 24.75 114.08 24.76 114.08"/><polygon class="cls-1" points="23.68 108.1 23.68 108.1 23.68 108.09 23.68 108.1"/><polygon class="cls-1" points="19.68 108.8 19.68 108.81 19.68 108.81 19.68 108.8"/><polygon class="cls-1" points="32.17 114.51 32.17 114.51 32.17 114.51 32.17 114.51"/><path class="cls-1" d="M41.43,17h0l.77-.15A51.52,51.52,0,0,0,40,8.69a6.41,6.41,0,0,0-.37-.82,18.59,18.59,0,0,1-.94-3.18c-.16-.85-.25-1.66-.47-2.76l0-.15-.06-.15-.07-.14A2.46,2.46,0,0,0,36.92.54h0A7.1,7.1,0,0,0,35,.1h0C34.22,0,33.41,0,32.52,0c-3.23,0-7.45.35-10.75.35h0C18.44.35,14.22,0,11,0A19.54,19.54,0,0,0,7.86.19h0A5.8,5.8,0,0,0,6.59.54h0a2.46,2.46,0,0,0-1.15,1l-.07.13-.06.16,0,.15C5,3,5,3.84,4.79,4.69a17.52,17.52,0,0,1-.93,3.18,6.41,6.41,0,0,0-.37.82h0a52.92,52.92,0,0,0-2.17,8.15A66.82,66.82,0,0,0,0,29.54c0,.82,0,1.64.06,2.45.36,7.3,2.13,14,3.5,20.2A140.57,140.57,0,0,1,6.69,70.94c.11,1.42.15,2.72.15,3.94h0c0,4.14-.47,7.39-.47,11.09a36.33,36.33,0,0,0,.27,4.53c.42,3.37,1.22,7.84,1.94,12,.19,1.1.34,2.28.59,3.49h0a6.64,6.64,0,0,0,.2.66h0a1.62,1.62,0,0,0-.08.2,1.64,1.64,0,0,0-.09.54h0v0a1.68,1.68,0,0,0,.31,1l0,.17h0a4.3,4.3,0,0,0,.21,1.14h0a6.79,6.79,0,0,1,.15,1h0c.09.72.16,1.43.19,2.11l0,.17.05.18,0,.14a1.8,1.8,0,0,0,.37.54,3,3,0,0,0,.8.58,6.86,6.86,0,0,0,3.18.6h0a9.28,9.28,0,0,0,3.14-.36,2.85,2.85,0,0,0,1.09-.67,3.3,3.3,0,0,0,.63-.88l.07-.19.05-.22,0-.2c0-.49,0-1,0-1.39s0-.71,0-.93v-.06l0-.1h0a2.83,2.83,0,0,0,.08-.63v-.1l0-.24v-.06a3,3,0,0,0,.15-.26,1.54,1.54,0,0,0,.15-.69h0a2.38,2.38,0,0,0-.15-.77h0a3.72,3.72,0,0,1-.18-1.33h0c0-.5,0-1.08.06-1.7.05-1.37.11-2.75.2-4.12.17-2.57.44-4.41.67-6.3a50.18,50.18,0,0,0,.43-6.48c0-1.22,0-2.6-.14-4.2-.08-1.35-.12-2.5-.12-3.51a51.5,51.5,0,0,1,.77-8.06,14.41,14.41,0,0,0,.07-1.72c0-3.45-.48-9.91-.52-13.43,0-1,0-1.78,0-2.5,0-2.36.05-3.66.16-5s.26-2.79.46-5.35c.1-1.29.13-2.36.14-3.23s0-1.52.05-1.92h0l0-.19h0A13.26,13.26,0,0,1,21.84,40c0,.93,0,2.12.15,3.6.2,2.56.36,4,.46,5.35s.16,2.66.16,5c0,.72,0,1.55,0,2.5,0,3.52-.51,10-.52,13.42a14.15,14.15,0,0,0,.08,1.73,52.88,52.88,0,0,1,.77,8.06c0,1,0,2.16-.12,3.51-.1,1.6-.14,3-.14,4.2h0a50.14,50.14,0,0,0,.43,6.47c.23,1.89.5,3.73.67,6.3.09,1.37.15,2.75.2,4.12,0,.62.06,1.2.06,1.7h0a4,4,0,0,1-.18,1.33h0a2.64,2.64,0,0,0-.16.77h0a1.74,1.74,0,0,0,.16.7,1.18,1.18,0,0,0,.15.25v.07l0,.25v.09a2.83,2.83,0,0,0,.08.63h0l0,.1v.06c0,.21,0,.54,0,.93s0,.9,0,1.39l0,.2,0,.22.07.19a3.3,3.3,0,0,0,.63.88,3.26,3.26,0,0,0,1.73.85,12.3,12.3,0,0,0,2.5.18,6.89,6.89,0,0,0,3.18-.6,3,3,0,0,0,.8-.58,1.8,1.8,0,0,0,.37-.54l0-.13,0-.19,0-.17c0-.68.1-1.39.19-2.12a6.79,6.79,0,0,1,.15-1h0a3.62,3.62,0,0,0,.21-1.14h0l0-.17a1.62,1.62,0,0,0,.32-1v0h0a1.82,1.82,0,0,0-.1-.57l-.07-.17h0a6.64,6.64,0,0,0,.2-.66h0c.25-1.21.4-2.39.59-3.49.72-4.19,1.51-8.66,1.94-12A36.33,36.33,0,0,0,37.14,86c0-3.7-.47-7-.47-11.09h0c0-1.22,0-2.53.14-3.94A142.87,142.87,0,0,1,40,52.19c1.37-6.23,3.14-12.9,3.5-20.2,0-.81.06-1.63.06-2.45a67.64,67.64,0,0,0-1.31-12.7ZM34.94,74.88h0Zm-.06-4.08c-.11,1.47-.15,2.82-.15,4.08,0,4.3.47,7.58.47,11.1a34.22,34.22,0,0,1-.26,4.29c-.41,3.28-1.2,7.74-1.93,11.94-.2,1.16-.34,2.32-.57,3.43,0,.1-.08.24-.14.42a2.22,2.22,0,0,0-.14.7v.15a1.41,1.41,0,0,0,.15.51l-.12.12a1.17,1.17,0,0,0-.15.22.71.71,0,0,0-.06.31,1.73,1.73,0,0,0,.05.35l0,.21a2.13,2.13,0,0,1-.12.57,7.48,7.48,0,0,0-.23,1.35c-.08.68-.15,1.37-.18,2.08a4,4,0,0,1-2.54.54,8.06,8.06,0,0,1-2.48-.24,1.27,1.27,0,0,1-.4-.23,1.46,1.46,0,0,1-.18-.26c0-.4,0-.8,0-1.21s0-.62,0-1v-.14a3.07,3.07,0,0,0-.07-.45,1,1,0,0,1,0-.21h0l.06-.15a1.2,1.2,0,0,0,.12-.45,1,1,0,0,0-.23-.6,1.58,1.58,0,0,0-.19-.22v0a5.74,5.74,0,0,0,.32-2c0-.62-.06-1.21-.07-1.77,0-1.4-.12-2.79-.21-4.18-.17-2.65-.44-4.56-.67-6.42a47.14,47.14,0,0,1-.42-6.24c0-1.18,0-2.52.14-4.08.08-1.38.12-2.58.12-3.63a52.71,52.71,0,0,0-.79-8.29A12,12,0,0,1,24,69.89c0-3.32.47-9.78.52-13.4,0-1,0-1.8,0-2.54a96.48,96.48,0,0,0-.63-10.51c-.19-2.47-.09-4.07-.19-5.18a2.38,2.38,0,0,0-.52-1.44,1.51,1.51,0,0,0-.66-.41l-.22,0V9.68h1c3.65-.07,7.81-.35,11-.35.74,0,1.43,0,2,0l.58.05.52.05.46.08a3.71,3.71,0,0,1,.45.11,53.56,53.56,0,0,1,2,7.55,66,66,0,0,1,1.27,12.33c0,.79,0,1.58-.06,2.36-.35,7-2.07,13.59-3.46,19.87A144.29,144.29,0,0,0,34.88,70.8ZM21,36.41a1.56,1.56,0,0,0-.6.34,1.94,1.94,0,0,0-.51,1A14.42,14.42,0,0,0,19.72,40c0,.92,0,2.06-.13,3.47A96.51,96.51,0,0,0,19,54c0,.74,0,1.57,0,2.53.05,3.62.52,10.08.52,13.4a14.36,14.36,0,0,1,0,1.49,52.71,52.71,0,0,0-.79,8.29c0,1,0,2.25.12,3.63.1,1.56.14,2.9.14,4.08a47.14,47.14,0,0,1-.42,6.24c-.23,1.86-.5,3.77-.67,6.42-.09,1.39-.16,2.78-.21,4.18,0,.56-.07,1.15-.07,1.77a5.52,5.52,0,0,0,.32,2v0l-.19.22a1,1,0,0,0-.23.6,1.2,1.2,0,0,0,.12.45l.06.15h0a1,1,0,0,1,0,.21,3.07,3.07,0,0,0-.07.45v.14c0,.35,0,.69,0,1s0,.81,0,1.21a1.46,1.46,0,0,1-.18.26,1.54,1.54,0,0,1-.77.33,11.4,11.4,0,0,1-2.11.14,5.1,5.1,0,0,1-2.29-.39,1.08,1.08,0,0,1-.25-.16c0-.7-.1-1.39-.18-2.07a7.48,7.48,0,0,0-.23-1.35,1.79,1.79,0,0,1-.12-.57l0-.21a1.73,1.73,0,0,0,0-.35.74.74,0,0,0-.26-.58l-.07-.07a1.56,1.56,0,0,0,.15-.51v-.15a2.54,2.54,0,0,0-.14-.7c-.06-.18-.12-.32-.14-.42-.23-1.11-.38-2.27-.57-3.43C9.77,98,9,93.55,8.57,90.27A34.22,34.22,0,0,1,8.31,86c0-3.52.47-6.8.47-11.1,0-1.26,0-2.61-.15-4.08a144.29,144.29,0,0,0-3.17-19C4.06,45.49,2.35,38.94,2,31.9c0-.78-.06-1.57-.06-2.36A66,66,0,0,1,3.21,17.21a53.56,53.56,0,0,1,2-7.55l.07,0a8.73,8.73,0,0,1,1.36-.21c.74-.07,1.63-.1,2.62-.1,1.36,0,2.9,0,4.5.12,2.47.1,5.08.22,7.43.24V36.36ZM7.14,2.45a.88.88,0,0,1,.22-.13,5,5,0,0,1,1.23-.27L6.92,3.71C7,3.31,7.05,2.9,7.14,2.45ZM10,2l1,0h.16L6.26,6.83c.16-.54.28-1,.37-1.46Zm26.77,3.1c0,.18.08.38.12.58l-.27.27L34.4,8.17H33.3l2.81-2.8.64-.64Zm0,3.19c-.32,0-.66-.05-1-.06l1.47-1.47c.08.26.16.54.26.83ZM35.43,4.68,31.91,8.21l-1.13,0,4.1-4.1L36.4,2.62c.06.33.11.63.16.93ZM34.2,3.45,29.36,8.29l-1.14.05,5.44-5.43L34.55,2c.28,0,.55,0,.78.09l.18,0ZM33,2.23,26.8,8.4l-1.13,0L32.16,2h1.09ZM24.26,8.49l-1.12,0L29.64,2l1.13,0Zm-2.5,0H20.68l.15-.15,6.24-6.24,1.15-.06Zm-1.61-.85-.81.81-1.06,0L19.6,7.14l4.9-4.9,1.14-.05ZM18.92,6.46l-2,2-1,0,2.45-2.46L22,2.29H23.1ZM17.69,5.23,14.61,8.31l-1,0,3.59-3.59,2.42-2.43,1.07,0ZM16.46,4,12.24,8.22l-1.06,0,4.74-4.74,1.29-1.29,1.05,0ZM15.23,2.77,9.84,8.17H8.74l5.95-5.94.17-.18,1.05.05ZM7.33,8.22l-.8,0-.39.05L12.49,2l1.06,0Z"/><polygon class="cls-1" points="18.75 114.08 18.75 114.08 18.75 114.08 18.75 114.08"/><polygon class="cls-1" points="11.34 114.51 11.34 114.51 11.34 114.51 11.34 114.51"/></g></g></svg>